<?xml version="1.0" encoding="UTF-8" standalone="no"?>
<svg
   width="408.099375pt"
   height="295.907pt"
   viewBox="0 0 408.099375 295.907"
   version="1.1"
   id="svg3082"
   sodipodi:docname="pifo-performance.svg"
   inkscape:version="1.2.1 (9c6d41e410, 2022-07-14, custom)"
   xmlns:inkscape="http://www.inkscape.org/namespaces/inkscape"
   xmlns:sodipodi="http://sodipodi.sourceforge.net/DTD/sodipodi-0.dtd"
   xmlns:xlink="http://www.w3.org/1999/xlink"
   xmlns="http://www.w3.org/2000/svg"
   xmlns:svg="http://www.w3.org/2000/svg"
   xmlns:rdf="http://www.w3.org/1999/02/22-rdf-syntax-ns#"
   xmlns:cc="http://creativecommons.org/ns#"
   xmlns:dc="http://purl.org/dc/elements/1.1/">
  <sodipodi:namedview
     id="namedview3084"
     pagecolor="#ffffff"
     bordercolor="#666666"
     borderopacity="1.0"
     inkscape:showpageshadow="2"
     inkscape:pageopacity="0.0"
     inkscape:pagecheckerboard="0"
     inkscape:deskcolor="#d1d1d1"
     inkscape:document-units="pt"
     showgrid="false"
     inkscape:zoom="1.5379855"
     inkscape:cx="352.08394"
     inkscape:cy="257.80477"
     inkscape:window-width="1920"
     inkscape:window-height="1164"
     inkscape:window-x="0"
     inkscape:window-y="0"
     inkscape:window-maximized="1"
     inkscape:current-layer="svg3082" />
  <metadata
     id="metadata2742">
    <rdf:RDF>
      <cc:Work>
        <dc:type
           rdf:resource="http://purl.org/dc/dcmitype/StillImage" />
        <dc:date>2022-09-09T11:15:16.321227</dc:date>
        <dc:format>image/svg+xml</dc:format>
        <dc:creator>
          <cc:Agent>
            <dc:title>Matplotlib v3.5.2, https://matplotlib.org/</dc:title>
          </cc:Agent>
        </dc:creator>
      </cc:Work>
    </rdf:RDF>
  </metadata>
  <defs
     id="defs2746">
    <style
       type="text/css"
       id="style2744">*{stroke-linejoin: round; stroke-linecap: butt}</style>
    <marker
       style="overflow:visible"
       id="Stop"
       refX="0"
       refY="0"
       orient="auto"
       inkscape:stockid="Stop"
       markerWidth="1"
       markerHeight="8"
       viewBox="0 0 1 8"
       inkscape:isstock="true"
       inkscape:collect="always"
       preserveAspectRatio="xMidYMid">
      <path
         style="fill:none;stroke:context-stroke;stroke-width:1"
         d="M 0,4 V -4"
         id="path171" />
    </marker>
    <marker
       style="overflow:visible"
       id="marker1343"
       refX="0"
       refY="0"
       orient="auto"
       inkscape:stockid="Stop"
       markerWidth="1"
       markerHeight="8"
       viewBox="0 0 1 8"
       inkscape:isstock="true"
       inkscape:collect="always"
       preserveAspectRatio="xMidYMid">
      <path
         style="fill:none;stroke:context-stroke;stroke-width:1"
         d="M 0,4 V -4"
         id="path1341" />
    </marker>
    <marker
       style="overflow:visible"
       id="Stop-9"
       refX="0"
       refY="0"
       orient="auto"
       inkscape:stockid="Stop"
       markerWidth="1"
       markerHeight="8"
       viewBox="0 0 1 8"
       inkscape:isstock="true"
       inkscape:collect="always"
       preserveAspectRatio="xMidYMid">
      <path
         style="fill:none;stroke:context-stroke;stroke-width:1"
         d="M 0,4 V -4"
         id="path171-7" />
    </marker>
    <marker
       style="overflow:visible"
       id="marker1343-3"
       refX="0"
       refY="0"
       orient="auto"
       inkscape:stockid="Stop"
       markerWidth="1"
       markerHeight="8"
       viewBox="0 0 1 8"
       inkscape:isstock="true"
       inkscape:collect="always"
       preserveAspectRatio="xMidYMid">
      <path
         style="fill:none;stroke:context-stroke;stroke-width:1"
         d="M 0,4 V -4"
         id="path1341-6" />
    </marker>
    <marker
       style="overflow:visible"
       id="Stop-3"
       refX="0"
       refY="0"
       orient="auto"
       inkscape:stockid="Stop"
       markerWidth="1"
       markerHeight="8"
       viewBox="0 0 1 8"
       inkscape:isstock="true"
       inkscape:collect="always"
       preserveAspectRatio="xMidYMid">
      <path
         style="fill:none;stroke:context-stroke;stroke-width:1"
         d="M 0,4 V -4"
         id="path171-1" />
    </marker>
    <marker
       style="overflow:visible"
       id="marker1343-9"
       refX="0"
       refY="0"
       orient="auto"
       inkscape:stockid="Stop"
       markerWidth="1"
       markerHeight="8"
       viewBox="0 0 1 8"
       inkscape:isstock="true"
       inkscape:collect="always"
       preserveAspectRatio="xMidYMid">
      <path
         style="fill:none;stroke:context-stroke;stroke-width:1"
         d="M 0,4 V -4"
         id="path1341-4" />
    </marker>
  </defs>
  <g
     id="figure_1">
    <g
       id="patch_1">
      <path
         d="M 0 295.907  L 408.099375 295.907  L 408.099375 0  L 0 0  z "
         style="fill: #ffffff"
         id="path2748" />
    </g>
    <g
       id="axes_1">
      <g
         id="patch_2">
        <path
           d="M 43.779375 273.312  L 400.899375 273.312  L 400.899375 7.2  L 43.779375 7.2  z "
           style="fill: #e6e6e6"
           id="path2751" />
      </g>
      <g
         id="matplotlib.axis_1">
        <g
           id="xtick_1">
          <g
             id="line2d_1">
            <path
               d="M 94.186265 273.312  L 94.186265 7.2  "
               clip-path="url(#p2cab1e0719)"
               style="fill: none; stroke: #ffffff; stroke-linecap: round"
               id="path2754" />
          </g>
          <g
             id="line2d_2" />
          <g
             id="text_1">
            <!-- Baseline redirect -->
            <g
               transform="translate(52.663452 285.8945)scale(0.12 -0.12)"
               id="g2806">
              <defs
                 id="defs2770">
                <path
                   id="GentiumBasic-42"
                   d="M 1291 3769  Q 1247 3769 1201 3767  Q 1156 3766 1109 3763  L 1109 2266  L 1216 2266  Q 1572 2266 1792 2336  Q 2013 2406 2134 2515  Q 2256 2625 2300 2762  Q 2344 2900 2344 3034  Q 2344 3191 2292 3325  Q 2241 3459 2119 3557  Q 1997 3656 1795 3712  Q 1594 3769 1291 3769  z M 1625 2031  Q 1475 2031 1348 2017  Q 1222 2003 1109 1984  L 1109 325  Q 1109 300 1138 278  Q 1191 259 1259 248  Q 1328 238 1400 231  Q 1472 225 1544 222  Q 1616 219 1678 219  Q 1903 219 2084 276  Q 2266 334 2395 437  Q 2525 541 2594 686  Q 2663 831 2663 1006  Q 2663 1178 2602 1359  Q 2541 1541 2414 1691  Q 2288 1841 2092 1936  Q 1897 2031 1625 2031  z M 3175 1113  Q 3175 847 3070 633  Q 2966 419 2777 269  Q 2588 119 2325 37  Q 2063 -44 1747 -44  Q 1678 -44 1583 -42  Q 1488 -41 1378 -37  Q 1269 -34 1153 -31  Q 1038 -28 928 -22  Q 669 -13 384 0  L 156 0  L 156 134  Q 369 178 489 229  Q 609 281 609 325  L 609 3719  Q 491 3703 377 3686  Q 263 3669 156 3650  L 128 3844  Q 250 3878 411 3911  Q 572 3944 750 3970  Q 928 3997 1112 4014  Q 1297 4031 1466 4031  Q 1778 4031 2031 3973  Q 2284 3916 2461 3806  Q 2638 3697 2733 3540  Q 2828 3384 2828 3188  Q 2828 2850 2668 2608  Q 2509 2366 2234 2259  Q 2434 2222 2606 2119  Q 2778 2016 2904 1864  Q 3031 1713 3103 1520  Q 3175 1328 3175 1113  z "
                   transform="scale(0.015625)" />
                <path
                   id="GentiumBasic-61"
                   d="M 1100 313  Q 1288 313 1498 408  Q 1709 503 1947 709  L 1947 1519  Q 1684 1475 1514 1434  Q 1344 1394 1234 1351  Q 1125 1309 1059 1262  Q 994 1216 944 1163  Q 863 1078 813 970  Q 763 863 763 716  Q 763 591 800 512  Q 838 434 891 389  Q 944 344 1001 328  Q 1059 313 1100 313  z M 2894 256  Q 2628 72 2454 -11  Q 2281 -94 2194 -94  Q 2091 -94 2022 50  Q 1953 194 1947 447  Q 1806 306 1665 203  Q 1525 100 1390 34  Q 1256 -31 1136 -62  Q 1016 -94 916 -94  Q 803 -94 684 -56  Q 566 -19 470 62  Q 375 144 312 272  Q 250 400 250 581  Q 250 819 333 978  Q 416 1138 531 1253  Q 606 1328 701 1395  Q 797 1463 955 1525  Q 1113 1588 1350 1644  Q 1588 1700 1947 1753  L 1947 2194  Q 1947 2300 1922 2392  Q 1897 2484 1837 2551  Q 1778 2619 1676 2655  Q 1575 2691 1422 2688  Q 1322 2684 1225 2653  Q 1128 2622 1056 2565  Q 984 2509 943 2432  Q 903 2356 913 2263  Q 916 2234 848 2198  Q 781 2163 689 2134  Q 597 2106 508 2090  Q 419 2075 381 2084  L 338 2206  Q 409 2363 556 2506  Q 703 2650 892 2759  Q 1081 2869 1292 2934  Q 1503 3000 1700 3000  Q 2044 3000 2230 2820  Q 2416 2641 2416 2319  L 2416 556  Q 2416 425 2450 369  Q 2484 313 2541 313  Q 2584 313 2653 328  Q 2722 344 2847 397  L 2894 256  z "
                   transform="scale(0.015625)" />
                <path
                   id="GentiumBasic-73"
                   d="M 2188 884  Q 2188 663 2125 505  Q 2063 347 1963 237  Q 1863 128 1741 62  Q 1619 -3 1500 -37  Q 1381 -72 1276 -83  Q 1172 -94 1113 -94  Q 963 -94 752 -37  Q 541 19 331 134  Q 309 144 301 236  Q 294 328 298 448  Q 303 569 317 691  Q 331 813 353 884  L 488 850  Q 494 719 556 603  Q 619 488 723 403  Q 828 319 967 269  Q 1106 219 1269 219  Q 1381 219 1475 255  Q 1569 291 1637 355  Q 1706 419 1743 509  Q 1781 600 1781 709  Q 1781 834 1714 931  Q 1647 1028 1537 1108  Q 1428 1188 1289 1258  Q 1150 1328 1006 1403  Q 875 1469 753 1544  Q 631 1619 536 1712  Q 441 1806 383 1922  Q 325 2038 325 2188  Q 325 2381 403 2532  Q 481 2684 611 2787  Q 741 2891 908 2945  Q 1075 3000 1253 3000  Q 1350 3000 1467 2983  Q 1584 2966 1698 2934  Q 1813 2903 1913 2859  Q 2013 2816 2075 2759  Q 2094 2741 2080 2675  Q 2066 2609 2036 2531  Q 2006 2453 1972 2384  Q 1938 2316 1919 2291  L 1797 2316  Q 1647 2541 1486 2630  Q 1325 2719 1172 2719  Q 1069 2719 987 2684  Q 906 2650 848 2595  Q 791 2541 761 2475  Q 731 2409 731 2344  Q 731 2244 790 2164  Q 850 2084 947 2014  Q 1044 1944 1167 1880  Q 1291 1816 1422 1747  Q 1556 1678 1693 1600  Q 1831 1522 1940 1420  Q 2050 1319 2119 1189  Q 2188 1059 2188 884  z "
                   transform="scale(0.015625)" />
                <path
                   id="GentiumBasic-65"
                   d="M 1550 2672  Q 1388 2672 1252 2609  Q 1116 2547 1011 2433  Q 906 2319 836 2161  Q 766 2003 738 1813  L 2075 1813  Q 2147 1813 2170 1836  Q 2194 1859 2194 1925  Q 2194 2009 2170 2136  Q 2147 2263 2076 2383  Q 2006 2503 1879 2587  Q 1753 2672 1550 2672  z M 2706 1741  Q 2650 1678 2556 1625  Q 2463 1572 2363 1531  L 719 1531  Q 722 1288 786 1067  Q 850 847 970 680  Q 1091 513 1261 413  Q 1431 313 1644 313  Q 1741 313 1833 325  Q 1925 338 2031 381  Q 2138 425 2267 509  Q 2397 594 2572 738  Q 2613 716 2642 675  Q 2672 634 2688 609  Q 2478 381 2320 242  Q 2163 103 2023 28  Q 1884 -47 1748 -70  Q 1613 -94 1453 -94  Q 1213 -94 995 9  Q 778 113 612 302  Q 447 491 348 758  Q 250 1025 250 1356  Q 250 1566 297 1769  Q 344 1972 433 2153  Q 522 2334 650 2487  Q 778 2641 941 2753  Q 1009 2800 1095 2845  Q 1181 2891 1275 2925  Q 1369 2959 1461 2979  Q 1553 3000 1638 3000  Q 1841 3000 2000 2944  Q 2159 2888 2278 2792  Q 2397 2697 2478 2570  Q 2559 2444 2611 2303  Q 2663 2163 2684 2017  Q 2706 1872 2706 1741  z "
                   transform="scale(0.015625)" />
                <path
                   id="GentiumBasic-6c"
                   d="M 188 0  L 188 134  Q 322 156 412 179  Q 503 203 556 226  Q 609 250 632 275  Q 656 300 656 325  L 656 4050  Q 656 4191 637 4269  Q 619 4347 569 4386  Q 519 4425 434 4439  Q 350 4453 219 4469  L 219 4594  Q 444 4638 631 4691  Q 819 4744 1013 4844  L 1125 4738  L 1125 325  Q 1125 278 1231 228  Q 1338 178 1594 134  L 1594 0  L 188 0  z "
                   transform="scale(0.015625)" />
                <path
                   id="GentiumBasic-69"
                   d="M 219 0  L 219 134  Q 431 178 543 229  Q 656 281 656 325  L 656 2094  Q 656 2253 650 2351  Q 644 2450 603 2504  Q 563 2559 473 2584  Q 384 2609 219 2625  L 219 2750  Q 316 2769 423 2795  Q 531 2822 637 2855  Q 744 2888 841 2925  Q 938 2963 1019 3000  L 1125 3000  L 1125 325  Q 1125 288 1229 233  Q 1334 178 1563 134  L 1563 0  L 219 0  z M 1219 3941  Q 1219 3853 1191 3775  Q 1163 3697 1114 3639  Q 1066 3581 1000 3547  Q 934 3513 856 3513  Q 716 3513 655 3591  Q 594 3669 594 3813  Q 594 3900 622 3978  Q 650 4056 700 4114  Q 750 4172 814 4205  Q 878 4238 953 4238  Q 1219 4238 1219 3941  z "
                   transform="scale(0.015625)" />
                <path
                   id="GentiumBasic-6e"
                   d="M 2094 0  L 2094 134  Q 2319 194 2425 237  Q 2531 281 2531 325  L 2531 1978  Q 2531 2169 2509 2287  Q 2488 2406 2441 2475  Q 2394 2544 2317 2569  Q 2241 2594 2131 2594  Q 2034 2594 1915 2547  Q 1797 2500 1661 2397  Q 1525 2294 1376 2126  Q 1228 1959 1078 1716  L 1078 325  Q 1078 278 1195 228  Q 1313 178 1516 134  L 1516 0  L 172 0  L 172 134  Q 378 188 493 230  Q 609 272 609 325  L 609 2222  Q 609 2344 600 2416  Q 591 2488 548 2528  Q 506 2569 418 2587  Q 331 2606 172 2625  L 172 2750  Q 384 2784 565 2848  Q 747 2913 922 3000  L 1031 2891  L 1066 2113  Q 1203 2322 1368 2486  Q 1534 2650 1703 2764  Q 1872 2878 2030 2939  Q 2188 3000 2309 3000  Q 2444 3000 2569 2959  Q 2694 2919 2789 2834  Q 2884 2750 2942 2620  Q 3000 2491 3000 2316  L 3000 325  Q 3000 281 3095 239  Q 3191 197 3438 134  L 3438 0  L 2094 0  z "
                   transform="scale(0.015625)" />
                <path
                   id="GentiumBasic-20"
                   transform="scale(0.015625)" />
                <path
                   id="GentiumBasic-72"
                   d="M 2406 2884  Q 2434 2866 2432 2775  Q 2431 2684 2407 2565  Q 2384 2447 2346 2322  Q 2309 2197 2272 2113  L 2138 2113  Q 2119 2238 2084 2325  Q 2050 2413 2004 2464  Q 1959 2516 1904 2539  Q 1850 2563 1791 2563  Q 1722 2563 1630 2505  Q 1538 2447 1441 2323  Q 1344 2200 1248 2008  Q 1153 1816 1078 1550  L 1078 325  Q 1078 278 1195 228  Q 1313 178 1606 134  L 1606 0  L 172 0  L 172 134  Q 378 181 493 226  Q 609 272 609 325  L 609 2144  Q 609 2247 603 2317  Q 597 2388 587 2431  Q 578 2475 564 2500  Q 550 2525 538 2541  Q 516 2563 489 2577  Q 463 2591 420 2600  Q 378 2609 318 2614  Q 259 2619 172 2625  L 172 2750  Q 375 2803 570 2858  Q 766 2913 922 3000  L 1031 2891  L 1072 2181  Q 1156 2353 1254 2503  Q 1353 2653 1465 2764  Q 1578 2875 1701 2937  Q 1825 3000 1959 3000  Q 2059 3000 2175 2975  Q 2291 2950 2406 2884  z "
                   transform="scale(0.015625)" />
                <path
                   id="GentiumBasic-64"
                   d="M 3284 263  Q 3141 166 3030 98  Q 2919 31 2836 -11  Q 2753 -53 2693 -73  Q 2634 -94 2591 -94  Q 2488 -94 2422 47  Q 2356 188 2334 528  Q 2216 384 2098 268  Q 1981 153 1857 73  Q 1734 -6 1596 -50  Q 1459 -94 1300 -94  Q 1125 -94 940 7  Q 756 109 601 300  Q 447 491 348 766  Q 250 1041 250 1388  Q 250 1566 298 1756  Q 347 1947 437 2125  Q 528 2303 659 2462  Q 791 2622 953 2742  Q 1116 2863 1309 2931  Q 1503 3000 1722 3000  Q 1869 3000 2014 2964  Q 2159 2928 2328 2803  L 2328 3981  Q 2328 4153 2318 4254  Q 2309 4356 2265 4411  Q 2222 4466 2131 4486  Q 2041 4506 1875 4519  L 1875 4641  Q 2131 4675 2334 4733  Q 2538 4791 2700 4844  L 2797 4750  L 2797 794  Q 2797 684 2801 606  Q 2806 528 2815 475  Q 2825 422 2837 387  Q 2850 353 2869 331  Q 2897 297 2976 311  Q 3056 325 3244 397  L 3284 263  z M 2328 816  L 2328 2281  Q 2225 2459 2037 2557  Q 1850 2656 1625 2656  Q 1425 2656 1259 2582  Q 1094 2509 973 2362  Q 853 2216 786 1997  Q 719 1778 719 1484  Q 719 1219 795 1001  Q 872 784 990 631  Q 1109 478 1251 395  Q 1394 313 1522 313  Q 1628 313 1731 356  Q 1834 400 1934 470  Q 2034 541 2132 631  Q 2231 722 2328 816  z "
                   transform="scale(0.015625)" />
                <path
                   id="GentiumBasic-63"
                   d="M 2625 594  Q 2422 353 2267 217  Q 2113 81 1981 11  Q 1850 -59 1725 -76  Q 1600 -94 1453 -94  Q 1225 -94 1008 7  Q 791 109 622 300  Q 453 491 351 766  Q 250 1041 250 1388  Q 250 1725 373 2019  Q 497 2313 711 2530  Q 925 2747 1215 2873  Q 1506 3000 1844 3000  Q 1947 3000 2055 2983  Q 2163 2966 2261 2933  Q 2359 2900 2442 2854  Q 2525 2809 2578 2753  Q 2584 2716 2568 2647  Q 2553 2578 2525 2501  Q 2497 2425 2462 2354  Q 2428 2284 2400 2241  L 2284 2272  Q 2259 2328 2203 2393  Q 2147 2459 2058 2518  Q 1969 2578 1845 2617  Q 1722 2656 1563 2656  Q 1397 2656 1245 2582  Q 1094 2509 976 2362  Q 859 2216 789 1997  Q 719 1778 719 1484  Q 719 1219 798 1001  Q 878 784 1011 631  Q 1144 478 1317 395  Q 1491 313 1678 313  Q 1766 313 1841 320  Q 1916 328 2005 368  Q 2094 409 2211 490  Q 2328 572 2503 722  L 2625 594  z "
                   transform="scale(0.015625)" />
                <path
                   id="GentiumBasic-74"
                   d="M 2113 366  Q 1959 253 1809 167  Q 1659 81 1523 23  Q 1388 -34 1272 -64  Q 1156 -94 1075 -94  Q 966 -94 867 -53  Q 769 -13 694 79  Q 619 172 575 322  Q 531 472 531 691  L 531 2609  L 128 2609  L 63 2697  L 306 2906  L 531 2906  L 531 3675  L 903 4000  L 1000 3922  L 1000 2906  L 2022 2906  L 2113 2816  Q 2084 2772 2042 2722  Q 2000 2672 1956 2628  Q 1913 2584 1870 2548  Q 1828 2513 1797 2500  Q 1722 2538 1569 2573  Q 1416 2609 1163 2609  L 1000 2609  L 1000 959  Q 1000 772 1017 647  Q 1034 522 1075 448  Q 1116 375 1180 344  Q 1244 313 1338 313  Q 1447 313 1612 356  Q 1778 400 2022 525  L 2113 366  z "
                   transform="scale(0.015625)" />
              </defs>
              <use
                 xlink:href="#GentiumBasic-42"
                 id="use2772" />
              <use
                 xlink:href="#GentiumBasic-61"
                 x="54.980469"
                 id="use2774" />
              <use
                 xlink:href="#GentiumBasic-73"
                 x="100.878906"
                 id="use2776" />
              <use
                 xlink:href="#GentiumBasic-65"
                 x="139.501953"
                 id="use2778" />
              <use
                 xlink:href="#GentiumBasic-6c"
                 x="185.693359"
                 id="use2780" />
              <use
                 xlink:href="#GentiumBasic-69"
                 x="212.792969"
                 id="use2782" />
              <use
                 xlink:href="#GentiumBasic-6e"
                 x="239.892578"
                 id="use2784" />
              <use
                 xlink:href="#GentiumBasic-65"
                 x="295.068359"
                 id="use2786" />
              <use
                 xlink:href="#GentiumBasic-20"
                 x="341.259766"
                 id="use2788" />
              <use
                 xlink:href="#GentiumBasic-72"
                 x="363.28125"
                 id="use2790" />
              <use
                 xlink:href="#GentiumBasic-65"
                 x="402.880859"
                 id="use2792" />
              <use
                 xlink:href="#GentiumBasic-64"
                 x="449.072266"
                 id="use2794" />
              <use
                 xlink:href="#GentiumBasic-69"
                 x="501.074219"
                 id="use2796" />
              <use
                 xlink:href="#GentiumBasic-72"
                 x="528.173828"
                 id="use2798" />
              <use
                 xlink:href="#GentiumBasic-65"
                 x="567.773438"
                 id="use2800" />
              <use
                 xlink:href="#GentiumBasic-63"
                 x="613.964844"
                 id="use2802" />
              <use
                 xlink:href="#GentiumBasic-74"
                 x="657.666016"
                 id="use2804" />
            </g>
          </g>
        </g>
        <g
           id="xtick_2">
          <g
             id="line2d_3">
            <path
               d="M 179.621672 273.312  L 179.621672 7.2  "
               clip-path="url(#p2cab1e0719)"
               style="fill: none; stroke: #ffffff; stroke-linecap: round"
               id="path2810" />
          </g>
          <g
             id="line2d_4" />
          <g
             id="text_2">
            <!-- FIFO -->
            <g
               transform="translate(168.498234 285.8945)scale(0.12 -0.12)"
               id="g2827">
              <defs
                 id="defs2817">
                <path
                   id="GentiumBasic-46"
                   d="M 156 0  L 156 134  Q 369 178 489 229  Q 609 281 609 325  L 609 3609  Q 609 3647 495 3703  Q 381 3759 156 3803  L 156 3938  L 2706 3938  L 2803 3859  Q 2800 3778 2787 3681  Q 2775 3584 2758 3487  Q 2741 3391 2720 3303  Q 2700 3216 2681 3156  L 2534 3156  Q 2528 3300 2511 3397  Q 2494 3494 2461 3551  Q 2428 3609 2383 3632  Q 2338 3656 2278 3656  L 1109 3656  L 1109 2297  L 2278 2297  L 2369 2209  Q 2341 2166 2303 2116  Q 2266 2066 2225 2017  Q 2184 1969 2145 1928  Q 2106 1888 2075 1863  Q 2028 1909 1975 1940  Q 1922 1972 1851 1994  Q 1781 2016 1686 2025  Q 1591 2034 1459 2034  L 1109 2034  L 1109 325  Q 1109 288 1229 241  Q 1350 194 1656 134  L 1656 0  L 156 0  z "
                   transform="scale(0.015625)" />
                <path
                   id="GentiumBasic-49"
                   d="M 219 0  L 219 134  Q 431 178 551 229  Q 672 281 672 325  L 672 3609  Q 672 3647 558 3703  Q 444 3759 219 3803  L 219 3938  L 1625 3938  L 1625 3803  Q 1413 3759 1292 3706  Q 1172 3653 1172 3609  L 1172 325  Q 1172 288 1286 233  Q 1400 178 1625 134  L 1625 0  L 219 0  z "
                   transform="scale(0.015625)" />
                <path
                   id="GentiumBasic-4f"
                   d="M 3072 1966  Q 3072 2181 3033 2392  Q 2994 2603 2922 2792  Q 2850 2981 2745 3142  Q 2641 3303 2509 3420  Q 2378 3538 2222 3605  Q 2066 3672 1888 3672  Q 1609 3672 1389 3555  Q 1169 3438 1017 3220  Q 866 3003 784 2693  Q 703 2384 703 2003  Q 703 1653 798 1340  Q 894 1028 1055 792  Q 1216 556 1431 418  Q 1647 281 1888 281  Q 2147 281 2364 389  Q 2581 497 2739 709  Q 2897 922 2984 1237  Q 3072 1553 3072 1966  z M 3556 2022  Q 3556 1597 3415 1214  Q 3275 831 3033 540  Q 2791 250 2472 78  Q 2153 -94 1797 -94  Q 1422 -94 1128 72  Q 834 238 632 516  Q 431 794 325 1156  Q 219 1519 219 1913  Q 219 2338 356 2722  Q 494 3106 731 3397  Q 969 3688 1289 3859  Q 1609 4031 1978 4031  Q 2366 4031 2659 3861  Q 2953 3691 3153 3409  Q 3353 3128 3454 2765  Q 3556 2403 3556 2022  z "
                   transform="scale(0.015625)" />
              </defs>
              <use
                 xlink:href="#GentiumBasic-46"
                 id="use2819" />
              <use
                 xlink:href="#GentiumBasic-49"
                 x="47.802734"
                 id="use2821" />
              <use
                 xlink:href="#GentiumBasic-46"
                 x="77.587891"
                 id="use2823" />
              <use
                 xlink:href="#GentiumBasic-4f"
                 x="125.390625"
                 id="use2825" />
            </g>
          </g>
        </g>
        <g
           id="xtick_3">
          <g
             id="line2d_5">
            <path
               d="M 265.057078 273.312  L 265.057078 7.2  "
               clip-path="url(#p2cab1e0719)"
               style="fill: none; stroke: #ffffff; stroke-linecap: round"
               id="path2831" />
          </g>
          <g
             id="line2d_6" />
          <g
             id="text_3">
            <!-- PIFO -->
            <g
               transform="translate(253.663641 285.8945)scale(0.12 -0.12)"
               id="g2846">
              <defs
                 id="defs2836">
                <path
                   id="GentiumBasic-50"
                   d="M 156 0  L 156 134  Q 369 178 489 229  Q 609 281 609 325  L 609 3719  Q 494 3703 380 3686  Q 266 3669 156 3650  L 128 3844  Q 278 3884 454 3918  Q 631 3953 822 3978  Q 1013 4003 1208 4017  Q 1403 4031 1594 4031  Q 1931 4031 2203 3959  Q 2475 3888 2667 3747  Q 2859 3606 2964 3400  Q 3069 3194 3069 2925  Q 3069 2709 3008 2531  Q 2947 2353 2845 2214  Q 2744 2075 2612 1973  Q 2481 1872 2339 1805  Q 2197 1738 2055 1705  Q 1913 1672 1791 1672  Q 1497 1672 1288 1766  L 1216 2000  Q 1347 1941 1467 1923  Q 1588 1906 1697 1906  Q 1841 1906 1997 1962  Q 2153 2019 2284 2131  Q 2416 2244 2500 2409  Q 2584 2575 2584 2797  Q 2584 3053 2492 3237  Q 2400 3422 2240 3539  Q 2081 3656 1868 3712  Q 1656 3769 1416 3769  Q 1338 3769 1261 3767  Q 1184 3766 1109 3763  L 1109 325  Q 1109 306 1134 284  Q 1159 263 1220 238  Q 1281 213 1387 188  Q 1494 163 1656 134  L 1656 0  L 156 0  z "
                   transform="scale(0.015625)" />
              </defs>
              <use
                 xlink:href="#GentiumBasic-50"
                 id="use2838" />
              <use
                 xlink:href="#GentiumBasic-49"
                 x="52.294922"
                 id="use2840" />
              <use
                 xlink:href="#GentiumBasic-46"
                 x="82.080078"
                 id="use2842" />
              <use
                 xlink:href="#GentiumBasic-4f"
                 x="129.882812"
                 id="use2844" />
            </g>
          </g>
        </g>
        <g
           id="xtick_4">
          <g
             id="line2d_7">
            <path
               d="M 350.492485 273.312  L 350.492485 7.2  "
               clip-path="url(#p2cab1e0719)"
               style="fill: none; stroke: #ffffff; stroke-linecap: round"
               id="path2850" />
          </g>
          <g
             id="line2d_8" />
          <g
             id="text_4">
            <!-- RB-tree -->
            <g
               transform="translate(331.822173 285.8945)scale(0.12 -0.12)"
               id="g2872">
              <defs
                 id="defs2856">
                <path
                   id="GentiumBasic-52"
                   d="M 156 0  L 156 134  Q 369 178 489 229  Q 609 281 609 325  L 609 3716  Q 500 3700 386 3683  Q 272 3666 156 3650  L 128 3844  Q 275 3881 425 3914  Q 575 3947 737 3973  Q 900 4000 1079 4015  Q 1259 4031 1466 4031  Q 1828 4031 2097 3959  Q 2366 3888 2544 3759  Q 2722 3631 2809 3457  Q 2897 3284 2897 3084  Q 2897 2859 2833 2676  Q 2769 2494 2651 2353  Q 2534 2213 2371 2113  Q 2209 2013 2016 1953  L 2963 434  Q 3009 366 3064 325  Q 3119 284 3186 264  Q 3253 244 3336 242  Q 3419 241 3525 250  L 3559 116  Q 3353 47 3167 1  Q 2981 -44 2859 -44  Q 2769 -44 2683 6  Q 2597 56 2553 128  L 1606 1881  Q 1566 1875 1525 1875  L 1441 1875  Q 1359 1875 1278 1883  Q 1197 1891 1109 1909  L 1109 325  Q 1109 288 1221 233  Q 1334 178 1563 134  L 1563 0  L 156 0  z M 1350 3769  Q 1231 3769 1109 3759  L 1109 2159  Q 1194 2144 1256 2141  Q 1319 2138 1388 2138  Q 1881 2138 2147 2355  Q 2413 2572 2413 2988  Q 2413 3159 2352 3303  Q 2291 3447 2161 3550  Q 2031 3653 1829 3711  Q 1628 3769 1350 3769  z "
                   transform="scale(0.015625)" />
                <path
                   id="GentiumBasic-2d"
                   d="M 1966 1706  Q 1947 1638 1920 1556  Q 1894 1475 1869 1422  L 269 1422  L 191 1497  Q 206 1566 232 1642  Q 259 1719 288 1781  L 1888 1781  L 1966 1706  z "
                   transform="scale(0.015625)" />
              </defs>
              <use
                 xlink:href="#GentiumBasic-52"
                 id="use2858" />
              <use
                 xlink:href="#GentiumBasic-42"
                 x="56.103516"
                 id="use2860" />
              <use
                 xlink:href="#GentiumBasic-2d"
                 x="111.083984"
                 id="use2862" />
              <use
                 xlink:href="#GentiumBasic-74"
                 x="144.775391"
                 id="use2864" />
              <use
                 xlink:href="#GentiumBasic-72"
                 x="179.199219"
                 id="use2866" />
              <use
                 xlink:href="#GentiumBasic-65"
                 x="218.798828"
                 id="use2868" />
              <use
                 xlink:href="#GentiumBasic-65"
                 x="264.990234"
                 id="use2870" />
            </g>
          </g>
        </g>
      </g>
      <g
         id="matplotlib.axis_2">
        <g
           id="ytick_1">
          <g
             id="line2d_9">
            <path
               d="M 43.779375 273.312  L 400.899375 273.312  "
               clip-path="url(#p2cab1e0719)"
               style="fill: none; stroke: #ffffff; stroke-linecap: round"
               id="path2877" />
          </g>
          <g
             id="line2d_10" />
          <g
             id="text_5">
            <!-- 0 -->
            <g
               transform="translate(34.64875 277.85325)scale(0.12 -0.12)"
               id="g2886">
              <defs
                 id="defs2882">
                <path
                   id="GentiumBasic-30"
                   d="M 2253 1766  Q 2253 2194 2186 2519  Q 2119 2844 2006 3061  Q 1894 3278 1747 3389  Q 1600 3500 1441 3500  Q 1281 3500 1153 3414  Q 1025 3328 936 3148  Q 847 2969 798 2687  Q 750 2406 750 2016  Q 750 1588 812 1259  Q 875 931 983 711  Q 1091 491 1239 378  Q 1388 266 1563 266  Q 1725 266 1853 352  Q 1981 438 2070 620  Q 2159 803 2206 1086  Q 2253 1369 2253 1766  z M 2766 1881  Q 2766 1478 2670 1118  Q 2575 759 2401 490  Q 2228 222 1983 64  Q 1738 -94 1441 -94  Q 1144 -94 919 64  Q 694 222 542 490  Q 391 759 314 1118  Q 238 1478 238 1881  Q 238 2284 334 2643  Q 431 3003 604 3273  Q 778 3544 1022 3701  Q 1266 3859 1563 3859  Q 1859 3859 2084 3703  Q 2309 3547 2461 3278  Q 2613 3009 2689 2648  Q 2766 2288 2766 1881  z "
                   transform="scale(0.015625)" />
              </defs>
              <use
                 xlink:href="#GentiumBasic-30"
                 id="use2884" />
            </g>
          </g>
        </g>
        <g
           id="ytick_2">
          <g
             id="line2d_11">
            <path
               d="M 43.779375 216.230919  L 400.899375 216.230919  "
               clip-path="url(#p2cab1e0719)"
               style="fill: none; stroke: #ffffff; stroke-linecap: round"
               id="path2890" />
          </g>
          <g
             id="line2d_12" />
          <g
             id="text_6">
            <!-- 50 -->
            <g
               transform="translate(29.018125 220.772169)scale(0.12 -0.12)"
               id="g2901">
              <defs
                 id="defs2895">
                <path
                   id="GentiumBasic-35"
                   d="M 2613 1281  Q 2613 1009 2530 761  Q 2447 513 2289 322  Q 2131 131 1900 18  Q 1669 -94 1375 -94  Q 1084 -94 800 12  Q 516 119 244 372  L 353 581  Q 519 466 655 395  Q 791 325 906 286  Q 1022 247 1119 233  Q 1216 219 1306 219  Q 1509 219 1661 297  Q 1813 375 1913 504  Q 2013 634 2063 801  Q 2113 969 2113 1147  Q 2113 1359 2061 1534  Q 2009 1709 1904 1832  Q 1800 1956 1639 2025  Q 1478 2094 1259 2094  Q 1194 2094 1109 2078  Q 1025 2063 933 2031  Q 841 2000 748 1953  Q 656 1906 575 1844  L 428 1947  Q 447 2059 472 2207  Q 497 2356 523 2522  Q 550 2688 576 2861  Q 603 3034 625 3198  Q 647 3363 662 3509  Q 678 3656 684 3766  L 2047 3766  Q 2138 3766 2206 3773  Q 2275 3781 2325 3794  Q 2381 3806 2425 3822  L 2516 3731  Q 2481 3681 2436 3626  Q 2391 3572 2344 3522  Q 2297 3472 2251 3430  Q 2206 3388 2169 3359  L 959 3359  Q 953 3269 937 3126  Q 922 2984 901 2836  Q 881 2688 859 2556  Q 838 2425 825 2356  Q 950 2394 1119 2416  Q 1288 2438 1447 2438  Q 1731 2438 1948 2342  Q 2166 2247 2312 2087  Q 2459 1928 2536 1718  Q 2613 1509 2613 1281  z "
                   transform="scale(0.015625)" />
              </defs>
              <use
                 xlink:href="#GentiumBasic-35"
                 id="use2897" />
              <use
                 xlink:href="#GentiumBasic-30"
                 x="46.923828"
                 id="use2899" />
            </g>
          </g>
        </g>
        <g
           id="ytick_3">
          <g
             id="line2d_13">
            <path
               d="M 43.779375 159.149838  L 400.899375 159.149838  "
               clip-path="url(#p2cab1e0719)"
               style="fill: none; stroke: #ffffff; stroke-linecap: round"
               id="path2905" />
          </g>
          <g
             id="line2d_14" />
          <g
             id="text_7">
            <!-- 100 -->
            <g
               transform="translate(23.3875 163.691088)scale(0.12 -0.12)"
               id="g2918">
              <defs
                 id="defs2910">
                <path
                   id="GentiumBasic-31"
                   d="M 531 0  L 531 166  Q 775 194 937 230  Q 1100 266 1197 303  Q 1294 341 1334 377  Q 1375 413 1375 447  L 1375 2938  Q 1375 3063 1365 3131  Q 1356 3200 1319 3244  Q 1300 3263 1247 3275  Q 1194 3288 1097 3284  Q 1000 3281 853 3262  Q 706 3244 500 3200  L 434 3359  Q 566 3397 745 3462  Q 925 3528 1109 3604  Q 1294 3681 1459 3757  Q 1625 3834 1728 3891  L 1844 3781  L 1844 447  Q 1844 416 1878 380  Q 1913 344 2000 306  Q 2088 269 2239 231  Q 2391 194 2625 166  L 2625 0  L 531 0  z "
                   transform="scale(0.015625)" />
              </defs>
              <use
                 xlink:href="#GentiumBasic-31"
                 id="use2912" />
              <use
                 xlink:href="#GentiumBasic-30"
                 x="46.923828"
                 id="use2914" />
              <use
                 xlink:href="#GentiumBasic-30"
                 x="93.847656"
                 id="use2916" />
            </g>
          </g>
        </g>
        <g
           id="ytick_4">
          <g
             id="line2d_15">
            <path
               d="M 43.779375 102.068757  L 400.899375 102.068757  "
               clip-path="url(#p2cab1e0719)"
               style="fill: none; stroke: #ffffff; stroke-linecap: round"
               id="path2922" />
          </g>
          <g
             id="line2d_16" />
          <g
             id="text_8">
            <!-- 150 -->
            <g
               transform="translate(23.3875 106.610007)scale(0.12 -0.12)"
               id="g2932">
              <use
                 xlink:href="#GentiumBasic-31"
                 id="use2926" />
              <use
                 xlink:href="#GentiumBasic-35"
                 x="46.923828"
                 id="use2928" />
              <use
                 xlink:href="#GentiumBasic-30"
                 x="93.847656"
                 id="use2930" />
            </g>
          </g>
        </g>
        <g
           id="ytick_5">
          <g
             id="line2d_17">
            <path
               d="M 43.779375 44.987676  L 400.899375 44.987676  "
               clip-path="url(#p2cab1e0719)"
               style="fill: none; stroke: #ffffff; stroke-linecap: round"
               id="path2936" />
          </g>
          <g
             id="line2d_18" />
          <g
             id="text_9">
            <!-- 200 -->
            <g
               transform="translate(23.3875 49.528926)scale(0.12 -0.12)"
               id="g2949">
              <defs
                 id="defs2941">
                <path
                   id="GentiumBasic-32"
                   d="M 2566 0  L 397 0  L 306 231  Q 678 663 954 994  Q 1231 1325 1428 1579  Q 1625 1834 1753 2026  Q 1881 2219 1956 2370  Q 2031 2522 2059 2645  Q 2088 2769 2088 2888  Q 2088 3031 2053 3157  Q 2019 3284 1944 3378  Q 1869 3472 1748 3525  Q 1628 3578 1459 3578  Q 1331 3578 1223 3515  Q 1116 3453 1039 3358  Q 963 3263 919 3145  Q 875 3028 875 2919  Q 822 2891 780 2866  Q 738 2841 694 2820  Q 650 2800 598 2786  Q 547 2772 475 2766  L 391 2859  Q 391 3022 500 3198  Q 609 3375 790 3522  Q 972 3669 1201 3764  Q 1431 3859 1672 3859  Q 1859 3859 2023 3806  Q 2188 3753 2309 3645  Q 2431 3538 2501 3370  Q 2572 3203 2572 2975  Q 2572 2834 2531 2693  Q 2491 2553 2405 2389  Q 2319 2225 2183 2031  Q 2047 1838 1853 1595  Q 1659 1353 1406 1053  Q 1153 753 831 378  L 2138 378  Q 2191 378 2233 401  Q 2275 425 2308 464  Q 2341 503 2364 553  Q 2388 603 2403 656  Q 2441 778 2456 934  L 2613 897  L 2566 0  z "
                   transform="scale(0.015625)" />
              </defs>
              <use
                 xlink:href="#GentiumBasic-32"
                 id="use2943" />
              <use
                 xlink:href="#GentiumBasic-30"
                 x="46.923828"
                 id="use2945" />
              <use
                 xlink:href="#GentiumBasic-30"
                 x="93.847656"
                 id="use2947" />
            </g>
          </g>
        </g>
        <g
           id="text_10">
          <!-- Nanoseconds per packet (smaller is better) -->
          <g
             transform="translate(16.575 245.16225)rotate(-90)scale(0.12 -0.12)"
             id="g3047">
            <defs
               id="defs2961">
              <path
                 id="GentiumBasic-4e"
                 d="M 156 0  L 156 134  Q 388 163 498 222  Q 609 281 609 325  L 609 3591  Q 506 3688 392 3736  Q 278 3784 156 3803  L 156 3938  L 819 3938  Q 866 3938 895 3930  Q 925 3922 956 3897  Q 988 3872 1023 3823  Q 1059 3775 1119 3694  L 3172 863  L 3172 3609  Q 3172 3647 3070 3708  Q 2969 3769 2719 3803  L 2719 3938  L 4000 3938  L 4000 3803  Q 3775 3772 3661 3712  Q 3547 3653 3547 3609  L 3547 -94  Q 3391 -75 3302 -31  Q 3213 13 3175 66  L 984 3103  L 984 325  Q 984 288 1089 228  Q 1194 169 1438 134  L 1438 0  L 156 0  z "
                 transform="scale(0.015625)" />
              <path
                 id="GentiumBasic-6f"
                 d="M 2484 1422  Q 2484 1669 2403 1892  Q 2322 2116 2194 2286  Q 2066 2456 1903 2556  Q 1741 2656 1581 2656  Q 1344 2656 1181 2565  Q 1019 2475 920 2317  Q 822 2159 778 1943  Q 734 1728 734 1478  Q 734 1231 821 1007  Q 909 784 1042 615  Q 1175 447 1334 348  Q 1494 250 1638 250  Q 1859 250 2018 333  Q 2178 416 2281 569  Q 2384 722 2434 937  Q 2484 1153 2484 1422  z M 2969 1516  Q 2969 1306 2916 1106  Q 2863 906 2769 728  Q 2675 550 2544 398  Q 2413 247 2255 137  Q 2097 28 1919 -33  Q 1741 -94 1550 -94  Q 1253 -94 1014 18  Q 775 131 604 328  Q 434 525 342 797  Q 250 1069 250 1388  Q 250 1594 301 1794  Q 353 1994 445 2173  Q 538 2353 667 2504  Q 797 2656 955 2765  Q 1113 2875 1295 2937  Q 1478 3000 1672 3000  Q 1966 3000 2205 2887  Q 2444 2775 2614 2576  Q 2784 2378 2876 2106  Q 2969 1834 2969 1516  z "
                 transform="scale(0.015625)" />
              <path
                 id="GentiumBasic-70"
                 d="M 2719 1331  Q 2719 1603 2655 1837  Q 2591 2072 2484 2244  Q 2378 2416 2237 2512  Q 2097 2609 1947 2609  Q 1891 2609 1800 2575  Q 1709 2541 1593 2459  Q 1478 2378 1347 2242  Q 1216 2106 1078 1906  L 1078 666  Q 1219 559 1339 490  Q 1459 422 1564 383  Q 1669 344 1762 328  Q 1856 313 1941 313  Q 2109 313 2251 378  Q 2394 444 2497 572  Q 2600 700 2659 890  Q 2719 1081 2719 1331  z M 3141 1538  Q 3141 1356 3094 1165  Q 3047 975 2965 794  Q 2884 613 2771 450  Q 2659 288 2526 167  Q 2394 47 2247 -23  Q 2100 -94 1947 -94  Q 1763 -94 1531 9  Q 1300 113 1078 306  L 1078 -1172  Q 1078 -1222 1195 -1272  Q 1313 -1322 1606 -1366  L 1606 -1500  L 172 -1500  L 172 -1366  Q 378 -1316 493 -1270  Q 609 -1225 609 -1172  L 609 2222  Q 609 2338 596 2413  Q 584 2488 539 2533  Q 494 2578 408 2598  Q 322 2619 172 2625  L 172 2750  Q 278 2772 375 2798  Q 472 2825 562 2854  Q 653 2884 742 2920  Q 831 2956 922 3000  L 1031 2891  L 1059 2272  Q 1216 2459 1373 2596  Q 1531 2734 1675 2823  Q 1819 2913 1942 2956  Q 2066 3000 2156 3000  Q 2369 3000 2550 2900  Q 2731 2800 2862 2611  Q 2994 2422 3067 2150  Q 3141 1878 3141 1538  z "
                 transform="scale(0.015625)" />
              <path
                 id="GentiumBasic-6b"
                 d="M 172 0  L 172 134  Q 378 188 493 228  Q 609 269 609 325  L 609 4050  Q 609 4194 592 4272  Q 575 4350 526 4389  Q 478 4428 392 4440  Q 306 4453 172 4469  L 172 4594  Q 388 4638 595 4695  Q 803 4753 963 4844  L 1078 4738  L 1078 1656  L 2041 2497  Q 2144 2588 2166 2642  Q 2188 2697 2158 2725  Q 2128 2753 2058 2762  Q 1988 2772 1906 2772  L 1906 2906  L 3091 2906  L 3091 2772  Q 2953 2756 2837 2720  Q 2722 2684 2591 2578  L 1525 1725  L 2700 347  Q 2744 297 2791 264  Q 2838 231 2894 212  Q 2950 194 3020 189  Q 3091 184 3181 191  L 3200 56  Q 3109 34 3020 18  Q 2931 3 2854 -8  Q 2778 -19 2717 -25  Q 2656 -31 2625 -31  Q 2494 -31 2414 6  Q 2334 44 2266 134  L 1078 1631  L 1078 325  Q 1078 300 1089 281  Q 1100 263 1134 242  Q 1169 222 1237 197  Q 1306 172 1422 134  L 1422 0  L 172 0  z "
                 transform="scale(0.015625)" />
              <path
                 id="GentiumBasic-28"
                 d="M 1806 -984  Q 1453 -822 1186 -530  Q 919 -238 739 146  Q 559 531 468 990  Q 378 1450 378 1947  Q 378 2459 479 2937  Q 581 3416 768 3819  Q 956 4222 1220 4526  Q 1484 4831 1806 5000  L 1906 4859  Q 1703 4691 1522 4416  Q 1341 4141 1205 3778  Q 1069 3416 989 2975  Q 909 2534 909 2034  Q 909 1578 975 1145  Q 1041 713 1169 336  Q 1297 -41 1481 -344  Q 1666 -647 1906 -844  L 1806 -984  z "
                 transform="scale(0.015625)" />
              <path
                 id="GentiumBasic-6d"
                 d="M 3706 0  L 3706 134  Q 3931 194 4036 237  Q 4141 281 4141 325  L 4141 1978  Q 4141 2169 4120 2295  Q 4100 2422 4058 2494  Q 4016 2566 3948 2595  Q 3881 2625 3788 2625  Q 3684 2625 3568 2567  Q 3453 2509 3331 2401  Q 3209 2294 3086 2139  Q 2963 1984 2844 1791  L 2844 325  Q 2844 281 2941 239  Q 3038 197 3284 134  L 3284 0  L 1941 0  L 1941 134  Q 2166 194 2270 237  Q 2375 281 2375 325  L 2375 1978  Q 2375 2169 2356 2295  Q 2338 2422 2295 2494  Q 2253 2566 2186 2595  Q 2119 2625 2022 2625  Q 1809 2625 1576 2406  Q 1344 2188 1078 1791  L 1078 325  Q 1078 278 1195 228  Q 1313 178 1516 134  L 1516 0  L 172 0  L 172 134  Q 378 188 493 230  Q 609 272 609 325  L 609 2222  Q 609 2347 598 2419  Q 588 2491 542 2530  Q 497 2569 409 2587  Q 322 2606 172 2625  L 172 2750  Q 291 2769 391 2795  Q 491 2822 581 2853  Q 672 2884 755 2921  Q 838 2959 922 3000  L 1031 2891  L 1066 2175  Q 1206 2381 1350 2536  Q 1494 2691 1634 2794  Q 1775 2897 1906 2948  Q 2038 3000 2150 3000  Q 2300 3000 2426 2964  Q 2553 2928 2645 2842  Q 2738 2756 2791 2615  Q 2844 2475 2844 2266  L 2844 2200  Q 2975 2397 3115 2545  Q 3256 2694 3395 2795  Q 3534 2897 3667 2948  Q 3800 3000 3916 3000  Q 4066 3000 4192 2959  Q 4319 2919 4411 2834  Q 4503 2750 4556 2620  Q 4609 2491 4609 2316  L 4609 325  Q 4609 281 4706 239  Q 4803 197 5050 134  L 5050 0  L 3706 0  z "
                 transform="scale(0.015625)" />
              <path
                 id="GentiumBasic-62"
                 d="M 2969 1538  Q 2969 1356 2922 1165  Q 2875 975 2784 794  Q 2694 613 2562 450  Q 2431 288 2264 167  Q 2097 47 1897 -23  Q 1697 -94 1466 -94  Q 1406 -94 1301 -67  Q 1197 -41 1061 9  Q 925 59 765 132  Q 606 206 438 300  L 438 4050  Q 438 4194 422 4272  Q 406 4350 362 4389  Q 319 4428 239 4440  Q 159 4453 31 4469  L 31 4594  Q 238 4644 425 4695  Q 613 4747 791 4844  L 822 4813  Q 841 4794 859 4778  Q 881 4759 906 4738  L 906 2272  Q 1063 2459 1217 2596  Q 1372 2734 1514 2823  Q 1656 2913 1778 2956  Q 1900 3000 1991 3000  Q 2203 3000 2383 2900  Q 2563 2800 2692 2611  Q 2822 2422 2895 2150  Q 2969 1878 2969 1538  z M 2547 1275  Q 2547 1588 2483 1830  Q 2419 2072 2311 2237  Q 2203 2403 2062 2490  Q 1922 2578 1772 2578  Q 1716 2578 1623 2545  Q 1531 2513 1415 2436  Q 1300 2359 1169 2229  Q 1038 2100 906 1906  L 906 634  Q 1031 541 1161 478  Q 1291 416 1408 380  Q 1525 344 1620 328  Q 1716 313 1772 313  Q 1963 313 2106 395  Q 2250 478 2348 614  Q 2447 750 2497 922  Q 2547 1094 2547 1275  z "
                 transform="scale(0.015625)" />
              <path
                 id="GentiumBasic-29"
                 d="M 1656 2075  Q 1656 1559 1553 1079  Q 1450 600 1262 197  Q 1075 -206 811 -511  Q 547 -816 225 -984  L 128 -844  Q 328 -675 509 -400  Q 691 -125 828 237  Q 966 600 1045 1040  Q 1125 1481 1125 1984  Q 1125 2438 1059 2870  Q 994 3303 867 3681  Q 741 4059 555 4362  Q 369 4666 128 4859  L 225 5000  Q 578 4841 845 4548  Q 1113 4256 1294 3872  Q 1475 3488 1565 3030  Q 1656 2572 1656 2075  z "
                 transform="scale(0.015625)" />
            </defs>
            <use
               xlink:href="#GentiumBasic-4e"
               id="use2963" />
            <use
               xlink:href="#GentiumBasic-61"
               x="64.892578"
               id="use2965" />
            <use
               xlink:href="#GentiumBasic-6e"
               x="110.791016"
               id="use2967" />
            <use
               xlink:href="#GentiumBasic-6f"
               x="165.966797"
               id="use2969" />
            <use
               xlink:href="#GentiumBasic-73"
               x="216.259766"
               id="use2971" />
            <use
               xlink:href="#GentiumBasic-65"
               x="254.882812"
               id="use2973" />
            <use
               xlink:href="#GentiumBasic-63"
               x="301.074219"
               id="use2975" />
            <use
               xlink:href="#GentiumBasic-6f"
               x="344.775391"
               id="use2977" />
            <use
               xlink:href="#GentiumBasic-6e"
               x="395.068359"
               id="use2979" />
            <use
               xlink:href="#GentiumBasic-64"
               x="450.244141"
               id="use2981" />
            <use
               xlink:href="#GentiumBasic-73"
               x="502.246094"
               id="use2983" />
            <use
               xlink:href="#GentiumBasic-20"
               x="540.869141"
               id="use2985" />
            <use
               xlink:href="#GentiumBasic-70"
               x="562.890625"
               id="use2987" />
            <use
               xlink:href="#GentiumBasic-65"
               x="615.869141"
               id="use2989" />
            <use
               xlink:href="#GentiumBasic-72"
               x="662.060547"
               id="use2991" />
            <use
               xlink:href="#GentiumBasic-20"
               x="701.660156"
               id="use2993" />
            <use
               xlink:href="#GentiumBasic-70"
               x="723.681641"
               id="use2995" />
            <use
               xlink:href="#GentiumBasic-61"
               x="776.660156"
               id="use2997" />
            <use
               xlink:href="#GentiumBasic-63"
               x="822.558594"
               id="use2999" />
            <use
               xlink:href="#GentiumBasic-6b"
               x="866.259766"
               id="use3001" />
            <use
               xlink:href="#GentiumBasic-65"
               x="916.259766"
               id="use3003" />
            <use
               xlink:href="#GentiumBasic-74"
               x="962.451172"
               id="use3005" />
            <use
               xlink:href="#GentiumBasic-20"
               x="996.875"
               id="use3007" />
            <use
               xlink:href="#GentiumBasic-28"
               x="1018.896484"
               id="use3009" />
            <use
               xlink:href="#GentiumBasic-73"
               x="1050.585938"
               id="use3011" />
            <use
               xlink:href="#GentiumBasic-6d"
               x="1089.208984"
               id="use3013" />
            <use
               xlink:href="#GentiumBasic-61"
               x="1169.53125"
               id="use3015" />
            <use
               xlink:href="#GentiumBasic-6c"
               x="1215.429688"
               id="use3017" />
            <use
               xlink:href="#GentiumBasic-6c"
               x="1242.529297"
               id="use3019" />
            <use
               xlink:href="#GentiumBasic-65"
               x="1269.628906"
               id="use3021" />
            <use
               xlink:href="#GentiumBasic-72"
               x="1315.820312"
               id="use3023" />
            <use
               xlink:href="#GentiumBasic-20"
               x="1355.419922"
               id="use3025" />
            <use
               xlink:href="#GentiumBasic-69"
               x="1377.441406"
               id="use3027" />
            <use
               xlink:href="#GentiumBasic-73"
               x="1404.541016"
               id="use3029" />
            <use
               xlink:href="#GentiumBasic-20"
               x="1443.164062"
               id="use3031" />
            <use
               xlink:href="#GentiumBasic-62"
               x="1465.185547"
               id="use3033" />
            <use
               xlink:href="#GentiumBasic-65"
               x="1515.966797"
               id="use3035" />
            <use
               xlink:href="#GentiumBasic-74"
               x="1562.158203"
               id="use3037" />
            <use
               xlink:href="#GentiumBasic-74"
               x="1596.582031"
               id="use3039" />
            <use
               xlink:href="#GentiumBasic-65"
               x="1631.005859"
               id="use3041" />
            <use
               xlink:href="#GentiumBasic-72"
               x="1677.197266"
               id="use3043" />
            <use
               xlink:href="#GentiumBasic-29"
               x="1716.796875"
               id="use3045" />
          </g>
        </g>
      </g>
      <g
         id="patch_3">
        <path
           d="M 60.012102 273.312  L 128.360428 273.312  L 128.360428 136.317405  L 60.012102 136.317405  z "
           clip-path="url(#p2cab1e0719)"
           style="fill: #1b9e77"
           id="path3051" />
      </g>
      <g
         id="patch_4">
        <path
           d="M 145.447509 273.312  L 213.795834 273.312  L 213.795834 95.219027  L 145.447509 95.219027  z "
           clip-path="url(#p2cab1e0719)"
           style="fill: #d95f02"
           id="path3054" />
      </g>
      <g
         id="patch_5">
        <path
           d="M 230.882916 273.312  L 299.231241 273.312  L 299.231241 70.103351  L 230.882916 70.103351  z "
           clip-path="url(#p2cab1e0719)"
           style="fill: #7570b3"
           id="path3057" />
      </g>
      <g
         id="patch_6">
        <path
           d="M 316.318322 273.312  L 384.666648 273.312  L 384.666648 19.872  L 316.318322 19.872  z "
           clip-path="url(#p2cab1e0719)"
           style="fill: #e7298a"
           id="path3060" />
      </g>
      <g
         id="patch_7">
        <path
           d="M 43.779375 273.312  L 43.779375 7.2  "
           style="fill: none"
           id="path3063" />
      </g>
      <g
         id="patch_8">
        <path
           d="M 400.899375 273.312  L 400.899375 7.2  "
           style="fill: none"
           id="path3066" />
      </g>
      <g
         id="patch_9">
        <path
           d="M 43.779375 273.312  L 400.899375 273.312  "
           style="fill: none"
           id="path3069" />
      </g>
      <g
         id="patch_10">
        <path
           d="M 43.779375 7.2  L 400.899375 7.2  "
           style="fill: none"
           id="path3072" />
      </g>
    </g>
  </g>
  <defs
     id="defs3080">
    <clipPath
       id="p2cab1e0719">
      <rect
         x="43.779375"
         y="7.2"
         width="357.12"
         height="266.112"
         id="rect3077" />
    </clipPath>
  </defs>
  <path
     style="fill:none;fill-rule:evenodd;stroke:#000000;stroke-width:0.75px;stroke-linecap:butt;stroke-linejoin:miter;stroke-opacity:1;marker-start:url(#Stop);marker-end:url(#marker1343)"
     d="M 142.44803,95.578087 V 136.14106"
     id="path453" />
  <text
     xml:space="preserve"
     style="font-style:normal;font-variant:normal;font-weight:normal;font-stretch:normal;font-size:12px;line-height:125%;font-family:'Gentium Book Basic';-inkscape-font-specification:'Gentium Book Basic, Normal';font-variant-ligatures:normal;font-variant-caps:normal;font-variant-numeric:normal;font-variant-east-asian:normal;letter-spacing:0px;word-spacing:0px;fill:#000000;fill-opacity:1;stroke:none;stroke-width:0.75px;stroke-linecap:butt;stroke-linejoin:miter;stroke-opacity:1"
     x="111.58334"
     y="119.43086"
     id="text1499"><tspan
       sodipodi:role="line"
       id="tspan1497"
       style="font-style:normal;font-variant:normal;font-weight:normal;font-stretch:normal;font-size:12px;font-family:'Gentium Book Basic';-inkscape-font-specification:'Gentium Book Basic, Normal';font-variant-ligatures:normal;font-variant-caps:normal;font-variant-numeric:normal;font-variant-east-asian:normal;stroke-width:0.75px"
       x="111.58334"
       y="119.43086">36 ns</tspan></text>
  <path
     style="fill:none;fill-rule:evenodd;stroke:#000000;stroke-width:0.75px;stroke-linecap:butt;stroke-linejoin:miter;stroke-opacity:1;marker-start:url(#Stop-9);marker-end:url(#marker1343-3)"
     d="M 227.83613,70.265478 V 95.013687"
     id="path453-1" />
  <text
     xml:space="preserve"
     style="font-style:normal;font-variant:normal;font-weight:normal;font-stretch:normal;font-size:12px;line-height:125%;font-family:'Gentium Book Basic';-inkscape-font-specification:'Gentium Book Basic, Normal';font-variant-ligatures:normal;font-variant-caps:normal;font-variant-numeric:normal;font-variant-east-asian:normal;letter-spacing:0px;word-spacing:0px;fill:#000000;fill-opacity:1;stroke:none;stroke-width:0.75px;stroke-linecap:butt;stroke-linejoin:miter;stroke-opacity:1"
     x="197.95259"
     y="86.169853"
     id="text1499-2"><tspan
       sodipodi:role="line"
       id="tspan1497-9"
       style="font-style:normal;font-variant:normal;font-weight:normal;font-stretch:normal;font-size:12px;font-family:'Gentium Book Basic';-inkscape-font-specification:'Gentium Book Basic, Normal';font-variant-ligatures:normal;font-variant-caps:normal;font-variant-numeric:normal;font-variant-east-asian:normal;stroke-width:0.75px"
       x="197.95259"
       y="86.169853">22 ns</tspan></text>
  <path
     style="fill:none;fill-rule:evenodd;stroke:#000000;stroke-width:0.75px;stroke-linecap:butt;stroke-linejoin:miter;stroke-opacity:1;marker-start:url(#Stop-3);marker-end:url(#marker1343-9)"
     d="M 313.34997,20.298679 V 69.338878"
     id="path453-7" />
  <text
     xml:space="preserve"
     style="font-style:normal;font-variant:normal;font-weight:normal;font-stretch:normal;font-size:12px;line-height:125%;font-family:'Gentium Book Basic';-inkscape-font-specification:'Gentium Book Basic, Normal';font-variant-ligatures:normal;font-variant-caps:normal;font-variant-numeric:normal;font-variant-east-asian:normal;letter-spacing:0px;word-spacing:0px;fill:#000000;fill-opacity:1;stroke:none;stroke-width:0.75px;stroke-linecap:butt;stroke-linejoin:miter;stroke-opacity:1"
     x="282.95712"
     y="48.378349"
     id="text1499-8"><tspan
       sodipodi:role="line"
       id="tspan1497-4"
       style="font-style:normal;font-variant:normal;font-weight:normal;font-stretch:normal;font-size:12px;font-family:'Gentium Book Basic';-inkscape-font-specification:'Gentium Book Basic, Normal';font-variant-ligatures:normal;font-variant-caps:normal;font-variant-numeric:normal;font-variant-east-asian:normal;stroke-width:0.75px"
       x="282.95712"
       y="48.378349">44 ns</tspan></text>
</svg>
