<?xml version="1.0" encoding="UTF-8" standalone="no"?>
<!-- Created by diasvg.py -->

<svg
   xmlns:dc="http://purl.org/dc/elements/1.1/"
   xmlns:cc="http://creativecommons.org/ns#"
   xmlns:rdf="http://www.w3.org/1999/02/22-rdf-syntax-ns#"
   xmlns:svg="http://www.w3.org/2000/svg"
   xmlns="http://www.w3.org/2000/svg"
   xmlns:sodipodi="http://sodipodi.sourceforge.net/DTD/sodipodi-0.dtd"
   xmlns:inkscape="http://www.inkscape.org/namespaces/inkscape"
   width="14.042557cm"
   height="9.1844387cm"
   viewBox="41.322 28.396 32.121086 21.386813"
   version="1.1"
   id="svg1187"
   sodipodi:docname="XDP-chain-calls.svg"
   inkscape:version="0.92.4 5da689c313, 2019-01-14">
  <metadata
     id="metadata1193">
    <rdf:RDF>
      <cc:Work
         rdf:about="">
        <dc:format>image/svg+xml</dc:format>
        <dc:type
           rdf:resource="http://purl.org/dc/dcmitype/StillImage" />
        <dc:title></dc:title>
      </cc:Work>
    </rdf:RDF>
  </metadata>
  <defs
     id="defs1191" />
  <sodipodi:namedview
     pagecolor="#ffffff"
     bordercolor="#666666"
     borderopacity="1"
     objecttolerance="10"
     gridtolerance="10"
     guidetolerance="10"
     inkscape:pageopacity="0"
     inkscape:pageshadow="2"
     inkscape:window-width="1280"
     inkscape:window-height="1404"
     id="namedview1189"
     showgrid="false"
     fit-margin-top="0"
     fit-margin-left="0"
     fit-margin-right="0"
     fit-margin-bottom="0"
     inkscape:zoom="1.5341539"
     inkscape:cx="84.926205"
     inkscape:cy="-119.42328"
     inkscape:window-x="1080"
     inkscape:window-y="0"
     inkscape:window-maximized="0"
     inkscape:current-layer="svg1187" />
  <rect
     x="47.436241"
     y="31.025812"
     width="7.2480001"
     height="1.9"
     id="rect1081"
     style="fill:#ffffff;stroke:none;stroke-width:0" />
  <rect
     x="47.436241"
     y="31.025812"
     width="7.2480001"
     height="1.9"
     id="rect1083"
     style="fill:none;stroke:#000000;stroke-width:0.1" />
  <text
     x="51.060238"
     y="32.169811"
     font-size="0.80"
     font-style="normal"
     font-weight="400"
     id="text1085"
     style="font-style:normal;font-weight:400;font-size:0.80000001px;font-family:sans;text-anchor:middle;fill:#000000">XDP prog id:1</text>
  <line
     x1="51.038239"
     y1="29.217813"
     x2="51.054241"
     y2="30.538813"
     id="line1087"
     style="stroke:#000000;stroke-width:0.1" />
  <polygon
     points="50.745,30.9 50.488,30.403 50.74,30.525 50.988,30.397 "
     id="polygon1089"
     style="fill:#000000;stroke:none;stroke-width:0.1"
     transform="translate(0.31423918,0.01381246)" />
  <polygon
     points="50.745,30.9 50.488,30.403 50.74,30.525 50.988,30.397 "
     id="polygon1091"
     style="fill:none;stroke:#000000;stroke-width:0.1"
     transform="translate(0.31423918,0.01381246)" />
  <text
     x="48.853241"
     y="29.003813"
     font-size="0.80"
     font-style="normal"
     font-weight="400"
     id="text1093"
     style="font-style:normal;font-weight:400;font-size:0.80000001px;font-family:sans;text-anchor:start;fill:#000000">XDP hook start</text>
  <polyline
     points="50.746,32.912 50.746,33.962 44.869,33.962 44.869,38.081 45.432,38.081 "
     id="polyline1095"
     style="fill:none;stroke:#000000;stroke-width:0.1"
     transform="translate(0.31423918,0.01381246)" />
  <polygon
     points="45.807,38.081 45.307,38.331 45.432,38.081 45.307,37.831 "
     id="polygon1097"
     style="fill:#000000;stroke:none;stroke-width:0.1"
     transform="translate(0.31423918,0.01381246)" />
  <polygon
     points="45.807,38.081 45.307,38.331 45.432,38.081 45.307,37.831 "
     id="polygon1099"
     style="fill:none;stroke:#000000;stroke-width:0.1"
     transform="translate(0.31423918,0.01381246)" />
  <text
     x="44.36124"
     y="37.532814"
     font-size="0.80"
     font-style="normal"
     font-weight="400"
     id="text1101"
     style="font-style:normal;font-weight:400;font-size:0.80000001px;font-family:sans;text-anchor:end;fill:#000000">Program</text>
  <text
     x="44.36124"
     y="38.332813"
     font-size="0.80"
     font-style="normal"
     font-weight="400"
     id="text1103"
     style="font-style:normal;font-weight:400;font-size:0.80000001px;font-family:sans;text-anchor:end;fill:#000000">return</text>
  <text
     x="44.36124"
     y="39.132812"
     font-size="0.80"
     font-style="normal"
     font-weight="400"
     id="text1105"
     style="font-style:normal;font-weight:400;font-size:0.80000001px;font-family:sans;text-anchor:end;fill:#000000">hook</text>
  <rect
     x="48.47224"
     y="44.151814"
     width="7.2480001"
     height="1.9"
     id="rect1107"
     style="fill:#ffffff;stroke:none;stroke-width:0" />
  <rect
     x="48.47224"
     y="44.151814"
     width="7.2480001"
     height="1.9"
     id="rect1109"
     style="fill:none;stroke:#000000;stroke-width:0.1" />
  <text
     x="52.096241"
     y="45.295815"
     font-size="0.80"
     font-style="normal"
     font-weight="400"
     id="text1111"
     style="font-style:normal;font-weight:400;font-size:0.80000001px;font-family:sans;text-anchor:middle;fill:#000000">XDP prog id:2</text>
  <rect
     x="48.47224"
     y="47.832813"
     width="7.2480001"
     height="1.9"
     id="rect1113"
     style="fill:#ffffff;stroke:none;stroke-width:0" />
  <rect
     x="48.47224"
     y="47.832813"
     width="7.2480001"
     height="1.9"
     id="rect1115"
     style="fill:none;stroke:#000000;stroke-width:0.1" />
  <text
     x="52.096241"
     y="48.976814"
     font-size="0.80"
     font-style="normal"
     font-weight="400"
     id="text1117"
     style="font-style:normal;font-weight:400;font-size:0.80000001px;font-family:sans;text-anchor:middle;fill:#000000">XDP prog id:3</text>
  <polyline
     points="63.541,40.908 63.541,43.063 51.782,43.063 51.782,43.652 "
     id="polyline1119"
     style="fill:none;stroke:#000000;stroke-width:0.1"
     transform="translate(0.31423918,0.01381246)" />
  <polygon
     points="51.782,44.027 51.532,43.527 51.782,43.652 52.032,43.527 "
     id="polygon1121"
     style="fill:#000000;stroke:none;stroke-width:0.1"
     transform="translate(0.31423918,0.01381246)" />
  <polygon
     points="51.782,44.027 51.532,43.527 51.782,43.652 52.032,43.527 "
     id="polygon1123"
     style="fill:none;stroke:#000000;stroke-width:0.1"
     transform="translate(0.31423918,0.01381246)" />
  <polyline
     points="63.541,40.908 63.541,43.063 60.475,43.063 60.475,46.679 51.782,46.679 51.782,47.332 "
     id="polyline1125"
     style="fill:none;stroke:#000000;stroke-width:0.1"
     transform="translate(0.31423918,0.01381246)" />
  <polygon
     points="51.782,47.707 51.532,47.207 51.782,47.332 52.032,47.207 "
     id="polygon1127"
     style="fill:#000000;stroke:none;stroke-width:0.1"
     transform="translate(0.31423918,0.01381246)" />
  <polygon
     points="51.782,47.707 51.532,47.207 51.782,47.332 52.032,47.207 "
     id="polygon1129"
     style="fill:none;stroke:#000000;stroke-width:0.1"
     transform="translate(0.31423918,0.01381246)" />
  <polyline
     points="48.158,45.088 44.869,45.088 44.869,38.081 45.432,38.081 "
     id="polyline1131"
     style="fill:none;stroke:#000000;stroke-width:0.1"
     transform="translate(0.31423918,0.01381246)" />
  <polygon
     points="45.807,38.081 45.307,38.331 45.432,38.081 45.307,37.831 "
     id="polygon1133"
     style="fill:#000000;stroke:none;stroke-width:0.1"
     transform="translate(0.31423918,0.01381246)" />
  <polygon
     points="45.807,38.081 45.307,38.331 45.432,38.081 45.307,37.831 "
     id="polygon1135"
     style="fill:none;stroke:#000000;stroke-width:0.1"
     transform="translate(0.31423918,0.01381246)" />
  <polygon
     points="63.541,35.231 66.38,38.07 63.541,40.908 60.701,38.07 "
     id="polygon1137"
     style="fill:#ffffff;stroke:none;stroke-width:0.1"
     transform="translate(0.31423918,0.01381246)" />
  <polygon
     points="63.541,35.231 66.38,38.07 63.541,40.908 60.701,38.07 "
     id="polygon1139"
     style="fill:none;stroke:#000000;stroke-width:0.1"
     transform="translate(0.31423918,0.01381246)" />
  <text
     x="63.85524"
     y="37.877811"
     font-size="0.80"
     font-style="normal"
     font-weight="400"
     id="text1141"
     style="font-style:normal;font-weight:400;font-size:0.80000001px;font-family:sans;text-anchor:middle;fill:#000000">Lookup</text>
  <text
     x="63.85524"
     y="38.677814"
     font-size="0.80"
     font-style="normal"
     font-weight="400"
     id="text1143"
     style="font-style:normal;font-weight:400;font-size:0.80000001px;font-family:sans;text-anchor:middle;fill:#000000">match?</text>
  <rect
     x="71.365234"
     y="37.035812"
     width="2.3169999"
     height="2.096"
     id="rect1145"
     style="fill:#ffffff;stroke:none;stroke-width:0" />
  <rect
     x="71.365234"
     y="37.035812"
     width="2.3169999"
     height="2.096"
     id="rect1147"
     style="fill:none;stroke:#000000;stroke-width:0.1" />
  <text
     x="72.524231"
     y="38.277813"
     font-size="0.80"
     font-style="normal"
     font-weight="400"
     id="text1149"
     style="font-style:normal;font-weight:400;font-size:0.80000001px;font-family:sans;text-anchor:middle;fill:#000000">End</text>
  <line
     x1="66.744232"
     y1="38.083813"
     x2="70.879234"
     y2="38.083813"
     id="line1151"
     style="stroke:#000000;stroke-width:0.1" />
  <polygon
     points="70.94,38.07 70.44,38.32 70.565,38.07 70.44,37.82 "
     id="polygon1153"
     style="fill:#000000;stroke:none;stroke-width:0.1"
     transform="translate(0.31423918,0.01381246)" />
  <polygon
     points="70.94,38.07 70.44,38.32 70.565,38.07 70.44,37.82 "
     id="polygon1155"
     style="fill:none;stroke:#000000;stroke-width:0.1"
     transform="translate(0.31423918,0.01381246)" />
  <text
     x="68.222229"
     y="37.798813"
     font-size="0.80"
     font-style="normal"
     font-weight="400"
     id="text1157"
     style="font-style:normal;font-weight:400;font-size:0.80000001px;font-family:sans;text-anchor:start;fill:#000000">No</text>
  <line
     x1="57.759239"
     y1="38.094814"
     x2="60.52824"
     y2="38.084812"
     id="line1159"
     style="stroke:#000000;stroke-width:0.1" />
  <polygon
     points="60.589,38.07 60.09,38.322 60.214,38.071 60.088,37.822 "
     id="polygon1161"
     style="fill:#000000;stroke:none;stroke-width:0.1"
     transform="translate(0.31423918,0.01381246)" />
  <polygon
     points="60.589,38.07 60.09,38.322 60.214,38.071 60.088,37.822 "
     id="polygon1163"
     style="fill:none;stroke:#000000;stroke-width:0.1"
     transform="translate(0.31423918,0.01381246)" />
  <text
     x="62.275238"
     y="42.749813"
     font-size="0.80"
     font-style="normal"
     font-weight="400"
     id="text1165"
     style="font-style:normal;font-weight:400;font-size:0.80000001px;font-family:sans;text-anchor:start;fill:#000000">Yes</text>
  <polyline
     points="48.158,48.769 44.869,48.769 44.869,38.081 45.432,38.081 "
     id="polyline1167"
     style="fill:none;stroke:#000000;stroke-width:0.1"
     transform="translate(0.31423918,0.01381246)" />
  <polygon
     points="45.807,38.081 45.307,38.331 45.432,38.081 45.307,37.831 "
     id="polygon1169"
     style="fill:#000000;stroke:none;stroke-width:0.1"
     transform="translate(0.31423918,0.01381246)" />
  <polygon
     points="45.807,38.081 45.307,38.331 45.432,38.081 45.307,37.831 "
     id="polygon1171"
     style="fill:none;stroke:#000000;stroke-width:0.1"
     transform="translate(0.31423918,0.01381246)" />
  <path
     d="m 46.233239,35.093813 h 11.526 v 6.001 c -2.306,-1 -3.458,-1 -5.763,0 -2.305,1 -3.458,1 -5.763,0 v -6.001"
     id="path1173"
     inkscape:connector-curvature="0"
     style="fill:#ffffff;stroke:none;stroke-width:0.1" />
  <path
     d="m 46.233239,35.093813 h 11.526 v 6.001 c -2.306,-1 -3.458,-1 -5.763,0 -2.305,1 -3.458,1 -5.763,0 v -6.001"
     id="path1175"
     inkscape:connector-curvature="0"
     style="fill:none;stroke:#000000;stroke-width:0.1" />
  <text
     x="46.91024"
     y="36.219814"
     font-size="0.80"
     font-style="normal"
     font-weight="400"
     id="text1177"
     style="font-style:normal;font-weight:400;font-size:0.80000001px;font-family:sans;text-anchor:start;fill:#000000">Chain call map</text>
  <text
     x="46.91024"
     y="37.819813"
     font-size="0.80"
     font-style="normal"
     font-weight="400"
     id="text1179"
     style="font-style:normal;font-weight:400;font-size:0.80000001px;font-family:sans;text-anchor:start;fill:#000000">id:1 ret:PASS → id:2</text>
  <text
     x="46.91024"
     y="38.619812"
     font-size="0.80"
     font-style="normal"
     font-weight="400"
     id="text1181"
     style="font-style:normal;font-weight:400;font-size:0.80000001px;font-family:sans;text-anchor:start;fill:#000000">id:1 ret:DROP → &lt;NULL&gt;</text>
  <text
     x="46.91024"
     y="39.419811"
     font-size="0.80"
     font-style="normal"
     font-weight="400"
     id="text1183"
     style="font-style:normal;font-weight:400;font-size:0.80000001px;font-family:sans;text-anchor:start;fill:#000000">id:2 ret:PASS → id:3</text>
  <text
     x="46.91024"
     y="40.219814"
     font-size="0.80"
     font-style="normal"
     font-weight="400"
     id="text1185"
     style="font-style:normal;font-weight:400;font-size:0.80000001px;font-family:sans;text-anchor:start;fill:#000000">...</text>
</svg>
