<?xml version="1.0" encoding="UTF-8" standalone="no"?>
<!-- Created with Inkscape (http://www.inkscape.org/) -->

<svg
   xmlns:dc="http://purl.org/dc/elements/1.1/"
   xmlns:cc="http://creativecommons.org/ns#"
   xmlns:rdf="http://www.w3.org/1999/02/22-rdf-syntax-ns#"
   xmlns:svg="http://www.w3.org/2000/svg"
   xmlns="http://www.w3.org/2000/svg"
   xmlns:sodipodi="http://sodipodi.sourceforge.net/DTD/sodipodi-0.dtd"
   xmlns:inkscape="http://www.inkscape.org/namespaces/inkscape"
   version="1.1"
   id="svg4574"
   xml:space="preserve"
   width="510.00433"
   height="116.20917"
   viewBox="0 0 510.00433 116.20917"
   sodipodi:docname="cs-logo.svg"
   inkscape:version="0.92.1 r"><metadata
     id="metadata4580"><rdf:RDF><cc:Work
         rdf:about=""><dc:format>image/svg+xml</dc:format><dc:type
           rdf:resource="http://purl.org/dc/dcmitype/StillImage" /><dc:title></dc:title></cc:Work></rdf:RDF></metadata><defs
     id="defs4578" /><sodipodi:namedview
     pagecolor="#ffffff"
     bordercolor="#666666"
     borderopacity="1"
     objecttolerance="10"
     gridtolerance="10"
     guidetolerance="10"
     inkscape:pageopacity="0"
     inkscape:pageshadow="2"
     inkscape:window-width="1600"
     inkscape:window-height="886"
     id="namedview4576"
     showgrid="false"
     inkscape:zoom="1.3877551"
     inkscape:cx="177.97648"
     inkscape:cy="115.57902"
     inkscape:window-x="0"
     inkscape:window-y="14"
     inkscape:window-maximized="0"
     inkscape:current-layer="g4584"
     fit-margin-left="10"
     fit-margin-top="10"
     fit-margin-bottom="10"
     fit-margin-right="10" /><g
     id="g4582"
     inkscape:groupmode="layer"
     inkscape:label="ink_ext_XXXXXX"
     transform="matrix(1.3333333,0,0,-1.3333333,10.000341,106.20873)"><g
       id="g4584"
       transform="scale(0.1)"><path
         d="M 639.148,133.926 C 547.07,20.7695 405.781,-18.7305 276.352,11.3086 148.762,40.3516 40.1016,148.086 11.5313,277.734 -23.0078,426.836 33.9922,575 163.949,661.035 c 115.442,77.84 274.774,77.801 388.594,4.219 52.738,-33.293 101.816,-85.664 131.75,-149.27 57.859,-119.5 47.031,-271.433 -45.145,-382.058"
         style="fill:#ffffff;fill-opacity:1;fill-rule:nonzero;stroke:none"
         id="path4586"
         inkscape:connector-curvature="0" /><path
         d="m 43.4258,418.164 2.9883,-0.664 c 0.6015,0 1.1015,0.398 1.2617,1.004 l 0.4375,1.875 c 0.2031,0.851 0.9531,1.476 1.832,1.476 l 0.4297,-0.058 h 0.0195 l 27.2422,-6.563 c 1.0117,-0.285 1.6602,-1.289 1.4297,-2.304 l -0.3906,-1.68 c -0.1406,-0.684 0.289,-1.379 0.957,-1.543 l 2.7344,-0.605 0.3086,-0.039 c 0.6015,0 1.1172,0.41 1.2578,0.996 l 6.6914,28.73 c 0.1406,0.703 -0.2695,1.465 -0.9492,1.672 l -9.7383,2.82 c -0.5312,0 -1.0312,-0.402 -1.1719,-0.918 l -0.8203,-3.664 c -0.1914,-0.691 0.2383,-1.492 0.9336,-1.726 l 3.5664,-1.282 c 0.9922,-0.312 1.5586,-1.425 1.3477,-2.449 l -2.0547,-8.801 c -0.1992,-0.886 -0.9531,-1.48 -1.8399,-1.48 l -0.3906,0.016 h -0.039 l -27.2813,6.613 c -1,0.234 -1.6406,1.258 -1.4023,2.285 l 0.3711,1.629 c 0.1992,0.684 -0.2383,1.398 -0.9727,1.555 l -2.9844,0.656 c -0.6211,0 -1.1445,-0.402 -1.2734,-1 l -3.4883,-15.008 c -0.0586,-0.312 -0.0117,-0.664 0.1328,-0.977 0.207,-0.253 0.4649,-0.5 0.8555,-0.566 m 639.8202,-47.199 -9.043,0.605 c -0.687,0 -1.23,-0.484 -1.23,-1.16 l -0.125,-3.359 c -0.02,-0.711 0.57,-1.36 1.269,-1.418 l 2.957,-0.235 c 1.039,-0.097 1.852,-0.984 1.813,-2.039 l -0.172,-5.519 c -0.02,-1.016 -0.84,-1.836 -1.969,-1.836 l -28,1.125 c -0.508,0.019 -0.98,0.234 -1.328,0.605 -0.352,0.391 -0.523,0.86 -0.492,1.375 l 0.051,1.692 c 0.031,0.711 -0.571,1.316 -1.27,1.336 l -2.84,0.097 c -0.687,0 -1.262,-0.535 -1.269,-1.269 l -0.512,-15.41 c -0.039,-0.321 0.121,-0.664 0.352,-0.926 0.246,-0.254 0.55,-0.402 0.886,-0.402 l 2.864,-0.098 c 0.695,0 1.265,0.578 1.277,1.262 l 0.062,1.922 c 0.032,0.988 0.891,1.796 1.969,1.796 l 28.008,-1.082 c 0.523,-0.019 0.961,-0.265 1.332,-0.617 0.348,-0.379 0.539,-0.879 0.5,-1.355 l -0.152,-5.442 c -0.071,-1.043 -0.911,-1.933 -1.938,-1.953 l -2.988,-0.019 c -0.723,-0.028 -1.324,-0.625 -1.356,-1.356 l -0.078,-3.34 c -0.047,-0.312 0.078,-0.664 0.324,-0.898 0.231,-0.266 0.547,-0.363 0.879,-0.363 h 0.032 l 8.937,0.058 c 0.746,0 1.34,0.578 1.359,1.321 l 1.133,35.507 c 0.02,0.723 -0.523,1.356 -1.242,1.395 M 69.7461,471.609 c 1.5195,-0.625 2.9766,-0.976 4.3711,-0.976 4.7617,0 8.0312,3.847 10.9258,7.844 l 0.8672,1.152 c 2.6054,3.555 5.0468,6.914 8.207,6.914 0.6289,0 1.3281,-0.148 1.9922,-0.441 2.0742,-0.879 3.2851,-2.45 3.5976,-4.637 0.2696,-1.817 -0.0937,-3.985 -1.0898,-6.262 -0.9024,-2.109 -3.2813,-5.293 -3.3828,-5.457 -0.4414,-0.605 -1.2305,-0.957 -2.0352,-0.957 -0.2539,0 -0.5351,0.027 -0.7422,0.129 l -2.4726,0.895 c -0.1602,0.05 -0.3086,0.097 -0.4571,0.097 -0.5546,0 -1.0703,-0.351 -1.3085,-0.859 l -1.4336,-3.297 c -0.2579,-0.664 0.0507,-1.449 0.6992,-1.703 l 7.2617,-3.086 c 0.1914,-0.098 0.4023,-0.106 0.668,-0.106 0.5703,0 1.1328,0.227 1.4336,0.625 0.0742,0.067 4.9883,6.336 6.7463,10.411 6.695,15.695 -2.379,20.996 -5.3479,22.234 -1.6289,0.715 -3.2227,1.047 -4.7031,1.047 -4.9492,0 -8.336,-3.996 -11.1758,-7.754 l -0.9609,-1.32 c -2.5196,-3.457 -4.9141,-6.727 -7.9297,-6.727 -0.6016,0 -1.2305,0.129 -1.8985,0.391 -1.3554,0.593 -2.3398,1.574 -2.8437,2.879 -0.7696,1.875 -0.5352,4.375 0.6875,7.207 0.6758,1.632 2.3554,3.886 2.3945,3.964 0.4297,0.606 1.25,0.981 2.0391,0.981 0.2695,0 0.5078,-0.012 0.7578,-0.121 l 1.9023,-0.672 c 0.1485,-0.051 0.3125,-0.051 0.4414,-0.051 0.5782,0 1.0977,0.313 1.3086,0.832 l 1.4219,3.289 c 0.1289,0.305 0.1289,0.656 0,0.977 -0.1328,0.324 -0.3594,0.586 -0.6719,0.746 l -6.4375,2.723 c -0.1914,0.07 -0.4023,0.117 -0.6289,0.117 -0.5703,0 -1.1719,-0.266 -1.4609,-0.672 -0.1016,-0.051 -4.9414,-6.156 -6.2188,-9.211 -5.0117,-11.707 -0.4492,-18.594 5.4766,-21.145 M 43.0781,369.18 c 0.0274,0.886 0.3594,2.285 0.7071,3.105 0,0.051 1.3046,4.403 6.1601,4.403 4.1133,0 5.332,-2.547 6.0117,-5.086 0.6016,-2.122 0.5157,-3.829 0.4883,-5 -0.0469,-0.989 -0.8515,-1.817 -1.9687,-1.817 l -9.6524,0.418 c -1.0586,0.012 -1.8711,0.918 -1.8281,1.953 z m -0.5742,-15.715 0.0391,1.906 c 0.0547,1.035 0.8945,1.817 1.9843,1.817 h 0.0196 l 28.0234,-1.223 c 1.0156,-0.027 1.8164,-0.938 1.793,-1.981 l -0.0586,-1.687 c -0.0195,-0.746 0.5547,-1.301 1.25,-1.352 l 2.7812,-0.125 h 0.0469 c 0.7149,0 1.2852,0.567 1.3047,1.25 l 0.5781,15.418 c 0.0235,0.313 -0.1289,0.696 -0.3398,0.899 -0.2383,0.293 -0.5899,0.41 -0.8985,0.422 l -2.871,0.117 c -0.6836,0 -1.2579,-0.559 -1.2969,-1.231 l -0.0742,-1.902 c -0.0079,-1.047 -0.8711,-1.828 -1.9297,-1.828 h -0.0274 l -9.1797,0.39 c -0.6406,0.028 -1.2617,0.235 -1.582,0.594 -0.1601,0.168 -0.2695,0.403 -0.2305,0.664 0,0.489 0.1524,1.582 0.2774,2.473 0.0351,0.098 0.5508,2.684 8.7617,6.473 8.9688,4.121 9.7891,8.918 9.7969,8.957 0.1328,0.839 0.2656,2.265 0.3125,3.132 l 0.0586,1.223 c 0.0234,0.703 -0.5469,1.301 -1.2774,1.367 l -3.207,0.106 c -0.6602,0 -0.9727,-0.172 -1.0039,-0.223 0.0312,-0.371 -0.1016,-1.867 -0.3399,-2.539 -0.1718,-0.496 -0.9101,-0.988 -2.8554,-2.285 -1.1719,-0.774 -2.7344,-1.797 -4.7813,-3.25 -2.8906,-2.063 -5.332,-4.496 -6.8008,-6.887 l -0.5351,-0.605 -0.0938,0.8 c -0.4492,3.016 -1.539,5.555 -3.1992,7.333 -1.9844,2.089 -5.332,3.066 -7.6328,3.066 -2.1094,0 -4.4922,-0.359 -7.832,-3.066 -3.0781,-2.461 -3.3906,-8.102 -3.3906,-8.204 -0.1797,-0.828 -0.3399,-2.246 -0.379,-3.113 L 37.125,353.66 c -0.0195,-0.367 0.0938,-0.691 0.332,-0.937 0.2188,-0.262 0.5625,-0.387 0.8985,-0.418 l 2.832,-0.098 c 0.7188,0 1.2773,0.566 1.3164,1.258 m 50.4414,171.836 c 0.1992,-0.145 0.4727,-0.203 0.7227,-0.203 0.3984,0 0.7812,0.183 1.0078,0.507 l 1.9414,2.743 c 0.4297,0.605 0.2773,1.449 -0.2695,1.894 l -2.3321,1.817 c -0.8593,0.636 -1.0195,1.886 -0.4062,2.707 l 3.1601,4.5 c 0.3633,0.519 0.9375,0.824 1.5469,0.824 0.3984,0 0.7891,-0.129 1.1055,-0.375 l 22.7971,-16.309 c 0.418,-0.281 0.676,-0.711 0.801,-1.199 0.054,-0.535 -0.032,-1.035 -0.332,-1.437 l -1.004,-1.387 c -0.399,-0.586 -0.246,-1.414 0.332,-1.824 l 2.269,-1.594 c 0.25,-0.184 0.481,-0.242 0.77,-0.242 0.41,0 0.8,0.203 1.062,0.535 l 8.867,12.629 c 0.391,0.593 0.258,1.375 -0.304,1.816 l -2.301,1.582 c -0.246,0.164 -0.477,0.262 -0.754,0.262 -0.418,0 -0.828,-0.234 -1.09,-0.567 l -1.078,-1.542 c -0.352,-0.516 -0.922,-0.84 -1.562,-0.84 -0.372,0 -0.739,0.148 -1.071,0.382 l -22.832,16.29 c -0.828,0.613 -1.039,1.796 -0.437,2.648 l 3.121,4.449 c 0.398,0.539 0.988,0.832 1.64,0.832 0.391,0 0.743,-0.07 1.039,-0.273 l 2.52,-1.59 c 0.211,-0.109 0.469,-0.199 0.703,-0.199 0.469,0 0.879,0.207 1.156,0.578 l 1.93,2.734 c 0.16,0.281 0.266,0.606 0.199,0.969 -0.086,0.309 -0.25,0.602 -0.554,0.789 l -7.532,4.852 c -0.187,0.148 -0.453,0.226 -0.703,0.226 -0.469,0 -0.898,-0.226 -1.129,-0.586 L 85.5195,532.656 c -0.4218,-0.605 -0.2773,-1.465 0.2969,-1.886 z M 654.906,249.715 c -0.179,0.07 -0.351,0.137 -0.551,0.137 -0.476,0 -0.937,-0.309 -1.136,-0.782 l -1.356,-3.035 c -0.285,-0.664 0,-1.457 0.621,-1.808 l 2.672,-1.317 c 0.907,-0.488 1.36,-1.613 0.949,-2.59 l -2.238,-5.039 c -0.344,-0.683 -0.992,-1.133 -1.742,-1.133 -0.262,0 -0.547,0.063 -0.777,0.176 l -25.563,11.496 c -0.961,0.45 -1.371,1.563 -0.961,2.547 l 0.703,1.563 c 0.289,0.636 0,1.437 -0.703,1.711 l -2.527,1.113 c -0.164,0.086 -0.328,0.098 -0.527,0.098 -0.516,0 -0.973,-0.293 -1.172,-0.735 l -6.243,-14.14 c -0.16,-0.274 -0.16,-0.653 -0.019,-0.965 0.152,-0.332 0.371,-0.578 0.687,-0.742 l 2.567,-1.114 c 0.199,-0.058 0.324,-0.097 0.508,-0.097 0.519,0 0.961,0.293 1.172,0.761 l 0.796,1.77 c 0.321,0.664 0.989,1.109 1.719,1.109 0.27,0 0.52,-0.066 0.813,-0.176 l 25.507,-11.519 c 0.993,-0.402 1.391,-1.535 1,-2.492 l -2.21,-4.981 c -0.309,-0.742 -1.012,-1.211 -1.829,-1.211 -0.253,0 -0.48,0.047 -0.718,0.145 l -2.743,1.066 c -0.152,0.047 -0.32,0.098 -0.468,0.098 -0.551,0 -1.059,-0.352 -1.293,-0.859 l -1.336,-3.055 c -0.164,-0.317 -0.164,-0.649 -0.031,-0.961 0.132,-0.301 0.39,-0.574 0.679,-0.691 l 8.34,-3.301 c 0.16,-0.059 0.301,-0.071 0.512,-0.071 0.527,0 1.039,0.313 1.262,0.782 l 14.347,32.531 c 0.301,0.652 0,1.457 -0.652,1.766 z m -51.449,99.125 c -15.199,0.574 -23.242,6.355 -33.871,19.176 -2.731,3.261 -12.672,15.976 -20.348,21.867 -23.355,17.976 -46.902,7.168 -50.543,5.273 -0.597,2.559 9.27,28.164 32.91,29.16 3.61,0.164 7.512,0.059 11.579,0.164 4.55,0.168 9.711,0.618 15.246,2.071 10.996,2.89 22.043,9.504 32.578,23.008 12.09,-31.454 17.422,-66.192 15.738,-100.848 z m -35.094,-121.86 -3.379,2.122 c -12.836,8.132 -18.769,14.902 -21.578,31.296 -0.703,4.18 -4.898,21.329 -6.082,25.743 -9.801,35.957 -35.82,35.324 -40,35.48 0.641,2.41 22.223,19.734 43.184,8.777 3.187,-1.668 6.519,-3.71 10.156,-5.652 3.969,-2.117 8.684,-4.316 14.16,-5.828 10.883,-2.973 23.621,-2.785 39.313,3.484 -5.121,-33.691 -16.949,-66.554 -35.774,-95.422 m -94.808,-85.613 -1.739,3.289 c -7.07,13.449 -6.918,22.278 -1.14,37.903 1.449,3.964 7.531,23.808 8.289,28.308 5.902,34.824 -13.129,43.969 -19.43,47.68 1.832,1.766 25.192,5.055 37.891,-14.906 1.929,-3.047 3.769,-6.434 5.949,-9.981 2.402,-3.816 5.379,-8.066 9.402,-12.129 7.989,-8.066 22.731,-13.418 39.911,-15.738 -22.61,-27.914 -49.622,-49.348 -79.133,-64.426 m -124.789,-26.543 0.14,3.27 c 0.582,15.176 3.481,23.73 16.297,34.336 3.254,2.707 16.25,14.465 19.285,18.144 6.078,7.492 18.797,18.75 15.278,37.93 -0.61,3.223 -2.641,10.793 -4.637,14.512 2.469,0.605 28.254,-9.442 29.226,-33.094 0.153,-3.582 0.04,-7.473 0.172,-11.563 0.161,-4.562 0.602,-9.718 2.078,-15.246 2.891,-10.957 9.469,-21.961 22.852,-32.461 -32.051,-12.187 -66.293,-17.429 -100.691,-15.828 m -26.508,409.871 c -1.453,-10.625 1.25,-19.968 4.16,-26.14 -2.492,-0.586 -28.191,9.343 -29.191,33.015 -0.141,3.598 -0.032,7.481 -0.172,11.594 -0.141,4.512 -0.602,9.688 -2.071,15.215 -2.859,10.996 -9.511,22.09 -23.027,32.637 31.91,12.136 66.598,17.304 100.871,15.711 l -0.113,-3.301 c -0.602,-15.211 -4,-23.27 -16.77,-33.875 -3.269,-2.696 -30.511,-22.176 -33.687,-44.856 m 8.187,-343.672 c -1.652,-3.183 -3.722,-6.464 -5.64,-10.097 -2.16,-4.031 -4.352,-8.711 -5.852,-14.246 -2.945,-10.821 -2.777,-23.555 3.473,-39.25 -6.867,1.054 -13.738,2.316 -20.551,3.867 -27.922,6.348 -54.687,18.527 -78.84,35.07 l 0.879,1.395 c 8.113,12.871 23.473,15.683 39.879,18.488 4.18,0.691 8.402,1.395 12.535,2.285 4.516,0.945 8.906,2.285 13.227,3.77 35.07,12.187 31.937,37.664 32.109,41.797 1.281,-0.325 19.754,-22.059 8.781,-43.079 M 205.906,169.141 c -26.511,21.652 -48.851,48.691 -64.527,78.82 l 3.355,1.773 c 13.411,7.102 22.274,8.813 37.856,3.039 4.027,-1.457 7.976,-2.96 12.023,-4.269 4.371,-1.414 25.403,-10.145 48.203,-0.762 10.02,4.133 14.45,10.617 15.989,14.555 1.691,-1.742 5.828,-29.32 -14.157,-42.016 -3.043,-1.953 -6.464,-3.777 -9.941,-5.918 -3.844,-2.429 -8.109,-5.398 -12.184,-9.433 -7.968,-7.918 -14.179,-19.051 -16.617,-35.789 m -75.332,102.793 c -3.777,9.921 -6.886,20.046 -9.136,30.379 -5.614,23.566 -7.704,47.246 -6.614,70.468 l 3.34,-0.125 c 15.152,-0.597 22.281,-6.367 32.91,-19.172 2.699,-3.269 5.41,-6.562 8.242,-9.714 2.957,-3.243 6.211,-6.536 9.907,-9.543 7.441,-6.122 17.804,-12.254 29.664,-13.536 8.668,-0.918 20.515,3.743 24.277,5.743 l 0.391,-1.668 c 0.41,-1.934 -9.907,-26.582 -33.559,-27.571 -3.601,-0.183 -7.492,-0.039 -11.566,-0.183 -4.551,-0.157 -9.754,-0.606 -15.266,-2.063 -10.969,-2.898 -22.047,-9.5 -32.59,-23.015 m 25.91,226.718 2.602,-1.64 c 12.863,-8.094 16.309,-19.492 19.121,-35.918 0.707,-4.199 1.398,-8.391 2.301,-12.547 0.976,-4.477 2.137,-8.899 3.769,-13.188 3.45,-9.019 11.012,-21.511 20.086,-28.046 6.66,-4.825 15.782,-7.286 19.992,-7.43 -0.667,-2.414 -22.289,-19.707 -43.308,-8.77 -3.172,1.649 -6.461,3.711 -10.078,5.645 -3.992,2.129 -8.696,4.336 -14.223,5.847 -10.84,2.961 -23.633,2.774 -39.34,-3.503 5.539,35.644 18.801,69.539 39.078,99.55 m 69.723,68.711 c 7,4.715 14.266,9.055 21.758,12.938 l 1.82,-3.465 c 7.09,-13.438 6.938,-22.277 1.145,-37.871 -1.473,-3.996 -2.965,-7.981 -4.254,-12.051 -1.442,-4.324 -2.61,-8.769 -3.34,-13.32 -1.527,-9.524 -1.117,-19.739 3.281,-30.86 3.996,-10.136 12,-17.675 15.617,-19.902 -1.789,-1.746 -29.214,-5.937 -41.906,14.063 -1.898,3.035 -3.769,6.453 -5.953,9.949 -2.387,3.859 -5.371,8.125 -9.359,12.168 -7.95,8.039 -19.133,14.258 -35.938,16.652 15.848,19.59 35.008,37.078 57.129,51.699 m 164.941,-26.886 c 1.668,3.183 3.731,6.503 5.637,10.128 2.141,3.973 4.371,8.692 5.852,14.192 2.968,10.867 2.777,23.641 -3.512,39.324 33.121,-4.949 64.973,-16.359 92.422,-34.082 0.937,-0.617 1.922,-1.281 2.91,-1.894 l -2.012,-3.176 c -8.129,-12.879 -14.879,-18.828 -31.289,-21.629 -4.207,-0.695 -21.383,-4.738 -25.761,-6.067 -32.368,-9.843 -35.29,-35.75 -35.469,-39.871 -2.41,0.664 -19.723,22.078 -8.778,43.075 m 109.34,-24.872 c 8.035,7.918 14.258,19.11 16.668,35.887 25.989,-21.453 49.223,-49.344 64.528,-80.75 l -0.61,-0.332 c -13.457,-7.082 -26.441,-7.472 -42.058,-1.699 -3.981,1.484 -20.879,6.582 -25.348,7.578 -30.98,7.207 -48.121,-10.508 -50.703,-16.824 -1.758,1.805 -4.582,28.125 15.41,40.797 3.043,1.945 6.461,3.769 9.949,5.937 3.864,2.395 8.129,5.371 12.164,9.406 m 91.071,-43.32 C 570.625,516.648 534.648,554.258 496.695,578.074 416.77,629.707 301.645,630.066 220.93,575.32 128.715,514.363 87.0859,406.238 112.086,300.273 c 19.949,-90.429 98.211,-168.019 187.66,-188.214 94.438,-21.9301 195.18,7.05 260.719,88.109 63.441,76.141 72.133,188.434 31.094,272.117 m 86.976,-166.64 -2.988,0.574 c -0.602,0 -1.121,-0.449 -1.301,-1.016 l -0.351,-1.902 c -0.168,-0.832 -0.922,-1.438 -2.118,-1.438 h -0.121 l -27.41,5.95 c -0.473,0.097 -0.91,0.41 -1.172,0.808 -0.308,0.41 -0.386,0.93 -0.308,1.426 l 0.359,1.664 c 0.074,0.348 0,0.691 -0.18,0.984 -0.211,0.313 -0.519,0.489 -0.797,0.559 l -3.031,0.625 c -0.609,0 -1.152,-0.453 -1.262,-1.027 l -6.058,-28.829 c -0.141,-0.683 0.336,-1.433 1,-1.652 l 9.746,-2.625 c 0.582,0 1.043,0.449 1.184,0.984 l 0.789,3.684 c 0.117,0.684 -0.321,1.453 -1.02,1.699 l -3.59,1.192 c -0.988,0.34 -1.609,1.425 -1.39,2.429 l 1.832,8.852 c 0.211,0.828 0.898,1.441 2.129,1.441 h 0.152 l 9.598,-2.05 c 1.019,-0.243 1.652,-1.25 1.429,-2.262 l -1.871,-9.035 c -0.047,-0.313 0,-0.676 0.184,-0.965 0.211,-0.285 0.508,-0.481 0.828,-0.547 l 2.988,-0.609 c 0.641,0 1.149,0.421 1.301,1.015 l 1.879,8.946 c 0.18,0.871 0.871,1.484 2.07,1.484 h 0.16 l 8.828,-1.914 c 1,-0.203 1.653,-1.231 1.442,-2.246 l -1.852,-8.867 c -0.179,-0.899 -1.039,-1.59 -2.207,-1.59 h -0.019 l -3.117,0.371 c -0.653,0 -1.297,-0.508 -1.434,-1.153 l -0.648,-3.105 c -0.083,-0.391 0,-0.684 0.179,-0.988 0.211,-0.282 0.488,-0.465 0.852,-0.516 l 8.789,-1.562 0.25,-0.02 c 0.609,0 1.211,0.477 1.289,1.094 l 6.027,28.562 c 0.039,0.352 0,0.684 -0.187,0.989 -0.203,0.281 -0.5,0.496 -0.852,0.586 m -533.39,286.746 0.109,0.039 h 0.101 c 0.051,0 0.204,0 1.594,-0.782 l 12.055,-6.668 c 0.445,-0.234 0.715,-0.625 0.754,-1.062 0.066,-0.453 -0.125,-0.93 -0.481,-1.262 l -5.972,-5.539 c -0.309,-0.281 -0.641,-0.437 -1.008,-0.437 -0.527,0 -1.012,0.332 -1.234,0.937 l -5.45,12.899 c -0.707,1.691 -0.648,1.699 -0.468,1.875 m 5.984,-34.176 c 0.336,-0.891 0.027,-2.192 -0.703,-2.875 l -0.832,-0.797 c -0.516,-0.5 -0.567,-1.313 -0.067,-1.801 l 1.887,-2.07 c 0.27,-0.274 0.613,-0.418 0.965,-0.418 0.348,0 0.648,0.105 0.898,0.351 l 10.418,9.668 c 0.508,0.52 0.563,1.317 0.09,1.836 l -1.922,2.071 c -0.246,0.273 -0.597,0.398 -0.945,0.398 -0.332,0 -0.664,-0.105 -0.902,-0.32 l -0.832,-0.781 c -0.305,-0.286 -0.649,-0.461 -1.008,-0.461 -0.547,0 -1.028,0.371 -1.25,0.937 l -2.059,5.207 c -0.398,0.938 -0.101,2.258 0.629,2.86 l 8.496,8.359 c 0.422,0.391 1.074,0.617 1.746,0.617 0.418,0 0.828,-0.058 1.164,-0.293 l 4.973,-2.851 c 0.461,-0.235 0.742,-0.645 0.781,-1.094 0.047,-0.449 -0.133,-0.879 -0.5,-1.242 l -0.828,-0.789 c -0.265,-0.235 -0.39,-0.555 -0.422,-0.879 0,-0.352 0.11,-0.696 0.34,-0.926 l 1.899,-2.074 c 0.261,-0.254 0.601,-0.418 0.941,-0.418 0.363,0 0.648,0.136 0.91,0.351 l 11.16,10.399 c 0.528,0.5 0.559,1.308 0.071,1.847 l -1.903,2.032 c -0.246,0.273 -0.59,0.41 -0.941,0.41 -0.336,0 -0.649,-0.117 -0.879,-0.313 l -0.828,-0.801 c -0.469,-0.421 -1.149,-0.695 -1.871,-0.695 -0.41,0 -0.778,0.09 -1.098,0.258 l -33.262,16.266 c -0.211,0.109 -0.48,0.187 -0.82,0.187 -0.559,0 -1.09,-0.195 -1.426,-0.496 l -4.664,-4.359 c -0.547,-0.496 -0.801,-1.512 -0.539,-2.254 z M 66.2852,298.73 c -0.2422,-0.292 -0.5782,-0.46 -1.2305,-0.46 h -0.1289 l -13.832,2.285 c -1.7657,0.285 -1.7774,0.371 -1.7969,0.547 -0.0508,0.246 -0.0508,0.293 1.539,1.183 l 12.0508,6.641 c 0.2266,0.137 0.5313,0.215 0.7617,0.215 0.6797,0 1.2305,-0.469 1.375,-1.231 l 1.5157,-7.98 c 0.0781,-0.45 -0.0352,-0.879 -0.2539,-1.2 m 17.1718,-12.792 0.2188,-1.125 c 0.1172,-0.633 0.6406,-1.075 1.2617,-1.075 l 0.2461,0.02 2.7422,0.527 c 0.3398,0.078 0.6601,0.266 0.8398,0.551 0.2071,0.281 0.3008,0.641 0.2071,0.992 l -2.6797,13.957 c -0.1055,0.594 -0.5938,1.035 -1.4258,1.035 h -0.0508 l -2.7891,-0.527 c -0.6992,-0.117 -1.1718,-0.813 -1.0117,-1.504 l 0.211,-1.121 c 0.1015,-0.473 -0.0196,-0.93 -0.2891,-1.215 -0.2109,-0.281 -0.543,-0.449 -1.2109,-0.449 h -0.1407 l -5.4804,1.008 c -0.9922,0.195 -1.9297,1.093 -2.1172,2.07 l -2.5117,11.641 c -0.1993,0.988 0.3164,2.175 1.25,2.644 l 5.0586,2.719 c 0.2695,0.113 0.5078,0.184 0.7734,0.184 0.6875,0 1.1953,-0.489 1.375,-1.211 l 0.1914,-1.133 c 0.1406,-0.578 0.6289,-1.016 1.4609,-1.016 h 0.0469 l 2.7344,0.516 c 0.7305,0.148 1.168,0.773 1.0703,1.535 l -2.8594,15 c -0.1445,0.566 -0.6406,1.016 -1.4609,1.016 h -0.0781 l -2.7188,-0.528 c -0.3633,-0.051 -0.6562,-0.254 -0.8476,-0.547 -0.1758,-0.304 -0.2305,-0.636 -0.1836,-0.984 l 0.207,-1.105 c 0.168,-1.008 -0.3477,-2.208 -1.1914,-2.696 L 42.8281,305.566 c -0.6523,-0.39 -1.0586,-1.355 -0.9218,-2.089 l 1.1992,-6.25 c 0.1211,-0.735 0.8672,-1.497 1.6211,-1.633 l 36.6406,-7.528 c 0.9492,-0.226 1.8906,-1.144 2.0898,-2.128 m 21.527,-42.141 c -0.238,0.48 -0.699,0.781 -1.199,0.781 -0.191,0 -0.387,-0.019 -0.519,-0.086 l -2.539,-1.152 c -0.711,-0.293 -0.9926,-1.035 -0.711,-1.738 l 0.781,-1.711 c 0.437,-0.985 0,-2.078 -0.9728,-2.52 l -10.1367,-4.41 c -0.2187,-0.109 -0.4492,-0.18 -0.6211,-0.18 -0.3008,0 -0.5117,0.129 -0.6836,0.285 -0.1172,0.215 -0.2265,0.547 -0.0078,1.122 l 5.8711,16.457 c 0.2891,0.71 0.6914,0.828 0.8906,0.828 0.1992,0 0.5899,-0.106 0.8711,-0.782 l 0.2656,-0.632 c 0.2305,-0.469 0.7032,-0.723 1.211,-0.723 0.1914,0 0.3437,0.027 0.5117,0.098 l 2.5629,1.113 c 0.656,0.301 0.945,1.074 0.675,1.699 l -6.1988,13.965 c -0.1914,0.469 -0.6602,0.769 -1.1875,0.769 -0.1797,0 -0.3516,-0.015 -0.5118,-0.105 l -2.5703,-1.113 c -0.3008,-0.176 -0.5508,-0.422 -0.6601,-0.735 -0.1485,-0.332 -0.1485,-0.672 0,-0.996 l 0.2695,-0.644 c 0.3906,-0.828 0.4297,-2.266 0.0977,-3.172 l -6.9883,-19.277 c -0.2461,-0.696 -0.9063,-1.165 -1.6797,-1.165 -0.207,0 -0.4766,0.04 -0.6953,0.149 l -17.2696,7.644 c -0.875,0.356 -1.8515,1.379 -2.2421,2.219 l -0.2696,0.625 c -0.2187,0.469 -0.6914,0.75 -1.1797,0.75 -0.1914,0 -0.3711,-0.019 -0.5429,-0.086 l -2.5586,-1.125 c -0.3086,-0.164 -0.5742,-0.406 -0.668,-0.683 -0.1133,-0.348 -0.1133,-0.743 0,-1.024 l 5.9453,-13.39 c 0.211,-0.477 0.6485,-0.782 1.1914,-0.782 0.1602,0 0.3399,0.059 0.5,0.118 l 2.5508,1.113 c 0.3399,0.148 0.5664,0.429 0.7383,0.746 0.0937,0.301 0.0937,0.68 -0.0391,0.996 l -0.6601,1.473 c -0.25,0.574 -0.1992,0.886 -0.0664,1.054 l 0.4687,0.34 h 0.1485 c 0.1875,0 0.414,-0.074 0.6523,-0.164 l 16.6406,-7.285 c 0.6797,-0.324 0.7578,-0.695 0.7578,-0.91 0,-0.184 -0.1015,-0.606 -0.7578,-0.887 l -10.332,-4.473 c -0.2617,-0.089 -0.4688,-0.144 -0.7422,-0.144 -0.7578,0 -1.4609,0.457 -1.7695,1.148 l -0.6875,1.535 c -0.1914,0.469 -0.6641,0.75 -1.1719,0.75 -0.1914,0 -0.3516,-0.046 -0.543,-0.105 l -2.5664,-1.105 c -0.2812,-0.137 -0.5195,-0.43 -0.6679,-0.731 -0.1133,-0.324 -0.1133,-0.695 0.0156,-0.996 l 6.2617,-14.094 c 0.1914,-0.457 0.6289,-0.761 1.1719,-0.761 0.1992,0 0.3554,0.07 0.5273,0.117 l 2.5703,1.117 c 0.6407,0.32 0.9414,1.051 0.6524,1.695 l -0.7813,1.789 c -0.1914,0.469 -0.2304,0.985 -0.0195,1.446 0.1797,0.468 0.5273,0.859 0.9766,1.043 l 25.7422,11.195 c 0.25,0.094 0.469,0.133 0.754,0.133 0.754,0 1.437,-0.438 1.746,-1.141 l 0.687,-1.543 c 0.219,-0.461 0.661,-0.754 1.192,-0.754 0.199,0 0.351,0 0.508,0.11 l 2.574,1.121 c 0.648,0.277 0.937,1.054 0.648,1.711 z m 313.075,393.039 13.566,-3.867 c 0.602,0 1.117,0.379 1.262,0.937 l 0.769,2.676 c 0.098,0.332 0.078,0.684 -0.109,0.984 -0.149,0.286 -0.442,0.539 -0.758,0.606 l -1.859,0.547 c -0.504,0.136 -0.895,0.48 -1.157,0.89 -0.226,0.45 -0.265,0.985 -0.14,1.434 l 6.191,20.676 c 0.442,1.64 0.582,1.746 0.821,1.746 h 0.05 c 0.18,-0.059 0.231,-0.059 0.86,-1.688 l 12.543,-33.019 c 0.23,-0.723 1.168,-1.543 1.91,-1.727 l 3.129,-0.929 c 0.117,-0.047 0.25,-0.067 0.351,-0.067 0.598,0 1.117,0.41 1.297,0.977 l 9.653,32.625 c 0.226,0.801 0.988,1.386 1.82,1.386 0.148,0 0.359,-0.046 0.515,-0.085 l 1.973,-0.52 c 0.57,0 1.102,0.371 1.25,0.93 l 0.793,2.675 c 0.086,0.34 0.039,0.692 -0.133,0.985 -0.14,0.293 -0.449,0.539 -0.761,0.637 l -13.571,3.855 c -0.597,0 -1.097,-0.391 -1.277,-0.926 l -0.762,-2.695 c -0.199,-0.664 0.219,-1.406 0.895,-1.613 l 1.847,-0.555 c 0.489,-0.09 0.879,-0.449 1.129,-0.871 0.25,-0.457 0.297,-0.945 0.172,-1.414 l -5.781,-19.278 c -0.461,-1.484 -0.543,-1.699 -0.82,-1.699 -0.059,0 -0.11,0 -0.164,0.02 -0.055,0.078 -0.157,0.125 -0.747,1.668 l -11.832,31.203 c -0.285,0.75 -1.171,1.543 -1.898,1.797 l -9.578,2.695 c -0.563,0 -1.09,-0.391 -1.231,-0.957 l -0.793,-2.687 c -0.078,-0.321 -0.046,-0.665 0.121,-0.985 0.161,-0.305 0.461,-0.527 0.739,-0.617 l 1.883,-0.516 c 0.457,-0.168 0.91,-0.488 1.113,-0.918 0.285,-0.48 0.336,-0.968 0.187,-1.464 l -8.004,-26.868 c -0.246,-0.789 -0.968,-1.375 -1.828,-1.375 -0.156,0 -0.355,0.047 -0.547,0.086 l -1.964,0.5 c -0.567,0 -1.079,-0.383 -1.258,-0.89 l -0.746,-2.715 c -0.106,-0.352 -0.075,-0.684 0.093,-0.977 0.184,-0.293 0.442,-0.535 0.786,-0.613 M 635.227,518.75 c 0.261,0.156 0.597,0.215 0.91,0.215 0.699,0 1.328,-0.332 1.66,-0.977 0.058,-0.066 1.637,-2.55 1.949,-4.785 0.059,-0.039 1.199,-4.426 -2.93,-6.973 -0.781,-0.468 -1.64,-0.695 -2.546,-0.695 -3.254,0 -6.063,3.145 -6.157,3.262 -0.656,0.617 -1.597,1.789 -2.105,2.715 -0.231,0.461 -0.27,0.976 -0.164,1.465 0.152,0.488 0.461,0.863 0.933,1.105 z m -3.172,9.578 c 0.23,-0.449 0.304,-0.965 0.179,-1.453 -0.14,-0.527 -0.476,-0.879 -0.941,-1.133 l -24.555,-13.496 c -0.293,-0.168 -0.601,-0.254 -0.914,-0.254 -0.719,0 -1.347,0.399 -1.679,0.985 l -0.829,1.496 c -0.218,0.429 -0.66,0.672 -1.136,0.672 -0.223,0 -0.434,-0.079 -0.614,-0.176 l -2.449,-1.375 c -0.621,-0.332 -0.879,-1.133 -0.48,-1.75 l 7.5,-13.465 c 0.211,-0.41 0.648,-0.645 1.121,-0.645 0.207,0 0.437,0.028 0.609,0.164 l 2.469,1.36 c 0.609,0.351 0.84,1.113 0.488,1.765 l -0.918,1.672 c -0.273,0.438 -0.312,0.957 -0.179,1.453 0.16,0.469 0.476,0.879 0.878,1.094 l 8.063,4.453 c 0.437,0.215 0.879,0.395 1.289,0.395 0.469,0 0.789,-0.207 0.949,-0.5 0.231,-0.41 0.699,-1.426 1.008,-2.277 0.055,-0.086 0.941,-2.586 -4.105,-10.118 -5.536,-8.144 -3.743,-12.683 -3.704,-12.73 0.297,-0.813 0.93,-2.074 1.383,-2.817 l 0.575,-1.043 c 0.222,-0.429 0.683,-0.675 1.125,-0.675 0.23,0 0.441,0.039 0.64,0.136 l 2.731,1.524 c 0.609,0.332 1,0.547 -0.172,3.047 -0.461,0.996 0.211,2.226 1.269,4.062 0.731,1.309 1.68,2.961 2.481,5.02 0.742,1.886 1.707,4.98 2.097,9.015 l 0.051,0.496 h 0.231 c 0.16,0 0.261,0 1.457,-1.152 0.023,0 1.543,-1.394 2.824,-2.137 1.769,-1.035 3.519,-1.515 5.266,-1.515 1.792,0 3.585,0.48 5.355,1.515 5.949,3.399 6.937,10.34 2.566,18.047 l -8.16,14.649 c -0.238,0.41 -0.656,0.644 -1.129,0.644 -0.218,0 -0.457,-0.051 -0.668,-0.156 l -2.41,-1.387 c -0.324,-0.156 -0.523,-0.398 -0.601,-0.754 -0.098,-0.332 -0.078,-0.671 0.101,-0.996 z m -38.102,49.524 c 0.344,-0.352 0.504,-0.84 0.461,-1.34 -0.027,-0.508 -0.258,-0.996 -0.668,-1.309 l -21.223,-18.289 c -0.328,-0.312 -0.785,-0.469 -1.277,-0.469 -0.519,0 -1.058,0.227 -1.402,0.633 l -1.129,1.301 c -0.231,0.281 -0.602,0.418 -1,0.418 -0.289,0 -0.602,-0.106 -0.813,-0.293 l -2.129,-1.856 c -0.257,-0.214 -0.41,-0.546 -0.437,-0.878 -0.027,-0.34 0.078,-0.711 0.344,-0.946 l 19.386,-22.156 c 0.211,-0.293 0.602,-0.473 1,-0.473 0.34,0 0.641,0.09 0.864,0.274 l 7.726,6.008 c 0.289,0.175 0.442,0.488 0.469,0.839 0.031,0.301 -0.078,0.645 -0.309,0.879 l -2.449,2.821 c -0.281,0.285 -0.722,0.5 -1.14,0.5 -0.309,0 -0.579,-0.09 -0.832,-0.246 l -3.129,-2.145 c -0.297,-0.246 -0.739,-0.383 -1.168,-0.383 -0.629,0 -1.203,0.274 -1.602,0.711 l -5.953,6.828 c -0.336,0.379 -0.496,0.86 -0.449,1.367 0.019,0.52 0.25,0.977 0.648,1.297 l 7.414,6.418 c 0.34,0.313 0.813,0.457 1.25,0.457 0.563,0 1.09,-0.203 1.43,-0.644 l 6.109,-6.934 c 0.231,-0.281 0.571,-0.469 0.973,-0.469 0.277,0 0.609,0.129 0.82,0.356 l 2.11,1.824 c 0.277,0.242 0.39,0.567 0.437,0.879 0.039,0.383 -0.086,0.691 -0.312,0.945 l -6.016,6.887 c -0.34,0.399 -0.531,0.926 -0.48,1.414 0.05,0.512 0.308,0.938 0.671,1.27 l 6.836,5.91 c 0.34,0.293 0.782,0.469 1.25,0.469 0.551,0 1.082,-0.274 1.43,-0.657 l 5.953,-6.785 c 0.68,-0.812 0.641,-2.012 -0.051,-2.773 l -2.121,-2.149 c -0.449,-0.539 -0.488,-1.418 0,-1.992 l 2.078,-2.402 c 0.243,-0.227 0.602,-0.422 0.961,-0.422 0.301,0 0.602,0.121 0.852,0.324 l 6.547,6.141 c 0.535,0.5 0.562,1.32 0.094,1.867 l -19.282,22 c -0.179,0.273 -0.566,0.43 -0.929,0.43 -0.313,0 -0.621,-0.106 -0.848,-0.321 l -2.102,-1.808 c -0.281,-0.242 -0.429,-0.586 -0.457,-0.926 -0.015,-0.332 0.067,-0.656 0.309,-0.938 z m 51.699,-124.375 c 0.364,-5.274 0.754,-10.215 -3.617,-11.563 -0.617,-0.226 -1.289,-0.332 -1.898,-0.332 -3.09,0 -5.66,2.566 -7.039,7.059 -0.68,2.168 -0.91,6.144 -0.942,6.3 -0.062,1.016 0.633,2.071 1.59,2.442 l 2.469,0.91 c 0.672,0.27 1.051,1.031 0.832,1.715 l -1.07,3.449 c -0.141,0.496 -0.59,0.848 -1.403,0.848 h -0.211 l -7.539,-2.34 c -0.707,-0.207 -1.277,-1 -1.238,-1.789 0,-0.071 0.277,-8.039 1.602,-12.246 3.781,-12.305 10.738,-14.153 14.535,-14.153 1.304,0 2.601,0.235 3.902,0.637 8.633,2.656 8.109,10.274 7.641,17.012 -0.391,5.066 -0.7,9.883 3.39,11.14 0.59,0.176 1.16,0.266 1.68,0.266 2.891,0 5.238,-2.371 6.543,-6.535 0.508,-1.688 0.687,-4.461 0.707,-4.598 0.078,-0.984 -0.629,-2.082 -1.582,-2.461 l -1.899,-0.715 c -0.679,-0.222 -1.07,-0.996 -0.8,-1.687 l 1.031,-3.457 c 0.168,-0.5 0.598,-0.832 1.41,-0.832 h 0.207 l 6.684,2.051 c 0.73,0.215 1.297,1.054 1.265,1.781 0,0.086 -0.246,7.887 -1.25,11.031 -2.566,8.391 -7.679,13.203 -13.996,13.203 -1.242,0 -2.578,-0.215 -3.859,-0.613 -8.164,-2.539 -7.609,-9.961 -7.145,-16.523 m -115.078,131.882 4.461,-3.464 c 0.313,-0.266 0.809,-0.422 1.305,-0.422 0.383,0 0.726,0.097 0.984,0.246 l 32.309,18.242 c 0.383,0.195 0.812,0.301 1.305,0.301 0.648,0 1.257,-0.196 1.691,-0.516 l 0.695,-0.566 c 0.211,-0.207 0.516,-0.274 0.781,-0.274 0.422,0 0.813,0.164 1.04,0.489 l 1.757,2.214 c 0.192,0.274 0.305,0.606 0.231,0.95 -0.039,0.339 -0.219,0.644 -0.477,0.867 l -11.488,9.023 c -0.23,0.18 -0.52,0.266 -0.805,0.266 -0.418,0 -0.8,-0.168 -1.039,-0.488 l -1.719,-2.207 c -0.21,-0.274 -0.312,-0.606 -0.265,-0.969 0.015,-0.321 0.219,-0.625 0.496,-0.848 l 1.562,-1.262 c 0.418,-0.3 0.641,-0.73 0.606,-1.148 -0.027,-0.453 -0.27,-0.863 -0.738,-1.156 l -23.7,-14.852 c -1.148,-0.742 -1.441,-0.851 -1.593,-0.851 -0.047,0 -0.047,0.011 -0.137,0.011 -0.199,0.098 -0.301,0.184 0.289,1.942 l 8.738,26.633 c 0.211,0.632 0.703,1.043 1.301,1.043 0.293,0 0.621,-0.157 0.941,-0.399 l 0.872,-0.684 c 0.238,-0.195 0.496,-0.292 0.82,-0.292 0.391,0 0.781,0.195 1.012,0.496 l 1.738,2.218 c 0.437,0.559 0.34,1.348 -0.211,1.817 l -12.02,9.422 c -0.253,0.168 -0.48,0.265 -0.789,0.265 -0.422,0 -0.808,-0.195 -1.019,-0.508 l -1.742,-2.199 c -0.442,-0.566 -0.34,-1.375 0.242,-1.777 l 0.879,-0.75 c 0.781,-0.606 1.191,-1.836 0.937,-2.832 l -9.945,-35.781 c -0.223,-0.715 0.105,-1.711 0.695,-2.2 m 112.844,-177.8 -0.234,1.699 c -0.11,0.644 -0.641,1.082 -1.461,1.082 h -0.028 l -2.777,-0.379 c -0.699,-0.09 -1.191,-0.781 -1.09,-1.477 l 2.215,-15.254 c 0.074,-0.625 0.609,-1.093 1.297,-1.093 h 0.152 l 2.785,0.41 c 0.707,0.121 1.176,0.734 1.09,1.465 l -0.289,1.867 c -0.082,0.539 0.059,1.035 0.348,1.457 0.332,0.398 0.769,0.652 1.258,0.699 l 28.05,3.82 c 0.942,0 1.75,-0.703 1.903,-1.66 l 0.211,-1.679 c 0.101,-0.625 0.617,-1.086 1.437,-1.086 h 0.039 l 2.781,0.39 c 0.348,0.071 0.633,0.215 0.852,0.508 0.211,0.274 0.301,0.637 0.25,0.957 l -2.191,15.246 c -0.098,0.664 -0.629,1.121 -1.43,1.121 h -0.051 l -2.758,-0.379 c -0.332,-0.039 -0.632,-0.265 -0.871,-0.5 -0.187,-0.308 -0.273,-0.644 -0.218,-0.976 l 0.257,-1.922 c 0.11,-0.488 -0.047,-1.016 -0.359,-1.406 -0.34,-0.403 -0.738,-0.664 -1.25,-0.723 l -28.02,-3.789 c -0.968,0 -1.769,0.703 -1.898,1.602 m -446.039,226.386 3.219,1.864 c 0.781,0.449 2.105,1.074 2.91,1.347 0.187,0.11 3.969,1.543 7.176,1.543 0.769,0 1.441,-0.047 2.031,-0.234 3.254,-1.004 5.691,-2.586 8.969,-8.172 3.504,-5.957 3.3,-11.668 2.023,-14.746 -1.434,-3.438 -5.562,-5.988 -5.699,-6.055 -0.582,-0.547 -4.77,-3.144 -4.961,-3.254 -0.313,-0.191 -0.649,-0.261 -0.961,-0.261 -0.66,0 -1.301,0.371 -1.613,0.945 l -13.797,24.433 c -0.5,0.93 -0.211,2.083 0.703,2.59 m -13.691,-6.328 c 0.25,-0.441 0.687,-0.683 1.125,-0.683 0.265,0 0.441,0.078 0.652,0.175 l 1.691,0.977 c 0.262,0.137 0.598,0.223 0.91,0.223 0.688,0 1.329,-0.352 1.641,-0.946 l 13.828,-24.402 c 0.492,-0.902 0.18,-2.074 -0.738,-2.59 l -1.442,-0.867 c -0.628,-0.332 -0.859,-1.156 -0.5,-1.75 l 1.379,-2.461 c 0.262,-0.402 0.692,-0.617 1.164,-0.617 0.231,0 0.43,0.051 0.629,0.137 l 14.813,8.527 c 0.734,0.418 1.926,1.203 2.644,1.707 0.043,0.07 5.852,4.219 8.282,8.047 1.507,2.258 5.781,10.508 -0.469,21.398 -4.391,7.656 -9.617,11.375 -15.981,11.375 -2.609,0 -5.48,-0.644 -8.558,-1.894 -2.703,-1.094 -4.754,-2.293 -5.543,-2.723 l -16.418,-9.445 c -0.629,-0.371 -0.848,-1.192 -0.473,-1.797 z m 77.898,17.403 c 1.699,0 3.43,0.156 5.277,0.3 1.614,0.157 3.192,0.293 4.653,0.293 2.648,0 5.851,-0.437 6.914,-3.73 0.707,-2.168 0.336,-4.121 -1.094,-5.781 -1.219,-1.356 -3.098,-2.508 -5.481,-3.301 -2.187,-0.692 -6.156,-0.985 -6.488,-0.985 -0.953,0 -1.984,0.664 -2.269,1.563 l -0.973,2.43 c -0.156,0.5 -0.633,0.839 -1.48,0.839 h -0.258 l -3.399,-1.113 c -0.312,-0.105 -0.601,-0.351 -0.761,-0.644 -0.153,-0.321 -0.153,-0.653 -0.071,-0.985 l 2.407,-7.511 c 0.242,-0.672 1.023,-1.258 1.753,-1.258 h 0.071 c 0.058,0 8.011,0.398 12.25,1.785 6.242,2.004 10.468,5 12.527,8.906 2.094,3.965 1.395,7.774 0.754,9.699 -2.203,6.844 -7.543,7.735 -11.98,7.735 -1.653,0 -3.333,-0.157 -5.153,-0.305 -1.566,-0.125 -3.086,-0.273 -4.5,-0.273 -2.601,0 -5.676,0.39 -6.68,3.566 -1.167,3.543 1.149,6.629 6.188,8.262 1.641,0.535 4.445,0.742 4.703,0.781 0.973,0 1.977,-0.684 2.34,-1.582 l 0.723,-1.867 c 0.187,-0.469 0.687,-0.821 1.507,-0.821 h 0.219 l 3.418,1.106 c 0.324,0.098 0.61,0.351 0.742,0.644 0.184,0.313 0.192,0.653 0.098,0.965 l -2.156,6.641 c -0.211,0.723 -1,1.269 -1.758,1.269 -0.082,0 -7.902,-0.378 -11.039,-1.355 -5.305,-1.719 -9.192,-4.473 -11.274,-7.832 -1.859,-3.078 -2.23,-6.613 -1.074,-10.176 2.055,-6.426 7.137,-7.265 11.344,-7.265 m 233.961,-37.278 c 0.191,-0.105 0.383,-0.152 0.582,-0.152 0.496,0 0.926,0.281 1.137,0.73 l 1.269,2.473 c 0.352,0.66 0.113,1.434 -0.515,1.754 l -1.747,0.879 c -0.437,0.234 -0.777,0.664 -0.945,1.133 -0.14,0.461 -0.094,0.988 0.125,1.425 l 12.977,24.856 c 0.324,0.633 0.972,1.015 1.707,1.015 0.297,0 0.57,-0.05 0.859,-0.207 l 1.481,-0.761 c 0.199,-0.086 0.398,-0.125 0.621,-0.125 0.465,0 0.941,0.261 1.14,0.683 l 1.297,2.5 c 0.164,0.332 0.192,0.653 0.063,0.996 -0.11,0.332 -0.344,0.594 -0.653,0.723 l -13.699,7.039 c -0.191,0.117 -0.41,0.168 -0.601,0.168 -0.5,0 -0.938,-0.285 -1.137,-0.715 l -1.281,-2.5 c -0.321,-0.652 -0.082,-1.414 0.527,-1.765 l 1.734,-0.871 c 0.442,-0.215 0.778,-0.606 0.938,-1.094 0.16,-0.496 0.101,-1.004 -0.133,-1.446 l -12.93,-24.863 c -0.355,-0.605 -1.004,-1.015 -1.726,-1.015 -0.297,0 -0.602,0.058 -0.852,0.168 l -1.515,0.8 c -0.184,0.106 -0.391,0.125 -0.602,0.125 -0.461,0 -0.934,-0.23 -1.113,-0.683 l -1.301,-2.481 c -0.336,-0.644 -0.066,-1.433 0.562,-1.746 z m -142.34,71.524 2.246,-0.118 c 0.524,-0.019 0.992,-0.203 1.356,-0.585 0.304,-0.372 0.476,-0.868 0.437,-1.336 0,0 -0.699,-13.536 -0.93,-20.625 -0.207,-5.586 1.122,-9.582 4.02,-12.188 2.723,-2.473 6.949,-3.762 12.93,-4.023 0.699,-0.039 1.453,-0.051 2.187,-0.051 7.176,0 14.715,1.965 16.152,16.23 l 0.891,19.356 c 0.039,1.015 0.922,1.816 1.953,1.816 l 1.375,-0.047 c 0.692,0 1.281,0.547 1.301,1.25 l 0.094,2.793 c 0.015,0.371 -0.094,0.672 -0.356,0.926 -0.226,0.266 -0.535,0.43 -0.879,0.449 l -14.679,0.528 c -0.7,0 -1.282,-0.547 -1.321,-1.258 l -0.105,-2.824 c -0.012,-0.692 0.535,-1.289 1.238,-1.329 l 2.289,-0.117 c 0.489,0 0.957,-0.183 1.301,-0.574 0.348,-0.332 0.535,-0.84 0.488,-1.359 l -0.859,-17.871 c -1.27,-8.907 -3.52,-11.61 -9.59,-11.61 l -0.859,0.008 c -6.68,0.293 -9.821,3.867 -9.563,10.988 0.281,6.805 0.918,19.239 0.918,19.239 0.067,0.996 0.926,1.804 2.004,1.804 l 1.363,-0.058 c 0.727,0 1.25,0.547 1.278,1.25 l 0.097,2.812 c 0,0.371 -0.097,0.656 -0.336,0.938 -0.234,0.226 -0.543,0.383 -0.875,0.402 l -15.398,0.566 c -0.699,0 -1.301,-0.546 -1.309,-1.261 l -0.117,-2.782 c -0.015,-0.722 0.547,-1.32 1.258,-1.339 M 633.637,139.258 C 543.516,28.6211 405.234,-10.1563 278.246,19.2852 153.574,47.6172 47.1133,153.074 19.2227,279.598 -14.2344,423.535 42.7773,571.563 168.418,654.629 c 112.758,76.062 268.715,75.125 379.746,3.465 51.524,-32.528 100.234,-83.172 129.465,-145.235 55.809,-114.929 44.605,-267.265 -43.992,-373.601 m 52.847,377.785 c -30.066,63.895 -80.089,115.848 -133,149.254 C 439.246,740.059 279.137,741.082 162.996,662.773 33.9844,577.5 -24.6445,425.332 9.625,277.52 38.3555,147.234 147.695,38.9453 276.063,9.73438 406.273,-20.457 548.457,19.2656 641.137,132.977 c 91.261,109.492 102.648,265.91 45.347,384.066"
         style="fill:#231f20;fill-opacity:1;fill-rule:nonzero;stroke:none"
         id="path4588"
         inkscape:connector-curvature="0" /><path
         d="m 449.434,248.496 c -4.891,-3.437 -21.629,-14.797 -31.325,-18.633 6.106,-4.23 16.582,-15.547 17.594,-39.441 0.16,-3.617 0.059,-7.543 0.16,-11.672 0.157,-4.094 0.547,-8.34 1.7,-12.715 2.015,-7.668 6.421,-15.906 16.16,-24.25 -6.032,16.203 -1.743,29.965 3.218,43.555 2.723,7.433 5.7,14.863 7.36,22.844 1.64,7.851 2.031,16.152 -0.36,25.379 -1.949,7.578 -9,14.843 -14.507,14.933 M 270.41,471.766 c 5.504,3.839 23.301,15.957 33.051,19.875 -6.125,4.238 -16.609,15.566 -17.641,39.453 -0.168,3.64 -0.007,7.566 -0.168,11.719 -0.129,4.062 -0.531,8.328 -1.691,12.703 -1.996,7.668 -6.418,15.91 -16.188,24.289 5.977,-16.387 0.879,-30.782 -4.293,-44.766 -1.402,-3.84 -2.89,-7.695 -4.089,-11.562 -1.27,-3.829 -2.321,-7.707 -2.981,-11.692 -1.25,-7.851 -0.98,-15.992 2.606,-24.742 2.566,-6.223 7.425,-12.445 11.394,-15.277 m 200.391,39.082 c 3.09,1.914 6.543,3.8 10.051,5.988 3.468,2.156 6.953,4.617 10.148,7.801 5.672,5.625 10.582,13.547 12.941,26.23 -11.25,-13.347 -26.5,-14.472 -41.429,-16.746 -4.117,-0.644 -8.239,-1.23 -12.293,-2.023 -4.008,-0.77 -7.938,-1.758 -11.727,-3.114 -7.57,-2.726 -14.508,-7.004 -20.277,-14.472 -4.082,-5.207 -6.473,-15.606 -6.606,-19.922 6.004,-2.879 25.524,-12.246 33.844,-18.723 0.598,7.414 5.149,22.129 25.348,34.981 M 234.492,259.023 c 6.52,2.688 13.34,7.071 15.391,11.231 -3.711,5.351 -16.039,23.387 -20.012,33.172 -4.207,-6.102 -15.512,-16.571 -39.473,-17.598 -3.578,-0.144 -7.515,-0.035 -11.636,-0.156 -4.078,-0.145 -8.352,-0.543 -12.731,-1.699 -7.718,-2.032 -15.91,-6.434 -24.258,-16.219 16.348,5.976 30.715,0.918 44.743,-4.277 3.836,-1.434 7.687,-2.872 11.535,-4.122 3.851,-1.23 7.719,-2.265 11.699,-2.921 7.852,-1.289 15.965,-0.965 24.742,2.589 m 251,205.243 c -6.066,-2.469 -11.699,-9.063 -13.812,-13.028 3.765,-5.379 15.992,-23.347 19.968,-33.125 4.215,6.106 15.543,16.582 39.465,17.61 3.637,0.125 7.508,0.019 11.668,0.156 4.078,0.137 8.352,0.527 12.742,1.687 7.7,2.024 15.907,6.407 24.278,16.25 -16.449,-5.937 -31.227,-0.437 -45.567,5.118 -3.929,1.543 -7.851,3.117 -11.832,4.453 -3.922,1.359 -7.898,2.48 -11.929,3.215 -7.993,1.445 -16.2,1.238 -24.981,-2.336 m -324.883,-99.43 c 2.543,-3.09 5.02,-6.176 7.672,-9.242 2.653,-3.004 5.379,-5.887 8.399,-8.563 5.953,-5.351 12.972,-9.758 22.172,-12.109 8.238,-2.102 15.078,0.078 20.621,3.027 -0.571,6.641 -2.184,28.192 -0.735,38.614 -6.707,-3.176 -21.726,-6.594 -42.957,4.484 -3.187,1.676 -6.539,3.738 -10.191,5.672 -3.625,1.941 -7.469,3.742 -11.867,4.929 -7.664,2.11 -16.969,2.364 -29.09,-1.882 17.07,-2.871 26.75,-13.711 35.976,-24.93 m 399.696,-6.914 c -2.586,3.133 -5.184,6.305 -7.934,9.312 -2.707,3.008 -5.539,5.86 -8.648,8.399 -6.149,5.019 -13.34,8.808 -22.731,10.097 -6.672,0.911 -14.371,-0.214 -18.922,-2.207 0.551,-6.687 2.133,-28.152 0.735,-38.562 6.687,3.211 21.707,6.602 42.949,-4.492 3.215,-1.653 6.547,-3.703 10.207,-5.664 3.602,-1.895 7.461,-3.711 11.832,-4.934 7.719,-2.051 17.031,-2.351 29.141,1.934 -17.164,3 -27.071,14.613 -36.629,26.117 M 189.426,463.027 c 1.812,-13.429 3.558,-21.328 4.988,-25.066 2.809,-7.434 7.168,-14.32 14.656,-20.129 5.332,-4.141 13.352,-5.781 17.942,-6.16 2.832,6.051 12.222,25.496 18.664,33.797 -7.414,0.586 -22.125,5.176 -34.961,25.359 -1.953,3.051 -3.801,6.485 -6.012,10.039 -2.168,3.469 -4.621,6.965 -7.801,10.137 -5.609,5.676 -13.55,10.617 -26.187,12.93 13.379,-11.18 16.64,-26.114 18.711,-40.907 M 532.699,259.52 c -0.629,4.14 -1.23,8.293 -2.023,12.421 -0.781,4.055 -1.766,8.047 -3.121,11.856 -2.746,7.648 -7.024,14.66 -14.485,20.469 -5.187,4.054 -13.418,5.722 -18.507,5.675 -2.809,-6.015 -12.219,-25.539 -18.723,-33.839 7.414,-0.625 22.152,-5.176 34.988,-25.372 1.945,-3.085 3.805,-6.511 6.012,-10.058 2.144,-3.457 4.609,-6.922 7.805,-10.164 5.589,-5.656 13.539,-10.547 26.195,-12.93 -13.352,11.289 -15.879,26.777 -18.141,41.942 M 376.563,502.762 c -3.2,6.75 -6.59,21.769 4.468,43 1.68,3.211 3.758,6.543 5.703,10.195 1.926,3.621 3.711,7.488 4.907,11.863 2.082,7.668 2.39,17.004 -1.911,29.145 -3.027,-17.192 -14.828,-27.16 -26.5,-36.742 -3.195,-2.618 -6.449,-5.223 -9.519,-7.969 -3.035,-2.742 -5.945,-5.582 -8.5,-8.719 -5.109,-6.144 -8.941,-13.351 -10.238,-22.734 -0.942,-6.719 0.597,-15.207 2.859,-18.742 6.508,0.578 28.273,2.199 38.731,0.703 M 344.98,218.738 c 3.184,-6.726 6.59,-21.746 -4.468,-42.937 -1.688,-3.211 -3.75,-6.563 -5.723,-10.235 -1.906,-3.562 -3.684,-7.48 -4.879,-11.847 -2.09,-7.656 -2.398,-17 1.871,-29.11 2.93,17.176 15.41,26.914 26.66,36.621 3.051,2.676 6.161,5.301 9.211,8.075 2.957,2.738 5.828,5.57 8.422,8.633 5.149,6.093 9.246,13.164 11.129,22.218 1.356,6.582 -2.031,14.336 -6.301,18.797 -6.179,-0.515 -25.781,-1.765 -35.922,-0.215 m 119.551,61.379 c 30.449,36.485 35.75,96.531 14.219,138.699 -9.867,21.184 -29.316,41.965 -49.648,54.297 -39.141,25.383 -101.071,24.942 -139.36,-1.875 -48.543,-32.097 -69.832,-87.82 -55.773,-144.101 9.433,-42.86 50.98,-84.102 93.902,-93.485 51.899,-12.023 103.359,4.102 136.66,46.465 M 250.723,210.715 c -3.043,-1.957 -6.52,-3.813 -10.008,-6 -3.492,-2.188 -6.977,-4.637 -10.192,-7.82 -5.66,-5.586 -10.582,-13.528 -12.949,-26.165 11.211,13.321 26.211,16.125 40.918,18.645 4.031,0.691 8.078,1.367 12.09,2.234 3.938,0.852 7.801,1.856 11.563,3.293 7.468,2.793 14.359,7.149 20.125,14.61 4.261,5.476 7.089,10.808 7.574,17.5 -6.071,2.851 -25.492,12.215 -33.785,18.66 -0.567,-7.402 -5.118,-22.125 -25.336,-34.957"
         style="fill:#fbc814;fill-opacity:1;fill-rule:nonzero;stroke:none"
         id="path4590"
         inkscape:connector-curvature="0" /><path
         d="m 3579.05,395.371 v 61.426 h 79.75 v 26.719 h -79.75 v 57.91 h 95.98 v 26.719 H 3551.5 V 368.652 h 123.53 v 26.719 z m -183.98,73.027 c 0,50.137 18.68,76.133 60.35,76.133 13.99,0 21.25,-1.926 28.29,-3.769 3.33,-0.899 14.43,-7.903 14.43,-7.903 l 11.38,24.231 -3.73,2.676 c -0.95,0.644 -13.81,11.777 -51.74,11.777 -59.71,0 -87.32,-38.613 -87.32,-103.145 0,-64.519 27.61,-103.136 87.32,-103.136 37.93,0 50.79,11.086 51.74,11.758 l 3.73,2.687 -10.52,22.527 -4.9,-2.351 c -3.08,-1.36 -7.04,-2.949 -10.39,-3.848 -7.04,-1.875 -14.32,-3.801 -28.29,-3.801 -41.67,0 -60.35,26.02 -60.35,76.164 m -108.43,-99.765 h 35.29 v 199.519 h -27.8 v -153.023 -1.527 l -91.32,154.55 h -35.56 V 368.633 h 27.52 v 154.754 z m -300,0.019 h 123.52 v 26.719 h -95.98 v 61.426 h 79.75 v 26.719 h -79.75 v 57.91 h 95.98 v 26.719 h -123.52 z m -92.52,-0.019 h 27.54 v 199.519 h -27.54 z m -163.61,99.765 c 0,50.137 18.68,76.133 60.35,76.133 13.98,0 21.24,-1.926 28.29,-3.769 3.31,-0.899 14.42,-7.903 14.42,-7.903 l 11.39,24.231 -3.75,2.676 c -0.92,0.644 -13.79,11.777 -51.72,11.777 -59.72,0 -87.34,-38.613 -87.34,-103.145 0,-64.519 27.62,-103.136 87.34,-103.136 37.93,0 50.8,11.086 51.72,11.758 l 3.75,2.687 -10.52,22.527 -4.9,-2.351 c -3.08,-1.36 -7.04,-2.949 -10.39,-3.848 -7.05,-1.875 -14.33,-3.801 -28.29,-3.801 -41.67,0 -60.35,26.02 -60.35,76.164 m -161.8,47.665 c -0.23,13.402 11.71,27.14 33.95,27.531 13.62,0.246 25.74,-1.711 34.4,-3.684 5.95,-1.375 14.6,-4.41 19.27,-6.133 l 7.37,24.375 -4.22,2.082 c -0.44,0.196 -23.25,11.219 -57.31,10.614 -32.11,-0.547 -62.12,-20.457 -61.51,-55.801 0.64,-36.367 20.91,-49.695 60.18,-57.918 29.89,-5.527 37.94,-15.02 38.36,-29.141 0.57,-20.898 -11.29,-34.648 -34.99,-35.058 -12.71,-0.235 -25.38,3.093 -35.08,6.582 -6.79,2.461 -16.14,7.215 -20.86,9.746 l -12.05,-24.61 c 4.68,-2.558 14.74,-7.89 23.36,-10.929 11.49,-4.063 27.53,-8.094 45.37,-7.774 40.58,0.715 63.16,29.66 62.28,63.477 -0.88,32.824 -21.82,46.672 -58.04,54.074 -32.11,6.34 -40.16,14.578 -40.48,32.567 m -175.32,-147.43 -40.05,80.379 2.71,1.504 c 17.84,9.972 31.49,28.254 31.49,56.156 0,43.601 -29.04,61.48 -70.16,61.48 h -67.93 V 368.633 h 27.51 v 73.828 l 3.25,-0.031 c 16.16,-0.028 31.33,-0.125 43.06,0.519 l 2.11,0.117 37,-74.433 z m -76.01,100.555 h -40.42 v 72.257 h 40.42 c 26.37,0 41.85,-11.113 41.85,-34.773 0,-22.66 -13.23,-37.484 -41.85,-37.484 M 2084.39,368.633 h 123.54 v 26.726 h -95.98 v 61.457 h 79.73 v 26.68 l -79.73,0.027 v 57.922 h 95.98 v 26.707 h -123.54 z m -97.48,172.812 h 58.94 v 26.707 H 1899.6 v -26.707 h 59.78 V 368.633 h 27.53 z m -116.98,-100 v 128.418 h -27.55 V 441.445 c 0,-49.57 -38.87,-47.402 -47.51,-47.402 -8.62,0 -47.5,-2.168 -47.5,47.402 v 128.418 h -27.56 V 441.445 c 0,-64.523 42.14,-74.492 75.06,-74.492 32.92,0 75.06,9.969 75.06,74.492 m -185.28,65.227 c 0,43.562 -29.06,61.48 -70.16,61.48 h -67.98 V 368.633 h 27.55 v 73.797 h 3.24 c 16.16,-0.028 34.93,0 45.18,0 44.21,0 62.17,36.308 62.17,64.242 m -28.36,0 c 0,-22.66 -13.2,-37.484 -41.8,-37.484 h -40.43 v 72.257 h 40.43 c 26.37,0 41.8,-11.152 41.8,-34.773 M 1459.23,368.633 h 27.51 v 199.519 h -36.96 l -69.47,-154.55 -69.46,154.55 h -36.96 V 368.633 h 27.51 v 154.754 l 71.44,-154.754 h 7.47 7.48 l 71.44,154.754 z m -230.36,99.765 c 0,64.532 -31.7,103.145 -91.42,103.145 -59.72,0 -91.43,-38.613 -91.43,-103.145 0,-64.519 31.71,-103.136 91.43,-103.136 59.72,0 91.42,38.617 91.42,103.136 m -28.34,0 c 0,-49.57 -22.23,-75.46 -63.08,-76.046 -40.84,0.586 -63.07,26.476 -63.07,76.046 0,49.571 22.23,75.43 63.07,76.024 40.85,-0.594 63.08,-26.453 63.08,-76.024 m -310.249,0 c 0,50.137 26.11,76.133 67.782,76.133 13.988,0 24.578,-1.926 31.628,-3.769 3.321,-0.899 7.239,-2.461 10.329,-3.809 2.75,-1.211 3.55,-3.926 3.77,-4.98 l 11.7,25.117 -3.74,2.676 c -0.93,0.644 -17.133,11.777 -55.062,11.777 -59.715,0 -94.758,-38.613 -94.758,-103.145 0,-64.519 35.043,-103.136 94.758,-103.136 37.929,0 54.132,11.086 55.062,11.758 l 3.74,2.687 -10.51,22.527 -4.91,-2.351 c -3.078,-1.36 -7.027,-2.949 -10.379,-3.848 -7.05,-1.875 -17.66,-3.801 -31.628,-3.801 -41.672,0 -67.782,26.02 -67.782,76.164"
         style="fill:#080000;fill-opacity:1;fill-rule:nonzero;stroke:none"
         id="path4592"
         inkscape:connector-curvature="0" /><path
         d="m 2350.18,226.055 c 0,19.304 -11.25,30.847 -32.03,30.847 h -45.76 V 152.52 h 13.9 v 42.675 h 31.86 c 20.78,-0.136 32.03,11.563 32.03,30.86 m -13.89,0 c 0,-12.422 -7.18,-19.297 -22.81,-19.16 h -27.19 v 38.308 h 27.19 c 15.63,0 22.81,-6.719 22.81,-19.148 m -114.3,-73.535 h 15.36 l -40.79,104.382 H 2181.2 L 2140.42,152.52 h 14.33 l 11.7,31.425 h 44.16 z m -15.78,43.125 h -35.37 l 17.7,48.679 h 0.27 z m -89.13,-43.125 -45.77,62.277 43.99,42.105 h -17.97 l -52.92,-52.05 v 52.05 h -13.9 V 152.52 h 13.9 v 36.55 l 17.39,16.211 37.72,-52.761 z m -195.01,77.332 c 0,13.593 11.72,17.832 23.4,17.832 14.32,0 24.28,-6.426 25.9,-21.336 h 13.13 c -0.86,22.949 -17.1,33.035 -38.43,33.035 -19.03,0 -37.89,-9.356 -37.89,-30.543 0,-19.152 16.82,-23.988 33.5,-27.641 16.65,-3.66 33.32,-6.14 33.32,-20.469 0,-15.058 -13.89,-19.003 -26.46,-19.003 -15.79,0 -30.4,7.597 -30.4,25.136 h -13.17 c 0,-25.429 19.74,-36.836 43.14,-36.836 19,0 40.78,8.918 40.78,31.145 0,20.469 -16.66,26.316 -33.32,30.117 -16.82,3.809 -33.5,5.703 -33.5,18.563 m -73.61,-77.332 h 15.2 v 104.382 h -13.17 v -84.648 h -0.29 l -54.97,84.648 h -14.78 V 152.52 h 13.18 v 83.769 h 0.28 z m -181.99,0 h 72.54 v 11.691 h -58.65 v 36.121 h 54.25 v 11.688 h -54.25 v 33.183 h 58.19 v 11.699 h -72.08 z m -71.15,92.683 h 34.79 v 11.699 h -83.48 v -11.699 h 34.8 V 152.52 h 13.89 z M 1443.6,152.52 h 72.52 v 11.691 h -58.64 v 36.121 h 54.25 v 11.688 h -54.25 v 33.183 h 58.19 v 11.699 h -72.07 z m -73.06,0 37.14,104.382 h -14.48 l -30.11,-90.496 h -0.3 l -29.83,90.496 h -15.05 l 36.84,-104.382 z m -84.78,0 h 15.36 l -40.79,104.382 h -15.36 L 1204.19,152.52 h 14.32 l 11.7,31.425 h 44.16 z m -15.79,43.125 h -35.37 l 17.68,48.679 h 0.3 z m -111.09,49.558 h 34.79 v 11.699 h -83.48 v -11.699 h 34.8 V 152.52 h 13.89 z m -74.57,-92.683 h 15.36 l -40.79,104.382 h -15.36 L 1002.74,152.52 h 14.32 l 11.69,31.425 h 44.17 z m -15.79,43.125 h -35.37 l 17.68,48.679 h 0.3 z m -95.118,11.55 c 0,33.633 -17.98,49.707 -50.14,49.707 H 887.441 V 152.52 h 35.821 c 34.789,0 50.14,19.734 50.14,54.675 m -13.89,-1.914 c 0,-38.437 -25.59,-41.07 -35.086,-41.07 h -23.113 v 80.992 h 23.398 c 25.594,0 34.801,-15.058 34.801,-39.922"
         style="fill:#080000;fill-opacity:1;fill-rule:nonzero;stroke:none"
         id="path4594"
         inkscape:connector-curvature="0" /></g></g></svg>