<?xml version="1.0" encoding="UTF-8" standalone="no"?>
<svg
   xmlns:dc="http://purl.org/dc/elements/1.1/"
   xmlns:cc="http://creativecommons.org/ns#"
   xmlns:rdf="http://www.w3.org/1999/02/22-rdf-syntax-ns#"
   xmlns:svg="http://www.w3.org/2000/svg"
   xmlns="http://www.w3.org/2000/svg"
   viewBox="0 0 482.99207 193.4576"
   height="193.4576"
   width="482.99207"
   xml:space="preserve"
   id="svg15329"
   version="1.1"><metadata
     id="metadata15335"><rdf:RDF><cc:Work
         rdf:about=""><dc:format>image/svg+xml</dc:format><dc:type
           rdf:resource="http://purl.org/dc/dcmitype/StillImage" /><dc:title></dc:title></cc:Work></rdf:RDF></metadata><defs
     id="defs15333"><clipPath
       id="clipPath15351"
       clipPathUnits="userSpaceOnUse"><path
         id="path15349"
         d="M 27.277,1.441 H 354.238 V 114.777 H 27.277 Z" /></clipPath><clipPath
       id="clipPath15361"
       clipPathUnits="userSpaceOnUse"><path
         id="path15359"
         d="M 0,0 H 363 V 146 H 0 Z" /></clipPath><clipPath
       id="clipPath15381"
       clipPathUnits="userSpaceOnUse"><path
         id="path15379"
         d="M 27.277,1.441 H 354.238 V 114.777 H 27.277 Z" /></clipPath><clipPath
       id="clipPath15391"
       clipPathUnits="userSpaceOnUse"><path
         id="path15389"
         d="M 0,0 H 363 V 146 H 0 Z" /></clipPath><clipPath
       id="clipPath15411"
       clipPathUnits="userSpaceOnUse"><path
         id="path15409"
         d="M 27.277,1.441 H 354.238 V 114.777 H 27.277 Z" /></clipPath><clipPath
       id="clipPath15421"
       clipPathUnits="userSpaceOnUse"><path
         id="path15419"
         d="M 0,0 H 363 V 146 H 0 Z" /></clipPath><clipPath
       id="clipPath15441"
       clipPathUnits="userSpaceOnUse"><path
         id="path15439"
         d="M 27.277,1.441 H 354.238 V 114.777 H 27.277 Z" /></clipPath><clipPath
       id="clipPath15451"
       clipPathUnits="userSpaceOnUse"><path
         id="path15449"
         d="M 0,0 H 363 V 146 H 0 Z" /></clipPath><clipPath
       id="clipPath15471"
       clipPathUnits="userSpaceOnUse"><path
         id="path15469"
         d="M 27.277,1.441 H 354.238 V 114.777 H 27.277 Z" /></clipPath><clipPath
       id="clipPath15481"
       clipPathUnits="userSpaceOnUse"><path
         id="path15479"
         d="M 0,0 H 363 V 146 H 0 Z" /></clipPath><clipPath
       id="clipPath15501"
       clipPathUnits="userSpaceOnUse"><path
         id="path15499"
         d="M 27.277,1.441 H 354.238 V 114.777 H 27.277 Z" /></clipPath><clipPath
       id="clipPath15511"
       clipPathUnits="userSpaceOnUse"><path
         id="path15509"
         d="M 0,0 H 363 V 146 H 0 Z" /></clipPath><clipPath
       id="clipPath15531"
       clipPathUnits="userSpaceOnUse"><path
         id="path15529"
         d="M 27.277,1.441 H 354.238 V 114.777 H 27.277 Z" /></clipPath><clipPath
       id="clipPath15541"
       clipPathUnits="userSpaceOnUse"><path
         id="path15539"
         d="M 0,0 H 363 V 146 H 0 Z" /></clipPath><clipPath
       id="clipPath15563"
       clipPathUnits="userSpaceOnUse"><path
         id="path15561"
         d="M 27.277,1.441 H 354.238 V 114.777 H 27.277 Z" /></clipPath><clipPath
       id="clipPath15573"
       clipPathUnits="userSpaceOnUse"><path
         id="path15571"
         d="M 0,0 H 363 V 146 H 0 Z" /></clipPath><clipPath
       id="clipPath15593"
       clipPathUnits="userSpaceOnUse"><path
         id="path15591"
         d="M 27.277,1.441 H 354.238 V 114.777 H 27.277 Z" /></clipPath><clipPath
       id="clipPath15603"
       clipPathUnits="userSpaceOnUse"><path
         id="path15601"
         d="M 0,0 H 363 V 146 H 0 Z" /></clipPath><clipPath
       id="clipPath15623"
       clipPathUnits="userSpaceOnUse"><path
         id="path15621"
         d="M 27.277,1.441 H 354.238 V 114.777 H 27.277 Z" /></clipPath><clipPath
       id="clipPath15633"
       clipPathUnits="userSpaceOnUse"><path
         id="path15631"
         d="M 0,0 H 363 V 146 H 0 Z" /></clipPath><clipPath
       id="clipPath15657"
       clipPathUnits="userSpaceOnUse"><path
         id="path15655"
         d="M 27.277,1.441 H 354.238 V 114.777 H 27.277 Z" /></clipPath><clipPath
       id="clipPath15667"
       clipPathUnits="userSpaceOnUse"><path
         id="path15665"
         d="M 0,0 H 363 V 146 H 0 Z" /></clipPath><clipPath
       id="clipPath15683"
       clipPathUnits="userSpaceOnUse"><path
         id="path15681"
         d="M 0,0 H 363 V 146 H 0 Z" /></clipPath><clipPath
       id="clipPath15699"
       clipPathUnits="userSpaceOnUse"><path
         id="path15697"
         d="M 0,0 H 363 V 146 H 0 Z" /></clipPath><clipPath
       id="clipPath15715"
       clipPathUnits="userSpaceOnUse"><path
         id="path15713"
         d="M 0,0 H 363 V 146 H 0 Z" /></clipPath></defs><g
     transform="matrix(1.3333333,0,0,1.3333333,0,3.5031067e-6)"
     id="g15337"><g
       id="g15339"><path
         id="path15341"
         style="fill:#ffffff;fill-opacity:1;fill-rule:nonzero;stroke:none"
         d="M 0,0 H 360 V 144 H 0 Z" /><path
         id="path15343"
         style="fill:#e6e6e6;fill-opacity:1;fill-rule:nonzero;stroke:none"
         d="M 27.277,1.441 H 354.238 V 114.777 H 27.277 Z" /></g><g
       id="g15345"><g
         clip-path="url(#clipPath15351)"
         id="g15347"><g
           id="g15353"><g
             id="g15355"><g
               clip-path="url(#clipPath15361)"
               id="g15357"><g
                 id="g15363"><g
                   transform="scale(1,-1)"
                   id="g15365"><path
                     id="path15367"
                     style="fill:none;stroke:#ffffff;stroke-width:1;stroke-linecap:round;stroke-linejoin:round;stroke-miterlimit:10;stroke-dasharray:none;stroke-opacity:1"
                     d="M 27.277,-114.777 V -1.441" /></g></g></g></g></g></g></g><g
       id="g15369"><text
         id="text15373"
         style="font-variant:normal;font-weight:normal;font-size:12px;font-family:'Gentium Basic';-inkscape-font-specification:GentiumBasic;writing-mode:lr-tb;fill:#000000;fill-opacity:1;fill-rule:nonzero;stroke:none"
         transform="translate(24.463124,127.35687)"><tspan
           id="tspan15371"
           y="0"
           x="0">0</tspan></text>
</g><g
       id="g15375"><g
         clip-path="url(#clipPath15381)"
         id="g15377"><g
           id="g15383"><g
             id="g15385"><g
               clip-path="url(#clipPath15391)"
               id="g15387"><g
                 id="g15393"><g
                   transform="scale(1,-1)"
                   id="g15395"><path
                     id="path15397"
                     style="fill:none;stroke:#ffffff;stroke-width:1;stroke-linecap:round;stroke-linejoin:round;stroke-miterlimit:10;stroke-dasharray:none;stroke-opacity:1"
                     d="M 81.77,-114.777 V -1.441" /></g></g></g></g></g></g></g><g
       id="g15399"><text
         id="text15403"
         style="font-variant:normal;font-weight:normal;font-size:12px;font-family:'Gentium Basic';-inkscape-font-specification:GentiumBasic;writing-mode:lr-tb;fill:#000000;fill-opacity:1;fill-rule:nonzero;stroke:none"
         transform="translate(73.332185,127.35687)"><tspan
           id="tspan15401"
           y="0"
           x="0 5.6279998 11.256">100</tspan></text>
</g><g
       id="g15405"><g
         clip-path="url(#clipPath15411)"
         id="g15407"><g
           id="g15413"><g
             id="g15415"><g
               clip-path="url(#clipPath15421)"
               id="g15417"><g
                 id="g15423"><g
                   transform="scale(1,-1)"
                   id="g15425"><path
                     id="path15427"
                     style="fill:none;stroke:#ffffff;stroke-width:1;stroke-linecap:round;stroke-linejoin:round;stroke-miterlimit:10;stroke-dasharray:none;stroke-opacity:1"
                     d="M 136.266,-114.777 V -1.441" /></g></g></g></g></g></g></g><g
       id="g15429"><text
         id="text15433"
         style="font-variant:normal;font-weight:normal;font-size:12px;font-family:'Gentium Basic';-inkscape-font-specification:GentiumBasic;writing-mode:lr-tb;fill:#000000;fill-opacity:1;fill-rule:nonzero;stroke:none"
         transform="translate(127.82625,127.35687)"><tspan
           id="tspan15431"
           y="0"
           x="0 5.6279998 11.256">200</tspan></text>
</g><g
       id="g15435"><g
         clip-path="url(#clipPath15441)"
         id="g15437"><g
           id="g15443"><g
             id="g15445"><g
               clip-path="url(#clipPath15451)"
               id="g15447"><g
                 id="g15453"><g
                   transform="scale(1,-1)"
                   id="g15455"><path
                     id="path15457"
                     style="fill:none;stroke:#ffffff;stroke-width:1;stroke-linecap:round;stroke-linejoin:round;stroke-miterlimit:10;stroke-dasharray:none;stroke-opacity:1"
                     d="M 190.758,-114.777 V -1.441" /></g></g></g></g></g></g></g><g
       id="g15459"><text
         id="text15463"
         style="font-variant:normal;font-weight:normal;font-size:12px;font-family:'Gentium Basic';-inkscape-font-specification:GentiumBasic;writing-mode:lr-tb;fill:#000000;fill-opacity:1;fill-rule:nonzero;stroke:none"
         transform="translate(182.32031,127.35687)"><tspan
           id="tspan15461"
           y="0"
           x="0 5.6279998 11.256">300</tspan></text>
</g><g
       id="g15465"><g
         clip-path="url(#clipPath15471)"
         id="g15467"><g
           id="g15473"><g
             id="g15475"><g
               clip-path="url(#clipPath15481)"
               id="g15477"><g
                 id="g15483"><g
                   transform="scale(1,-1)"
                   id="g15485"><path
                     id="path15487"
                     style="fill:none;stroke:#ffffff;stroke-width:1;stroke-linecap:round;stroke-linejoin:round;stroke-miterlimit:10;stroke-dasharray:none;stroke-opacity:1"
                     d="M 245.25,-114.777 V -1.441" /></g></g></g></g></g></g></g><g
       id="g15489"><text
         id="text15493"
         style="font-variant:normal;font-weight:normal;font-size:12px;font-family:'Gentium Basic';-inkscape-font-specification:GentiumBasic;writing-mode:lr-tb;fill:#000000;fill-opacity:1;fill-rule:nonzero;stroke:none"
         transform="translate(236.81436,127.35687)"><tspan
           id="tspan15491"
           y="0"
           x="0 5.6279998 11.256">400</tspan></text>
</g><g
       id="g15495"><g
         clip-path="url(#clipPath15501)"
         id="g15497"><g
           id="g15503"><g
             id="g15505"><g
               clip-path="url(#clipPath15511)"
               id="g15507"><g
                 id="g15513"><g
                   transform="scale(1,-1)"
                   id="g15515"><path
                     id="path15517"
                     style="fill:none;stroke:#ffffff;stroke-width:1;stroke-linecap:round;stroke-linejoin:round;stroke-miterlimit:10;stroke-dasharray:none;stroke-opacity:1"
                     d="M 299.746,-114.777 V -1.441" /></g></g></g></g></g></g></g><g
       id="g15519"><text
         id="text15523"
         style="font-variant:normal;font-weight:normal;font-size:12px;font-family:'Gentium Basic';-inkscape-font-specification:GentiumBasic;writing-mode:lr-tb;fill:#000000;fill-opacity:1;fill-rule:nonzero;stroke:none"
         transform="translate(291.30843,127.35687)"><tspan
           id="tspan15521"
           y="0"
           x="0 5.6279998 11.256">500</tspan></text>
</g><g
       id="g15525"><g
         clip-path="url(#clipPath15531)"
         id="g15527"><g
           id="g15533"><g
             id="g15535"><g
               clip-path="url(#clipPath15541)"
               id="g15537"><g
                 id="g15543"><g
                   transform="scale(1,-1)"
                   id="g15545"><path
                     id="path15547"
                     style="fill:none;stroke:#ffffff;stroke-width:1;stroke-linecap:round;stroke-linejoin:round;stroke-miterlimit:10;stroke-dasharray:none;stroke-opacity:1"
                     d="M 354.238,-114.777 V -1.441" /></g></g></g></g></g></g></g><g
       id="g15549"><text
         id="text15555"
         style="font-variant:normal;font-weight:normal;font-size:12px;font-family:'Gentium Basic';-inkscape-font-specification:GentiumBasic;writing-mode:lr-tb;fill:#000000;fill-opacity:1;fill-rule:nonzero;stroke:none"
         transform="translate(345.80249,127.35687)"><tspan
           id="tspan15551"
           y="0"
           x="0 5.6279998 11.256">600</tspan><tspan
           id="tspan15553"
           y="15.890628"
           x="-175.00563 -168.40562 -165.16562 -155.52962 -149.99762 -147.35762 -143.56563 -138.93362">Time (s)</tspan></text>
</g><g
       id="g15557"><g
         clip-path="url(#clipPath15563)"
         id="g15559"><g
           id="g15565"><g
             id="g15567"><g
               clip-path="url(#clipPath15573)"
               id="g15569"><g
                 id="g15575"><g
                   transform="scale(1,-1)"
                   id="g15577"><path
                     id="path15579"
                     style="fill:none;stroke:#ffffff;stroke-width:1;stroke-linecap:round;stroke-linejoin:round;stroke-miterlimit:10;stroke-dasharray:none;stroke-opacity:1"
                     d="M 27.277,-114.777 H 354.238" /></g></g></g></g></g></g></g><g
       id="g15581"><text
         id="text15585"
         style="font-variant:normal;font-weight:normal;font-size:12px;font-family:'Gentium Basic';-inkscape-font-specification:GentiumBasic;writing-mode:lr-tb;fill:#000000;fill-opacity:1;fill-rule:nonzero;stroke:none"
         transform="translate(18.150625,119.31781)"><tspan
           id="tspan15583"
           y="0"
           x="0">0</tspan></text>
</g><g
       id="g15587"><g
         clip-path="url(#clipPath15593)"
         id="g15589"><g
           id="g15595"><g
             id="g15597"><g
               clip-path="url(#clipPath15603)"
               id="g15599"><g
                 id="g15605"><g
                   transform="scale(1,-1)"
                   id="g15607"><path
                     id="path15609"
                     style="fill:none;stroke:#ffffff;stroke-width:1;stroke-linecap:round;stroke-linejoin:round;stroke-miterlimit:10;stroke-dasharray:none;stroke-opacity:1"
                     d="M 27.277,-70.406 H 354.238" /></g></g></g></g></g></g></g><g
       id="g15611"><text
         id="text15615"
         style="font-variant:normal;font-weight:normal;font-size:12px;font-family:'Gentium Basic';-inkscape-font-specification:GentiumBasic;writing-mode:lr-tb;fill:#000000;fill-opacity:1;fill-rule:nonzero;stroke:none"
         transform="translate(18.150625,74.945891)"><tspan
           id="tspan15613"
           y="0"
           x="0">2</tspan></text>
</g><g
       id="g15617"><g
         clip-path="url(#clipPath15623)"
         id="g15619"><g
           id="g15625"><g
             id="g15627"><g
               clip-path="url(#clipPath15633)"
               id="g15629"><g
                 id="g15635"><g
                   transform="scale(1,-1)"
                   id="g15637"><path
                     id="path15639"
                     style="fill:none;stroke:#ffffff;stroke-width:1;stroke-linecap:round;stroke-linejoin:round;stroke-miterlimit:10;stroke-dasharray:none;stroke-opacity:1"
                     d="M 27.277,-26.035 H 354.238" /></g></g></g></g></g></g></g><g
       id="g15641"><text
         id="text15645"
         style="font-variant:normal;font-weight:normal;font-size:12px;font-family:'Gentium Basic';-inkscape-font-specification:GentiumBasic;writing-mode:lr-tb;fill:#000000;fill-opacity:1;fill-rule:nonzero;stroke:none"
         transform="translate(18.150625,30.573969)"><tspan
           id="tspan15643"
           y="0"
           x="0">4</tspan></text>
<text
         id="text15649"
         style="font-variant:normal;font-weight:normal;font-size:12px;font-family:'Gentium Basic';-inkscape-font-specification:GentiumBasic;writing-mode:lr-tb;fill:#000000;fill-opacity:1;fill-rule:nonzero;stroke:none"
         transform="rotate(-90,44.235468,32.897343)"><tspan
           id="tspan15647"
           y="0"
           x="0 9.6719999 15.756 18.996 23.124001 27.756001 33.383999">Mbits/s</tspan></text>
</g><g
       id="g15651"><g
         clip-path="url(#clipPath15657)"
         id="g15653"><g
           id="g15659"><g
             id="g15661"><g
               clip-path="url(#clipPath15667)"
               id="g15663"><g
                 id="g15669"><g
                   transform="scale(1,-1)"
                   id="g15671"><path
                     id="path15673"
                     style="fill:none;stroke:#1b9e77;stroke-width:1;stroke-linecap:round;stroke-linejoin:round;stroke-miterlimit:10;stroke-dasharray:none;stroke-opacity:1"
                     d="m 29.543,-2.562 h 0.191 l 0.192,-2.129 h 0.379 l 0.574,-18.586 h 0.379 l 2.289,-11.446 0.953,-17.39 h 0.383 l 1.719,-15.731 h 0.187 l 2.098,-1.824 h 0.191 l 2.481,-0.496 2.289,0.641 h 1.527 l 1.523,-1.465 h 0.383 l 3.051,-1.125 h 0.574 l 1.715,-0.223 1.527,0.746 h 2.098 l 0.57,1.711 h 0.192 l 3.816,1.168 h 0.953 l 0.953,0.668 h 0.379 l 4.2,0.176 1.144,-0.371 1.906,1.535 h 2.289 l 1.145,0.219 2.859,-1.012 h 1.528 l 1.906,0.168 2.48,-2.328 h 0.954 l 1.523,0.64 3.055,0.524 2.48,0.031 2.86,0.379 h 0.953 l 1.527,-0.246 3.051,-0.793 h 0.953 l 2.098,-0.781 1.906,-0.188 h 1.527 l 1.715,-1.531 h 0.191 l 1.907,-0.77 h 1.527 l 2.672,-0.484 1.715,0.793 h 1.144 l 0.383,1.258 h 0.191 l 4.004,1.558 h 0.762 l 1.719,2.231 h 0.187 l 2.481,-0.598 h 1.144 l 1.336,-0.289 4.004,-0.176 1.145,-0.988 h 0.382 l 4.004,0.266 1.911,-1.903 h 0.187 l 2.289,-0.379 h 1.145 l 0.765,0.68 4.004,0.797 h 0.571 l 0.765,3.246 3.621,-1 h 1.145 l 1.91,-0.859 2.289,-1.125 h 1.144 l 1.524,-1.68 2.863,1.324 h 1.145 l 1.144,1.36 h 0.188 l 2.48,0.929 h 1.528 l 2.097,-0.386 2.098,-0.59 h 1.336 l 1.523,-0.571 1.719,-2.402 h 2.289 l 1.906,-1.137 2.481,-0.765 3.242,-0.11 1.715,1.438 h 1.527 l 1.524,2.035 h 0.191 l 1.906,2.539 h 1.719 l 1.715,-1.668 h 0.191 l 2.672,-0.926 h 0.953 l 1.145,0.266 2.48,-0.352 h 1.715 l 2.098,1.184 2.48,1.613 h 0.953 l 1.528,-2.058 3.051,-1.707 h 0.953 l 1.144,-0.828 h 0.192 l 3.05,-0.852 h 0.953 l 0.954,1.34 2.863,1.621 h 1.715 l 0.574,0.449 h 0.187 l 4.579,0.125 1.527,0.457 3.051,-0.777 h 0.953 l 2.097,-1.266 h 0.383 l 1.715,0.317 h 1.145 l 1.527,2.265 h 0.191 l 2.098,-0.207 h 1.715 l 1.719,2.5 h 0.191 l 2.289,-0.332 h 1.332 l 1.336,-1.086 h 0.383 l 2.476,-1.105 h 1.145 l 1.91,-1.071 h 0.379 l 0.957,-1.101 h 2.285 l 1.528,-3.574 h 0.191 l 2.098,1.726 h 1.527 l 2.477,-0.32 1.718,2.121 h 1.336 l 0.953,3.109 h 0.192 l 4.195,-0.156 1.524,-0.566 2.48,-1.821 h 1.527 l 2.098,-1.257 h 0.379 l 2.48,-1.86 h 0.575 l 1.906,0.199 3.433,-0.164 1.145,2.508 h 0.191 l 3.051,1.203 h 1.145 l 1.144,1.774 h 0.192 l 3.05,0.793 h 0.954 l 1.144,-1.235 h 0.191 l 4.196,0.227 1.523,-1.188 h 0.383 l 2.48,0.305 2.481,-0.07 2.668,0.484 h 1.336 l 1.527,0.18 2.098,-2.18 h 1.906 l 0.762,-0.183 3.055,-1.532 h 1.523 l 3.242,4.887 h 2.289 l 0.574,0.895 h 5.34" /></g></g></g></g></g><g
           id="g15675"><g
             id="g15677"><g
               clip-path="url(#clipPath15683)"
               id="g15679"><g
                 id="g15685"><g
                   transform="scale(1,-1)"
                   id="g15687"><path
                     id="path15689"
                     style="fill:none;stroke:#d95f02;stroke-width:1;stroke-linecap:round;stroke-linejoin:round;stroke-miterlimit:10;stroke-dasharray:none;stroke-opacity:1"
                     d="m 29.406,-89.289 h 1.699 v 14.957 h 320.008" /></g></g></g></g></g><g
           id="g15691"><g
             id="g15693"><g
               clip-path="url(#clipPath15699)"
               id="g15695"><g
                 id="g15701"><g
                   transform="scale(1,-1)"
                   id="g15703"><path
                     id="path15705"
                     style="fill:none;stroke:#1b9e77;stroke-width:1;stroke-linecap:butt;stroke-linejoin:round;stroke-miterlimit:10;stroke-dasharray:3.7, 1.6;stroke-dashoffset:0;stroke-opacity:1"
                     d="m 29.676,-6.488 0.383,-1.211 h 0.379 l 1.718,-26.914 h 0.379 l 0.383,-14 h 1.144 l 1.524,-20.192 3.625,-20.222 h 0.574 l 1.145,-0.305 1.906,1.031 h 0.383 l 1.144,-0.574 h 0.379 l 0.762,-0.527 h 0.383 l 1.718,-0.832 1.715,-0.094 h 1.715 l 3.055,1.289 h 2.289 l 0.57,0.582 h 0.192 l 4.769,-0.133 0.762,-1.051 5.148,0.094 0.953,-0.711 h 0.192 l 1.527,-1.98 h 2.289 l 0.571,0.992 h 0.191 l 2.859,-0.738 h 1.91 l 0.762,1.566 h 0.383 l 2.668,1.504 2.863,0.098 4.196,0.093 3.812,-0.836 h 1.527 l 1.528,-0.847 2.668,-0.301 2.672,0.004 2.476,0.172 h 1.719 l 1.715,0.289 1.336,0.91 h 2.289 l 1.719,-0.176 2.097,0.707 h 1.715 l 0.191,0.246 h 0.192 l 3.621,0.864 h 1.336 l 3.816,-0.696 h 1.715 l 0.953,-0.422 h 0.383 l 2.289,-0.234 h 1.715 l 0.574,0.426 h 0.192 l 3.242,0.687 h 1.523 l 3.817,-0.824 h 1.714 l 0.575,-1.066 h 0.191 l 3.813,-1.715 h 0.761 l 0.383,0.445 h 0.383 l 2.476,0.848 5.344,0.086 1.715,0.543 h 0.57 l 1.145,0.269 2.48,-0.765 h 1.907 l 0.574,1.765 h 0.191 l 2.86,0.66 h 1.718 l 2.098,-0.765 1.906,-0.188 h 1.528 l 0.761,-0.336 2.289,-1.246 h 2.481 l 0.762,1.172 2.859,-0.207 h 1.719 l 2.48,-1.285 h 0.379 l 1.719,0.453 h 0.953 l 1.336,0.176 2.668,-0.531 h 1.336 l 1.144,0.515 h 0.379 l 2.864,-0.347 8.011,-0.024 3.242,0.598 h 0.762 l 0.953,-0.77 h 0.192 l 3.051,0.66 h 1.335 l 0.954,0.461 4.386,0.094 0.762,-0.558 h 0.191 l 2.481,0.476 h 2.098 l 0.191,-0.234 h 0.191 l 2.098,2.336 h 2.859 l 1.336,0.175 2.481,-0.32 2.859,0.063 2.481,-2.547 h 1.714 l 1.911,0.847 2.285,-0.82 4.008,-0.062 1.336,-0.118 h 1.523 l 1.144,0.297 2.29,0.914 h 1.906 l 1.527,0.684 1.145,0.863 h 2.859 l 0.766,-1.722 h 0.187 l 2.481,-1.301 h 1.906 l 1.719,-1.668 h 0.382 l 3.43,-0.129 0.766,-0.375 2.668,1.062 h 1.91 l 0.379,0.965 h 0.191 l 2.86,0.496 h 2.101 l 0.57,1.59 4.961,-0.109 1.715,-0.399 5.149,-0.285 5.531,0.395 2.289,0.57 h 1.527 l 0.953,0.445 h 0.383 l 2.477,0.512 h 1.719 l 1.336,0.16 2.667,-0.679 h 1.336 l 1.145,-0.52 h 0.383 l 2.668,-1.086 2.48,0.004 2.098,0.371 h 2.289 l 0.191,-0.93 h 0.379 l 2.481,1.297 h 2.289 l 0.191,0.938 h 0.192 l 3.05,-0.406 h 2.098 l 0.191,2.339 h 5.723" /></g></g></g></g></g><g
           id="g15707"><g
             id="g15709"><g
               clip-path="url(#clipPath15715)"
               id="g15711"><g
                 id="g15717"><g
                   transform="scale(1,-1)"
                   id="g15719"><path
                     id="path15721"
                     style="fill:none;stroke:#d95f02;stroke-width:1;stroke-linecap:butt;stroke-linejoin:round;stroke-miterlimit:10;stroke-dasharray:3.7, 1.6;stroke-dashoffset:0;stroke-opacity:1"
                     d="m 29.551,-89.289 h 4.394 v 14.957 h 5.184 v -14.957 h 312.117" /></g></g></g></g></g></g></g></g></svg>