<?xml version="1.0" encoding="UTF-8" standalone="no"?>
<svg
   xmlns:dc="http://purl.org/dc/elements/1.1/"
   xmlns:cc="http://creativecommons.org/ns#"
   xmlns:rdf="http://www.w3.org/1999/02/22-rdf-syntax-ns#"
   xmlns:svg="http://www.w3.org/2000/svg"
   xmlns="http://www.w3.org/2000/svg"
   viewBox="0 0 480 195.21208"
   height="195.21208"
   width="480"
   xml:space="preserve"
   id="svg13379"
   version="1.1"><metadata
     id="metadata13385"><rdf:RDF><cc:Work
         rdf:about=""><dc:format>image/svg+xml</dc:format><dc:type
           rdf:resource="http://purl.org/dc/dcmitype/StillImage" /><dc:title></dc:title></cc:Work></rdf:RDF></metadata><defs
     id="defs13383"><clipPath
       id="clipPath13401"
       clipPathUnits="userSpaceOnUse"><path
         id="path13399"
         d="m 41.277,2.754 h 312.961 v 113.34 H 41.277 Z" /></clipPath><clipPath
       id="clipPath13411"
       clipPathUnits="userSpaceOnUse"><path
         id="path13409"
         d="M 0,0 H 360 V 147 H 0 Z" /></clipPath><clipPath
       id="clipPath13431"
       clipPathUnits="userSpaceOnUse"><path
         id="path13429"
         d="m 41.277,2.754 h 312.961 v 113.34 H 41.277 Z" /></clipPath><clipPath
       id="clipPath13441"
       clipPathUnits="userSpaceOnUse"><path
         id="path13439"
         d="M 0,0 H 360 V 147 H 0 Z" /></clipPath><clipPath
       id="clipPath13461"
       clipPathUnits="userSpaceOnUse"><path
         id="path13459"
         d="m 41.277,2.754 h 312.961 v 113.34 H 41.277 Z" /></clipPath><clipPath
       id="clipPath13471"
       clipPathUnits="userSpaceOnUse"><path
         id="path13469"
         d="M 0,0 H 360 V 147 H 0 Z" /></clipPath><clipPath
       id="clipPath13491"
       clipPathUnits="userSpaceOnUse"><path
         id="path13489"
         d="m 41.277,2.754 h 312.961 v 113.34 H 41.277 Z" /></clipPath><clipPath
       id="clipPath13501"
       clipPathUnits="userSpaceOnUse"><path
         id="path13499"
         d="M 0,0 H 360 V 147 H 0 Z" /></clipPath><clipPath
       id="clipPath13521"
       clipPathUnits="userSpaceOnUse"><path
         id="path13519"
         d="m 41.277,2.754 h 312.961 v 113.34 H 41.277 Z" /></clipPath><clipPath
       id="clipPath13531"
       clipPathUnits="userSpaceOnUse"><path
         id="path13529"
         d="M 0,0 H 360 V 147 H 0 Z" /></clipPath><clipPath
       id="clipPath13553"
       clipPathUnits="userSpaceOnUse"><path
         id="path13551"
         d="m 41.277,2.754 h 312.961 v 113.34 H 41.277 Z" /></clipPath><clipPath
       id="clipPath13563"
       clipPathUnits="userSpaceOnUse"><path
         id="path13561"
         d="M 0,0 H 360 V 147 H 0 Z" /></clipPath><clipPath
       id="clipPath13583"
       clipPathUnits="userSpaceOnUse"><path
         id="path13581"
         d="m 41.277,2.754 h 312.961 v 113.34 H 41.277 Z" /></clipPath><clipPath
       id="clipPath13593"
       clipPathUnits="userSpaceOnUse"><path
         id="path13591"
         d="M 0,0 H 360 V 147 H 0 Z" /></clipPath><clipPath
       id="clipPath13613"
       clipPathUnits="userSpaceOnUse"><path
         id="path13611"
         d="m 41.277,2.754 h 312.961 v 113.34 H 41.277 Z" /></clipPath><clipPath
       id="clipPath13623"
       clipPathUnits="userSpaceOnUse"><path
         id="path13621"
         d="M 0,0 H 360 V 147 H 0 Z" /></clipPath><clipPath
       id="clipPath13643"
       clipPathUnits="userSpaceOnUse"><path
         id="path13641"
         d="m 41.277,2.754 h 312.961 v 113.34 H 41.277 Z" /></clipPath><clipPath
       id="clipPath13653"
       clipPathUnits="userSpaceOnUse"><path
         id="path13651"
         d="M 0,0 H 360 V 147 H 0 Z" /></clipPath><clipPath
       id="clipPath13673"
       clipPathUnits="userSpaceOnUse"><path
         id="path13671"
         d="m 41.277,2.754 h 312.961 v 113.34 H 41.277 Z" /></clipPath><clipPath
       id="clipPath13683"
       clipPathUnits="userSpaceOnUse"><path
         id="path13681"
         d="M 0,0 H 360 V 147 H 0 Z" /></clipPath><clipPath
       id="clipPath13707"
       clipPathUnits="userSpaceOnUse"><path
         id="path13705"
         d="m 41.277,2.754 h 312.961 v 113.34 H 41.277 Z" /></clipPath><clipPath
       id="clipPath13717"
       clipPathUnits="userSpaceOnUse"><path
         id="path13715"
         d="M 0,0 H 360 V 147 H 0 Z" /></clipPath><clipPath
       id="clipPath13733"
       clipPathUnits="userSpaceOnUse"><path
         id="path13731"
         d="M 0,0 H 360 V 147 H 0 Z" /></clipPath><clipPath
       id="clipPath13749"
       clipPathUnits="userSpaceOnUse"><path
         id="path13747"
         d="M 0,0 H 360 V 147 H 0 Z" /></clipPath><clipPath
       id="clipPath13765"
       clipPathUnits="userSpaceOnUse"><path
         id="path13763"
         d="M 0,0 H 360 V 147 H 0 Z" /></clipPath></defs><g
     transform="matrix(1.3333333,0,0,1.3333333,0,7.5469686e-6)"
     id="g13387"><g
       id="g13389"><path
         id="path13391"
         style="fill:#ffffff;fill-opacity:1;fill-rule:nonzero;stroke:none"
         d="m 0,1.316 h 360 v 144 H 0 Z" /><path
         id="path13393"
         style="fill:#e6e6e6;fill-opacity:1;fill-rule:nonzero;stroke:none"
         d="m 41.277,2.754 h 312.961 v 113.34 H 41.277 Z" /></g><g
       id="g13395"><g
         clip-path="url(#clipPath13401)"
         id="g13397"><g
           id="g13403"><g
             id="g13405"><g
               clip-path="url(#clipPath13411)"
               id="g13407"><g
                 id="g13413"><g
                   transform="scale(1,-1)"
                   id="g13415"><path
                     id="path13417"
                     style="fill:none;stroke:#ffffff;stroke-width:1;stroke-linecap:round;stroke-linejoin:round;stroke-miterlimit:10;stroke-dasharray:none;stroke-opacity:1"
                     d="M 41.277,-116.094 V -2.754" /></g></g></g></g></g></g></g><g
       id="g13419"><text
         id="text13423"
         style="font-variant:normal;font-weight:normal;font-size:12px;font-family:'Gentium Basic';-inkscape-font-specification:GentiumBasic;writing-mode:lr-tb;fill:#000000;fill-opacity:1;fill-rule:nonzero;stroke:none"
         transform="translate(38.463124,128.67273)"><tspan
           id="tspan13421"
           y="0"
           x="0">0</tspan></text>
</g><g
       id="g13425"><g
         clip-path="url(#clipPath13431)"
         id="g13427"><g
           id="g13433"><g
             id="g13435"><g
               clip-path="url(#clipPath13441)"
               id="g13437"><g
                 id="g13443"><g
                   transform="scale(1,-1)"
                   id="g13445"><path
                     id="path13447"
                     style="fill:none;stroke:#ffffff;stroke-width:1;stroke-linecap:round;stroke-linejoin:round;stroke-miterlimit:10;stroke-dasharray:none;stroke-opacity:1"
                     d="M 115.633,-116.094 V -2.754" /></g></g></g></g></g></g></g><g
       id="g13449"><text
         id="text13453"
         style="font-variant:normal;font-weight:normal;font-size:12px;font-family:'Gentium Basic';-inkscape-font-specification:GentiumBasic;writing-mode:lr-tb;fill:#000000;fill-opacity:1;fill-rule:nonzero;stroke:none"
         transform="translate(110.00745,128.67273)"><tspan
           id="tspan13451"
           y="0"
           x="0 5.6279998">10</tspan></text>
</g><g
       id="g13455"><g
         clip-path="url(#clipPath13461)"
         id="g13457"><g
           id="g13463"><g
             id="g13465"><g
               clip-path="url(#clipPath13471)"
               id="g13467"><g
                 id="g13473"><g
                   transform="scale(1,-1)"
                   id="g13475"><path
                     id="path13477"
                     style="fill:none;stroke:#ffffff;stroke-width:1;stroke-linecap:round;stroke-linejoin:round;stroke-miterlimit:10;stroke-dasharray:none;stroke-opacity:1"
                     d="M 189.988,-116.094 V -2.754" /></g></g></g></g></g></g></g><g
       id="g13479"><text
         id="text13483"
         style="font-variant:normal;font-weight:normal;font-size:12px;font-family:'Gentium Basic';-inkscape-font-specification:GentiumBasic;writing-mode:lr-tb;fill:#000000;fill-opacity:1;fill-rule:nonzero;stroke:none"
         transform="translate(184.36427,128.67273)"><tspan
           id="tspan13481"
           y="0"
           x="0 5.6279998">20</tspan></text>
</g><g
       id="g13485"><g
         clip-path="url(#clipPath13491)"
         id="g13487"><g
           id="g13493"><g
             id="g13495"><g
               clip-path="url(#clipPath13501)"
               id="g13497"><g
                 id="g13503"><g
                   transform="scale(1,-1)"
                   id="g13505"><path
                     id="path13507"
                     style="fill:none;stroke:#ffffff;stroke-width:1;stroke-linecap:round;stroke-linejoin:round;stroke-miterlimit:10;stroke-dasharray:none;stroke-opacity:1"
                     d="M 264.348,-116.094 V -2.754" /></g></g></g></g></g></g></g><g
       id="g13509"><text
         id="text13513"
         style="font-variant:normal;font-weight:normal;font-size:12px;font-family:'Gentium Basic';-inkscape-font-specification:GentiumBasic;writing-mode:lr-tb;fill:#000000;fill-opacity:1;fill-rule:nonzero;stroke:none"
         transform="translate(258.7211,128.67273)"><tspan
           id="tspan13511"
           y="0"
           x="0 5.6279998">30</tspan></text>
</g><g
       id="g13515"><g
         clip-path="url(#clipPath13521)"
         id="g13517"><g
           id="g13523"><g
             id="g13525"><g
               clip-path="url(#clipPath13531)"
               id="g13527"><g
                 id="g13533"><g
                   transform="scale(1,-1)"
                   id="g13535"><path
                     id="path13537"
                     style="fill:none;stroke:#ffffff;stroke-width:1;stroke-linecap:round;stroke-linejoin:round;stroke-miterlimit:10;stroke-dasharray:none;stroke-opacity:1"
                     d="M 338.703,-116.094 V -2.754" /></g></g></g></g></g></g></g><g
       id="g13539"><text
         id="text13545"
         style="font-variant:normal;font-weight:normal;font-size:12px;font-family:'Gentium Basic';-inkscape-font-specification:GentiumBasic;writing-mode:lr-tb;fill:#000000;fill-opacity:1;fill-rule:nonzero;stroke:none"
         transform="translate(333.07793,128.67273)"><tspan
           id="tspan13541"
           y="0"
           x="0 5.6279998">40</tspan><tspan
           id="tspan13543"
           y="15.890628"
           x="-155.28107 -148.68106 -145.44107 -135.80507 -130.27307 -127.63306 -123.84106 -119.20907">Time (s)</tspan></text>
</g><g
       id="g13547"><g
         clip-path="url(#clipPath13553)"
         id="g13549"><g
           id="g13555"><g
             id="g13557"><g
               clip-path="url(#clipPath13563)"
               id="g13559"><g
                 id="g13565"><g
                   transform="scale(1,-1)"
                   id="g13567"><path
                     id="path13569"
                     style="fill:none;stroke:#ffffff;stroke-width:1;stroke-linecap:round;stroke-linejoin:round;stroke-miterlimit:10;stroke-dasharray:none;stroke-opacity:1"
                     d="M 41.277,-116.094 H 354.238" /></g></g></g></g></g></g></g><g
       id="g13571"><text
         id="text13575"
         style="font-variant:normal;font-weight:normal;font-size:12px;font-family:'Gentium Basic';-inkscape-font-specification:GentiumBasic;writing-mode:lr-tb;fill:#000000;fill-opacity:1;fill-rule:nonzero;stroke:none"
         transform="translate(18.150625,120.63367)"><tspan
           id="tspan13573"
           y="0"
           x="0 5.6279998 8.3760004 14.004">0.00</tspan></text>
</g><g
       id="g13577"><g
         clip-path="url(#clipPath13583)"
         id="g13579"><g
           id="g13585"><g
             id="g13587"><g
               clip-path="url(#clipPath13593)"
               id="g13589"><g
                 id="g13595"><g
                   transform="scale(1,-1)"
                   id="g13597"><path
                     id="path13599"
                     style="fill:none;stroke:#ffffff;stroke-width:1;stroke-linecap:round;stroke-linejoin:round;stroke-miterlimit:10;stroke-dasharray:none;stroke-opacity:1"
                     d="M 41.277,-87.762 H 354.238" /></g></g></g></g></g></g></g><g
       id="g13601"><text
         id="text13605"
         style="font-variant:normal;font-weight:normal;font-size:12px;font-family:'Gentium Basic';-inkscape-font-specification:GentiumBasic;writing-mode:lr-tb;fill:#000000;fill-opacity:1;fill-rule:nonzero;stroke:none"
         transform="translate(18.150625,92.29898)"><tspan
           id="tspan13603"
           y="0"
           x="0 5.6279998 8.3760004 14.004">0.25</tspan></text>
</g><g
       id="g13607"><g
         clip-path="url(#clipPath13613)"
         id="g13609"><g
           id="g13615"><g
             id="g13617"><g
               clip-path="url(#clipPath13623)"
               id="g13619"><g
                 id="g13625"><g
                   transform="scale(1,-1)"
                   id="g13627"><path
                     id="path13629"
                     style="fill:none;stroke:#ffffff;stroke-width:1;stroke-linecap:round;stroke-linejoin:round;stroke-miterlimit:10;stroke-dasharray:none;stroke-opacity:1"
                     d="M 41.277,-59.426 H 354.238" /></g></g></g></g></g></g></g><g
       id="g13631"><text
         id="text13635"
         style="font-variant:normal;font-weight:normal;font-size:12px;font-family:'Gentium Basic';-inkscape-font-specification:GentiumBasic;writing-mode:lr-tb;fill:#000000;fill-opacity:1;fill-rule:nonzero;stroke:none"
         transform="translate(18.150625,63.964293)"><tspan
           id="tspan13633"
           y="0"
           x="0 5.6279998 8.3760004 14.004">0.50</tspan></text>
</g><g
       id="g13637"><g
         clip-path="url(#clipPath13643)"
         id="g13639"><g
           id="g13645"><g
             id="g13647"><g
               clip-path="url(#clipPath13653)"
               id="g13649"><g
                 id="g13655"><g
                   transform="scale(1,-1)"
                   id="g13657"><path
                     id="path13659"
                     style="fill:none;stroke:#ffffff;stroke-width:1;stroke-linecap:round;stroke-linejoin:round;stroke-miterlimit:10;stroke-dasharray:none;stroke-opacity:1"
                     d="M 41.277,-31.09 H 354.238" /></g></g></g></g></g></g></g><g
       id="g13661"><text
         id="text13665"
         style="font-variant:normal;font-weight:normal;font-size:12px;font-family:'Gentium Basic';-inkscape-font-specification:GentiumBasic;writing-mode:lr-tb;fill:#000000;fill-opacity:1;fill-rule:nonzero;stroke:none"
         transform="translate(18.150625,35.629606)"><tspan
           id="tspan13663"
           y="0"
           x="0 5.6279998 8.3760004 14.004">0.75</tspan></text>
</g><g
       id="g13667"><g
         clip-path="url(#clipPath13673)"
         id="g13669"><g
           id="g13675"><g
             id="g13677"><g
               clip-path="url(#clipPath13683)"
               id="g13679"><g
                 id="g13685"><g
                   transform="scale(1,-1)"
                   id="g13687"><path
                     id="path13689"
                     style="fill:none;stroke:#ffffff;stroke-width:1;stroke-linecap:round;stroke-linejoin:round;stroke-miterlimit:10;stroke-dasharray:none;stroke-opacity:1"
                     d="M 41.277,-2.754 H 354.238" /></g></g></g></g></g></g></g><g
       id="g13691"><text
         id="text13695"
         style="font-variant:normal;font-weight:normal;font-size:12px;font-family:'Gentium Basic';-inkscape-font-specification:GentiumBasic;writing-mode:lr-tb;fill:#000000;fill-opacity:1;fill-rule:nonzero;stroke:none"
         transform="translate(18.150625,7.294922)"><tspan
           id="tspan13693"
           y="0"
           x="0 5.6279998 8.3760004 14.004">1.00</tspan></text>
<text
         id="text13699"
         style="font-variant:normal;font-weight:normal;font-size:12px;font-family:'Gentium Basic';-inkscape-font-specification:GentiumBasic;writing-mode:lr-tb;fill:#000000;fill-opacity:1;fill-rule:nonzero;stroke:none"
         transform="rotate(-90,52.130701,40.792575)"><tspan
           id="tspan13697"
           y="0"
           x="0 7.1399999 10.38 15.12 19.247999 22.488001 32.124001 37.655998 40.296001 44.964001 51.576 57.071999 61.812">Airtime share</tspan></text>
</g><g
       id="g13701"><g
         clip-path="url(#clipPath13707)"
         id="g13703"><g
           id="g13709"><g
             id="g13711"><g
               clip-path="url(#clipPath13717)"
               id="g13713"><g
                 id="g13719"><g
                   transform="scale(1,-1)"
                   id="g13721"><path
                     id="path13723"
                     style="fill:none;stroke:#1b9e77;stroke-width:1;stroke-linecap:round;stroke-linejoin:round;stroke-miterlimit:10;stroke-dasharray:none;stroke-opacity:1"
                     d="m 43.414,-116.094 5.945,0.032 h 80.309 l 1.488,18.199 1.485,33.726 1.488,-2.703 1.488,2.09 1.485,-0.73 1.488,1.347 1.488,-1.797 1.488,-0.429 1.485,2.054 1.488,0.606 1.488,-2.981 1.485,2.375 1.488,-1.058 h 1.488 l 1.485,1.058 1.488,-1.476 1.488,0.668 1.489,-0.16 1.484,1.121 1.488,-1.629 1.488,0.418 1.485,1.058 1.488,-1.058 h 1.488 l 1.489,1.058 1.484,-1.058 1.488,0.148 1.485,0.883 1.488,-1.004 1.488,0.262 1.489,0.793 1.484,-1.082 2.976,0.535 1.489,0.449 1.484,-8.387 1.488,-17.976 1.489,1.793 1.484,-2.567 1.488,0.196 1.489,1.636 2.972,-2.117 1.489,1.059 h 1.488 l 1.488,1.058 1.484,-1.992 1.489,0.934 h 1.484 l 1.488,1.664 1.489,-1.988 2.972,1.355 1.489,-1.031 h 1.488 l 1.484,-0.16 1.489,0.16 1.488,1.058 h 1.488 l 1.485,-1.289 1.488,-0.187 1.488,0.32 1.484,1.156 1.489,-1.058 h 2.976 l 1.485,2.019 1.488,-2.535 1.484,0.703 1.489,-0.187 h 1.488 l 2.973,-8.461 1.488,0.219 1.488,-0.219 1.485,1.058 1.488,-1.058 h 2.976 l 1.485,1.058 1.488,-1.058 h 2.977 l 2.972,1.058 1.488,-1.058 h 4.461 l 1.489,0.543 1.484,-0.543 h 4.461 l 1.488,2.09 1.489,-2.09 1.488,-1.055 1.484,2.113 1.489,-1.574 1.488,0.516 1.484,1.058 1.488,-1.058 h 2.973 l 1.488,1.058 1.489,-1.058 1.484,0.543 1.488,-0.543 h 4.461 l 1.489,1.058 1.488,-1.058 1.484,1.058 1.489,-1.378 1.488,3.492 1.484,-16.543 1.488,-3.492 h 34.204" /></g></g></g></g></g><g
           id="g13725"><g
             id="g13727"><g
               clip-path="url(#clipPath13733)"
               id="g13729"><g
                 id="g13735"><g
                   transform="scale(1,-1)"
                   id="g13737"><path
                     id="path13739"
                     style="fill:none;stroke:#d95f02;stroke-width:1;stroke-linecap:round;stroke-linejoin:round;stroke-miterlimit:10;stroke-dasharray:none;stroke-opacity:1"
                     d="m 43.414,-116.094 5.945,0.032 h 184.407 l 1.488,2.546 1.488,18.055 1.485,-3.437 2.976,0.062 1.485,0.348 1.488,-0.41 1.488,-0.825 1.488,0.289 1.485,0.52 1.488,-0.742 1.488,2.285 1.489,-2.344 h 1.484 l 1.488,2.344 1.488,-2.344 h 1.485 l 1.488,1.809 1.488,-1.809 1.489,0.903 1.484,0.269 1.488,-0.293 1.489,-1.359 1.484,2.824 1.488,-3.516 1.489,3.883 1.488,-2.734 1.484,-0.098 1.489,2.512 1.488,-2.356 1.484,-0.039 1.488,2.344 1.489,-2.855 1.484,3.164 1.488,-2.653 1.489,-0.156 1.484,0.156 1.488,1.524 1.489,-0.387 1.488,-1.137 1.484,2.344 1.489,-2.344 h 1.488 l 1.484,0.934 1.489,-0.192 1.488,2.782 1.484,16.886 1.488,-36.757 h 34.204" /></g></g></g></g></g><g
           id="g13741"><g
             id="g13743"><g
               clip-path="url(#clipPath13749)"
               id="g13745"><g
                 id="g13751"><g
                   transform="scale(1,-1)"
                   id="g13753"><path
                     id="path13755"
                     style="fill:none;stroke:#7570b3;stroke-width:1;stroke-linecap:round;stroke-linejoin:round;stroke-miterlimit:10;stroke-dasharray:none;stroke-opacity:1"
                     d="m 43.414,-116.094 5.945,0.032 h 132.36 l 1.484,9.433 1.488,16.32 1.489,-0.875 1.484,0.184 1.488,-0.344 1.489,1.699 1.488,-2.152 2.973,2.242 1.488,-1.504 1.488,-0.214 1.484,0.191 1.489,1.133 1.484,-0.793 1.488,-0.098 1.489,0.098 1.488,1.058 1.484,-0.371 1.489,-0.687 1.488,-0.965 1.484,2.023 h 1.489 l 1.488,-0.461 1.488,0.461 1.485,-2.652 1.488,2.652 h 1.488 l 1.484,-1.058 1.489,-0.301 1.488,0.301 1.488,0.988 1.485,-0.988 1.488,0.129 1.484,0.765 1.489,-1.183 1.488,-0.77 1.488,-3.172 1.485,-4.23 h 1.488 l 1.488,1.344 1.485,-2.211 1.488,1.25 1.488,1.734 1.488,-2.117 1.485,-1.281 1.488,3.398 1.488,-2.117 h 8.922 l 1.488,0.863 1.489,-1.183 1.484,0.32 h 1.488 l 1.489,2.117 1.484,-2.117 h 1.488 l 1.489,-1.055 1.488,2.113 1.484,-1.058 h 1.489 l 1.488,0.641 1.484,-0.641 h 1.488 l 1.489,2.117 1.484,-2.117 h 7.438 l 1.488,1.027 1.484,-1.027 1.489,0.285 1.488,-0.285 h 2.973 l 1.488,3.172 1.484,-7.828 1.488,-12.207 h 34.204" /></g></g></g></g></g><g
           id="g13757"><g
             id="g13759"><g
               clip-path="url(#clipPath13765)"
               id="g13761"><g
                 id="g13767"><g
                   transform="scale(1,-1)"
                   id="g13769"><path
                     id="path13771"
                     style="fill:none;stroke:#e7298a;stroke-width:1;stroke-linecap:round;stroke-linejoin:round;stroke-miterlimit:10;stroke-dasharray:none;stroke-opacity:1"
                     d="m 43.5,-116.094 5.945,0.032 28.258,0.011 2.973,98.508 1.488,1.602 1.488,0.093 1.489,0.723 1.484,-0.508 1.488,0.93 1.489,-1.313 1.484,1.536 1.488,0.097 1.488,0.344 1.485,-1.742 1.488,1.254 1.488,-1.219 1.489,0.418 1.484,1.187 1.488,-0.144 1.489,-0.672 1.484,-0.535 1.488,1.586 1.489,-1.555 1.488,0.899 1.484,-0.622 1.489,0.317 1.488,0.476 1.484,-0.668 1.488,0.188 1.489,1.215 1.488,-1.973 1.484,2.156 1.489,-1.183 1.488,-0.996 1.484,0.148 1.489,1.524 1.488,-0.821 1.488,-21.418 1.485,-28.082 1.488,-1.011 1.488,0.113 1.485,-0.254 2.976,-0.172 1.488,0.91 1.485,-0.359 1.488,-0.594 1.488,0.434 1.485,0.839 1.488,-0.738 1.488,-0.195 1.485,-0.399 1.488,0.993 1.488,-1.481 1.488,2.36 1.485,-0.614 1.488,-0.359 1.488,-0.113 1.485,-1.25 1.488,2.375 1.488,-1.332 1.485,-1.672 1.488,2.933 1.488,-1.101 1.489,0.328 1.484,-0.285 1.488,0.519 1.488,-1.922 1.485,2.121 1.488,-1.043 1.488,0.622 1.489,-0.868 1.484,-3.398 1.488,6.434 1.489,-3.766 1.484,1.953 1.488,-1.738 1.489,1.64 1.488,-1.73 1.484,1.351 1.489,-1.375 1.488,0.715 1.484,-0.297 1.488,0.032 1.489,1.445 1.484,-0.379 1.488,0.289 h 1.489 l 1.488,-2.113 1.484,3.203 1.489,-3.047 1.488,1.82 1.488,0.172 2.973,-0.035 1.488,-0.289 1.484,-0.547 1.489,-0.187 1.488,2.301 1.484,-2.301 1.489,0.668 1.488,-0.453 1.488,0.41 1.485,-0.625 1.488,1.058 h 1.488 l 1.485,-1.609 1.488,-0.035 1.488,-7.875 1.484,9.769 1.489,-0.379 1.488,0.508 1.488,-1.437 1.485,1.465 1.488,-0.926 1.488,0.519 h 2.973 l 1.488,-1.058 h 1.489 l 2.972,2.238 1.488,-2.602 1.485,-0.121 1.488,1.508 1.488,0.762 1.489,-0.883 1.484,-0.363 1.488,-0.512 1.489,1.004 1.484,-0.328 1.488,-0.676 1.489,1.254 1.484,-0.844 1.488,-1.015 1.488,2.144 1.489,0.801 1.484,-1.891 1.488,0.582 1.489,-1.058 1.488,0.922 1.484,0.136 2.977,-0.265 1.484,-0.793 h 1.489 l 1.488,0.801 1.484,1.308 1.488,-1.051 1.489,-2.504 1.488,3.497 1.484,-2.922 1.489,-12.18 1.484,-37.652 h 35.692" /></g></g></g></g></g></g></g></g></svg>