<?xml version="1.0" encoding="UTF-8" standalone="no"?>
<svg
   xmlns:dc="http://purl.org/dc/elements/1.1/"
   xmlns:cc="http://creativecommons.org/ns#"
   xmlns:rdf="http://www.w3.org/1999/02/22-rdf-syntax-ns#"
   xmlns:svg="http://www.w3.org/2000/svg"
   xmlns="http://www.w3.org/2000/svg"
   viewBox="0 0 480 195.21208"
   height="195.21208"
   width="480"
   xml:space="preserve"
   id="svg14354"
   version="1.1"><metadata
     id="metadata14360"><rdf:RDF><cc:Work
         rdf:about=""><dc:format>image/svg+xml</dc:format><dc:type
           rdf:resource="http://purl.org/dc/dcmitype/StillImage" /><dc:title></dc:title></cc:Work></rdf:RDF></metadata><defs
     id="defs14358"><clipPath
       id="clipPath14376"
       clipPathUnits="userSpaceOnUse"><path
         id="path14374"
         d="m 41.277,2.754 h 312.961 v 113.34 H 41.277 Z" /></clipPath><clipPath
       id="clipPath14386"
       clipPathUnits="userSpaceOnUse"><path
         id="path14384"
         d="M 0,0 H 360 V 147 H 0 Z" /></clipPath><clipPath
       id="clipPath14406"
       clipPathUnits="userSpaceOnUse"><path
         id="path14404"
         d="m 41.277,2.754 h 312.961 v 113.34 H 41.277 Z" /></clipPath><clipPath
       id="clipPath14416"
       clipPathUnits="userSpaceOnUse"><path
         id="path14414"
         d="M 0,0 H 360 V 147 H 0 Z" /></clipPath><clipPath
       id="clipPath14436"
       clipPathUnits="userSpaceOnUse"><path
         id="path14434"
         d="m 41.277,2.754 h 312.961 v 113.34 H 41.277 Z" /></clipPath><clipPath
       id="clipPath14446"
       clipPathUnits="userSpaceOnUse"><path
         id="path14444"
         d="M 0,0 H 360 V 147 H 0 Z" /></clipPath><clipPath
       id="clipPath14466"
       clipPathUnits="userSpaceOnUse"><path
         id="path14464"
         d="m 41.277,2.754 h 312.961 v 113.34 H 41.277 Z" /></clipPath><clipPath
       id="clipPath14476"
       clipPathUnits="userSpaceOnUse"><path
         id="path14474"
         d="M 0,0 H 360 V 147 H 0 Z" /></clipPath><clipPath
       id="clipPath14496"
       clipPathUnits="userSpaceOnUse"><path
         id="path14494"
         d="m 41.277,2.754 h 312.961 v 113.34 H 41.277 Z" /></clipPath><clipPath
       id="clipPath14506"
       clipPathUnits="userSpaceOnUse"><path
         id="path14504"
         d="M 0,0 H 360 V 147 H 0 Z" /></clipPath><clipPath
       id="clipPath14528"
       clipPathUnits="userSpaceOnUse"><path
         id="path14526"
         d="m 41.277,2.754 h 312.961 v 113.34 H 41.277 Z" /></clipPath><clipPath
       id="clipPath14538"
       clipPathUnits="userSpaceOnUse"><path
         id="path14536"
         d="M 0,0 H 360 V 147 H 0 Z" /></clipPath><clipPath
       id="clipPath14558"
       clipPathUnits="userSpaceOnUse"><path
         id="path14556"
         d="m 41.277,2.754 h 312.961 v 113.34 H 41.277 Z" /></clipPath><clipPath
       id="clipPath14568"
       clipPathUnits="userSpaceOnUse"><path
         id="path14566"
         d="M 0,0 H 360 V 147 H 0 Z" /></clipPath><clipPath
       id="clipPath14588"
       clipPathUnits="userSpaceOnUse"><path
         id="path14586"
         d="m 41.277,2.754 h 312.961 v 113.34 H 41.277 Z" /></clipPath><clipPath
       id="clipPath14598"
       clipPathUnits="userSpaceOnUse"><path
         id="path14596"
         d="M 0,0 H 360 V 147 H 0 Z" /></clipPath><clipPath
       id="clipPath14618"
       clipPathUnits="userSpaceOnUse"><path
         id="path14616"
         d="m 41.277,2.754 h 312.961 v 113.34 H 41.277 Z" /></clipPath><clipPath
       id="clipPath14628"
       clipPathUnits="userSpaceOnUse"><path
         id="path14626"
         d="M 0,0 H 360 V 147 H 0 Z" /></clipPath><clipPath
       id="clipPath14648"
       clipPathUnits="userSpaceOnUse"><path
         id="path14646"
         d="m 41.277,2.754 h 312.961 v 113.34 H 41.277 Z" /></clipPath><clipPath
       id="clipPath14658"
       clipPathUnits="userSpaceOnUse"><path
         id="path14656"
         d="M 0,0 H 360 V 147 H 0 Z" /></clipPath><clipPath
       id="clipPath14682"
       clipPathUnits="userSpaceOnUse"><path
         id="path14680"
         d="m 41.277,2.754 h 312.961 v 113.34 H 41.277 Z" /></clipPath><clipPath
       id="clipPath14692"
       clipPathUnits="userSpaceOnUse"><path
         id="path14690"
         d="M 0,0 H 360 V 147 H 0 Z" /></clipPath><clipPath
       id="clipPath14708"
       clipPathUnits="userSpaceOnUse"><path
         id="path14706"
         d="M 0,0 H 360 V 147 H 0 Z" /></clipPath><clipPath
       id="clipPath14724"
       clipPathUnits="userSpaceOnUse"><path
         id="path14722"
         d="M 0,0 H 360 V 147 H 0 Z" /></clipPath><clipPath
       id="clipPath14740"
       clipPathUnits="userSpaceOnUse"><path
         id="path14738"
         d="M 0,0 H 360 V 147 H 0 Z" /></clipPath></defs><g
     transform="matrix(1.3333333,0,0,1.3333333,0,7.5469686e-6)"
     id="g14362"><g
       id="g14364"><path
         id="path14366"
         style="fill:#ffffff;fill-opacity:1;fill-rule:nonzero;stroke:none"
         d="m 0,1.316 h 360 v 144 H 0 Z" /><path
         id="path14368"
         style="fill:#e6e6e6;fill-opacity:1;fill-rule:nonzero;stroke:none"
         d="m 41.277,2.754 h 312.961 v 113.34 H 41.277 Z" /></g><g
       id="g14370"><g
         clip-path="url(#clipPath14376)"
         id="g14372"><g
           id="g14378"><g
             id="g14380"><g
               clip-path="url(#clipPath14386)"
               id="g14382"><g
                 id="g14388"><g
                   transform="scale(1,-1)"
                   id="g14390"><path
                     id="path14392"
                     style="fill:none;stroke:#ffffff;stroke-width:1;stroke-linecap:round;stroke-linejoin:round;stroke-miterlimit:10;stroke-dasharray:none;stroke-opacity:1"
                     d="M 41.277,-116.094 V -2.754" /></g></g></g></g></g></g></g><g
       id="g14394"><text
         id="text14398"
         style="font-variant:normal;font-weight:normal;font-size:12px;font-family:'Gentium Basic';-inkscape-font-specification:GentiumBasic;writing-mode:lr-tb;fill:#000000;fill-opacity:1;fill-rule:nonzero;stroke:none"
         transform="translate(38.463124,128.67273)"><tspan
           id="tspan14396"
           y="0"
           x="0">0</tspan></text>
</g><g
       id="g14400"><g
         clip-path="url(#clipPath14406)"
         id="g14402"><g
           id="g14408"><g
             id="g14410"><g
               clip-path="url(#clipPath14416)"
               id="g14412"><g
                 id="g14418"><g
                   transform="scale(1,-1)"
                   id="g14420"><path
                     id="path14422"
                     style="fill:none;stroke:#ffffff;stroke-width:1;stroke-linecap:round;stroke-linejoin:round;stroke-miterlimit:10;stroke-dasharray:none;stroke-opacity:1"
                     d="M 115.648,-116.094 V -2.754" /></g></g></g></g></g></g></g><g
       id="g14424"><text
         id="text14428"
         style="font-variant:normal;font-weight:normal;font-size:12px;font-family:'Gentium Basic';-inkscape-font-specification:GentiumBasic;writing-mode:lr-tb;fill:#000000;fill-opacity:1;fill-rule:nonzero;stroke:none"
         transform="translate(110.02365,128.67273)"><tspan
           id="tspan14426"
           y="0"
           x="0 5.6279998">10</tspan></text>
</g><g
       id="g14430"><g
         clip-path="url(#clipPath14436)"
         id="g14432"><g
           id="g14438"><g
             id="g14440"><g
               clip-path="url(#clipPath14446)"
               id="g14442"><g
                 id="g14448"><g
                   transform="scale(1,-1)"
                   id="g14450"><path
                     id="path14452"
                     style="fill:none;stroke:#ffffff;stroke-width:1;stroke-linecap:round;stroke-linejoin:round;stroke-miterlimit:10;stroke-dasharray:none;stroke-opacity:1"
                     d="M 190.023,-116.094 V -2.754" /></g></g></g></g></g></g></g><g
       id="g14454"><text
         id="text14458"
         style="font-variant:normal;font-weight:normal;font-size:12px;font-family:'Gentium Basic';-inkscape-font-specification:GentiumBasic;writing-mode:lr-tb;fill:#000000;fill-opacity:1;fill-rule:nonzero;stroke:none"
         transform="translate(184.39667,128.67273)"><tspan
           id="tspan14456"
           y="0"
           x="0 5.6279998">20</tspan></text>
</g><g
       id="g14460"><g
         clip-path="url(#clipPath14466)"
         id="g14462"><g
           id="g14468"><g
             id="g14470"><g
               clip-path="url(#clipPath14476)"
               id="g14472"><g
                 id="g14478"><g
                   transform="scale(1,-1)"
                   id="g14480"><path
                     id="path14482"
                     style="fill:none;stroke:#ffffff;stroke-width:1;stroke-linecap:round;stroke-linejoin:round;stroke-miterlimit:10;stroke-dasharray:none;stroke-opacity:1"
                     d="M 264.395,-116.094 V -2.754" /></g></g></g></g></g></g></g><g
       id="g14484"><text
         id="text14488"
         style="font-variant:normal;font-weight:normal;font-size:12px;font-family:'Gentium Basic';-inkscape-font-specification:GentiumBasic;writing-mode:lr-tb;fill:#000000;fill-opacity:1;fill-rule:nonzero;stroke:none"
         transform="translate(258.7697,128.67273)"><tspan
           id="tspan14486"
           y="0"
           x="0 5.6279998">30</tspan></text>
</g><g
       id="g14490"><g
         clip-path="url(#clipPath14496)"
         id="g14492"><g
           id="g14498"><g
             id="g14500"><g
               clip-path="url(#clipPath14506)"
               id="g14502"><g
                 id="g14508"><g
                   transform="scale(1,-1)"
                   id="g14510"><path
                     id="path14512"
                     style="fill:none;stroke:#ffffff;stroke-width:1;stroke-linecap:round;stroke-linejoin:round;stroke-miterlimit:10;stroke-dasharray:none;stroke-opacity:1"
                     d="M 338.77,-116.094 V -2.754" /></g></g></g></g></g></g></g><g
       id="g14514"><text
         id="text14520"
         style="font-variant:normal;font-weight:normal;font-size:12px;font-family:'Gentium Basic';-inkscape-font-specification:GentiumBasic;writing-mode:lr-tb;fill:#000000;fill-opacity:1;fill-rule:nonzero;stroke:none"
         transform="translate(333.14273,128.67273)"><tspan
           id="tspan14516"
           y="0"
           x="0 5.6279998">40</tspan><tspan
           id="tspan14518"
           y="15.890628"
           x="-155.34587 -148.74586 -145.50587 -135.86987 -130.33788 -127.69787 -123.90587 -119.27386">Time (s)</tspan></text>
</g><g
       id="g14522"><g
         clip-path="url(#clipPath14528)"
         id="g14524"><g
           id="g14530"><g
             id="g14532"><g
               clip-path="url(#clipPath14538)"
               id="g14534"><g
                 id="g14540"><g
                   transform="scale(1,-1)"
                   id="g14542"><path
                     id="path14544"
                     style="fill:none;stroke:#ffffff;stroke-width:1;stroke-linecap:round;stroke-linejoin:round;stroke-miterlimit:10;stroke-dasharray:none;stroke-opacity:1"
                     d="M 41.277,-116.094 H 354.238" /></g></g></g></g></g></g></g><g
       id="g14546"><text
         id="text14550"
         style="font-variant:normal;font-weight:normal;font-size:12px;font-family:'Gentium Basic';-inkscape-font-specification:GentiumBasic;writing-mode:lr-tb;fill:#000000;fill-opacity:1;fill-rule:nonzero;stroke:none"
         transform="translate(18.150625,120.63367)"><tspan
           id="tspan14548"
           y="0"
           x="0 5.6279998 8.3760004 14.004">0.00</tspan></text>
</g><g
       id="g14552"><g
         clip-path="url(#clipPath14558)"
         id="g14554"><g
           id="g14560"><g
             id="g14562"><g
               clip-path="url(#clipPath14568)"
               id="g14564"><g
                 id="g14570"><g
                   transform="scale(1,-1)"
                   id="g14572"><path
                     id="path14574"
                     style="fill:none;stroke:#ffffff;stroke-width:1;stroke-linecap:round;stroke-linejoin:round;stroke-miterlimit:10;stroke-dasharray:none;stroke-opacity:1"
                     d="M 41.277,-87.762 H 354.238" /></g></g></g></g></g></g></g><g
       id="g14576"><text
         id="text14580"
         style="font-variant:normal;font-weight:normal;font-size:12px;font-family:'Gentium Basic';-inkscape-font-specification:GentiumBasic;writing-mode:lr-tb;fill:#000000;fill-opacity:1;fill-rule:nonzero;stroke:none"
         transform="translate(18.150625,92.29898)"><tspan
           id="tspan14578"
           y="0"
           x="0 5.6279998 8.3760004 14.004">0.25</tspan></text>
</g><g
       id="g14582"><g
         clip-path="url(#clipPath14588)"
         id="g14584"><g
           id="g14590"><g
             id="g14592"><g
               clip-path="url(#clipPath14598)"
               id="g14594"><g
                 id="g14600"><g
                   transform="scale(1,-1)"
                   id="g14602"><path
                     id="path14604"
                     style="fill:none;stroke:#ffffff;stroke-width:1;stroke-linecap:round;stroke-linejoin:round;stroke-miterlimit:10;stroke-dasharray:none;stroke-opacity:1"
                     d="M 41.277,-59.426 H 354.238" /></g></g></g></g></g></g></g><g
       id="g14606"><text
         id="text14610"
         style="font-variant:normal;font-weight:normal;font-size:12px;font-family:'Gentium Basic';-inkscape-font-specification:GentiumBasic;writing-mode:lr-tb;fill:#000000;fill-opacity:1;fill-rule:nonzero;stroke:none"
         transform="translate(18.150625,63.964293)"><tspan
           id="tspan14608"
           y="0"
           x="0 5.6279998 8.3760004 14.004">0.50</tspan></text>
</g><g
       id="g14612"><g
         clip-path="url(#clipPath14618)"
         id="g14614"><g
           id="g14620"><g
             id="g14622"><g
               clip-path="url(#clipPath14628)"
               id="g14624"><g
                 id="g14630"><g
                   transform="scale(1,-1)"
                   id="g14632"><path
                     id="path14634"
                     style="fill:none;stroke:#ffffff;stroke-width:1;stroke-linecap:round;stroke-linejoin:round;stroke-miterlimit:10;stroke-dasharray:none;stroke-opacity:1"
                     d="M 41.277,-31.09 H 354.238" /></g></g></g></g></g></g></g><g
       id="g14636"><text
         id="text14640"
         style="font-variant:normal;font-weight:normal;font-size:12px;font-family:'Gentium Basic';-inkscape-font-specification:GentiumBasic;writing-mode:lr-tb;fill:#000000;fill-opacity:1;fill-rule:nonzero;stroke:none"
         transform="translate(18.150625,35.629606)"><tspan
           id="tspan14638"
           y="0"
           x="0 5.6279998 8.3760004 14.004">0.75</tspan></text>
</g><g
       id="g14642"><g
         clip-path="url(#clipPath14648)"
         id="g14644"><g
           id="g14650"><g
             id="g14652"><g
               clip-path="url(#clipPath14658)"
               id="g14654"><g
                 id="g14660"><g
                   transform="scale(1,-1)"
                   id="g14662"><path
                     id="path14664"
                     style="fill:none;stroke:#ffffff;stroke-width:1;stroke-linecap:round;stroke-linejoin:round;stroke-miterlimit:10;stroke-dasharray:none;stroke-opacity:1"
                     d="M 41.277,-2.754 H 354.238" /></g></g></g></g></g></g></g><g
       id="g14666"><text
         id="text14670"
         style="font-variant:normal;font-weight:normal;font-size:12px;font-family:'Gentium Basic';-inkscape-font-specification:GentiumBasic;writing-mode:lr-tb;fill:#000000;fill-opacity:1;fill-rule:nonzero;stroke:none"
         transform="translate(18.150625,7.294922)"><tspan
           id="tspan14668"
           y="0"
           x="0 5.6279998 8.3760004 14.004">1.00</tspan></text>
<text
         id="text14674"
         style="font-variant:normal;font-weight:normal;font-size:12px;font-family:'Gentium Basic';-inkscape-font-specification:GentiumBasic;writing-mode:lr-tb;fill:#000000;fill-opacity:1;fill-rule:nonzero;stroke:none"
         transform="rotate(-90,52.130701,40.792575)"><tspan
           id="tspan14672"
           y="0"
           x="0 7.1399999 10.38 15.12 19.247999 22.488001 32.124001 37.655998 40.296001 44.964001 51.576 57.071999 61.812">Airtime share</tspan></text>
</g><g
       id="g14676"><g
         clip-path="url(#clipPath14682)"
         id="g14678"><g
           id="g14684"><g
             id="g14686"><g
               clip-path="url(#clipPath14692)"
               id="g14688"><g
                 id="g14694"><g
                   transform="scale(1,-1)"
                   id="g14696"><path
                     id="path14698"
                     style="fill:none;stroke:#1b9e77;stroke-width:1;stroke-linecap:round;stroke-linejoin:round;stroke-miterlimit:10;stroke-dasharray:none;stroke-opacity:1"
                     d="m 43.375,-116.094 5.949,0.032 h 80.324 l 1.489,18.996 1.488,29.402 1.484,1.383 2.977,0.992 1.488,-1.359 1.488,0.933 1.485,-0.23 1.488,0.582 h 1.488 l 1.489,0.121 1.488,-0.637 1.484,0.481 1.489,0.636 1.488,-1.156 1.488,0.555 1.489,1.566 1.484,-3.301 1.488,2.11 1.488,-1.434 1.489,0.899 1.484,0.16 1.488,-0.524 1.489,-0.035 1.488,-0.66 1.488,1.219 1.485,-1.059 1.488,2.594 1.488,-1.535 1.488,-1.059 1.489,1.059 h 1.484 l 1.488,-1.575 2.977,3.079 1.488,-8.403 1.485,-9.183 1.488,0.218 1.488,-2.441 1.488,1.359 1.485,-0.269 1.488,0.039 1.488,-0.453 1.489,0.734 1.488,-1.082 1.484,2.086 1.489,-2.086 1.488,1.082 1.488,-0.051 1.488,0.438 2.973,-0.902 2.977,0.937 1.484,-0.445 h 1.488 l 1.489,2.113 1.488,-3.172 1.488,1.059 1.485,1.34 1.488,-1.09 1.488,0.031 1.488,-0.281 1.489,0.476 1.484,0.032 1.488,0.285 1.489,-1.504 1.488,2.308 1.488,-2.656 1.485,2.113 1.488,-2.113 1.488,-6.828 1.488,0.484 1.489,-1.058 1.484,1.058 1.488,-1.089 1.489,0.695 1.488,-0.664 1.488,0.414 1.485,-0.035 1.488,0.679 1.488,-1.574 1.488,1.574 h 1.485 l 1.488,-0.171 1.488,-0.887 1.489,0.09 1.488,-0.09 1.484,0.93 1.489,-1.989 1.488,2.117 1.488,-1.671 1.488,2.726 1.485,-1.379 1.488,-0.734 h 1.488 l 1.489,1.058 1.484,-1.382 1.488,0.324 1.489,1.058 1.488,-1.058 1.488,1.308 1.484,-0.25 1.489,-2.117 1.488,2.981 1.488,-0.864 1.489,-1.058 1.484,-0.106 1.488,0.106 1.489,2.113 1.488,-2.25 1.488,0.137 1.484,1.058 1.489,-1.543 1.488,1.543 1.488,0.348 1.485,-22.41 1.488,-4.32 h 34.211" /></g></g></g></g></g><g
           id="g14700"><g
             id="g14702"><g
               clip-path="url(#clipPath14708)"
               id="g14704"><g
                 id="g14710"><g
                   transform="scale(1,-1)"
                   id="g14712"><path
                     id="path14714"
                     style="fill:none;stroke:#d95f02;stroke-width:1;stroke-linecap:round;stroke-linejoin:round;stroke-miterlimit:10;stroke-dasharray:none;stroke-opacity:1"
                     d="m 43.375,-116.094 5.949,0.032 184.446,0.035 1.488,5.382 1.488,19.747 1.488,-0.7 1.489,1.532 h 2.972 l 1.489,-1.532 1.488,3.063 2.973,-3.063 1.488,3.063 1.488,-3.063 h 1.488 l 1.485,3.063 1.488,-3.063 1.488,3.063 2.977,-3.063 h 1.484 l 1.489,3.063 1.488,-3.063 1.488,3.063 1.488,-3.063 h 1.485 l 1.488,3.063 1.488,-3.063 1.489,2.286 1.484,0.664 1.488,-2.801 1.489,1.484 1.488,-1.746 1.488,3.488 1.484,-3.355 1.489,3.355 1.488,-3.504 1.488,0.016 1.489,3.488 1.484,-3.488 1.488,3.488 1.489,-3.488 1.488,3.488 1.488,-4.75 1.484,4.618 1.489,-2.043 1.488,-1.395 1.488,2.957 1.485,-0.945 1.488,-26.285 h 34.211" /></g></g></g></g></g><g
           id="g14716"><g
             id="g14718"><g
               clip-path="url(#clipPath14724)"
               id="g14720"><g
                 id="g14726"><g
                   transform="scale(1,-1)"
                   id="g14728"><path
                     id="path14730"
                     style="fill:none;stroke:#7570b3;stroke-width:1;stroke-linecap:round;stroke-linejoin:round;stroke-miterlimit:10;stroke-dasharray:none;stroke-opacity:1"
                     d="m 43.375,-116.094 5.949,0.032 h 132.387 l 1.488,9.898 1.485,23.398 1.488,-1.375 1.488,1.727 1.488,-0.57 1.485,0.437 1.488,-0.637 1.488,1.196 1.489,0.758 1.488,-2.446 1.484,0.156 2.977,1.2 1.488,0.343 1.488,-0.972 1.485,1.359 1.488,0.383 1.488,-1.75 1.489,1.531 1.484,-1.019 1.488,1.312 1.489,-2.402 1.488,3.066 1.488,-1.812 1.485,-0.141 2.976,1.195 1.488,-0.746 1.489,-0.308 1.484,1.402 1.488,-2.164 1.489,1.164 1.488,-0.351 1.488,1.578 1.485,-1.868 1.488,-0.542 1.488,-8.54 1.488,1.918 1.489,-1.484 1.484,0.902 1.488,0.418 1.489,0.164 1.488,-0.507 1.488,-0.817 1.485,1.317 1.488,-1.247 1.488,2.309 1.488,-2.769 1.485,0.375 1.488,1.339 1.488,-0.711 1.489,-0.347 1.488,2.113 1.484,-2.613 1.489,0.242 2.976,1.316 1.488,-1.058 1.485,1.433 1.488,-1.98 1.488,2.078 1.489,-2.742 1.484,2.457 1.488,-0.707 1.489,0.441 1.488,0.235 1.488,-1.993 1.484,1.836 1.489,-1.039 1.488,-0.019 1.488,2.113 1.489,-2.566 1.484,2.175 1.488,-2.781 1.489,1.989 1.488,-0.129 1.488,0.211 1.484,-1.668 1.489,1.16 1.488,-1.117 1.488,1.687 2.973,-26.398 h 34.211" /></g></g></g></g></g><g
           id="g14732"><g
             id="g14734"><g
               clip-path="url(#clipPath14740)"
               id="g14736"><g
                 id="g14742"><g
                   transform="scale(1,-1)"
                   id="g14744"><path
                     id="path14746"
                     style="fill:none;stroke:#e7298a;stroke-width:1;stroke-linecap:round;stroke-linejoin:round;stroke-miterlimit:10;stroke-dasharray:none;stroke-opacity:1"
                     d="m 43.434,-116.094 5.949,0.032 28.262,0.011 1.488,56.035 1.484,40.969 1.488,-1.453 1.489,2.27 2.976,-1.481 1.485,1.781 1.488,-0.941 1.488,0.898 1.489,-1.082 1.488,0.617 1.484,-0.175 1.488,0.422 1.489,-0.778 1.488,1.723 1.484,-1.953 1.489,0.969 1.488,-1.379 1.488,1.949 1.489,-0.871 2.972,0.246 1.488,0.008 1.489,0.961 1.488,-0.657 1.484,0.778 1.489,-1.957 1.488,1.031 2.973,0.129 1.488,-0.84 1.488,1.32 1.488,-0.367 1.489,-0.246 1.484,0.559 1.488,-18.801 1.489,-31.766 1.488,3.207 1.488,-3.101 1.485,3.339 1.488,-1.054 1.488,0.996 1.488,-1.434 1.489,-0.312 1.484,1.023 1.488,0.637 1.489,0.008 1.488,-1.879 1.488,0.949 1.485,1.59 1.488,-2.938 1.488,3.508 1.488,-1.25 1.485,-1.711 1.488,0.364 1.488,1.296 1.489,-1.476 1.488,0.012 1.484,0.894 1.489,-0.828 1.488,0.816 1.488,-0.996 1.488,2.438 1.485,-1.742 1.488,0.832 1.488,-0.446 1.489,-0.843 2.972,0.359 1.489,1.945 1.488,-7.683 1.488,-9.641 1.485,-1.965 1.488,1.024 1.488,-1.504 1.488,2.59 1.489,-2.817 1.484,0.621 1.488,2.063 1.489,-0.758 1.488,-1.91 1.488,2.187 1.485,-1.23 1.488,0.18 2.976,1.035 1.489,-0.035 1.484,0.128 1.488,-1.316 1.489,0.762 1.488,0.586 1.488,-1.094 1.485,1.48 1.488,-1.054 1.488,0.437 1.488,0.571 1.485,-0.153 1.488,-2.265 1.488,2.621 1.489,0.902 1.488,-3.789 1.484,2.273 1.489,-0.089 1.488,-0.489 1.488,-0.156 1.488,0.973 1.485,-10.391 1.488,2.434 1.488,-2.024 1.489,2.082 1.488,-0.605 1.484,-2.18 1.489,3.184 1.488,-1.77 h 1.488 l 1.485,1.25 1.488,-1.195 1.488,-0.086 1.488,0.934 1.489,-1.286 1.484,2.469 1.488,-2.887 1.489,1.973 1.488,-1.508 1.488,0.367 1.484,0.161 1.489,1.277 1.488,-0.664 1.488,-1.445 1.489,1.308 1.484,0.645 1.488,-1.473 1.489,-0.227 1.488,0.7 1.484,1.422 1.489,-1.614 1.488,-0.664 1.488,2.629 1.488,-2.441 2.973,1.41 1.488,-0.133 1.489,-2.266 1.488,3.391 2.972,-1.855 1.489,-0.219 1.488,0.894 1.488,-1.953 1.485,1.504 1.488,-4.297 1.488,-21.472 h 35.7" /></g></g></g></g></g></g></g></g></svg>