<?xml version="1.0" encoding="utf-8" standalone="no"?>
<!DOCTYPE svg PUBLIC "-//W3C//DTD SVG 1.1//EN"
  "http://www.w3.org/Graphics/SVG/1.1/DTD/svg11.dtd">
<svg xmlns:xlink="http://www.w3.org/1999/xlink" width="360pt" height="216pt" viewBox="0 0 360 216" xmlns="http://www.w3.org/2000/svg" version="1.1">
 <metadata>
  <rdf:RDF xmlns:dc="http://purl.org/dc/elements/1.1/" xmlns:cc="http://creativecommons.org/ns#" xmlns:rdf="http://www.w3.org/1999/02/22-rdf-syntax-ns#">
   <cc:Work>
    <dc:type rdf:resource="http://purl.org/dc/dcmitype/StillImage"/>
    <dc:date>2025-02-27T14:21:15.899410</dc:date>
    <dc:format>image/svg+xml</dc:format>
    <dc:creator>
     <cc:Agent>
      <dc:title>Matplotlib v3.9.2, https://matplotlib.org/</dc:title>
     </cc:Agent>
    </dc:creator>
   </cc:Work>
  </rdf:RDF>
 </metadata>
 <defs>
  <style type="text/css">*{stroke-linejoin: round; stroke-linecap: butt}</style>
 </defs>
 <g id="figure_1">
  <g id="patch_1">
   <path d="M 0 216 
L 360 216 
L 360 0 
L 0 0 
z
" style="fill: #ffffff"/>
  </g>
  <g id="axes_1">
   <g id="patch_2">
    <path d="M 65.273565 163.511621 
L 347.04 163.511621 
L 347.04 13.701724 
L 65.273565 13.701724 
z
" style="fill: #ffffff"/>
   </g>
   <g id="matplotlib.axis_1">
    <g id="xtick_1">
     <g id="line2d_1">
      <path d="M 77.907604 163.511621 
L 77.907604 13.701724 
" clip-path="url(#pb1faa8f416)" style="fill: none; stroke: #b0b0b0; stroke-width: 0.8; stroke-linecap: square"/>
     </g>
     <g id="line2d_2">
      <defs>
       <path id="mef7eb9f150" d="M 0 0 
L 0 3.5 
" style="stroke: #000000; stroke-width: 0.8"/>
      </defs>
      <g>
       <use xlink:href="#mef7eb9f150" x="77.907604" y="163.511621" style="stroke: #000000; stroke-width: 0.8"/>
      </g>
     </g>
     <g id="text_1">
      <!-- $\mathdefault{4.8}$ -->
      <g transform="translate(70.428784 178.813801) scale(0.12 -0.12)">
       <defs>
        <path id="CMR17-34" d="M 2150 4122 
C 2150 4256 2144 4256 2029 4256 
L 128 1254 
L 128 1088 
L 1779 1088 
L 1779 457 
C 1779 224 1766 160 1318 160 
L 1197 160 
L 1197 0 
C 1402 0 1747 0 1965 0 
C 2182 0 2528 0 2733 0 
L 2733 160 
L 2611 160 
C 2163 160 2150 224 2150 457 
L 2150 1088 
L 2803 1088 
L 2803 1254 
L 2150 1254 
L 2150 4122 
z
M 1798 3703 
L 1798 1254 
L 256 1254 
L 1798 3703 
z
" transform="scale(0.015625)"/>
        <path id="CMMI12-3a" d="M 1178 307 
C 1178 492 1024 619 870 619 
C 685 619 557 466 557 313 
C 557 128 710 0 864 0 
C 1050 0 1178 153 1178 307 
z
" transform="scale(0.015625)"/>
        <path id="CMR17-38" d="M 1741 2264 
C 2144 2467 2554 2773 2554 3263 
C 2554 3841 1990 4179 1472 4179 
C 890 4179 378 3759 378 3180 
C 378 3021 416 2747 666 2505 
C 730 2442 998 2251 1171 2130 
C 883 1983 211 1634 211 934 
C 211 279 838 -128 1459 -128 
C 2144 -128 2720 362 2720 1010 
C 2720 1590 2330 1857 2074 2029 
L 1741 2264 
z
M 902 2822 
C 851 2854 595 3051 595 3351 
C 595 3739 998 4032 1459 4032 
C 1965 4032 2336 3676 2336 3262 
C 2336 2669 1670 2331 1638 2331 
C 1632 2331 1626 2331 1574 2370 
L 902 2822 
z
M 2080 1519 
C 2176 1449 2483 1240 2483 851 
C 2483 381 2010 25 1472 25 
C 890 25 448 438 448 940 
C 448 1443 838 1862 1280 2060 
L 2080 1519 
z
" transform="scale(0.015625)"/>
       </defs>
       <use xlink:href="#CMR17-34" transform="scale(0.996264)"/>
       <use xlink:href="#CMMI12-3a" transform="translate(45.690477 0) scale(0.996264)"/>
       <use xlink:href="#CMR17-38" transform="translate(72.787654 0) scale(0.996264)"/>
      </g>
     </g>
    </g>
    <g id="xtick_2">
     <g id="line2d_3">
      <path d="M 120.650075 163.511621 
L 120.650075 13.701724 
" clip-path="url(#pb1faa8f416)" style="fill: none; stroke: #b0b0b0; stroke-width: 0.8; stroke-linecap: square"/>
     </g>
     <g id="line2d_4">
      <g>
       <use xlink:href="#mef7eb9f150" x="120.650075" y="163.511621" style="stroke: #000000; stroke-width: 0.8"/>
      </g>
     </g>
     <g id="text_2">
      <!-- $\mathdefault{4.9}$ -->
      <g transform="translate(113.171254 178.813801) scale(0.12 -0.12)">
       <defs>
        <path id="CMR17-39" d="M 2253 1864 
C 2253 464 1670 31 1190 31 
C 1043 31 685 31 538 294 
C 704 268 826 357 826 518 
C 826 692 685 749 595 749 
C 538 749 365 723 365 506 
C 365 71 742 -128 1203 -128 
C 1939 -128 2688 674 2688 2073 
C 2688 3817 1971 4179 1485 4179 
C 851 4179 243 3628 243 2778 
C 243 1991 762 1408 1414 1408 
C 1952 1408 2189 1903 2253 2112 
L 2253 1864 
z
M 1427 1510 
C 1254 1510 1011 1542 813 1922 
C 678 2169 678 2461 678 2771 
C 678 3146 678 3405 858 3684 
C 947 3817 1114 4032 1485 4032 
C 2240 4032 2240 2885 2240 2632 
C 2240 2182 2035 1510 1427 1510 
z
" transform="scale(0.015625)"/>
       </defs>
       <use xlink:href="#CMR17-34" transform="scale(0.996264)"/>
       <use xlink:href="#CMMI12-3a" transform="translate(45.690477 0) scale(0.996264)"/>
       <use xlink:href="#CMR17-39" transform="translate(72.787654 0) scale(0.996264)"/>
      </g>
     </g>
    </g>
    <g id="xtick_3">
     <g id="line2d_5">
      <path d="M 163.392545 163.511621 
L 163.392545 13.701724 
" clip-path="url(#pb1faa8f416)" style="fill: none; stroke: #b0b0b0; stroke-width: 0.8; stroke-linecap: square"/>
     </g>
     <g id="line2d_6">
      <g>
       <use xlink:href="#mef7eb9f150" x="163.392545" y="163.511621" style="stroke: #000000; stroke-width: 0.8"/>
      </g>
     </g>
     <g id="text_3">
      <!-- $\mathdefault{5.0}$ -->
      <g transform="translate(155.913724 178.813801) scale(0.12 -0.12)">
       <defs>
        <path id="CMR17-35" d="M 730 3692 
C 794 3666 1056 3584 1325 3584 
C 1920 3584 2246 3911 2432 4100 
C 2432 4157 2432 4192 2394 4192 
C 2387 4192 2374 4192 2323 4163 
C 2099 4058 1837 3973 1517 3973 
C 1325 3973 1037 3999 723 4139 
C 653 4171 640 4171 634 4171 
C 602 4171 595 4164 595 4037 
L 595 2203 
C 595 2089 595 2057 659 2057 
C 691 2057 704 2070 736 2114 
C 941 2401 1222 2522 1542 2522 
C 1766 2522 2246 2382 2246 1289 
C 2246 1085 2246 715 2054 421 
C 1894 159 1645 25 1370 25 
C 947 25 518 320 403 814 
C 429 807 480 795 506 795 
C 589 795 749 840 749 1038 
C 749 1210 627 1280 506 1280 
C 358 1280 262 1190 262 1011 
C 262 454 704 -128 1382 -128 
C 2042 -128 2669 440 2669 1264 
C 2669 2030 2170 2624 1549 2624 
C 1222 2624 947 2503 730 2274 
L 730 3692 
z
" transform="scale(0.015625)"/>
        <path id="CMR17-30" d="M 2688 2025 
C 2688 2416 2682 3080 2413 3591 
C 2176 4039 1798 4198 1466 4198 
C 1158 4198 768 4058 525 3597 
C 269 3118 243 2524 243 2025 
C 243 1661 250 1106 448 619 
C 723 -39 1216 -128 1466 -128 
C 1760 -128 2208 -7 2470 600 
C 2662 1042 2688 1559 2688 2025 
z
M 1466 -26 
C 1056 -26 813 325 723 812 
C 653 1188 653 1738 653 2096 
C 653 2588 653 2997 736 3387 
C 858 3929 1216 4096 1466 4096 
C 1728 4096 2067 3923 2189 3400 
C 2272 3036 2278 2607 2278 2096 
C 2278 1680 2278 1169 2202 792 
C 2067 95 1690 -26 1466 -26 
z
" transform="scale(0.015625)"/>
       </defs>
       <use xlink:href="#CMR17-35" transform="scale(0.996264)"/>
       <use xlink:href="#CMMI12-3a" transform="translate(45.690477 0) scale(0.996264)"/>
       <use xlink:href="#CMR17-30" transform="translate(72.787654 0) scale(0.996264)"/>
      </g>
     </g>
    </g>
    <g id="xtick_4">
     <g id="line2d_7">
      <path d="M 206.135015 163.511621 
L 206.135015 13.701724 
" clip-path="url(#pb1faa8f416)" style="fill: none; stroke: #b0b0b0; stroke-width: 0.8; stroke-linecap: square"/>
     </g>
     <g id="line2d_8">
      <g>
       <use xlink:href="#mef7eb9f150" x="206.135015" y="163.511621" style="stroke: #000000; stroke-width: 0.8"/>
      </g>
     </g>
     <g id="text_4">
      <!-- $\mathdefault{5.1}$ -->
      <g transform="translate(198.656194 178.813801) scale(0.12 -0.12)">
       <defs>
        <path id="CMR17-31" d="M 1702 4058 
C 1702 4192 1696 4192 1606 4192 
C 1357 3916 979 3827 621 3827 
C 602 3827 570 3827 563 3808 
C 557 3795 557 3782 557 3648 
C 755 3648 1088 3686 1344 3839 
L 1344 461 
C 1344 236 1331 160 781 160 
L 589 160 
L 589 0 
C 896 0 1216 0 1523 0 
C 1830 0 2150 0 2458 0 
L 2458 160 
L 2266 160 
C 1715 160 1702 230 1702 458 
L 1702 4058 
z
" transform="scale(0.015625)"/>
       </defs>
       <use xlink:href="#CMR17-35" transform="scale(0.996264)"/>
       <use xlink:href="#CMMI12-3a" transform="translate(45.690477 0) scale(0.996264)"/>
       <use xlink:href="#CMR17-31" transform="translate(72.787654 0) scale(0.996264)"/>
      </g>
     </g>
    </g>
    <g id="xtick_5">
     <g id="line2d_9">
      <path d="M 248.877486 163.511621 
L 248.877486 13.701724 
" clip-path="url(#pb1faa8f416)" style="fill: none; stroke: #b0b0b0; stroke-width: 0.8; stroke-linecap: square"/>
     </g>
     <g id="line2d_10">
      <g>
       <use xlink:href="#mef7eb9f150" x="248.877486" y="163.511621" style="stroke: #000000; stroke-width: 0.8"/>
      </g>
     </g>
     <g id="text_5">
      <!-- $\mathdefault{5.2}$ -->
      <g transform="translate(241.398665 178.813801) scale(0.12 -0.12)">
       <defs>
        <path id="CMR17-32" d="M 2669 989 
L 2554 989 
C 2490 536 2438 459 2413 420 
C 2381 369 1920 369 1830 369 
L 602 369 
C 832 619 1280 1072 1824 1597 
C 2214 1967 2669 2402 2669 3035 
C 2669 3790 2067 4224 1395 4224 
C 691 4224 262 3604 262 3030 
C 262 2780 448 2748 525 2748 
C 589 2748 781 2787 781 3010 
C 781 3207 614 3264 525 3264 
C 486 3264 448 3258 422 3245 
C 544 3790 915 4058 1306 4058 
C 1862 4058 2227 3617 2227 3035 
C 2227 2479 1901 2000 1536 1584 
L 262 146 
L 262 0 
L 2515 0 
L 2669 989 
z
" transform="scale(0.015625)"/>
       </defs>
       <use xlink:href="#CMR17-35" transform="scale(0.996264)"/>
       <use xlink:href="#CMMI12-3a" transform="translate(45.690477 0) scale(0.996264)"/>
       <use xlink:href="#CMR17-32" transform="translate(72.787654 0) scale(0.996264)"/>
      </g>
     </g>
    </g>
    <g id="xtick_6">
     <g id="line2d_11">
      <path d="M 291.619956 163.511621 
L 291.619956 13.701724 
" clip-path="url(#pb1faa8f416)" style="fill: none; stroke: #b0b0b0; stroke-width: 0.8; stroke-linecap: square"/>
     </g>
     <g id="line2d_12">
      <g>
       <use xlink:href="#mef7eb9f150" x="291.619956" y="163.511621" style="stroke: #000000; stroke-width: 0.8"/>
      </g>
     </g>
     <g id="text_6">
      <!-- $\mathdefault{5.3}$ -->
      <g transform="translate(284.141135 178.813801) scale(0.12 -0.12)">
       <defs>
        <path id="CMR17-33" d="M 1414 2157 
C 1984 2157 2234 1662 2234 1090 
C 2234 320 1824 25 1453 25 
C 1114 25 563 194 390 693 
C 422 680 454 680 486 680 
C 640 680 755 782 755 948 
C 755 1133 614 1216 486 1216 
C 378 1216 211 1165 211 926 
C 211 335 787 -128 1466 -128 
C 2176 -128 2720 430 2720 1085 
C 2720 1707 2208 2157 1600 2227 
C 2086 2328 2554 2756 2554 3329 
C 2554 3820 2048 4179 1472 4179 
C 890 4179 378 3829 378 3329 
C 378 3110 544 3072 627 3072 
C 762 3072 877 3155 877 3321 
C 877 3486 762 3569 627 3569 
C 602 3569 570 3569 544 3557 
C 730 3959 1235 4032 1459 4032 
C 1683 4032 2106 3925 2106 3320 
C 2106 3143 2080 2828 1862 2550 
C 1670 2304 1453 2304 1242 2284 
C 1210 2284 1062 2269 1037 2269 
C 992 2263 966 2257 966 2208 
C 966 2163 973 2157 1101 2157 
L 1414 2157 
z
" transform="scale(0.015625)"/>
       </defs>
       <use xlink:href="#CMR17-35" transform="scale(0.996264)"/>
       <use xlink:href="#CMMI12-3a" transform="translate(45.690477 0) scale(0.996264)"/>
       <use xlink:href="#CMR17-33" transform="translate(72.787654 0) scale(0.996264)"/>
      </g>
     </g>
    </g>
    <g id="xtick_7">
     <g id="line2d_13">
      <path d="M 334.362426 163.511621 
L 334.362426 13.701724 
" clip-path="url(#pb1faa8f416)" style="fill: none; stroke: #b0b0b0; stroke-width: 0.8; stroke-linecap: square"/>
     </g>
     <g id="line2d_14">
      <g>
       <use xlink:href="#mef7eb9f150" x="334.362426" y="163.511621" style="stroke: #000000; stroke-width: 0.8"/>
      </g>
     </g>
     <g id="text_7">
      <!-- $\mathdefault{5.4}$ -->
      <g transform="translate(326.883605 178.813801) scale(0.12 -0.12)">
       <use xlink:href="#CMR17-35" transform="scale(0.996264)"/>
       <use xlink:href="#CMMI12-3a" transform="translate(45.690477 0) scale(0.996264)"/>
       <use xlink:href="#CMR17-34" transform="translate(72.787654 0) scale(0.996264)"/>
      </g>
     </g>
    </g>
    <g id="text_8">
     <!-- Time (s) -->
     <g transform="translate(175.086551 198.571816) scale(0.18 -0.18)">
      <defs>
       <path id="CMR17-54" d="M 3981 4326 
L 288 4326 
L 179 2918 
L 294 2918 
C 378 3976 467 4160 1453 4160 
C 1568 4160 1754 4160 1805 4154 
C 1926 4135 1926 4058 1926 3912 
L 1926 459 
C 1926 230 1907 160 1376 160 
L 1197 160 
L 1197 0 
C 1504 0 1824 0 2138 0 
C 2451 0 2771 0 3078 0 
L 3078 160 
L 2899 160 
C 2368 160 2349 230 2349 459 
L 2349 3912 
C 2349 4052 2349 4129 2464 4154 
C 2515 4160 2701 4160 2816 4160 
C 3795 4160 3891 3976 3974 2918 
L 4090 2918 
L 3981 4326 
z
" transform="scale(0.015625)"/>
       <path id="CMR17-69" d="M 992 3909 
C 992 4049 877 4170 730 4170 
C 589 4170 467 4056 467 3909 
C 467 3769 582 3648 730 3648 
C 870 3648 992 3763 992 3909 
z
M 243 2706 
L 243 2541 
C 602 2541 653 2502 653 2197 
L 653 427 
C 653 184 627 153 218 153 
L 218 -13 
C 371 0 646 0 806 0 
C 960 0 1222 0 1370 -13 
L 1370 153 
C 992 153 979 191 979 420 
L 979 2776 
L 243 2706 
z
" transform="scale(0.015625)"/>
       <path id="CMR17-6d" d="M 4326 1933 
C 4326 2252 4269 2790 3507 2790 
C 3072 2790 2771 2496 2656 2151 
L 2650 2151 
C 2573 2676 2195 2790 1837 2790 
C 1331 2790 1069 2400 973 2144 
L 966 2144 
L 966 2790 
L 211 2720 
L 211 2554 
C 589 2554 646 2515 646 2208 
L 646 428 
C 646 184 621 153 211 153 
L 211 -13 
C 365 0 646 0 813 0 
C 979 0 1267 0 1421 -13 
L 1421 153 
C 1011 153 986 178 986 428 
L 986 1658 
C 986 2247 1344 2688 1792 2688 
C 2266 2688 2317 2266 2317 1958 
L 2317 428 
C 2317 184 2291 153 1882 153 
L 1882 -13 
C 2035 0 2317 0 2483 0 
C 2650 0 2938 0 3091 -13 
L 3091 153 
C 2682 153 2656 178 2656 428 
L 2656 1658 
C 2656 2247 3014 2688 3462 2688 
C 3936 2688 3987 2266 3987 1958 
L 3987 428 
C 3987 184 3962 153 3552 153 
L 3552 -13 
C 3706 0 3987 0 4154 0 
C 4320 0 4608 0 4762 -13 
L 4762 153 
C 4352 153 4326 178 4326 428 
L 4326 1933 
z
" transform="scale(0.015625)"/>
       <path id="CMR17-65" d="M 2438 1472 
C 2464 1498 2464 1511 2464 1576 
C 2464 2238 2118 2816 1389 2816 
C 710 2816 173 2169 173 1383 
C 173 551 781 -64 1459 -64 
C 2176 -64 2458 607 2458 740 
C 2458 784 2419 784 2406 784 
C 2362 784 2355 771 2330 696 
C 2189 265 1837 51 1504 51 
C 1229 51 954 203 781 480 
C 582 803 582 1176 582 1472 
L 2438 1472 
z
M 589 1568 
C 634 2505 1126 2714 1382 2714 
C 1818 2714 2112 2297 2118 1568 
L 589 1568 
z
" transform="scale(0.015625)"/>
       <path id="CMR17-28" d="M 1958 -1561 
C 1958 -1555 1958 -1542 1939 -1523 
C 1645 -1224 858 -407 858 1581 
C 858 3569 1632 4379 1946 4697 
C 1946 4704 1958 4717 1958 4736 
C 1958 4755 1939 4768 1914 4768 
C 1843 4768 1299 4296 986 3594 
C 666 2887 576 2199 576 1588 
C 576 1128 621 351 1005 -471 
C 1312 -1135 1837 -1600 1914 -1600 
C 1946 -1600 1958 -1587 1958 -1561 
z
" transform="scale(0.015625)"/>
       <path id="CMR17-73" d="M 1978 2697 
C 1978 2813 1971 2819 1933 2819 
C 1907 2819 1901 2813 1824 2717 
C 1805 2691 1747 2626 1728 2601 
C 1523 2819 1235 2819 1126 2819 
C 416 2819 160 2447 160 2076 
C 160 1498 813 1365 998 1325 
C 1402 1243 1542 1217 1677 1101 
C 1760 1025 1901 884 1901 654 
C 1901 384 1747 38 1158 38 
C 602 38 403 460 288 1021 
C 269 1110 269 1117 218 1117 
C 166 1117 160 1110 160 983 
L 160 63 
C 160 -51 166 -58 205 -58 
C 237 -58 243 -51 275 0 
C 314 57 410 211 448 276 
C 576 103 800 -64 1158 -64 
C 1792 -64 2131 283 2131 784 
C 2131 1112 1958 1285 1875 1362 
C 1683 1561 1459 1606 1190 1657 
C 838 1735 390 1825 390 2217 
C 390 2383 480 2737 1126 2737 
C 1811 2737 1850 2094 1862 1888 
C 1869 1856 1901 1849 1920 1849 
C 1978 1849 1978 1869 1978 1978 
L 1978 2697 
z
" transform="scale(0.015625)"/>
       <path id="CMR17-29" d="M 1683 1581 
C 1683 2040 1638 2817 1254 3639 
C 947 4303 422 4768 346 4768 
C 326 4768 301 4761 301 4729 
C 301 4717 307 4710 314 4697 
C 621 4378 1402 3568 1402 1584 
C 1402 -407 627 -1217 314 -1537 
C 307 -1549 301 -1556 301 -1568 
C 301 -1600 326 -1600 346 -1600 
C 416 -1600 960 -1128 1274 -426 
C 1594 281 1683 969 1683 1581 
z
" transform="scale(0.015625)"/>
      </defs>
      <use xlink:href="#CMR17-54" transform="scale(0.996264)"/>
      <use xlink:href="#CMR17-69" transform="translate(66.509881 0) scale(0.996264)"/>
      <use xlink:href="#CMR17-6d" transform="translate(91.380939 0) scale(0.996264)"/>
      <use xlink:href="#CMR17-65" transform="translate(168.300529 0) scale(0.996264)"/>
      <use xlink:href="#CMR17-28" transform="translate(238.862156 0) scale(0.996264)"/>
      <use xlink:href="#CMR17-73" transform="translate(274.142924 0) scale(0.996264)"/>
      <use xlink:href="#CMR17-29" transform="translate(309.944261 0) scale(0.996264)"/>
     </g>
    </g>
   </g>
   <g id="matplotlib.axis_2">
    <g id="ytick_1">
     <g id="line2d_15">
      <path d="M 65.273565 142.768566 
L 347.04 142.768566 
" clip-path="url(#pb1faa8f416)" style="fill: none; stroke: #b0b0b0; stroke-width: 0.8; stroke-linecap: square"/>
     </g>
     <g id="line2d_16">
      <defs>
       <path id="mf180f560e8" d="M 0 0 
L -3.5 0 
" style="stroke: #000000; stroke-width: 0.8"/>
      </defs>
      <g>
       <use xlink:href="#mf180f560e8" x="65.273565" y="142.768566" style="stroke: #000000; stroke-width: 0.8"/>
      </g>
     </g>
     <g id="text_9">
      <!-- $\mathdefault{2000}$ -->
      <g transform="translate(34.861604 146.919656) scale(0.12 -0.12)">
       <use xlink:href="#CMR17-32" transform="scale(0.996264)"/>
       <use xlink:href="#CMR17-30" transform="translate(45.690477 0) scale(0.996264)"/>
       <use xlink:href="#CMR17-30" transform="translate(91.380954 0) scale(0.996264)"/>
       <use xlink:href="#CMR17-30" transform="translate(137.071431 0) scale(0.996264)"/>
      </g>
     </g>
    </g>
    <g id="ytick_2">
     <g id="line2d_17">
      <path d="M 65.273565 117.569384 
L 347.04 117.569384 
" clip-path="url(#pb1faa8f416)" style="fill: none; stroke: #b0b0b0; stroke-width: 0.8; stroke-linecap: square"/>
     </g>
     <g id="line2d_18">
      <g>
       <use xlink:href="#mf180f560e8" x="65.273565" y="117.569384" style="stroke: #000000; stroke-width: 0.8"/>
      </g>
     </g>
     <g id="text_10">
      <!-- $\mathdefault{2500}$ -->
      <g transform="translate(34.861604 121.720474) scale(0.12 -0.12)">
       <use xlink:href="#CMR17-32" transform="scale(0.996264)"/>
       <use xlink:href="#CMR17-35" transform="translate(45.690477 0) scale(0.996264)"/>
       <use xlink:href="#CMR17-30" transform="translate(91.380954 0) scale(0.996264)"/>
       <use xlink:href="#CMR17-30" transform="translate(137.071431 0) scale(0.996264)"/>
      </g>
     </g>
    </g>
    <g id="ytick_3">
     <g id="line2d_19">
      <path d="M 65.273565 92.370201 
L 347.04 92.370201 
" clip-path="url(#pb1faa8f416)" style="fill: none; stroke: #b0b0b0; stroke-width: 0.8; stroke-linecap: square"/>
     </g>
     <g id="line2d_20">
      <g>
       <use xlink:href="#mf180f560e8" x="65.273565" y="92.370201" style="stroke: #000000; stroke-width: 0.8"/>
      </g>
     </g>
     <g id="text_11">
      <!-- $\mathdefault{3000}$ -->
      <g transform="translate(34.861604 96.521291) scale(0.12 -0.12)">
       <use xlink:href="#CMR17-33" transform="scale(0.996264)"/>
       <use xlink:href="#CMR17-30" transform="translate(45.690477 0) scale(0.996264)"/>
       <use xlink:href="#CMR17-30" transform="translate(91.380954 0) scale(0.996264)"/>
       <use xlink:href="#CMR17-30" transform="translate(137.071431 0) scale(0.996264)"/>
      </g>
     </g>
    </g>
    <g id="ytick_4">
     <g id="line2d_21">
      <path d="M 65.273565 67.171018 
L 347.04 67.171018 
" clip-path="url(#pb1faa8f416)" style="fill: none; stroke: #b0b0b0; stroke-width: 0.8; stroke-linecap: square"/>
     </g>
     <g id="line2d_22">
      <g>
       <use xlink:href="#mf180f560e8" x="65.273565" y="67.171018" style="stroke: #000000; stroke-width: 0.8"/>
      </g>
     </g>
     <g id="text_12">
      <!-- $\mathdefault{3500}$ -->
      <g transform="translate(34.861604 71.322108) scale(0.12 -0.12)">
       <use xlink:href="#CMR17-33" transform="scale(0.996264)"/>
       <use xlink:href="#CMR17-35" transform="translate(45.690477 0) scale(0.996264)"/>
       <use xlink:href="#CMR17-30" transform="translate(91.380954 0) scale(0.996264)"/>
       <use xlink:href="#CMR17-30" transform="translate(137.071431 0) scale(0.996264)"/>
      </g>
     </g>
    </g>
    <g id="ytick_5">
     <g id="line2d_23">
      <path d="M 65.273565 41.971835 
L 347.04 41.971835 
" clip-path="url(#pb1faa8f416)" style="fill: none; stroke: #b0b0b0; stroke-width: 0.8; stroke-linecap: square"/>
     </g>
     <g id="line2d_24">
      <g>
       <use xlink:href="#mf180f560e8" x="65.273565" y="41.971835" style="stroke: #000000; stroke-width: 0.8"/>
      </g>
     </g>
     <g id="text_13">
      <!-- $\mathdefault{4000}$ -->
      <g transform="translate(34.861604 46.122925) scale(0.12 -0.12)">
       <use xlink:href="#CMR17-34" transform="scale(0.996264)"/>
       <use xlink:href="#CMR17-30" transform="translate(45.690477 0) scale(0.996264)"/>
       <use xlink:href="#CMR17-30" transform="translate(91.380954 0) scale(0.996264)"/>
       <use xlink:href="#CMR17-30" transform="translate(137.071431 0) scale(0.996264)"/>
      </g>
     </g>
    </g>
    <g id="ytick_6">
     <g id="line2d_25">
      <path d="M 65.273565 16.772652 
L 347.04 16.772652 
" clip-path="url(#pb1faa8f416)" style="fill: none; stroke: #b0b0b0; stroke-width: 0.8; stroke-linecap: square"/>
     </g>
     <g id="line2d_26">
      <g>
       <use xlink:href="#mf180f560e8" x="65.273565" y="16.772652" style="stroke: #000000; stroke-width: 0.8"/>
      </g>
     </g>
     <g id="text_14">
      <!-- $\mathdefault{4500}$ -->
      <g transform="translate(34.861604 20.923742) scale(0.12 -0.12)">
       <use xlink:href="#CMR17-34" transform="scale(0.996264)"/>
       <use xlink:href="#CMR17-35" transform="translate(45.690477 0) scale(0.996264)"/>
       <use xlink:href="#CMR17-30" transform="translate(91.380954 0) scale(0.996264)"/>
       <use xlink:href="#CMR17-30" transform="translate(137.071431 0) scale(0.996264)"/>
      </g>
     </g>
    </g>
    <g id="text_15">
     <!-- Achieved Rate (Mbps) -->
     <g transform="translate(26.39342 169.833391) rotate(-90) scale(0.18 -0.18)">
      <defs>
       <path id="CMR17-41" d="M 2323 4378 
C 2291 4461 2278 4480 2214 4480 
C 2150 4480 2138 4461 2106 4378 
L 749 566 
C 627 223 371 153 147 153 
L 147 -13 
C 262 0 518 0 640 0 
C 800 0 1056 0 1210 -13 
L 1210 153 
C 909 153 864 361 864 439 
C 864 497 877 530 890 569 
L 1229 1536 
L 2906 1536 
L 3290 442 
C 3322 365 3322 352 3322 327 
C 3322 153 3046 153 2925 153 
L 2925 0 
C 3110 0 3443 0 3642 0 
C 3808 0 4128 0 4282 -13 
L 4282 153 
C 3942 153 3827 153 3744 387 
L 2323 4378 
z
M 2067 3893 
L 2848 1702 
L 1286 1702 
L 2067 3893 
z
" transform="scale(0.015625)"/>
       <path id="CMR17-63" d="M 2234 2240 
C 2112 2240 1933 2240 1933 2017 
C 1933 1838 2080 1787 2163 1787 
C 2208 1787 2394 1807 2394 2024 
C 2394 2467 1958 2803 1466 2803 
C 787 2803 211 2178 211 1363 
C 211 516 813 -64 1466 -64 
C 2259 -64 2458 677 2458 748 
C 2458 774 2451 793 2406 793 
C 2362 793 2355 787 2330 703 
C 2163 180 1798 51 1523 51 
C 1114 51 621 427 621 1369 
C 621 2338 1094 2688 1472 2688 
C 1722 2688 2093 2573 2234 2240 
z
" transform="scale(0.015625)"/>
       <path id="CMR17-68" d="M 2656 1933 
C 2656 2259 2592 2790 1837 2790 
C 1312 2790 1056 2368 979 2157 
L 973 2157 
L 973 4396 
L 211 4326 
L 211 4160 
C 589 4160 646 4122 646 3817 
L 646 426 
C 646 184 621 153 211 153 
L 211 -13 
C 365 0 646 0 813 0 
C 979 0 1267 0 1421 -13 
L 1421 153 
C 1011 153 986 178 986 428 
L 986 1658 
C 986 2247 1344 2688 1792 2688 
C 2266 2688 2317 2266 2317 1958 
L 2317 428 
C 2317 184 2291 153 1882 153 
L 1882 -13 
C 2035 0 2317 0 2483 0 
C 2650 0 2938 0 3091 -13 
L 3091 153 
C 2682 153 2656 178 2656 428 
L 2656 1933 
z
" transform="scale(0.015625)"/>
       <path id="CMR17-76" d="M 2502 2163 
C 2560 2304 2662 2560 3034 2560 
L 3034 2726 
C 2912 2726 2752 2726 2630 2726 
C 2496 2726 2285 2726 2157 2732 
L 2157 2566 
C 2317 2553 2406 2477 2406 2311 
C 2406 2253 2406 2240 2368 2151 
L 1664 377 
L 902 2286 
C 864 2369 864 2381 864 2407 
C 864 2560 1075 2560 1171 2560 
L 1171 2732 
C 1018 2726 736 2726 576 2726 
C 403 2726 205 2726 64 2732 
L 64 2560 
C 307 2560 442 2560 518 2362 
L 1446 44 
C 1485 -51 1491 -64 1549 -64 
C 1606 -64 1613 -51 1651 44 
L 2502 2163 
z
" transform="scale(0.015625)"/>
       <path id="CMR17-64" d="M 1869 4326 
L 1869 4160 
C 2246 4160 2304 4122 2304 3820 
L 2304 2345 
C 2278 2377 2016 2790 1498 2790 
C 845 2790 211 2208 211 1364 
C 211 525 806 -64 1434 -64 
C 1978 -64 2259 337 2291 380 
L 2291 -63 
L 3066 -63 
L 3066 128 
C 2688 128 2630 166 2630 473 
L 2630 4396 
L 1869 4326 
z
M 2291 755 
C 2291 563 2176 390 2029 262 
C 1811 70 1594 38 1472 38 
C 1286 38 621 134 621 1356 
C 621 2612 1363 2688 1530 2688 
C 1824 2688 2061 2522 2208 2291 
C 2291 2157 2291 2138 2291 2023 
L 2291 755 
z
" transform="scale(0.015625)"/>
       <path id="CMR17-52" d="M 2509 2146 
C 3117 2268 3629 2676 3629 3186 
C 3629 3785 2950 4326 2054 4326 
L 333 4326 
L 333 4160 
C 774 4160 845 4160 845 3873 
L 845 415 
C 845 128 774 128 333 128 
L 333 -26 
C 518 -26 851 -26 1050 -26 
C 1248 -26 1581 -26 1766 -26 
L 1766 128 
C 1325 128 1254 128 1254 417 
L 1254 2112 
L 2003 2112 
C 2368 2112 2573 1964 2662 1881 
C 2918 1632 2918 1459 2918 1024 
C 2918 595 2918 377 3110 160 
C 3354 -102 3680 -128 3821 -128 
C 4294 -128 4365 396 4365 503 
C 4365 540 4365 585 4307 585 
C 4256 585 4250 547 4250 522 
C 4218 112 4032 -26 3834 -26 
C 3482 -26 3443 375 3405 764 
C 3386 898 3373 993 3360 1133 
C 3322 1452 3270 1917 2509 2146 
z
M 1984 2214 
L 1254 2214 
L 1254 3913 
C 1254 4129 1267 4160 1523 4160 
L 1990 4160 
C 2522 4160 3142 3977 3142 3190 
C 3142 2372 2464 2214 1984 2214 
z
" transform="scale(0.015625)"/>
       <path id="CMR17-61" d="M 2304 1653 
C 2304 2072 2304 2294 2035 2543 
C 1798 2752 1523 2816 1306 2816 
C 800 2816 435 2407 435 1971 
C 435 1728 627 1728 666 1728 
C 749 1728 896 1778 896 1954 
C 896 2112 774 2181 666 2181 
C 640 2181 608 2174 589 2168 
C 723 2592 1069 2714 1293 2714 
C 1613 2714 1965 2429 1965 1885 
L 1965 1600 
C 1587 1600 1133 1549 774 1357 
C 371 1133 256 813 256 570 
C 256 77 832 -64 1171 -64 
C 1523 -64 1850 139 1990 511 
C 2003 233 2182 -18 2464 -18 
C 2598 -18 2938 70 2938 567 
L 2938 920 
L 2822 920 
L 2822 562 
C 2822 178 2650 128 2566 128 
C 2304 128 2304 458 2304 738 
L 2304 1653 
z
M 1965 870 
C 1965 317 1568 38 1216 38 
C 896 38 646 275 646 570 
C 646 761 730 1100 1101 1305 
C 1408 1478 1760 1504 1965 1504 
L 1965 870 
z
" transform="scale(0.015625)"/>
       <path id="CMR17-74" d="M 966 2560 
L 1862 2560 
L 1862 2725 
L 966 2725 
L 966 3904 
L 851 3904 
C 838 3245 614 2668 70 2668 
L 70 2560 
L 627 2560 
L 627 771 
C 627 650 627 -64 1370 -64 
C 1747 -64 1965 306 1965 777 
L 1965 1140 
L 1850 1140 
L 1850 783 
C 1850 344 1677 51 1408 51 
C 1222 51 966 178 966 758 
L 966 2560 
z
" transform="scale(0.015625)"/>
       <path id="CMR17-4d" d="M 1338 4224 
C 1299 4320 1293 4320 1158 4320 
L 339 4320 
L 339 4160 
C 781 4160 851 4160 851 3875 
L 851 610 
C 851 451 851 153 339 153 
L 339 -13 
C 486 0 755 0 915 0 
C 1075 0 1344 0 1491 -13 
L 1491 153 
C 979 153 979 451 979 610 
L 979 4135 
L 986 4135 
L 2490 89 
C 2515 25 2528 -13 2579 -13 
C 2630 -13 2643 25 2669 89 
L 4186 4166 
L 4192 4166 
L 4192 438 
C 4192 153 4122 153 3680 153 
L 3680 -13 
C 3853 0 4198 0 4384 0 
C 4570 0 4922 0 5094 -13 
L 5094 153 
C 4653 153 4582 153 4582 438 
L 4582 3875 
C 4582 4160 4653 4160 5094 4160 
L 5094 4320 
L 4282 4320 
C 4147 4320 4141 4314 4102 4218 
L 2720 502 
L 1338 4224 
z
" transform="scale(0.015625)"/>
       <path id="CMR17-62" d="M 960 4396 
L 198 4326 
L 198 4160 
C 576 4160 634 4122 634 3817 
L 634 -13 
L 749 -13 
L 934 441 
C 1120 141 1395 -64 1766 -64 
C 2406 -64 3053 500 3053 1370 
C 3053 2188 2477 2790 1830 2790 
C 1434 2790 1152 2579 960 2330 
L 960 4396 
z
M 973 2004 
C 973 2118 973 2138 1062 2272 
C 1312 2657 1670 2688 1792 2688 
C 1984 2688 2643 2585 2643 1376 
C 2643 108 1888 38 1734 38 
C 1536 38 1248 114 1043 486 
C 973 608 973 621 973 735 
L 973 2004 
z
" transform="scale(0.015625)"/>
       <path id="CMR17-70" d="M 1408 -1063 
C 998 -1063 973 -1037 973 -789 
L 973 402 
C 1158 134 1427 -38 1766 -38 
C 2406 -38 3053 523 3053 1388 
C 3053 2191 2496 2802 1837 2802 
C 1453 2802 1139 2592 960 2338 
L 960 2802 
L 198 2732 
L 198 2567 
C 576 2567 634 2528 634 2223 
L 634 -789 
C 634 -1031 608 -1063 198 -1063 
L 198 -1228 
C 352 -1216 634 -1216 800 -1216 
C 966 -1216 1254 -1216 1408 -1228 
L 1408 -1063 
z
M 973 2012 
C 973 2102 973 2235 1222 2471 
C 1254 2497 1472 2688 1792 2688 
C 2259 2688 2643 2108 2643 1382 
C 2643 656 2234 64 1728 64 
C 1498 64 1248 172 1056 472 
C 973 612 973 650 973 752 
L 973 2012 
z
" transform="scale(0.015625)"/>
      </defs>
      <use xlink:href="#CMR17-41" transform="scale(0.996264)"/>
      <use xlink:href="#CMR17-63" transform="translate(69.07243 0) scale(0.996264)"/>
      <use xlink:href="#CMR17-68" transform="translate(106.955636 0) scale(0.996264)"/>
      <use xlink:href="#CMR17-69" transform="translate(157.851006 0) scale(0.996264)"/>
      <use xlink:href="#CMR17-65" transform="translate(182.722065 0) scale(0.996264)"/>
      <use xlink:href="#CMR17-76" transform="translate(223.207725 0) scale(0.996264)"/>
      <use xlink:href="#CMR17-65" transform="translate(268.898187 0) scale(0.996264)"/>
      <use xlink:href="#CMR17-64" transform="translate(309.383847 0) scale(0.996264)"/>
      <use xlink:href="#CMR17-52" transform="translate(390.355184 0) scale(0.996264)"/>
      <use xlink:href="#CMR17-61" transform="translate(458.146286 0) scale(0.996264)"/>
      <use xlink:href="#CMR17-74" transform="translate(503.836763 0) scale(0.996264)"/>
      <use xlink:href="#CMR17-65" transform="translate(539.11753 0) scale(0.996264)"/>
      <use xlink:href="#CMR17-28" transform="translate(609.679157 0) scale(0.996264)"/>
      <use xlink:href="#CMR17-4d" transform="translate(644.959925 0) scale(0.996264)"/>
      <use xlink:href="#CMR17-62" transform="translate(729.646866 0) scale(0.996264)"/>
      <use xlink:href="#CMR17-70" transform="translate(780.542235 0) scale(0.996264)"/>
      <use xlink:href="#CMR17-73" transform="translate(831.437605 0) scale(0.996264)"/>
      <use xlink:href="#CMR17-29" transform="translate(867.238943 0) scale(0.996264)"/>
     </g>
    </g>
   </g>
   <g id="line2d_27">
    <path d="M 78.08113 140.911076 
L 78.538076 143.682982 
L 78.994921 142.565258 
L 79.454007 142.450538 
L 79.910954 142.604049 
L 80.368308 142.591357 
L 80.83891 142.735712 
L 81.297894 156.70208 
L 81.756573 145.792484 
L 82.215558 143.039285 
L 82.675052 142.606404 
L 83.133731 141.736931 
L 83.592308 142.405514 
L 84.051394 143.524202 
L 84.510481 142.5187 
L 84.969975 141.952759 
L 85.428959 141.906839 
L 85.887638 142.903502 
L 86.346623 143.062345 
L 86.805302 142.909809 
L 87.242988 141.680995 
L 87.72378 150.335004 
L 88.183275 154.504804 
L 88.646641 141.726111 
L 89.105218 142.359041 
L 89.564712 142.569938 
L 90.023391 142.923122 
L 90.481968 144.024516 
L 90.943195 141.81253 
L 91.402689 144.25275 
L 91.861266 142.333675 
L 92.319944 142.993132 
L 92.772611 143.290731 
L 93.232513 142.601496 
L 93.690274 142.229962 
L 94.162099 142.94248 
L 94.609161 153.80906 
L 95.067432 151.479427 
L 95.526009 141.739058 
L 95.98428 142.298422 
L 96.443265 142.399179 
L 96.902351 141.925919 
L 97.36052 142.86985 
L 97.819199 142.351292 
L 98.278184 144.122162 
L 98.736863 141.823372 
L 99.19544 141.172705 
L 99.654526 143.588211 
L 100.113613 143.066537 
L 100.571782 142.829858 
L 101.030869 142.43119 
L 101.489853 154.465173 
L 101.948532 150.388053 
L 102.406701 143.418268 
L 103.324365 142.454054 
L 103.782636 144.567633 
L 104.241213 142.333675 
L 104.699892 142.881771 
L 105.617148 142.268085 
L 106.076132 144.702616 
L 106.535626 145.360157 
L 106.993796 145.13096 
L 107.45329 143.141928 
L 108.390621 154.095662 
L 108.847567 144.283382 
L 109.304106 143.040104 
L 109.760543 142.490412 
L 110.21749 143.722053 
L 110.663328 144.102439 
L 111.121905 142.37172 
L 111.58568 142.896485 
L 112.044766 143.007122 
L 112.502935 143.985681 
L 112.961105 142.877564 
L 113.408676 142.749977 
L 113.866845 141.679458 
L 114.328479 143.605732 
L 114.772076 150.736692 
L 115.22943 152.989088 
L 115.686377 142.609689 
L 116.145463 143.532555 
L 116.6019 142.5222 
L 117.516608 142.644925 
L 118.430399 142.557496 
L 118.888263 142.115419 
L 119.345107 142.577251 
L 119.802054 143.728329 
L 120.247383 142.879196 
L 120.704737 142.628015 
L 121.196332 142.710405 
L 121.653686 150.707683 
L 122.113587 153.471324 
L 122.570432 142.020479 
L 123.027378 142.541969 
L 123.471892 142.697723 
L 123.942494 142.642967 
L 124.404128 141.915932 
L 124.864438 144.442148 
L 125.312009 143.409006 
L 125.769771 143.809852 
L 126.226717 144.860713 
L 126.685702 142.497629 
L 127.143056 142.079306 
L 127.602142 142.956039 
L 128.081712 144.673917 
L 128.539066 152.352803 
L 128.991223 149.604249 
L 129.439201 144.032328 
L 129.899103 144.356148 
L 130.359413 143.366034 
L 130.821047 141.834354 
L 131.744723 146.657217 
L 132.205949 142.317224 
L 132.665851 143.269416 
L 133.126568 142.795324 
L 133.586877 142.699553 
L 134.046881 143.81229 
L 134.50719 141.553458 
L 135.429949 155.588078 
L 135.891991 143.080854 
L 136.35281 143.996764 
L 136.814444 144.170248 
L 137.275976 144.162688 
L 137.738527 144.351347 
L 138.199652 143.431268 
L 138.660878 144.122119 
L 139.122105 145.193285 
L 139.583739 142.983538 
L 140.045271 144.136563 
L 140.509045 142.344868 
L 140.968947 143.24993 
L 141.410098 142.440175 
L 141.843504 151.009943 
L 142.300451 155.193967 
L 142.7415 142.533821 
L 143.204866 143.390314 
L 143.666908 20.511264 
L 144.129358 134.088305 
L 144.590992 144.159939 
L 145.052116 141.207247 
L 145.512935 142.796022 
L 145.957857 145.784686 
L 146.415211 138.071626 
L 146.872157 145.414693 
L 147.329104 143.095606 
L 147.786356 138.680099 
L 148.219762 145.478698 
L 148.662238 145.208971 
L 149.11786 137.09404 
L 149.574704 144.832434 
L 150.039395 141.946576 
L 150.500112 142.86093 
L 150.957874 144.445418 
L 151.424604 139.590444 
L 151.884098 147.730591 
L 152.345324 135.560314 
L 152.796666 145.375737 
L 153.26686 140.349586 
L 153.727985 145.163996 
L 154.191351 141.12012 
L 154.658081 144.672361 
L 155.088124 142.945863 
L 155.533453 139.990329 
L 155.990807 142.048838 
L 156.448161 147.273888 
L 156.903375 137.011923 
L 157.395377 146.010683 
L 157.85263 138.02522 
L 158.309984 147.800946 
L 158.766523 141.349694 
L 159.220004 141.176697 
L 159.683371 143.394455 
L 160.146635 140.588891 
L 160.609594 146.126802 
L 161.072859 137.657013 
L 161.536633 148.629162 
L 161.965352 139.591909 
L 162.412923 138.616489 
L 162.860392 146.298715 
L 163.324574 140.201074 
L 163.787023 143.780967 
L 164.250797 144.002919 
L 164.699999 138.500197 
L 165.157353 146.698697 
L 165.614707 140.280625 
L 166.071653 143.16367 
L 166.529823 144.593832 
L 166.987585 138.081933 
L 167.444123 147.115068 
L 167.923693 137.775159 
L 168.868667 151.40605 
L 169.317869 137.876075 
L 169.809871 142.875553 
L 170.300548 136.133488 
L 170.769927 148.597812 
L 171.234924 136.42847 
L 171.703386 148.355659 
L 172.168893 136.521787 
L 172.636437 148.251036 
L 173.104084 136.974299 
L 173.569081 147.768501 
L 174.03581 137.377212 
L 174.499992 146.925232 
L 174.960811 140.011153 
L 175.419796 144.697802 
L 175.910473 138.780014 
L 176.367827 147.295966 
L 176.825589 139.860393 
L 177.283452 146.74396 
L 178.182263 136.729919 
L 178.640025 148.434153 
L 179.108894 138.440916 
L 179.568389 143.646582 
L 180.02187 145.322818 
L 180.486052 137.344779 
L 180.945138 148.15262 
L 181.404225 137.27215 
L 181.863311 144.800867 
L 182.322704 140.771042 
L 182.802273 144.58438 
L 183.25922 140.904626 
L 183.694358 144.675925 
L 184.612429 140.703108 
L 185.071516 143.611845 
L 185.53101 143.160758 
L 185.990096 139.618766 
L 186.449998 147.703963 
L 186.908983 135.656085 
L 187.368069 147.033451 
L 187.827156 140.690226 
L 188.745227 145.354013 
L 189.192288 137.438409 
L 189.678686 147.017025 
L 190.13604 137.486445 
L 190.595126 147.644664 
L 191.042595 139.213059 
L 191.506777 143.552242 
L 191.962501 145.143049 
L 192.422403 137.50015 
L 192.882304 147.827655 
L 193.341798 137.342351 
L 193.802515 144.607536 
L 194.262825 144.434586 
L 194.722726 140.319828 
L 195.182221 145.409278 
L 195.64253 137.661151 
L 196.073898 145.051745 
L 196.517495 145.467953 
L 196.975256 137.546388 
L 197.433528 145.663011 
L 197.891289 140.461394 
L 198.351191 142.661053 
L 198.808953 147.322908 
L 199.266715 135.907525 
L 199.714693 145.792973 
L 200.204046 139.574476 
L 200.661808 146.751387 
L 201.121302 140.328431 
L 201.578248 143.664133 
L 202.035093 143.697637 
L 202.492956 138.71887 
L 202.925038 144.660358 
L 203.373016 145.836681 
L 203.82823 137.491946 
L 204.285585 144.430898 
L 204.742429 142.571608 
L 205.199783 141.421811 
L 205.65673 147.207328 
L 206.114491 136.421167 
L 206.571438 146.580272 
L 207.0292 139.871242 
L 207.486961 142.681543 
L 207.944315 147.291353 
L 208.414917 137.070762 
L 208.873494 146.981068 
L 209.333396 136.393887 
L 209.810418 148.946969 
L 210.267772 136.347131 
L 210.724718 146.028882 
L 211.182072 147.281278 
L 211.629542 135.667847 
L 212.088628 147.020025 
L 212.551893 136.038756 
L 213.011795 146.665738 
L 213.470881 141.270294 
L 213.92956 146.424431 
L 214.389869 140.947963 
L 214.848446 138.377767 
L 215.307533 148.17783 
L 215.766212 137.231464 
L 216.226521 144.963956 
L 216.706498 139.259979 
L 217.163852 146.056805 
L 217.620799 140.876665 
L 218.536322 146.182599 
L 218.992759 136.215259 
L 219.450113 147.166944 
L 219.910015 139.861748 
L 220.356261 142.440431 
L 220.815348 146.997192 
L 221.275249 136.398349 
L 221.733826 146.402803 
L 222.19332 140.758892 
L 222.634879 141.42133 
L 223.092233 147.261121 
L 223.551727 137.417723 
L 224.021412 146.466292 
L 224.481823 137.604599 
L 224.941725 146.042282 
L 225.401219 140.795333 
L 225.859796 142.39214 
L 226.320105 147.879431 
L 226.779192 135.596801 
L 227.238278 147.573275 
L 227.696855 138.95235 
L 228.157165 151.794441 
L 228.616251 135.619322 
L 229.075338 140.170492 
L 229.535239 147.194945 
L 229.975881 138.283061 
L 230.405415 140.946068 
L 230.862361 145.432521 
L 231.308607 144.270329 
L 231.768102 138.03816 
L 232.227188 147.537874 
L 232.685765 137.21222 
L 233.145259 145.425641 
L 233.603836 140.631501 
L 234.062515 142.91051 
L 234.521092 150.382866 
L 234.980586 132.825973 
L 235.439672 146.998535 
L 235.898249 139.516041 
L 236.356928 144.701241 
L 236.797977 144.210347 
L 237.245956 139.372389 
L 238.152104 146.678123 
L 238.609458 135.229902 
L 239.066405 145.9839 
L 239.523249 141.41753 
L 239.980603 142.618148 
L 240.437957 147.223472 
L 240.894904 135.683413 
L 241.35185 145.951842 
L 241.809612 141.0935 
L 242.266966 143.179796 
L 242.755911 140.602203 
L 243.212858 146.035013 
L 243.69793 138.615859 
L 244.154877 146.034332 
L 244.611823 140.825723 
L 245.05542 141.945861 
L 245.514506 146.995848 
L 245.960345 138.318857 
L 246.418922 143.476141 
L 246.878416 147.089131 
L 247.336993 135.520162 
L 247.79608 147.580619 
L 248.254758 138.360928 
L 248.714151 144.811161 
L 249.172422 146.90575 
L 249.617343 134.491253 
L 250.05503 145.312753 
L 250.546115 139.417168 
L 251.005201 146.481159 
L 251.464288 147.557915 
L 251.92368 136.84916 
L 252.382359 145.228927 
L 252.840528 137.716965 
L 253.299207 147.477031 
L 253.758701 138.023503 
L 254.217278 145.22482 
L 254.676364 140.725285 
L 255.118738 140.986908 
L 255.576092 146.121442 
L 256.033446 140.858734 
L 256.490801 142.654082 
L 256.944282 147.025947 
L 257.419164 137.551631 
L 257.878149 147.560587 
L 258.33642 136.007248 
L 258.796322 146.610573 
L 259.255306 139.634663 
L 259.713985 144.593143 
L 260.172562 142.956739 
L 260.631649 139.646944 
L 261.090735 146.956871 
L 261.54972 137.925193 
L 262.008398 144.612439 
L 262.467485 141.34141 
L 263.384231 145.798609 
L 263.826198 137.871922 
L 264.272851 143.173899 
L 264.729798 147.185794 
L 265.18756 135.88951 
L 265.636761 146.046656 
L 266.094115 140.950478 
L 266.551062 141.950932 
L 267.008823 146.715591 
L 267.466178 138.059108 
L 267.935455 145.77539 
L 268.398414 142.741691 
L 268.856991 141.227577 
L 269.3173 141.004905 
L 269.775979 142.958839 
L 270.234148 147.456287 
L 270.68335 136.125719 
L 271.142436 144.137809 
L 271.600606 141.149884 
L 272.059284 143.467778 
L 272.518371 147.603311 
L 272.976948 135.575774 
L 273.435627 149.196179 
L 273.893796 137.682303 
L 274.352882 144.179553 
L 274.811052 142.832666 
L 275.269629 139.480546 
L 275.72739 146.757463 
L 276.179242 138.532956 
L 276.633539 144.283664 
L 277.092625 143.563869 
L 277.564042 140.607169 
L 278.010696 145.619853 
L 278.469783 137.879644 
L 278.928461 144.606926 
L 279.387854 141.377641 
L 279.846533 143.490773 
L 280.305109 146.389281 
L 280.764196 136.150883 
L 281.222875 146.998535 
L 281.681452 139.484169 
L 282.140538 145.252191 
L 283.059017 140.220797 
L 283.517696 146.914499 
L 283.963433 138.291731 
L 284.437499 145.061011 
L 284.896076 139.543551 
L 285.354347 144.591075 
L 285.843292 138.936713 
L 286.730588 147.52785 
L 287.189267 137.721388 
L 287.648353 144.758979 
L 288.10693 140.658007 
L 288.565609 143.514454 
L 289.028058 145.418161 
L 289.49224 138.518857 
L 289.95469 147.703348 
L 290.415916 136.100503 
L 290.891206 149.288097 
L 291.34214 136.54342 
L 291.804181 145.337433 
L 292.265306 140.673492 
L 292.72694 144.130373 
L 293.191631 140.866179 
L 293.654488 143.248629 
L 294.11653 144.829016 
L 294.580304 139.020372 
L 295.042754 147.6815 
L 295.50398 136.096784 
L 295.966022 147.686135 
L 296.411351 139.370996 
L 296.869622 142.251851 
L 297.326875 147.189832 
L 297.806444 138.568659 
L 298.245455 143.821702 
L 298.707497 139.676756 
L 299.170864 145.65483 
L 299.633721 140.459641 
L 300.095355 143.627152 
L 300.559129 143.42619 
L 301.020253 140.130797 
L 301.481888 148.099846 
L 301.946987 135.871246 
L 302.407704 150.777405 
L 302.868522 133.737172 
L 303.315584 146.227897 
L 303.773346 143.850215 
L 304.230292 137.961805 
L 304.700384 148.766711 
L 305.165891 136.557015 
L 305.627118 147.420531 
L 306.08865 136.765202 
L 306.551201 146.612403 
L 307.016606 139.34587 
L 307.477425 144.552697 
L 307.938142 141.674334 
L 308.379293 140.684669 
L 308.836647 146.698697 
L 309.293491 139.665454 
L 309.750438 144.266039 
L 310.209117 144.077172 
L 310.668509 138.540025 
L 311.132283 147.11192 
L 311.604617 138.479605 
L 312.068391 148.037123 
L 312.528701 135.899289 
L 312.991558 150.12261 
L 313.453192 135.57003 
L 313.913603 144.431836 
L 314.375645 142.02263 
L 315.283016 145.349177 
L 315.740778 136.400238 
L 316.198132 145.468842 
L 316.656301 141.719909 
L 317.11498 142.988934 
L 317.572334 150.088831 
L 318.029688 132.314981 
L 318.50885 148.856676 
L 318.970382 136.785139 
L 319.432016 146.959343 
L 319.894466 137.014994 
L 320.357425 146.695309 
L 320.818142 139.952305 
L 321.279368 144.654786 
L 321.74141 140.857576 
L 322.186841 141.033401 
L 322.661213 148.503255 
L 323.123663 136.46671 
L 323.592125 148.955062 
L 324.053759 136.150317 
L 324.515393 147.041474 
L 325.004338 139.998326 
L 325.4621 147.347651 
L 325.920371 135.378619 
L 326.377215 150.025488 
L 326.833754 137.348542 
L 327.744182 147.521633 
L 328.204492 135.870162 
L 328.694761 144.099013 
L 329.153338 142.862836 
L 329.610285 146.589757 
L 330.067231 136.785592 
L 330.522445 145.639713 
L 330.98571 141.118708 
L 331.448669 143.918515 
L 331.912851 140.68552 
L 332.37744 143.155031 
L 332.841214 144.028966 
L 333.304581 140.585345 
L 333.76489 147.267809 
L 334.232435 136.446214 
L 334.232435 136.446214 
" clip-path="url(#pb1faa8f416)" style="fill: none; stroke: #1f77b4; stroke-width: 2; stroke-linecap: square"/>
   </g>
   <g id="patch_3">
    <path d="M 65.273565 163.511621 
L 65.273565 13.701724 
" style="fill: none; stroke: #000000; stroke-width: 0.8; stroke-linejoin: miter; stroke-linecap: square"/>
   </g>
   <g id="patch_4">
    <path d="M 347.04 163.511621 
L 347.04 13.701724 
" style="fill: none; stroke: #000000; stroke-width: 0.8; stroke-linejoin: miter; stroke-linecap: square"/>
   </g>
   <g id="patch_5">
    <path d="M 65.273565 163.511621 
L 347.04 163.511621 
" style="fill: none; stroke: #000000; stroke-width: 0.8; stroke-linejoin: miter; stroke-linecap: square"/>
   </g>
   <g id="patch_6">
    <path d="M 65.273565 13.701724 
L 347.04 13.701724 
" style="fill: none; stroke: #000000; stroke-width: 0.8; stroke-linejoin: miter; stroke-linecap: square"/>
   </g>
   <g id="legend_1">
    <g id="patch_7">
     <path d="M 229.70308 57.084819 
L 337.59 57.084819 
Q 340.29 57.084819 340.29 54.384819 
L 340.29 23.151724 
Q 340.29 20.451724 337.59 20.451724 
L 229.70308 20.451724 
Q 227.00308 20.451724 227.00308 23.151724 
L 227.00308 54.384819 
Q 227.00308 57.084819 229.70308 57.084819 
z
" style="fill: #ffffff; opacity: 0.8; stroke: #cccccc; stroke-linejoin: miter"/>
    </g>
    <g id="text_16">
     <!-- Rate Limit (Mbps) -->
     <g transform="translate(232.40308 35.266416) scale(0.126 -0.126)">
      <defs>
       <path id="CMR17-4c" d="M 3469 1615 
L 3354 1615 
C 3302 983 3219 166 2125 166 
L 1530 166 
C 1274 166 1261 197 1261 414 
L 1261 3898 
C 1261 4129 1274 4192 1760 4192 
L 1901 4192 
L 1901 4352 
C 1638 4352 1331 4352 1069 4352 
C 870 4352 512 4352 326 4352 
L 326 4192 
C 768 4192 838 4192 838 3905 
L 838 452 
C 838 166 768 166 326 166 
L 326 0 
L 3315 0 
L 3469 1615 
z
" transform="scale(0.015625)"/>
      </defs>
      <use xlink:href="#CMR17-52" transform="scale(0.996264)"/>
      <use xlink:href="#CMR17-61" transform="translate(67.791102 0) scale(0.996264)"/>
      <use xlink:href="#CMR17-74" transform="translate(113.481579 0) scale(0.996264)"/>
      <use xlink:href="#CMR17-65" transform="translate(148.762347 0) scale(0.996264)"/>
      <use xlink:href="#CMR17-4c" transform="translate(219.323974 0) scale(0.996264)"/>
      <use xlink:href="#CMR17-69" transform="translate(276.705382 0) scale(0.996264)"/>
      <use xlink:href="#CMR17-6d" transform="translate(301.57644 0) scale(0.996264)"/>
      <use xlink:href="#CMR17-69" transform="translate(378.49603 0) scale(0.996264)"/>
      <use xlink:href="#CMR17-74" transform="translate(403.367088 0) scale(0.996264)"/>
      <use xlink:href="#CMR17-28" transform="translate(468.723823 0) scale(0.996264)"/>
      <use xlink:href="#CMR17-4d" transform="translate(504.00459 0) scale(0.996264)"/>
      <use xlink:href="#CMR17-62" transform="translate(588.691531 0) scale(0.996264)"/>
      <use xlink:href="#CMR17-70" transform="translate(639.586901 0) scale(0.996264)"/>
      <use xlink:href="#CMR17-73" transform="translate(690.48227 0) scale(0.996264)"/>
      <use xlink:href="#CMR17-29" transform="translate(726.283608 0) scale(0.996264)"/>
     </g>
    </g>
    <g id="line2d_28">
     <path d="M 251.577327 44.344641 
L 265.077327 44.344641 
L 278.577327 44.344641 
" style="fill: none; stroke: #1f77b4; stroke-width: 2; stroke-linecap: square"/>
    </g>
    <g id="text_17">
     <!-- 2000 -->
     <g transform="translate(289.377327 49.069641) scale(0.135 -0.135)">
      <use xlink:href="#CMR17-32" transform="scale(0.996264)"/>
      <use xlink:href="#CMR17-30" transform="translate(45.690477 0) scale(0.996264)"/>
      <use xlink:href="#CMR17-30" transform="translate(91.380954 0) scale(0.996264)"/>
      <use xlink:href="#CMR17-30" transform="translate(137.071431 0) scale(0.996264)"/>
     </g>
    </g>
   </g>
  </g>
 </g>
 <defs>
  <clipPath id="pb1faa8f416">
   <rect x="65.273565" y="13.701724" width="281.766435" height="149.809897"/>
  </clipPath>
 </defs>
</svg>
