<?xml version="1.0" encoding="utf-8" standalone="no"?>
<!DOCTYPE svg PUBLIC "-//W3C//DTD SVG 1.1//EN"
  "http://www.w3.org/Graphics/SVG/1.1/DTD/svg11.dtd">
<svg xmlns:xlink="http://www.w3.org/1999/xlink" width="360pt" height="216pt" viewBox="0 0 360 216" xmlns="http://www.w3.org/2000/svg" version="1.1">
 <metadata>
  <rdf:RDF xmlns:dc="http://purl.org/dc/elements/1.1/" xmlns:cc="http://creativecommons.org/ns#" xmlns:rdf="http://www.w3.org/1999/02/22-rdf-syntax-ns#">
   <cc:Work>
    <dc:type rdf:resource="http://purl.org/dc/dcmitype/StillImage"/>
    <dc:date>2025-02-27T14:39:30.774076</dc:date>
    <dc:format>image/svg+xml</dc:format>
    <dc:creator>
     <cc:Agent>
      <dc:title>Matplotlib v3.9.2, https://matplotlib.org/</dc:title>
     </cc:Agent>
    </dc:creator>
   </cc:Work>
  </rdf:RDF>
 </metadata>
 <defs>
  <style type="text/css">*{stroke-linejoin: round; stroke-linecap: butt}</style>
 </defs>
 <g id="figure_1">
  <g id="patch_1">
   <path d="M 0 216 
L 360 216 
L 360 0 
L 0 0 
z
" style="fill: #ffffff"/>
  </g>
  <g id="axes_1">
   <g id="patch_2">
    <path d="M 62.668086 163.511621 
L 303.180755 163.511621 
L 303.180755 15.464299 
L 62.668086 15.464299 
z
" style="fill: #ffffff"/>
   </g>
   <g id="matplotlib.axis_1">
    <g id="xtick_1">
     <g id="line2d_1">
      <defs>
       <path id="mb3522d0bc2" d="M 0 0 
L 0 3.5 
" style="stroke: #000000; stroke-width: 0.8"/>
      </defs>
      <g>
       <use xlink:href="#mb3522d0bc2" x="73.509338" y="163.511621" style="stroke: #000000; stroke-width: 0.8"/>
      </g>
     </g>
     <g id="text_1">
      <!-- 0K -->
      <g transform="translate(66.032593 178.813801) scale(0.12 -0.12)">
       <defs>
        <path id="CMR17-30" d="M 2688 2025 
C 2688 2416 2682 3080 2413 3591 
C 2176 4039 1798 4198 1466 4198 
C 1158 4198 768 4058 525 3597 
C 269 3118 243 2524 243 2025 
C 243 1661 250 1106 448 619 
C 723 -39 1216 -128 1466 -128 
C 1760 -128 2208 -7 2470 600 
C 2662 1042 2688 1559 2688 2025 
z
M 1466 -26 
C 1056 -26 813 325 723 812 
C 653 1188 653 1738 653 2096 
C 653 2588 653 2997 736 3387 
C 858 3929 1216 4096 1466 4096 
C 1728 4096 2067 3923 2189 3400 
C 2272 3036 2278 2607 2278 2096 
C 2278 1680 2278 1169 2202 792 
C 2067 95 1690 -26 1466 -26 
z
" transform="scale(0.015625)"/>
        <path id="CMR17-4b" d="M 2362 2675 
L 3469 3782 
C 3699 4006 3942 4186 4301 4186 
L 4301 4352 
C 4173 4352 4013 4352 3885 4352 
C 3712 4352 3411 4352 3245 4358 
L 3245 4192 
C 3411 4180 3437 4065 3437 4019 
C 3437 3975 3411 3905 3386 3867 
L 1261 1738 
L 1261 3900 
C 1261 4186 1331 4186 1773 4186 
L 1773 4352 
C 1587 4352 1248 4352 1050 4352 
C 851 4352 512 4352 326 4352 
L 326 4186 
C 768 4186 838 4186 838 3899 
L 838 446 
C 838 160 768 160 326 160 
L 326 0 
C 512 0 851 0 1050 0 
C 1248 0 1587 0 1773 0 
L 1773 160 
C 1331 160 1261 160 1261 447 
L 1261 1579 
L 2080 2390 
L 3290 537 
C 3328 473 3373 390 3373 326 
C 3373 160 3194 160 3110 160 
L 3110 0 
C 3315 0 3610 0 3821 0 
C 3974 0 4237 0 4384 -6 
L 4384 160 
C 4077 160 3981 198 3789 493 
L 2362 2675 
z
" transform="scale(0.015625)"/>
       </defs>
       <use xlink:href="#CMR17-30" transform="scale(0.996264)"/>
       <use xlink:href="#CMR17-4b" transform="translate(45.690477 0) scale(0.996264)"/>
      </g>
     </g>
    </g>
    <g id="xtick_2">
     <g id="line2d_2">
      <g>
       <use xlink:href="#mb3522d0bc2" x="119.079968" y="163.511621" style="stroke: #000000; stroke-width: 0.8"/>
      </g>
     </g>
     <g id="text_2">
      <!-- 5K -->
      <g transform="translate(111.603222 178.813801) scale(0.12 -0.12)">
       <defs>
        <path id="CMR17-35" d="M 730 3692 
C 794 3666 1056 3584 1325 3584 
C 1920 3584 2246 3911 2432 4100 
C 2432 4157 2432 4192 2394 4192 
C 2387 4192 2374 4192 2323 4163 
C 2099 4058 1837 3973 1517 3973 
C 1325 3973 1037 3999 723 4139 
C 653 4171 640 4171 634 4171 
C 602 4171 595 4164 595 4037 
L 595 2203 
C 595 2089 595 2057 659 2057 
C 691 2057 704 2070 736 2114 
C 941 2401 1222 2522 1542 2522 
C 1766 2522 2246 2382 2246 1289 
C 2246 1085 2246 715 2054 421 
C 1894 159 1645 25 1370 25 
C 947 25 518 320 403 814 
C 429 807 480 795 506 795 
C 589 795 749 840 749 1038 
C 749 1210 627 1280 506 1280 
C 358 1280 262 1190 262 1011 
C 262 454 704 -128 1382 -128 
C 2042 -128 2669 440 2669 1264 
C 2669 2030 2170 2624 1549 2624 
C 1222 2624 947 2503 730 2274 
L 730 3692 
z
" transform="scale(0.015625)"/>
       </defs>
       <use xlink:href="#CMR17-35" transform="scale(0.996264)"/>
       <use xlink:href="#CMR17-4b" transform="translate(45.690477 0) scale(0.996264)"/>
      </g>
     </g>
    </g>
    <g id="xtick_3">
     <g id="line2d_3">
      <g>
       <use xlink:href="#mb3522d0bc2" x="164.650598" y="163.511621" style="stroke: #000000; stroke-width: 0.8"/>
      </g>
     </g>
     <g id="text_3">
      <!-- 10K -->
      <g transform="translate(154.247357 178.813801) scale(0.12 -0.12)">
       <defs>
        <path id="CMR17-31" d="M 1702 4058 
C 1702 4192 1696 4192 1606 4192 
C 1357 3916 979 3827 621 3827 
C 602 3827 570 3827 563 3808 
C 557 3795 557 3782 557 3648 
C 755 3648 1088 3686 1344 3839 
L 1344 461 
C 1344 236 1331 160 781 160 
L 589 160 
L 589 0 
C 896 0 1216 0 1523 0 
C 1830 0 2150 0 2458 0 
L 2458 160 
L 2266 160 
C 1715 160 1702 230 1702 458 
L 1702 4058 
z
" transform="scale(0.015625)"/>
       </defs>
       <use xlink:href="#CMR17-31" transform="scale(0.996264)"/>
       <use xlink:href="#CMR17-30" transform="translate(45.690477 0) scale(0.996264)"/>
       <use xlink:href="#CMR17-4b" transform="translate(91.380954 0) scale(0.996264)"/>
      </g>
     </g>
    </g>
    <g id="xtick_4">
     <g id="line2d_4">
      <g>
       <use xlink:href="#mb3522d0bc2" x="210.221227" y="163.511621" style="stroke: #000000; stroke-width: 0.8"/>
      </g>
     </g>
     <g id="text_4">
      <!-- 15K -->
      <g transform="translate(199.817986 178.813801) scale(0.12 -0.12)">
       <use xlink:href="#CMR17-31" transform="scale(0.996264)"/>
       <use xlink:href="#CMR17-35" transform="translate(45.690477 0) scale(0.996264)"/>
       <use xlink:href="#CMR17-4b" transform="translate(91.380954 0) scale(0.996264)"/>
      </g>
     </g>
    </g>
    <g id="xtick_5">
     <g id="line2d_5">
      <g>
       <use xlink:href="#mb3522d0bc2" x="255.791857" y="163.511621" style="stroke: #000000; stroke-width: 0.8"/>
      </g>
     </g>
     <g id="text_5">
      <!-- 20K -->
      <g transform="translate(245.388616 178.813801) scale(0.12 -0.12)">
       <defs>
        <path id="CMR17-32" d="M 2669 989 
L 2554 989 
C 2490 536 2438 459 2413 420 
C 2381 369 1920 369 1830 369 
L 602 369 
C 832 619 1280 1072 1824 1597 
C 2214 1967 2669 2402 2669 3035 
C 2669 3790 2067 4224 1395 4224 
C 691 4224 262 3604 262 3030 
C 262 2780 448 2748 525 2748 
C 589 2748 781 2787 781 3010 
C 781 3207 614 3264 525 3264 
C 486 3264 448 3258 422 3245 
C 544 3790 915 4058 1306 4058 
C 1862 4058 2227 3617 2227 3035 
C 2227 2479 1901 2000 1536 1584 
L 262 146 
L 262 0 
L 2515 0 
L 2669 989 
z
" transform="scale(0.015625)"/>
       </defs>
       <use xlink:href="#CMR17-32" transform="scale(0.996264)"/>
       <use xlink:href="#CMR17-30" transform="translate(45.690477 0) scale(0.996264)"/>
       <use xlink:href="#CMR17-4b" transform="translate(91.380954 0) scale(0.996264)"/>
      </g>
     </g>
    </g>
    <g id="xtick_6">
     <g id="line2d_6">
      <g>
       <use xlink:href="#mb3522d0bc2" x="301.362486" y="163.511621" style="stroke: #000000; stroke-width: 0.8"/>
      </g>
     </g>
     <g id="text_6">
      <!-- 25K -->
      <g transform="translate(290.959245 178.813801) scale(0.12 -0.12)">
       <use xlink:href="#CMR17-32" transform="scale(0.996264)"/>
       <use xlink:href="#CMR17-35" transform="translate(45.690477 0) scale(0.996264)"/>
       <use xlink:href="#CMR17-4b" transform="translate(91.380954 0) scale(0.996264)"/>
      </g>
     </g>
    </g>
    <g id="text_7">
     <!-- Set Rate (Mbps) -->
     <g transform="translate(122.723256 198.571816) scale(0.18 -0.18)">
      <defs>
       <path id="CMR17-53" d="M 2803 4290 
C 2803 4404 2797 4411 2758 4411 
C 2720 4411 2707 4385 2682 4328 
L 2490 3907 
C 2246 4257 1875 4416 1472 4416 
C 819 4416 294 3901 294 3253 
C 294 3056 339 2776 557 2510 
C 794 2218 1018 2167 1530 2033 
C 1722 1982 2042 1899 2106 1874 
C 2470 1722 2662 1341 2662 985 
C 2662 527 2336 38 1779 38 
C 1094 38 454 419 410 1311 
C 403 1413 397 1419 352 1419 
C 301 1419 294 1413 294 1285 
L 294 -1 
C 294 -115 301 -122 339 -122 
C 384 -122 397 -90 486 108 
C 493 127 493 140 614 381 
C 934 -39 1472 -128 1779 -128 
C 2477 -128 2970 451 2970 1124 
C 2970 1454 2848 1708 2778 1823 
C 2509 2230 2221 2306 1914 2382 
C 1869 2402 1856 2402 1498 2490 
C 1152 2579 1005 2624 845 2796 
C 666 2992 602 3196 602 3399 
C 602 3812 934 4263 1478 4263 
C 2157 4263 2579 3786 2675 2993 
C 2694 2878 2701 2872 2746 2872 
C 2803 2872 2803 2891 2803 2999 
L 2803 4290 
z
" transform="scale(0.015625)"/>
       <path id="CMR17-65" d="M 2438 1472 
C 2464 1498 2464 1511 2464 1576 
C 2464 2238 2118 2816 1389 2816 
C 710 2816 173 2169 173 1383 
C 173 551 781 -64 1459 -64 
C 2176 -64 2458 607 2458 740 
C 2458 784 2419 784 2406 784 
C 2362 784 2355 771 2330 696 
C 2189 265 1837 51 1504 51 
C 1229 51 954 203 781 480 
C 582 803 582 1176 582 1472 
L 2438 1472 
z
M 589 1568 
C 634 2505 1126 2714 1382 2714 
C 1818 2714 2112 2297 2118 1568 
L 589 1568 
z
" transform="scale(0.015625)"/>
       <path id="CMR17-74" d="M 966 2560 
L 1862 2560 
L 1862 2725 
L 966 2725 
L 966 3904 
L 851 3904 
C 838 3245 614 2668 70 2668 
L 70 2560 
L 627 2560 
L 627 771 
C 627 650 627 -64 1370 -64 
C 1747 -64 1965 306 1965 777 
L 1965 1140 
L 1850 1140 
L 1850 783 
C 1850 344 1677 51 1408 51 
C 1222 51 966 178 966 758 
L 966 2560 
z
" transform="scale(0.015625)"/>
       <path id="CMR17-52" d="M 2509 2146 
C 3117 2268 3629 2676 3629 3186 
C 3629 3785 2950 4326 2054 4326 
L 333 4326 
L 333 4160 
C 774 4160 845 4160 845 3873 
L 845 415 
C 845 128 774 128 333 128 
L 333 -26 
C 518 -26 851 -26 1050 -26 
C 1248 -26 1581 -26 1766 -26 
L 1766 128 
C 1325 128 1254 128 1254 417 
L 1254 2112 
L 2003 2112 
C 2368 2112 2573 1964 2662 1881 
C 2918 1632 2918 1459 2918 1024 
C 2918 595 2918 377 3110 160 
C 3354 -102 3680 -128 3821 -128 
C 4294 -128 4365 396 4365 503 
C 4365 540 4365 585 4307 585 
C 4256 585 4250 547 4250 522 
C 4218 112 4032 -26 3834 -26 
C 3482 -26 3443 375 3405 764 
C 3386 898 3373 993 3360 1133 
C 3322 1452 3270 1917 2509 2146 
z
M 1984 2214 
L 1254 2214 
L 1254 3913 
C 1254 4129 1267 4160 1523 4160 
L 1990 4160 
C 2522 4160 3142 3977 3142 3190 
C 3142 2372 2464 2214 1984 2214 
z
" transform="scale(0.015625)"/>
       <path id="CMR17-61" d="M 2304 1653 
C 2304 2072 2304 2294 2035 2543 
C 1798 2752 1523 2816 1306 2816 
C 800 2816 435 2407 435 1971 
C 435 1728 627 1728 666 1728 
C 749 1728 896 1778 896 1954 
C 896 2112 774 2181 666 2181 
C 640 2181 608 2174 589 2168 
C 723 2592 1069 2714 1293 2714 
C 1613 2714 1965 2429 1965 1885 
L 1965 1600 
C 1587 1600 1133 1549 774 1357 
C 371 1133 256 813 256 570 
C 256 77 832 -64 1171 -64 
C 1523 -64 1850 139 1990 511 
C 2003 233 2182 -18 2464 -18 
C 2598 -18 2938 70 2938 567 
L 2938 920 
L 2822 920 
L 2822 562 
C 2822 178 2650 128 2566 128 
C 2304 128 2304 458 2304 738 
L 2304 1653 
z
M 1965 870 
C 1965 317 1568 38 1216 38 
C 896 38 646 275 646 570 
C 646 761 730 1100 1101 1305 
C 1408 1478 1760 1504 1965 1504 
L 1965 870 
z
" transform="scale(0.015625)"/>
       <path id="CMR17-28" d="M 1958 -1561 
C 1958 -1555 1958 -1542 1939 -1523 
C 1645 -1224 858 -407 858 1581 
C 858 3569 1632 4379 1946 4697 
C 1946 4704 1958 4717 1958 4736 
C 1958 4755 1939 4768 1914 4768 
C 1843 4768 1299 4296 986 3594 
C 666 2887 576 2199 576 1588 
C 576 1128 621 351 1005 -471 
C 1312 -1135 1837 -1600 1914 -1600 
C 1946 -1600 1958 -1587 1958 -1561 
z
" transform="scale(0.015625)"/>
       <path id="CMR17-4d" d="M 1338 4224 
C 1299 4320 1293 4320 1158 4320 
L 339 4320 
L 339 4160 
C 781 4160 851 4160 851 3875 
L 851 610 
C 851 451 851 153 339 153 
L 339 -13 
C 486 0 755 0 915 0 
C 1075 0 1344 0 1491 -13 
L 1491 153 
C 979 153 979 451 979 610 
L 979 4135 
L 986 4135 
L 2490 89 
C 2515 25 2528 -13 2579 -13 
C 2630 -13 2643 25 2669 89 
L 4186 4166 
L 4192 4166 
L 4192 438 
C 4192 153 4122 153 3680 153 
L 3680 -13 
C 3853 0 4198 0 4384 0 
C 4570 0 4922 0 5094 -13 
L 5094 153 
C 4653 153 4582 153 4582 438 
L 4582 3875 
C 4582 4160 4653 4160 5094 4160 
L 5094 4320 
L 4282 4320 
C 4147 4320 4141 4314 4102 4218 
L 2720 502 
L 1338 4224 
z
" transform="scale(0.015625)"/>
       <path id="CMR17-62" d="M 960 4396 
L 198 4326 
L 198 4160 
C 576 4160 634 4122 634 3817 
L 634 -13 
L 749 -13 
L 934 441 
C 1120 141 1395 -64 1766 -64 
C 2406 -64 3053 500 3053 1370 
C 3053 2188 2477 2790 1830 2790 
C 1434 2790 1152 2579 960 2330 
L 960 4396 
z
M 973 2004 
C 973 2118 973 2138 1062 2272 
C 1312 2657 1670 2688 1792 2688 
C 1984 2688 2643 2585 2643 1376 
C 2643 108 1888 38 1734 38 
C 1536 38 1248 114 1043 486 
C 973 608 973 621 973 735 
L 973 2004 
z
" transform="scale(0.015625)"/>
       <path id="CMR17-70" d="M 1408 -1063 
C 998 -1063 973 -1037 973 -789 
L 973 402 
C 1158 134 1427 -38 1766 -38 
C 2406 -38 3053 523 3053 1388 
C 3053 2191 2496 2802 1837 2802 
C 1453 2802 1139 2592 960 2338 
L 960 2802 
L 198 2732 
L 198 2567 
C 576 2567 634 2528 634 2223 
L 634 -789 
C 634 -1031 608 -1063 198 -1063 
L 198 -1228 
C 352 -1216 634 -1216 800 -1216 
C 966 -1216 1254 -1216 1408 -1228 
L 1408 -1063 
z
M 973 2012 
C 973 2102 973 2235 1222 2471 
C 1254 2497 1472 2688 1792 2688 
C 2259 2688 2643 2108 2643 1382 
C 2643 656 2234 64 1728 64 
C 1498 64 1248 172 1056 472 
C 973 612 973 650 973 752 
L 973 2012 
z
" transform="scale(0.015625)"/>
       <path id="CMR17-73" d="M 1978 2697 
C 1978 2813 1971 2819 1933 2819 
C 1907 2819 1901 2813 1824 2717 
C 1805 2691 1747 2626 1728 2601 
C 1523 2819 1235 2819 1126 2819 
C 416 2819 160 2447 160 2076 
C 160 1498 813 1365 998 1325 
C 1402 1243 1542 1217 1677 1101 
C 1760 1025 1901 884 1901 654 
C 1901 384 1747 38 1158 38 
C 602 38 403 460 288 1021 
C 269 1110 269 1117 218 1117 
C 166 1117 160 1110 160 983 
L 160 63 
C 160 -51 166 -58 205 -58 
C 237 -58 243 -51 275 0 
C 314 57 410 211 448 276 
C 576 103 800 -64 1158 -64 
C 1792 -64 2131 283 2131 784 
C 2131 1112 1958 1285 1875 1362 
C 1683 1561 1459 1606 1190 1657 
C 838 1735 390 1825 390 2217 
C 390 2383 480 2737 1126 2737 
C 1811 2737 1850 2094 1862 1888 
C 1869 1856 1901 1849 1920 1849 
C 1978 1849 1978 1869 1978 1978 
L 1978 2697 
z
" transform="scale(0.015625)"/>
       <path id="CMR17-29" d="M 1683 1581 
C 1683 2040 1638 2817 1254 3639 
C 947 4303 422 4768 346 4768 
C 326 4768 301 4761 301 4729 
C 301 4717 307 4710 314 4697 
C 621 4378 1402 3568 1402 1584 
C 1402 -407 627 -1217 314 -1537 
C 307 -1549 301 -1556 301 -1568 
C 301 -1600 326 -1600 346 -1600 
C 416 -1600 960 -1128 1274 -426 
C 1594 281 1683 969 1683 1581 
z
" transform="scale(0.015625)"/>
      </defs>
      <use xlink:href="#CMR17-53" transform="scale(0.996264)"/>
      <use xlink:href="#CMR17-65" transform="translate(50.89537 0) scale(0.996264)"/>
      <use xlink:href="#CMR17-74" transform="translate(91.38103 0) scale(0.996264)"/>
      <use xlink:href="#CMR17-52" transform="translate(156.737764 0) scale(0.996264)"/>
      <use xlink:href="#CMR17-61" transform="translate(224.528866 0) scale(0.996264)"/>
      <use xlink:href="#CMR17-74" transform="translate(270.219343 0) scale(0.996264)"/>
      <use xlink:href="#CMR17-65" transform="translate(305.500111 0) scale(0.996264)"/>
      <use xlink:href="#CMR17-28" transform="translate(376.061738 0) scale(0.996264)"/>
      <use xlink:href="#CMR17-4d" transform="translate(411.342506 0) scale(0.996264)"/>
      <use xlink:href="#CMR17-62" transform="translate(496.029446 0) scale(0.996264)"/>
      <use xlink:href="#CMR17-70" transform="translate(546.924816 0) scale(0.996264)"/>
      <use xlink:href="#CMR17-73" transform="translate(597.820186 0) scale(0.996264)"/>
      <use xlink:href="#CMR17-29" transform="translate(633.621524 0) scale(0.996264)"/>
     </g>
    </g>
   </g>
   <g id="matplotlib.axis_2">
    <g id="ytick_1">
     <g id="line2d_7">
      <defs>
       <path id="m1817497549" d="M 0 0 
L -3.5 0 
" style="stroke: #000000; stroke-width: 0.8"/>
      </defs>
      <g>
       <use xlink:href="#m1817497549" x="62.668086" y="156.838288" style="stroke: #000000; stroke-width: 0.8"/>
      </g>
     </g>
     <g id="text_8">
      <!-- 0K -->
      <g transform="translate(40.714594 160.989378) scale(0.12 -0.12)">
       <use xlink:href="#CMR17-30" transform="scale(0.996264)"/>
       <use xlink:href="#CMR17-4b" transform="translate(45.690477 0) scale(0.996264)"/>
      </g>
     </g>
    </g>
    <g id="ytick_2">
     <g id="line2d_8">
      <g>
       <use xlink:href="#m1817497549" x="62.668086" y="128.856664" style="stroke: #000000; stroke-width: 0.8"/>
      </g>
     </g>
     <g id="text_9">
      <!-- 5K -->
      <g transform="translate(40.714594 133.007753) scale(0.12 -0.12)">
       <use xlink:href="#CMR17-35" transform="scale(0.996264)"/>
       <use xlink:href="#CMR17-4b" transform="translate(45.690477 0) scale(0.996264)"/>
      </g>
     </g>
    </g>
    <g id="ytick_3">
     <g id="line2d_9">
      <g>
       <use xlink:href="#m1817497549" x="62.668086" y="100.875039" style="stroke: #000000; stroke-width: 0.8"/>
      </g>
     </g>
     <g id="text_10">
      <!-- 10K -->
      <g transform="translate(34.861604 105.026129) scale(0.12 -0.12)">
       <use xlink:href="#CMR17-31" transform="scale(0.996264)"/>
       <use xlink:href="#CMR17-30" transform="translate(45.690477 0) scale(0.996264)"/>
       <use xlink:href="#CMR17-4b" transform="translate(91.380954 0) scale(0.996264)"/>
      </g>
     </g>
    </g>
    <g id="ytick_4">
     <g id="line2d_10">
      <g>
       <use xlink:href="#m1817497549" x="62.668086" y="72.893415" style="stroke: #000000; stroke-width: 0.8"/>
      </g>
     </g>
     <g id="text_11">
      <!-- 15K -->
      <g transform="translate(34.861604 77.044505) scale(0.12 -0.12)">
       <use xlink:href="#CMR17-31" transform="scale(0.996264)"/>
       <use xlink:href="#CMR17-35" transform="translate(45.690477 0) scale(0.996264)"/>
       <use xlink:href="#CMR17-4b" transform="translate(91.380954 0) scale(0.996264)"/>
      </g>
     </g>
    </g>
    <g id="ytick_5">
     <g id="line2d_11">
      <g>
       <use xlink:href="#m1817497549" x="62.668086" y="44.91179" style="stroke: #000000; stroke-width: 0.8"/>
      </g>
     </g>
     <g id="text_12">
      <!-- 20K -->
      <g transform="translate(34.861604 49.06288) scale(0.12 -0.12)">
       <use xlink:href="#CMR17-32" transform="scale(0.996264)"/>
       <use xlink:href="#CMR17-30" transform="translate(45.690477 0) scale(0.996264)"/>
       <use xlink:href="#CMR17-4b" transform="translate(91.380954 0) scale(0.996264)"/>
      </g>
     </g>
    </g>
    <g id="ytick_6">
     <g id="line2d_12">
      <g>
       <use xlink:href="#m1817497549" x="62.668086" y="16.930166" style="stroke: #000000; stroke-width: 0.8"/>
      </g>
     </g>
     <g id="text_13">
      <!-- 25K -->
      <g transform="translate(34.861604 21.081256) scale(0.12 -0.12)">
       <use xlink:href="#CMR17-32" transform="scale(0.996264)"/>
       <use xlink:href="#CMR17-35" transform="translate(45.690477 0) scale(0.996264)"/>
       <use xlink:href="#CMR17-4b" transform="translate(91.380954 0) scale(0.996264)"/>
      </g>
     </g>
    </g>
    <g id="text_14">
     <!-- Achieved Rate (Mbps) -->
     <g transform="translate(26.39342 170.714678) rotate(-90) scale(0.18 -0.18)">
      <defs>
       <path id="CMR17-41" d="M 2323 4378 
C 2291 4461 2278 4480 2214 4480 
C 2150 4480 2138 4461 2106 4378 
L 749 566 
C 627 223 371 153 147 153 
L 147 -13 
C 262 0 518 0 640 0 
C 800 0 1056 0 1210 -13 
L 1210 153 
C 909 153 864 361 864 439 
C 864 497 877 530 890 569 
L 1229 1536 
L 2906 1536 
L 3290 442 
C 3322 365 3322 352 3322 327 
C 3322 153 3046 153 2925 153 
L 2925 0 
C 3110 0 3443 0 3642 0 
C 3808 0 4128 0 4282 -13 
L 4282 153 
C 3942 153 3827 153 3744 387 
L 2323 4378 
z
M 2067 3893 
L 2848 1702 
L 1286 1702 
L 2067 3893 
z
" transform="scale(0.015625)"/>
       <path id="CMR17-63" d="M 2234 2240 
C 2112 2240 1933 2240 1933 2017 
C 1933 1838 2080 1787 2163 1787 
C 2208 1787 2394 1807 2394 2024 
C 2394 2467 1958 2803 1466 2803 
C 787 2803 211 2178 211 1363 
C 211 516 813 -64 1466 -64 
C 2259 -64 2458 677 2458 748 
C 2458 774 2451 793 2406 793 
C 2362 793 2355 787 2330 703 
C 2163 180 1798 51 1523 51 
C 1114 51 621 427 621 1369 
C 621 2338 1094 2688 1472 2688 
C 1722 2688 2093 2573 2234 2240 
z
" transform="scale(0.015625)"/>
       <path id="CMR17-68" d="M 2656 1933 
C 2656 2259 2592 2790 1837 2790 
C 1312 2790 1056 2368 979 2157 
L 973 2157 
L 973 4396 
L 211 4326 
L 211 4160 
C 589 4160 646 4122 646 3817 
L 646 426 
C 646 184 621 153 211 153 
L 211 -13 
C 365 0 646 0 813 0 
C 979 0 1267 0 1421 -13 
L 1421 153 
C 1011 153 986 178 986 428 
L 986 1658 
C 986 2247 1344 2688 1792 2688 
C 2266 2688 2317 2266 2317 1958 
L 2317 428 
C 2317 184 2291 153 1882 153 
L 1882 -13 
C 2035 0 2317 0 2483 0 
C 2650 0 2938 0 3091 -13 
L 3091 153 
C 2682 153 2656 178 2656 428 
L 2656 1933 
z
" transform="scale(0.015625)"/>
       <path id="CMR17-69" d="M 992 3909 
C 992 4049 877 4170 730 4170 
C 589 4170 467 4056 467 3909 
C 467 3769 582 3648 730 3648 
C 870 3648 992 3763 992 3909 
z
M 243 2706 
L 243 2541 
C 602 2541 653 2502 653 2197 
L 653 427 
C 653 184 627 153 218 153 
L 218 -13 
C 371 0 646 0 806 0 
C 960 0 1222 0 1370 -13 
L 1370 153 
C 992 153 979 191 979 420 
L 979 2776 
L 243 2706 
z
" transform="scale(0.015625)"/>
       <path id="CMR17-76" d="M 2502 2163 
C 2560 2304 2662 2560 3034 2560 
L 3034 2726 
C 2912 2726 2752 2726 2630 2726 
C 2496 2726 2285 2726 2157 2732 
L 2157 2566 
C 2317 2553 2406 2477 2406 2311 
C 2406 2253 2406 2240 2368 2151 
L 1664 377 
L 902 2286 
C 864 2369 864 2381 864 2407 
C 864 2560 1075 2560 1171 2560 
L 1171 2732 
C 1018 2726 736 2726 576 2726 
C 403 2726 205 2726 64 2732 
L 64 2560 
C 307 2560 442 2560 518 2362 
L 1446 44 
C 1485 -51 1491 -64 1549 -64 
C 1606 -64 1613 -51 1651 44 
L 2502 2163 
z
" transform="scale(0.015625)"/>
       <path id="CMR17-64" d="M 1869 4326 
L 1869 4160 
C 2246 4160 2304 4122 2304 3820 
L 2304 2345 
C 2278 2377 2016 2790 1498 2790 
C 845 2790 211 2208 211 1364 
C 211 525 806 -64 1434 -64 
C 1978 -64 2259 337 2291 380 
L 2291 -63 
L 3066 -63 
L 3066 128 
C 2688 128 2630 166 2630 473 
L 2630 4396 
L 1869 4326 
z
M 2291 755 
C 2291 563 2176 390 2029 262 
C 1811 70 1594 38 1472 38 
C 1286 38 621 134 621 1356 
C 621 2612 1363 2688 1530 2688 
C 1824 2688 2061 2522 2208 2291 
C 2291 2157 2291 2138 2291 2023 
L 2291 755 
z
" transform="scale(0.015625)"/>
      </defs>
      <use xlink:href="#CMR17-41" transform="scale(0.996264)"/>
      <use xlink:href="#CMR17-63" transform="translate(69.07243 0) scale(0.996264)"/>
      <use xlink:href="#CMR17-68" transform="translate(106.955636 0) scale(0.996264)"/>
      <use xlink:href="#CMR17-69" transform="translate(157.851006 0) scale(0.996264)"/>
      <use xlink:href="#CMR17-65" transform="translate(182.722065 0) scale(0.996264)"/>
      <use xlink:href="#CMR17-76" transform="translate(223.207725 0) scale(0.996264)"/>
      <use xlink:href="#CMR17-65" transform="translate(268.898187 0) scale(0.996264)"/>
      <use xlink:href="#CMR17-64" transform="translate(309.383847 0) scale(0.996264)"/>
      <use xlink:href="#CMR17-52" transform="translate(390.355184 0) scale(0.996264)"/>
      <use xlink:href="#CMR17-61" transform="translate(458.146286 0) scale(0.996264)"/>
      <use xlink:href="#CMR17-74" transform="translate(503.836763 0) scale(0.996264)"/>
      <use xlink:href="#CMR17-65" transform="translate(539.11753 0) scale(0.996264)"/>
      <use xlink:href="#CMR17-28" transform="translate(609.679157 0) scale(0.996264)"/>
      <use xlink:href="#CMR17-4d" transform="translate(644.959925 0) scale(0.996264)"/>
      <use xlink:href="#CMR17-62" transform="translate(729.646866 0) scale(0.996264)"/>
      <use xlink:href="#CMR17-70" transform="translate(780.542235 0) scale(0.996264)"/>
      <use xlink:href="#CMR17-73" transform="translate(831.437605 0) scale(0.996264)"/>
      <use xlink:href="#CMR17-29" transform="translate(867.238943 0) scale(0.996264)"/>
     </g>
    </g>
   </g>
   <g id="line2d_13">
    <path d="M 73.60048 156.782187 
L 78.066401 154.027067 
L 82.623464 151.211114 
L 119.079968 128.656019 
L 146.422346 118.371867 
L 164.650598 117.73431 
L 182.878849 118.096862 
L 210.221227 118.125743 
L 237.563605 118.148635 
L 255.791857 118.779413 
L 274.020109 118.505757 
L 292.24836 118.403868 
" clip-path="url(#p8581cb23e2)" style="fill: none; stroke: #1f77b4; stroke-width: 2; stroke-linecap: square"/>
    <defs>
     <path id="m6eedeef5ab" d="M 0 3 
C 0.795609 3 1.55874 2.683901 2.12132 2.12132 
C 2.683901 1.55874 3 0.795609 3 0 
C 3 -0.795609 2.683901 -1.55874 2.12132 -2.12132 
C 1.55874 -2.683901 0.795609 -3 0 -3 
C -0.795609 -3 -1.55874 -2.683901 -2.12132 -2.12132 
C -2.683901 -1.55874 -3 -0.795609 -3 0 
C -3 0.795609 -2.683901 1.55874 -2.12132 2.12132 
C -1.55874 2.683901 -0.795609 3 0 3 
z
" style="stroke: #1f77b4"/>
    </defs>
    <g clip-path="url(#p8581cb23e2)">
     <use xlink:href="#m6eedeef5ab" x="73.60048" y="156.782187" style="fill: #1f77b4; stroke: #1f77b4"/>
     <use xlink:href="#m6eedeef5ab" x="78.066401" y="154.027067" style="fill: #1f77b4; stroke: #1f77b4"/>
     <use xlink:href="#m6eedeef5ab" x="82.623464" y="151.211114" style="fill: #1f77b4; stroke: #1f77b4"/>
     <use xlink:href="#m6eedeef5ab" x="119.079968" y="128.656019" style="fill: #1f77b4; stroke: #1f77b4"/>
     <use xlink:href="#m6eedeef5ab" x="146.422346" y="118.371867" style="fill: #1f77b4; stroke: #1f77b4"/>
     <use xlink:href="#m6eedeef5ab" x="164.650598" y="117.73431" style="fill: #1f77b4; stroke: #1f77b4"/>
     <use xlink:href="#m6eedeef5ab" x="182.878849" y="118.096862" style="fill: #1f77b4; stroke: #1f77b4"/>
     <use xlink:href="#m6eedeef5ab" x="210.221227" y="118.125743" style="fill: #1f77b4; stroke: #1f77b4"/>
     <use xlink:href="#m6eedeef5ab" x="237.563605" y="118.148635" style="fill: #1f77b4; stroke: #1f77b4"/>
     <use xlink:href="#m6eedeef5ab" x="255.791857" y="118.779413" style="fill: #1f77b4; stroke: #1f77b4"/>
     <use xlink:href="#m6eedeef5ab" x="274.020109" y="118.505757" style="fill: #1f77b4; stroke: #1f77b4"/>
     <use xlink:href="#m6eedeef5ab" x="292.24836" y="118.403868" style="fill: #1f77b4; stroke: #1f77b4"/>
    </g>
   </g>
   <g id="line2d_14">
    <path d="M 73.60048 156.782039 
L 78.066401 154.032362 
L 82.623464 151.226436 
L 119.079968 128.877048 
L 146.422346 114.771202 
L 164.650598 113.327632 
L 182.878849 114.19577 
L 210.221227 114.170142 
L 237.563605 113.964138 
L 255.791857 113.413427 
L 274.020109 113.377531 
L 292.24836 113.195435 
" clip-path="url(#p8581cb23e2)" style="fill: none; stroke: #ff7f0e; stroke-width: 2; stroke-linecap: square"/>
    <defs>
     <path id="me1c02e108f" d="M -3 3 
L 3 -3 
M -3 -3 
L 3 3 
" style="stroke: #ff7f0e"/>
    </defs>
    <g clip-path="url(#p8581cb23e2)">
     <use xlink:href="#me1c02e108f" x="73.60048" y="156.782039" style="fill: #ff7f0e; stroke: #ff7f0e"/>
     <use xlink:href="#me1c02e108f" x="78.066401" y="154.032362" style="fill: #ff7f0e; stroke: #ff7f0e"/>
     <use xlink:href="#me1c02e108f" x="82.623464" y="151.226436" style="fill: #ff7f0e; stroke: #ff7f0e"/>
     <use xlink:href="#me1c02e108f" x="119.079968" y="128.877048" style="fill: #ff7f0e; stroke: #ff7f0e"/>
     <use xlink:href="#me1c02e108f" x="146.422346" y="114.771202" style="fill: #ff7f0e; stroke: #ff7f0e"/>
     <use xlink:href="#me1c02e108f" x="164.650598" y="113.327632" style="fill: #ff7f0e; stroke: #ff7f0e"/>
     <use xlink:href="#me1c02e108f" x="182.878849" y="114.19577" style="fill: #ff7f0e; stroke: #ff7f0e"/>
     <use xlink:href="#me1c02e108f" x="210.221227" y="114.170142" style="fill: #ff7f0e; stroke: #ff7f0e"/>
     <use xlink:href="#me1c02e108f" x="237.563605" y="113.964138" style="fill: #ff7f0e; stroke: #ff7f0e"/>
     <use xlink:href="#me1c02e108f" x="255.791857" y="113.413427" style="fill: #ff7f0e; stroke: #ff7f0e"/>
     <use xlink:href="#me1c02e108f" x="274.020109" y="113.377531" style="fill: #ff7f0e; stroke: #ff7f0e"/>
     <use xlink:href="#me1c02e108f" x="292.24836" y="113.195435" style="fill: #ff7f0e; stroke: #ff7f0e"/>
    </g>
   </g>
   <g id="line2d_15">
    <path d="M 73.60048 156.782197 
L 78.066401 154.034484 
L 82.623464 151.231245 
L 119.079968 128.789526 
L 146.422346 111.975782 
L 164.650598 100.756591 
L 182.878849 89.572807 
L 210.221227 72.742247 
L 237.563605 55.926704 
L 255.791857 44.729387 
L 274.020109 33.509934 
L 292.24836 22.193722 
" clip-path="url(#p8581cb23e2)" style="fill: none; stroke: #2ca02c; stroke-width: 2; stroke-linecap: square"/>
    <defs>
     <path id="m75d3d5073c" d="M -0 3 
L 3 -3 
L -3 -3 
z
" style="stroke: #2ca02c; stroke-linejoin: miter"/>
    </defs>
    <g clip-path="url(#p8581cb23e2)">
     <use xlink:href="#m75d3d5073c" x="73.60048" y="156.782197" style="fill: #2ca02c; stroke: #2ca02c; stroke-linejoin: miter"/>
     <use xlink:href="#m75d3d5073c" x="78.066401" y="154.034484" style="fill: #2ca02c; stroke: #2ca02c; stroke-linejoin: miter"/>
     <use xlink:href="#m75d3d5073c" x="82.623464" y="151.231245" style="fill: #2ca02c; stroke: #2ca02c; stroke-linejoin: miter"/>
     <use xlink:href="#m75d3d5073c" x="119.079968" y="128.789526" style="fill: #2ca02c; stroke: #2ca02c; stroke-linejoin: miter"/>
     <use xlink:href="#m75d3d5073c" x="146.422346" y="111.975782" style="fill: #2ca02c; stroke: #2ca02c; stroke-linejoin: miter"/>
     <use xlink:href="#m75d3d5073c" x="164.650598" y="100.756591" style="fill: #2ca02c; stroke: #2ca02c; stroke-linejoin: miter"/>
     <use xlink:href="#m75d3d5073c" x="182.878849" y="89.572807" style="fill: #2ca02c; stroke: #2ca02c; stroke-linejoin: miter"/>
     <use xlink:href="#m75d3d5073c" x="210.221227" y="72.742247" style="fill: #2ca02c; stroke: #2ca02c; stroke-linejoin: miter"/>
     <use xlink:href="#m75d3d5073c" x="237.563605" y="55.926704" style="fill: #2ca02c; stroke: #2ca02c; stroke-linejoin: miter"/>
     <use xlink:href="#m75d3d5073c" x="255.791857" y="44.729387" style="fill: #2ca02c; stroke: #2ca02c; stroke-linejoin: miter"/>
     <use xlink:href="#m75d3d5073c" x="274.020109" y="33.509934" style="fill: #2ca02c; stroke: #2ca02c; stroke-linejoin: miter"/>
     <use xlink:href="#m75d3d5073c" x="292.24836" y="22.193722" style="fill: #2ca02c; stroke: #2ca02c; stroke-linejoin: miter"/>
    </g>
   </g>
   <g id="patch_3">
    <path d="M 62.668086 163.511621 
L 62.668086 15.464299 
" style="fill: none; stroke: #000000; stroke-width: 0.8; stroke-linejoin: miter; stroke-linecap: square"/>
   </g>
   <g id="patch_4">
    <path d="M 303.180755 163.511621 
L 303.180755 15.464299 
" style="fill: none; stroke: #000000; stroke-width: 0.8; stroke-linejoin: miter; stroke-linecap: square"/>
   </g>
   <g id="patch_5">
    <path d="M 62.668086 163.511621 
L 303.180755 163.511621 
" style="fill: none; stroke: #000000; stroke-width: 0.8; stroke-linejoin: miter; stroke-linecap: square"/>
   </g>
   <g id="patch_6">
    <path d="M 62.668086 15.464299 
L 303.180755 15.464299 
" style="fill: none; stroke: #000000; stroke-width: 0.8; stroke-linejoin: miter; stroke-linecap: square"/>
   </g>
  </g>
  <g id="axes_2">
   <g id="matplotlib.axis_3">
    <g id="ytick_7">
     <g id="line2d_16">
      <path d="M 62.668086 156.838296 
L 303.180755 156.838296 
" clip-path="url(#p8581cb23e2)" style="fill: none; stroke: #b0b0b0; stroke-width: 0.8; stroke-linecap: square"/>
     </g>
     <g id="line2d_17">
      <defs>
       <path id="mc8ec78c245" d="M 0 0 
L 3.5 0 
" style="stroke: #000000; stroke-width: 0.8"/>
      </defs>
      <g>
       <use xlink:href="#mc8ec78c245" x="303.180755" y="156.838296" style="stroke: #000000; stroke-width: 0.8"/>
      </g>
     </g>
     <g id="text_15">
      <!-- $\mathdefault{0.0}$ -->
      <g transform="translate(310.180755 160.989386) scale(0.12 -0.12)">
       <defs>
        <path id="CMMI12-3a" d="M 1178 307 
C 1178 492 1024 619 870 619 
C 685 619 557 466 557 313 
C 557 128 710 0 864 0 
C 1050 0 1178 153 1178 307 
z
" transform="scale(0.015625)"/>
       </defs>
       <use xlink:href="#CMR17-30" transform="scale(0.996264)"/>
       <use xlink:href="#CMMI12-3a" transform="translate(45.690477 0) scale(0.996264)"/>
       <use xlink:href="#CMR17-30" transform="translate(72.787654 0) scale(0.996264)"/>
      </g>
     </g>
    </g>
    <g id="ytick_8">
     <g id="line2d_18">
      <path d="M 62.668086 122.857422 
L 303.180755 122.857422 
" clip-path="url(#p8581cb23e2)" style="fill: none; stroke: #b0b0b0; stroke-width: 0.8; stroke-linecap: square"/>
     </g>
     <g id="line2d_19">
      <g>
       <use xlink:href="#mc8ec78c245" x="303.180755" y="122.857422" style="stroke: #000000; stroke-width: 0.8"/>
      </g>
     </g>
     <g id="text_16">
      <!-- $\mathdefault{0.5}$ -->
      <g transform="translate(310.180755 127.008512) scale(0.12 -0.12)">
       <use xlink:href="#CMR17-30" transform="scale(0.996264)"/>
       <use xlink:href="#CMMI12-3a" transform="translate(45.690477 0) scale(0.996264)"/>
       <use xlink:href="#CMR17-35" transform="translate(72.787654 0) scale(0.996264)"/>
      </g>
     </g>
    </g>
    <g id="ytick_9">
     <g id="line2d_20">
      <path d="M 62.668086 88.876548 
L 303.180755 88.876548 
" clip-path="url(#p8581cb23e2)" style="fill: none; stroke: #b0b0b0; stroke-width: 0.8; stroke-linecap: square"/>
     </g>
     <g id="line2d_21">
      <g>
       <use xlink:href="#mc8ec78c245" x="303.180755" y="88.876548" style="stroke: #000000; stroke-width: 0.8"/>
      </g>
     </g>
     <g id="text_17">
      <!-- $\mathdefault{1.0}$ -->
      <g transform="translate(310.180755 93.027638) scale(0.12 -0.12)">
       <use xlink:href="#CMR17-31" transform="scale(0.996264)"/>
       <use xlink:href="#CMMI12-3a" transform="translate(45.690477 0) scale(0.996264)"/>
       <use xlink:href="#CMR17-30" transform="translate(72.787654 0) scale(0.996264)"/>
      </g>
     </g>
    </g>
    <g id="ytick_10">
     <g id="line2d_22">
      <path d="M 62.668086 54.895674 
L 303.180755 54.895674 
" clip-path="url(#p8581cb23e2)" style="fill: none; stroke: #b0b0b0; stroke-width: 0.8; stroke-linecap: square"/>
     </g>
     <g id="line2d_23">
      <g>
       <use xlink:href="#mc8ec78c245" x="303.180755" y="54.895674" style="stroke: #000000; stroke-width: 0.8"/>
      </g>
     </g>
     <g id="text_18">
      <!-- $\mathdefault{1.5}$ -->
      <g transform="translate(310.180755 59.046764) scale(0.12 -0.12)">
       <use xlink:href="#CMR17-31" transform="scale(0.996264)"/>
       <use xlink:href="#CMMI12-3a" transform="translate(45.690477 0) scale(0.996264)"/>
       <use xlink:href="#CMR17-35" transform="translate(72.787654 0) scale(0.996264)"/>
      </g>
     </g>
    </g>
    <g id="ytick_11">
     <g id="line2d_24">
      <path d="M 62.668086 20.9148 
L 303.180755 20.9148 
" clip-path="url(#p8581cb23e2)" style="fill: none; stroke: #b0b0b0; stroke-width: 0.8; stroke-linecap: square"/>
     </g>
     <g id="line2d_25">
      <g>
       <use xlink:href="#mc8ec78c245" x="303.180755" y="20.9148" style="stroke: #000000; stroke-width: 0.8"/>
      </g>
     </g>
     <g id="text_19">
      <!-- $\mathdefault{2.0}$ -->
      <g transform="translate(310.180755 25.06589) scale(0.12 -0.12)">
       <use xlink:href="#CMR17-32" transform="scale(0.996264)"/>
       <use xlink:href="#CMMI12-3a" transform="translate(45.690477 0) scale(0.996264)"/>
       <use xlink:href="#CMR17-30" transform="translate(72.787654 0) scale(0.996264)"/>
      </g>
     </g>
    </g>
    <g id="text_20">
     <!-- Achieved Rate (Mpps) -->
     <g transform="translate(342.571816 170.714678) rotate(-90) scale(0.18 -0.18)">
      <use xlink:href="#CMR17-41" transform="scale(0.996264)"/>
      <use xlink:href="#CMR17-63" transform="translate(69.07243 0) scale(0.996264)"/>
      <use xlink:href="#CMR17-68" transform="translate(106.955636 0) scale(0.996264)"/>
      <use xlink:href="#CMR17-69" transform="translate(157.851006 0) scale(0.996264)"/>
      <use xlink:href="#CMR17-65" transform="translate(182.722065 0) scale(0.996264)"/>
      <use xlink:href="#CMR17-76" transform="translate(223.207725 0) scale(0.996264)"/>
      <use xlink:href="#CMR17-65" transform="translate(268.898187 0) scale(0.996264)"/>
      <use xlink:href="#CMR17-64" transform="translate(309.383847 0) scale(0.996264)"/>
      <use xlink:href="#CMR17-52" transform="translate(390.355184 0) scale(0.996264)"/>
      <use xlink:href="#CMR17-61" transform="translate(458.146286 0) scale(0.996264)"/>
      <use xlink:href="#CMR17-74" transform="translate(503.836763 0) scale(0.996264)"/>
      <use xlink:href="#CMR17-65" transform="translate(539.11753 0) scale(0.996264)"/>
      <use xlink:href="#CMR17-28" transform="translate(609.679157 0) scale(0.996264)"/>
      <use xlink:href="#CMR17-4d" transform="translate(644.959925 0) scale(0.996264)"/>
      <use xlink:href="#CMR17-70" transform="translate(729.646866 0) scale(0.996264)"/>
      <use xlink:href="#CMR17-70" transform="translate(780.542235 0) scale(0.996264)"/>
      <use xlink:href="#CMR17-73" transform="translate(831.437605 0) scale(0.996264)"/>
      <use xlink:href="#CMR17-29" transform="translate(867.238943 0) scale(0.996264)"/>
     </g>
    </g>
   </g>
   <g id="line2d_26">
    <path d="M 73.60048 156.782181 
L 78.066401 154.027057 
L 82.623464 151.211098 
L 119.079968 128.656031 
L 146.422346 118.371872 
L 164.650598 117.734306 
L 182.878849 118.096864 
L 210.221227 118.125751 
L 237.563605 118.14864 
L 255.791857 118.779426 
L 274.020109 118.505783 
L 292.24836 118.403893 
" clip-path="url(#p8581cb23e2)" style="fill: none; stroke: #1f77b4; stroke-width: 2; stroke-linecap: square"/>
    <g clip-path="url(#p8581cb23e2)">
     <use xlink:href="#m6eedeef5ab" x="73.60048" y="156.782181" style="fill: #1f77b4; stroke: #1f77b4"/>
     <use xlink:href="#m6eedeef5ab" x="78.066401" y="154.027057" style="fill: #1f77b4; stroke: #1f77b4"/>
     <use xlink:href="#m6eedeef5ab" x="82.623464" y="151.211098" style="fill: #1f77b4; stroke: #1f77b4"/>
     <use xlink:href="#m6eedeef5ab" x="119.079968" y="128.656031" style="fill: #1f77b4; stroke: #1f77b4"/>
     <use xlink:href="#m6eedeef5ab" x="146.422346" y="118.371872" style="fill: #1f77b4; stroke: #1f77b4"/>
     <use xlink:href="#m6eedeef5ab" x="164.650598" y="117.734306" style="fill: #1f77b4; stroke: #1f77b4"/>
     <use xlink:href="#m6eedeef5ab" x="182.878849" y="118.096864" style="fill: #1f77b4; stroke: #1f77b4"/>
     <use xlink:href="#m6eedeef5ab" x="210.221227" y="118.125751" style="fill: #1f77b4; stroke: #1f77b4"/>
     <use xlink:href="#m6eedeef5ab" x="237.563605" y="118.14864" style="fill: #1f77b4; stroke: #1f77b4"/>
     <use xlink:href="#m6eedeef5ab" x="255.791857" y="118.779426" style="fill: #1f77b4; stroke: #1f77b4"/>
     <use xlink:href="#m6eedeef5ab" x="274.020109" y="118.505783" style="fill: #1f77b4; stroke: #1f77b4"/>
     <use xlink:href="#m6eedeef5ab" x="292.24836" y="118.403893" style="fill: #1f77b4; stroke: #1f77b4"/>
    </g>
   </g>
   <g id="line2d_27">
    <path d="M 73.60048 156.782042 
L 78.066401 154.032366 
L 82.623464 151.22644 
L 119.079968 128.877062 
L 146.422346 114.771221 
L 164.650598 113.327645 
L 182.878849 114.195775 
L 210.221227 114.170134 
L 237.563605 113.964133 
L 255.791857 113.413442 
L 274.020109 113.377527 
L 292.24836 113.195431 
" clip-path="url(#p8581cb23e2)" style="fill: none; stroke: #ff7f0e; stroke-width: 2; stroke-linecap: square"/>
    <g clip-path="url(#p8581cb23e2)">
     <use xlink:href="#me1c02e108f" x="73.60048" y="156.782042" style="fill: #ff7f0e; stroke: #ff7f0e"/>
     <use xlink:href="#me1c02e108f" x="78.066401" y="154.032366" style="fill: #ff7f0e; stroke: #ff7f0e"/>
     <use xlink:href="#me1c02e108f" x="82.623464" y="151.22644" style="fill: #ff7f0e; stroke: #ff7f0e"/>
     <use xlink:href="#me1c02e108f" x="119.079968" y="128.877062" style="fill: #ff7f0e; stroke: #ff7f0e"/>
     <use xlink:href="#me1c02e108f" x="146.422346" y="114.771221" style="fill: #ff7f0e; stroke: #ff7f0e"/>
     <use xlink:href="#me1c02e108f" x="164.650598" y="113.327645" style="fill: #ff7f0e; stroke: #ff7f0e"/>
     <use xlink:href="#me1c02e108f" x="182.878849" y="114.195775" style="fill: #ff7f0e; stroke: #ff7f0e"/>
     <use xlink:href="#me1c02e108f" x="210.221227" y="114.170134" style="fill: #ff7f0e; stroke: #ff7f0e"/>
     <use xlink:href="#me1c02e108f" x="237.563605" y="113.964133" style="fill: #ff7f0e; stroke: #ff7f0e"/>
     <use xlink:href="#me1c02e108f" x="255.791857" y="113.413442" style="fill: #ff7f0e; stroke: #ff7f0e"/>
     <use xlink:href="#me1c02e108f" x="274.020109" y="113.377527" style="fill: #ff7f0e; stroke: #ff7f0e"/>
     <use xlink:href="#me1c02e108f" x="292.24836" y="113.195431" style="fill: #ff7f0e; stroke: #ff7f0e"/>
    </g>
   </g>
   <g id="line2d_28">
    <path d="M 73.60048 156.782197 
L 78.066401 154.034447 
L 82.623464 151.231205 
L 119.079968 128.789536 
L 146.422346 111.975764 
L 164.650598 100.756556 
L 182.878849 89.572731 
L 210.221227 72.742207 
L 237.563605 55.926673 
L 255.791857 44.729331 
L 274.020109 33.509869 
L 292.24836 22.193722 
" clip-path="url(#p8581cb23e2)" style="fill: none; stroke: #2ca02c; stroke-width: 2; stroke-linecap: square"/>
    <g clip-path="url(#p8581cb23e2)">
     <use xlink:href="#m75d3d5073c" x="73.60048" y="156.782197" style="fill: #2ca02c; stroke: #2ca02c; stroke-linejoin: miter"/>
     <use xlink:href="#m75d3d5073c" x="78.066401" y="154.034447" style="fill: #2ca02c; stroke: #2ca02c; stroke-linejoin: miter"/>
     <use xlink:href="#m75d3d5073c" x="82.623464" y="151.231205" style="fill: #2ca02c; stroke: #2ca02c; stroke-linejoin: miter"/>
     <use xlink:href="#m75d3d5073c" x="119.079968" y="128.789536" style="fill: #2ca02c; stroke: #2ca02c; stroke-linejoin: miter"/>
     <use xlink:href="#m75d3d5073c" x="146.422346" y="111.975764" style="fill: #2ca02c; stroke: #2ca02c; stroke-linejoin: miter"/>
     <use xlink:href="#m75d3d5073c" x="164.650598" y="100.756556" style="fill: #2ca02c; stroke: #2ca02c; stroke-linejoin: miter"/>
     <use xlink:href="#m75d3d5073c" x="182.878849" y="89.572731" style="fill: #2ca02c; stroke: #2ca02c; stroke-linejoin: miter"/>
     <use xlink:href="#m75d3d5073c" x="210.221227" y="72.742207" style="fill: #2ca02c; stroke: #2ca02c; stroke-linejoin: miter"/>
     <use xlink:href="#m75d3d5073c" x="237.563605" y="55.926673" style="fill: #2ca02c; stroke: #2ca02c; stroke-linejoin: miter"/>
     <use xlink:href="#m75d3d5073c" x="255.791857" y="44.729331" style="fill: #2ca02c; stroke: #2ca02c; stroke-linejoin: miter"/>
     <use xlink:href="#m75d3d5073c" x="274.020109" y="33.509869" style="fill: #2ca02c; stroke: #2ca02c; stroke-linejoin: miter"/>
     <use xlink:href="#m75d3d5073c" x="292.24836" y="22.193722" style="fill: #2ca02c; stroke: #2ca02c; stroke-linejoin: miter"/>
    </g>
   </g>
   <g id="patch_7">
    <path d="M 62.668086 163.511621 
L 62.668086 15.464299 
" style="fill: none; stroke: #000000; stroke-width: 0.8; stroke-linejoin: miter; stroke-linecap: square"/>
   </g>
   <g id="patch_8">
    <path d="M 303.180755 163.511621 
L 303.180755 15.464299 
" style="fill: none; stroke: #000000; stroke-width: 0.8; stroke-linejoin: miter; stroke-linecap: square"/>
   </g>
   <g id="patch_9">
    <path d="M 62.668086 163.511621 
L 303.180755 163.511621 
" style="fill: none; stroke: #000000; stroke-width: 0.8; stroke-linejoin: miter; stroke-linecap: square"/>
   </g>
   <g id="patch_10">
    <path d="M 62.668086 15.464299 
L 303.180755 15.464299 
" style="fill: none; stroke: #000000; stroke-width: 0.8; stroke-linejoin: miter; stroke-linecap: square"/>
   </g>
   <g id="legend_1">
    <g id="patch_11">
     <path d="M 72.118086 84.012956 
L 162.507793 84.012956 
Q 165.207793 84.012956 165.207793 81.312956 
L 165.207793 24.914299 
Q 165.207793 22.214299 162.507793 22.214299 
L 72.118086 22.214299 
Q 69.418086 22.214299 69.418086 24.914299 
L 69.418086 81.312956 
Q 69.418086 84.012956 72.118086 84.012956 
z
" style="fill: #ffffff; opacity: 0.8; stroke: #cccccc; stroke-linejoin: miter"/>
    </g>
    <g id="text_21">
     <!-- Qdisc -->
     <g transform="translate(102.256121 36.331594) scale(0.126 -0.126)">
      <defs>
       <path id="CMR17-51" d="M 3027 83 
C 3789 408 4307 1236 4307 2193 
C 4307 3499 3366 4480 2304 4480 
C 1216 4480 294 3488 294 2199 
C 294 928 1216 -64 2304 -64 
C 2451 -64 2656 -45 2899 38 
C 3008 -747 3078 -1216 3629 -1216 
C 4307 -1216 4339 -213 4339 -33 
C 4339 32 4339 76 4294 76 
C 4262 76 4256 31 4256 18 
C 4211 -603 3866 -732 3661 -732 
C 3283 -732 3149 -394 3027 83 
z
M 1958 100 
C 1293 310 768 1017 768 2199 
C 768 3711 1606 4365 2298 4365 
C 3014 4365 3834 3686 3834 2198 
C 3834 1124 3405 527 2976 254 
C 2880 579 2726 960 2310 960 
C 2003 960 1830 692 1830 450 
C 1830 304 1888 183 1958 100 
z
M 2874 192 
C 2618 57 2413 57 2304 57 
C 2016 57 1933 315 1933 454 
C 1933 650 2067 858 2310 858 
C 2720 858 2822 493 2874 192 
z
" transform="scale(0.015625)"/>
      </defs>
      <use xlink:href="#CMR17-51" transform="scale(0.996264)"/>
      <use xlink:href="#CMR17-64" transform="translate(71.714788 0) scale(0.996264)"/>
      <use xlink:href="#CMR17-69" transform="translate(122.610158 0) scale(0.996264)"/>
      <use xlink:href="#CMR17-73" transform="translate(147.481217 0) scale(0.996264)"/>
      <use xlink:href="#CMR17-63" transform="translate(183.282554 0) scale(0.996264)"/>
     </g>
    </g>
    <g id="line2d_29">
     <path d="M 74.818086 44.712422 
L 88.318086 44.712422 
L 101.818086 44.712422 
" style="fill: none; stroke: #1f77b4; stroke-width: 2; stroke-linecap: square"/>
     <g>
      <use xlink:href="#m6eedeef5ab" x="88.318086" y="44.712422" style="fill: #1f77b4; stroke: #1f77b4"/>
     </g>
    </g>
    <g id="text_22">
     <!-- cake -->
     <g transform="translate(112.618086 49.437422) scale(0.135 -0.135)">
      <defs>
       <path id="CMR17-6b" d="M 1670 1673 
C 1664 1686 1632 1724 1632 1743 
C 1632 1756 2086 2171 2144 2222 
C 2509 2528 2739 2560 2906 2560 
L 2906 2733 
C 2867 2733 2854 2733 2848 2720 
L 2534 2720 
C 2355 2720 2080 2720 1907 2733 
L 1907 2566 
C 1997 2559 2061 2508 2061 2419 
C 2061 2291 1933 2170 1926 2170 
L 960 1289 
L 960 4396 
L 198 4326 
L 198 4160 
C 576 4160 634 4122 634 3817 
L 634 426 
C 634 184 608 153 198 153 
L 198 -13 
C 352 0 634 0 794 0 
C 954 0 1235 0 1389 -13 
L 1389 153 
C 979 153 954 178 954 428 
L 954 1130 
L 1395 1532 
L 2042 574 
C 2118 459 2182 369 2182 286 
C 2182 172 2067 153 1990 153 
L 1990 -13 
C 2144 0 2419 0 2579 0 
C 2694 0 2931 0 3040 0 
L 3040 153 
C 2739 153 2669 210 2477 491 
L 1670 1673 
z
" transform="scale(0.015625)"/>
      </defs>
      <use xlink:href="#CMR17-63" transform="scale(0.996264)"/>
      <use xlink:href="#CMR17-61" transform="translate(40.48566 0) scale(0.996264)"/>
      <use xlink:href="#CMR17-6b" transform="translate(86.176138 0) scale(0.996264)"/>
      <use xlink:href="#CMR17-65" transform="translate(131.866599 0) scale(0.996264)"/>
     </g>
    </g>
    <g id="line2d_30">
     <path d="M 74.818086 57.9926 
L 88.318086 57.9926 
L 101.818086 57.9926 
" style="fill: none; stroke: #ff7f0e; stroke-width: 2; stroke-linecap: square"/>
     <g>
      <use xlink:href="#me1c02e108f" x="88.318086" y="57.9926" style="fill: #ff7f0e; stroke: #ff7f0e"/>
     </g>
    </g>
    <g id="text_23">
     <!-- htb -->
     <g transform="translate(112.618086 62.7176) scale(0.135 -0.135)">
      <use xlink:href="#CMR17-68" transform="scale(0.996264)"/>
      <use xlink:href="#CMR17-74" transform="translate(48.292916 0) scale(0.996264)"/>
      <use xlink:href="#CMR17-62" transform="translate(83.573684 0) scale(0.996264)"/>
     </g>
    </g>
    <g id="line2d_31">
     <path d="M 74.818086 71.272778 
L 88.318086 71.272778 
L 101.818086 71.272778 
" style="fill: none; stroke: #2ca02c; stroke-width: 2; stroke-linecap: square"/>
     <g>
      <use xlink:href="#m75d3d5073c" x="88.318086" y="71.272778" style="fill: #2ca02c; stroke: #2ca02c; stroke-linejoin: miter"/>
     </g>
    </g>
    <g id="text_24">
     <!-- mq-cake -->
     <g transform="translate(112.618086 75.997778) scale(0.135 -0.135)">
      <defs>
       <path id="CMR17-6d" d="M 4326 1933 
C 4326 2252 4269 2790 3507 2790 
C 3072 2790 2771 2496 2656 2151 
L 2650 2151 
C 2573 2676 2195 2790 1837 2790 
C 1331 2790 1069 2400 973 2144 
L 966 2144 
L 966 2790 
L 211 2720 
L 211 2554 
C 589 2554 646 2515 646 2208 
L 646 428 
C 646 184 621 153 211 153 
L 211 -13 
C 365 0 646 0 813 0 
C 979 0 1267 0 1421 -13 
L 1421 153 
C 1011 153 986 178 986 428 
L 986 1658 
C 986 2247 1344 2688 1792 2688 
C 2266 2688 2317 2266 2317 1958 
L 2317 428 
C 2317 184 2291 153 1882 153 
L 1882 -13 
C 2035 0 2317 0 2483 0 
C 2650 0 2938 0 3091 -13 
L 3091 153 
C 2682 153 2656 178 2656 428 
L 2656 1658 
C 2656 2247 3014 2688 3462 2688 
C 3936 2688 3987 2266 3987 1958 
L 3987 428 
C 3987 184 3962 153 3552 153 
L 3552 -13 
C 3706 0 3987 0 4154 0 
C 4320 0 4608 0 4762 -13 
L 4762 153 
C 4352 153 4326 178 4326 428 
L 4326 1933 
z
" transform="scale(0.015625)"/>
       <path id="CMR17-71" d="M 2630 2802 
L 2528 2802 
L 2336 2172 
C 2189 2509 1920 2802 1491 2802 
C 838 2802 211 2223 211 1383 
C 211 548 800 -38 1440 -38 
C 1933 -38 2208 338 2291 478 
L 2291 -789 
C 2291 -1031 2266 -1063 1856 -1063 
L 1856 -1228 
C 2010 -1216 2291 -1216 2458 -1216 
C 2624 -1216 2912 -1216 3066 -1228 
L 3066 -1063 
C 2656 -1063 2630 -1037 2630 -789 
L 2630 2802 
z
M 2304 886 
C 2304 612 2074 357 2054 338 
C 1856 115 1626 64 1472 64 
C 992 64 621 669 621 1375 
C 621 2121 1043 2688 1536 2688 
C 2048 2688 2304 2108 2304 1777 
L 2304 886 
z
" transform="scale(0.015625)"/>
       <path id="CMR17-2d" d="M 1632 1216 
L 1632 1496 
L 26 1496 
L 26 1216 
L 1632 1216 
z
" transform="scale(0.015625)"/>
      </defs>
      <use xlink:href="#CMR17-6d" transform="scale(0.996264)"/>
      <use xlink:href="#CMR17-71" transform="translate(76.91959 0) scale(0.996264)"/>
      <use xlink:href="#CMR17-2d" transform="translate(125.212506 0) scale(0.996264)"/>
      <use xlink:href="#CMR17-63" transform="translate(155.288472 0) scale(0.996264)"/>
      <use xlink:href="#CMR17-61" transform="translate(195.774133 0) scale(0.996264)"/>
      <use xlink:href="#CMR17-6b" transform="translate(241.46461 0) scale(0.996264)"/>
      <use xlink:href="#CMR17-65" transform="translate(287.155072 0) scale(0.996264)"/>
     </g>
    </g>
   </g>
  </g>
 </g>
 <defs>
  <clipPath id="p8581cb23e2">
   <rect x="62.668086" y="15.464299" width="240.512669" height="148.047322"/>
  </clipPath>
 </defs>
</svg>
