<?xml version="1.0" encoding="UTF-8" standalone="no"?>
<svg
   xmlns:dc="http://purl.org/dc/elements/1.1/"
   xmlns:cc="http://creativecommons.org/ns#"
   xmlns:rdf="http://www.w3.org/1999/02/22-rdf-syntax-ns#"
   xmlns:svg="http://www.w3.org/2000/svg"
   xmlns="http://www.w3.org/2000/svg"
   xmlns:sodipodi="http://sodipodi.sourceforge.net/DTD/sodipodi-0.dtd"
   xmlns:inkscape="http://www.inkscape.org/namespaces/inkscape"
   id="svg897"
   version="1.1"
   viewBox="0 0 36.101158 35.455002"
   height="35.455002mm"
   width="36.101158mm"
   sodipodi:docname="logo.svg"
   inkscape:version="0.92.4 5da689c313, 2019-01-14">
  <sodipodi:namedview
     pagecolor="#ffffff"
     bordercolor="#666666"
     borderopacity="1"
     objecttolerance="10"
     gridtolerance="10"
     guidetolerance="10"
     inkscape:pageopacity="0"
     inkscape:pageshadow="2"
     inkscape:window-width="960"
     inkscape:window-height="1044"
     id="namedview4606"
     showgrid="false"
     fit-margin-top="5"
     fit-margin-left="5"
     fit-margin-right="5"
     fit-margin-bottom="5"
     inkscape:zoom="1.3438433"
     inkscape:cx="-23.155048"
     inkscape:cy="156.29773"
     inkscape:window-x="960"
     inkscape:window-y="0"
     inkscape:window-maximized="0"
     inkscape:current-layer="svg897" />
  <defs
     id="defs891" />
  <metadata
     id="metadata894">
    <rdf:RDF>
      <cc:Work
         rdf:about="">
        <dc:format>image/svg+xml</dc:format>
        <dc:type
           rdf:resource="http://purl.org/dc/dcmitype/StillImage" />
        <dc:title></dc:title>
      </cc:Work>
    </rdf:RDF>
  </metadata>
  <g
     id="g2159"
     transform="matrix(3.2595709,0,0,3.2595709,-400.84386,-605.3938)"
     style="stroke-width:0.30678886">
    <path
       inkscape:connector-curvature="0"
       id="path1532"
       style="fill:#ffffff;stroke-width:0.08117121"
       d="m 131.69478,193.28902 c -0.15055,-0.0344 -0.31036,-0.0563 -0.47176,-0.0563 -0.27649,0 -0.52784,0.0481 -0.71331,0.12514 -0.0206,0.0103 -0.0349,0.0317 -0.0349,0.0558 0,0.009 0.002,0.018 0.006,0.0254 0.0217,0.0635 -0.0143,0.13203 -0.19367,0.17198 -0.26618,0.0582 -0.43419,0.33311 -0.53023,0.42386 -0.11298,0.10716 -0.43154,0.17304 -0.38365,0.10875 0.0376,-0.0495 0.18098,-0.20532 0.26803,-0.3736 0.0783,-0.15028 0.1479,-0.19314 0.24341,-0.33681 0.0283,-0.0421 0.13706,-0.18997 0.16881,-0.30692 0.0354,-0.1143 0.0235,-0.2577 0.0373,-0.3167 0.0196,-0.0852 0.0998,-0.26961 0.10584,-0.37439 0.003,-0.0585 -0.24633,0.0847 -0.36486,0.0847 -0.11854,0 -0.23416,-0.0712 -0.33999,-0.0759 -0.13097,-0.006 -0.21537,0.10081 -0.33417,0.0818 -0.0675,-0.0106 -0.12489,-0.0701 -0.24289,-0.0744 -0.16854,-0.006 -0.37465,0.0934 -0.76121,0.0812 -0.38047,-0.0124 -0.73183,-0.48101 -0.77972,-0.55536 -0.0564,-0.087 -0.12515,-0.087 -0.19976,-0.0183 -0.0749,0.068 -0.16749,0.0143 -0.19341,-0.0315 -0.05,-0.0873 -0.18336,-0.34211 -0.39,-0.39582 -0.28575,-0.0741 -0.43048,0.15822 -0.41169,0.34263 0.0191,0.18759 0.14049,0.24025 0.19685,0.33999 0.0558,0.0995 0.0847,0.16405 0.18997,0.20823 0.0751,0.0312 0.10292,0.0773 0.0807,0.13864 -0.0196,0.0534 -0.0974,0.0659 -0.14896,0.0683 -0.10875,0.005 -0.18495,-0.0243 -0.24077,-0.0598 -0.0646,-0.0415 -0.11748,-0.0987 -0.17357,-0.19579 -0.0656,-0.10742 -0.16854,-0.15399 -0.2884,-0.15399 -0.0572,0 -0.11086,0.0151 -0.15822,0.0392 -0.18785,0.0982 -0.41169,0.15584 -0.65246,0.15584 l -0.27199,2.6e-4 c 0.52096,1.54438 1.98226,2.65616 3.70337,2.65616 1.37451,0 2.58339,-0.70909 3.27978,-1.78224" />
    <path
       inkscape:connector-curvature="0"
       id="path1534"
       style="fill:#000000;stroke-width:0.08117121"
       d="m 131.69478,193.28955 c -0.15055,-0.0349 -0.31036,-0.0566 -0.47176,-0.0566 -0.27649,0 -0.52784,0.0481 -0.71331,0.12515 -0.0206,0.0103 -0.0349,0.0315 -0.0349,0.0558 0,0.009 0.002,0.018 0.006,0.0251 0.0217,0.0638 -0.0143,0.13256 -0.19367,0.17224 -0.26618,0.0585 -0.43419,0.33285 -0.53023,0.4236 -0.11298,0.10742 -0.43154,0.1733 -0.38365,0.10928 0.0376,-0.05 0.18098,-0.20585 0.26803,-0.37413 0.0783,-0.15001 0.1479,-0.19314 0.24341,-0.33655 0.0283,-0.0421 0.13706,-0.19023 0.16881,-0.30691 0.0354,-0.11457 0.0235,-0.25771 0.0373,-0.31671 0.0196,-0.0852 0.0998,-0.26961 0.10584,-0.37412 0.003,-0.059 -0.24633,0.0841 -0.36486,0.0841 -0.11854,0 -0.23416,-0.0709 -0.33999,-0.0757 -0.13097,-0.007 -0.21537,0.1008 -0.33417,0.0817 -0.0675,-0.0106 -0.12489,-0.0701 -0.24289,-0.0746 -0.16854,-0.006 -0.37465,0.0937 -0.76121,0.0812 -0.38047,-0.0124 -0.73183,-0.48049 -0.77972,-0.55483 -0.0564,-0.0876 -0.12515,-0.0876 -0.19976,-0.0188 -0.0749,0.0683 -0.16749,0.0146 -0.19341,-0.0312 -0.05,-0.0876 -0.18336,-0.34237 -0.39,-0.39608 -0.28575,-0.0741 -0.43048,0.15822 -0.41169,0.3429 0.0191,0.18732 0.14049,0.23998 0.19685,0.33972 0.0558,0.0995 0.0847,0.16431 0.18997,0.2085 0.0751,0.031 0.10292,0.0773 0.0807,0.13864 -0.0196,0.0534 -0.0974,0.0659 -0.14896,0.0683 -0.10875,0.005 -0.18495,-0.0243 -0.24077,-0.0603 -0.0646,-0.0408 -0.11748,-0.0982 -0.17357,-0.19553 -0.0656,-0.10716 -0.16854,-0.15399 -0.2884,-0.15399 -0.0572,0 -0.11086,0.0153 -0.15822,0.0392 -0.18785,0.0982 -0.41169,0.1561 -0.65246,0.1561 h -0.27199 c -0.13229,-0.39184 -0.20373,-0.81174 -0.20373,-1.24804 0,-2.15688 1.74916,-3.90498 3.9071,-3.90498 2.15741,0 3.90684,1.7481 3.90684,3.90498 0,0.78264 -0.23045,1.51077 -0.62706,2.12249" />
    <path
       inkscape:connector-curvature="0"
       id="path1536"
       style="fill:#000000;stroke-width:0.08117121"
       d="m 129.27527,192.93144 c 0.0201,0.0193 0.0548,0.0852 0.0124,0.16907 -0.0238,0.0444 -0.0495,0.0754 -0.095,0.11192 -0.0553,0.0442 -0.16246,0.095 -0.30957,10e-4 -0.0794,-0.05 -0.0844,-0.0669 -0.19367,-0.0527 -0.078,0.0101 -0.10901,-0.0691 -0.0812,-0.13441 0.0283,-0.0653 0.14341,-0.11826 0.28708,-0.0341 0.0648,0.0378 0.16536,0.11827 0.2532,0.0468 0.0368,-0.0288 0.0587,-0.0484 0.10927,-0.10715 0.002,-0.002 0.006,-0.004 0.009,-0.004 0.003,0 0.006,10e-4 0.008,0.003" />
    <path
       inkscape:connector-curvature="0"
       id="path1538"
       style="fill:#e93442;stroke-width:0.08117121"
       d="m 128.11076,189.12157 c -0.45112,0.0325 -0.49821,0.0812 -0.58262,0.17092 -0.11906,0.12727 -0.27622,-0.16431 -0.27622,-0.16431 -0.0945,-0.0198 -0.20849,-0.17171 -0.14684,-0.31326 0.0609,-0.14023 0.17303,-0.0984 0.20796,-0.0548 0.0426,0.0532 0.13388,0.14023 0.25241,0.13705 0.11853,-0.003 0.25506,-0.028 0.44582,-0.028 0.19315,0 0.3228,0.072 0.32994,0.13414 0.007,0.0526 -0.0156,0.10239 -0.23045,0.11827 m 0.47413,-0.74533 h -0.002 c -0.007,0 -0.0124,-0.005 -0.0124,-0.0116 0,-0.005 0.003,-0.009 0.007,-0.0109 0.0876,-0.046 0.21801,-0.0831 0.36724,-0.0979 0.0447,-0.005 0.0886,-0.007 0.1307,-0.007 h 0.0225 c 0.25056,0.006 0.45085,0.10531 0.44794,0.22225 -0.003,0.11695 -0.20823,0.20717 -0.45905,0.20188 -0.0807,-0.002 -0.1569,-0.0138 -0.22225,-0.0328 -0.008,-0.002 -0.0135,-0.008 -0.0135,-0.0164 0,-0.008 0.005,-0.0143 0.0138,-0.0164 0.15584,-0.036 0.26141,-0.0952 0.254,-0.15108 -0.01,-0.0738 -0.21404,-0.11404 -0.4564,-0.0897 -0.0267,0.003 -0.0524,0.006 -0.0775,0.0101 m 2.03465,1.7518 c -0.0386,0.12965 -0.0934,0.29554 -0.33788,0.42096 -0.0357,0.0182 -0.0489,-0.0116 -0.0328,-0.0397 0.0926,-0.15716 0.10875,-0.19632 0.13574,-0.25797 0.0373,-0.0907 0.0574,-0.2196 -0.0175,-0.48789 -0.14684,-0.52837 -0.45376,-1.23508 -0.67627,-1.46394 -0.21511,-0.22119 -0.60457,-0.28363 -0.957,-0.19315 -0.12965,0.0331 -0.38338,0.16484 -0.85381,0.059 -0.81412,-0.18336 -0.93477,0.2241 -0.98134,0.40163 -0.0471,0.17754 -0.15928,0.6821 -0.15928,0.6821 -0.0373,0.20584 -0.0862,0.56303 1.17819,0.80407 0.58896,0.11192 0.6186,0.26432 0.64506,0.37359 0.0468,0.19606 0.12144,0.30824 0.20558,0.36433 0.0841,0.0561 0,0.10266 -0.0934,0.11192 -0.25056,0.0262 -1.17793,-0.23971 -1.72667,-0.55113 -0.44874,-0.27411 -0.45614,-0.5207 -0.35349,-0.73025 -0.67786,-0.0733 -1.18665,0.0635 -1.27873,0.38444 -0.15848,0.55034 1.21074,1.49066 2.76993,1.96268 1.63618,0.49504 3.31893,0.14923 3.50599,-0.87868 0.0849,-0.46699 -0.3085,-0.81254 -0.97234,-0.96203" />
    <g
       id="g3880"
       transform="matrix(0.26458333,0,0,0.26458333,124.42059,187.22054)"
       style="stroke-width:0.30678886">
      <path
         inkscape:connector-curvature="0"
         id="path1540"
         style="fill:#000000;stroke-width:0.30678886"
         d="m 29.7137,22.1489 h 0.133 l 0.201,0.33 h 0.13 l -0.218,-0.336 c 0.113,-0.014 0.198,-0.073 0.198,-0.209 0,-0.151 -0.089,-0.217 -0.268,-0.217 h -0.291 v 0.762 h 0.115 z m 0,-0.098 v -0.237 h 0.157 c 0.079,0 0.165,0.019 0.165,0.112 0,0.118 -0.086,0.125 -0.184,0.125 z" />
      <path
         inkscape:connector-curvature="0"
         id="path1542"
         style="fill:#000000;stroke-width:0.30678886"
         d="m 30.5965,22.0991 c 0,0.411 -0.334,0.745 -0.746,0.745 -0.412,0 -0.747,-0.334 -0.747,-0.745 0,-0.411 0.335,-0.747 0.747,-0.747 0.412,0 0.746,0.336 0.746,0.747 m -0.746,-0.614 c -0.34,0 -0.615,0.274 -0.615,0.615 0,0.337 0.275,0.611 0.615,0.611 0.338,0 0.613,-0.274 0.613,-0.611 0,-0.341 -0.275,-0.615 -0.613,-0.615" />
    </g>
  </g>
</svg>
