<?xml version="1.0" encoding="UTF-8" standalone="no"?>
<!-- Created with Inkscape (http://www.inkscape.org/) -->

<svg
   width="166.15833mm"
   height="140.82083mm"
   viewBox="0 0 166.15833 140.82083"
   version="1.1"
   id="svg373"
   inkscape:version="1.2.1 (9c6d41e410, 2022-07-14, custom)"
   sodipodi:docname="rh-heart-bpf.svg"
   xmlns:inkscape="http://www.inkscape.org/namespaces/inkscape"
   xmlns:sodipodi="http://sodipodi.sourceforge.net/DTD/sodipodi-0.dtd"
   xmlns="http://www.w3.org/2000/svg"
   xmlns:svg="http://www.w3.org/2000/svg">
  <sodipodi:namedview
     id="namedview375"
     pagecolor="#ffffff"
     bordercolor="#666666"
     borderopacity="1.0"
     inkscape:showpageshadow="2"
     inkscape:pageopacity="0.0"
     inkscape:pagecheckerboard="0"
     inkscape:deskcolor="#d1d1d1"
     inkscape:document-units="mm"
     showgrid="false"
     inkscape:zoom="0.90930361"
     inkscape:cx="145.16604"
     inkscape:cy="419.55184"
     inkscape:window-width="1920"
     inkscape:window-height="1164"
     inkscape:window-x="0"
     inkscape:window-y="0"
     inkscape:window-maximized="1"
     inkscape:current-layer="layer1" />
  <defs
     id="defs370" />
  <g
     inkscape:label="Layer 1"
     inkscape:groupmode="layer"
     id="layer1"
     transform="translate(-23.306513,-30.899705)">
    <g
       id="g1565">
      <path
         class="cls-1"
         d="m 59.038488,52.857475 c 3.309938,0 8.098896,-0.68262 8.098896,-4.61962 a 3.7041666,3.7041666 0 0 0 -0.08202,-0.90488 l -1.971146,-8.56191 c -0.455083,-1.88384 -0.854604,-2.73844 -4.161896,-4.39209 -2.566458,-1.31233 -8.157104,-3.47927 -9.810749,-3.47927 -1.539875,0 -1.987021,1.98438 -3.82323,1.98438 -1.767416,0 -3.07975,-1.48167 -4.733395,-1.48167 -1.5875,0 -2.622021,1.08215 -3.421063,3.30729 0,0 -2.225146,6.27592 -2.510896,7.18608 a 1.7012708,1.7012708 0 0 0 -0.05821,0.5133 c 0,2.43945 9.604375,10.43781 22.473708,10.43781 m 8.606896,-3.01096 c 0.457729,2.16694 0.457729,2.39448 0.457729,2.68023 0,3.70417 -4.164542,5.75998 -9.638771,5.75998 -12.371916,0.008 -23.209249,-7.24165 -23.209249,-12.03325 a 4.8815624,4.8815624 0 0 1 0.39952,-1.9394 c -4.450291,0.22225 -10.21027,1.016 -10.21027,6.10129 0,8.32909 19.73527,18.59492 35.361562,18.59492 11.980333,0 15.001875,-5.41867 15.001875,-9.69698 0,-3.3655 -2.910417,-7.18608 -8.157104,-9.46679"
         id="path1350"
         style="fill:#ee0000;stroke-width:0.264583" />
      <path
         d="m 67.645384,49.835935 c 0.457729,2.16694 0.457729,2.39448 0.457729,2.68023 0,3.70417 -4.164542,5.75998 -9.638771,5.75998 -12.371916,0.008 -23.209249,-7.24165 -23.209249,-12.03325 a 4.8815624,4.8815624 0 0 1 0.39952,-1.9394 l 0.968375,-2.39712 a 1.7012708,1.7012708 0 0 0 -0.05821,0.50271 c 0,2.43945 9.604375,10.43781 22.473708,10.43781 3.309938,0 8.098896,-0.68263 8.098896,-4.61963 a 3.7041666,3.7041666 0 0 0 -0.08202,-0.90487 z"
         id="path1352"
         style="stroke-width:0.264583" />
      <path
         d="m 178.70159,55.320745 c 0,3.1459 1.89177,4.67519 5.34194,4.67519 a 13.787437,13.787437 0 0 0 3.14589,-0.4445 v -3.6486 a 6.5722499,6.5722499 0 0 1 -2.032,0.30691 c -1.42081,0 -1.94733,-0.4445 -1.94733,-1.78064 v -5.59065 h 4.11692 v -3.75708 h -4.11692 v -4.7625 l -4.49792,0.97366 v 3.78884 h -2.98714 v 3.75708 h 2.97656 z m -14.02292,0.0847 c 0,-0.97367 0.97632,-1.44727 2.45005,-1.44727 a 11.408833,11.408833 0 0 1 2.67229,0.33337 v 1.89177 a 5.6911874,5.6911874 0 0 1 -2.81252,0.69586 c -1.44463,0 -2.30982,-0.55563 -2.30982,-1.47373 m 1.37584,4.64608 c 1.5875,0 2.86808,-0.33337 4.064,-1.14035 v 0.89164 h 4.45029 v -9.43504 c 0,-3.58775 -2.41829,-5.55625 -6.45319,-5.55625 -2.25425,0 -4.48204,0.52917 -6.87916,1.61396 l 1.61395,3.31258 c 1.72509,-0.72495 3.175,-1.16945 4.45294,-1.16945 1.85208,0 2.80988,0.72231 2.80988,2.19868 v 0.72232 a 13.104812,13.104812 0 0 0 -3.33905,-0.41805 c -3.78618,0 -6.06689,1.5875 -6.06689,4.42648 0,2.58763 2.05846,4.56142 5.34194,4.56142 m -24.45809,-0.24871 h 4.78632 v -7.63323 h 8.01422 v 7.62529 h 4.79955 v -19.47862 h -4.78102 v 7.48506 h -8.01423 v -7.48506 h -4.78632 z m -18.2192,-7.38187 c 0,-2.11667 1.66952,-3.73063 3.8682,-3.73063 a 4.5561249,4.5561249 0 0 1 3.1115,1.143 v 5.14615 a 4.3285833,4.3285833 0 0 1 -3.1115,1.18004 c -2.16958,0 -3.8682,-1.61396 -3.8682,-3.72798 m 7.04056,7.37394 h 4.45294 v -20.46291 l -4.49792,0.97367 v 5.53773 a 7.4877082,7.4877082 0 0 0 -3.75708,-0.97367 c -4.28361,0 -7.65175,3.30994 -7.65175,7.54063 a 7.4744791,7.4744791 0 0 0 7.51416,7.56708 6.6463332,6.6463332 0 0 0 3.95023,-1.27794 z m -20.43377,-11.31891 c 1.41816,0 2.61408,0.91811 3.08768,2.33627 h -6.13833 c 0.4445,-1.46314 1.5584,-2.33627 3.05065,-2.33627 m -7.58561,3.96875 c 0,4.28625 3.50573,7.62529 8.01159,7.62529 2.4765,0 4.28625,-0.66939 6.15156,-2.22779 l -2.97921,-2.64583 c -0.69585,0.72496 -1.72508,1.1139 -2.94746,1.1139 a 3.8073541,3.8073541 0 0 1 -3.6195,-2.33628 h 10.49073 v -1.11918 c 0,-4.67519 -3.14325,-8.04069 -7.4295,-8.04069 a 7.5591457,7.5591457 0 0 0 -7.67292,7.62265 m -7.765517,-8.04069 c 1.5875,0 2.4765,1.00012 2.4765,2.19869 0,1.19856 -0.889,2.19868 -2.4765,2.19868 h -4.733395 v -4.39737 z m -9.524999,15.38816 h 4.786312 v -7.09612 h 3.643312 l 3.675063,7.09612 h 5.357809 l -4.286247,-7.79197 a 5.8922708,5.8922708 0 0 0 3.672417,-5.48217 c 0,-3.50573 -2.754312,-6.20448 -6.879167,-6.20448 h -9.969499 z"
         id="path1354"
         style="stroke-width:0.264583" />
    </g>
    <g
       id="g2585"
       transform="matrix(0.64055587,0,0,0.62867355,91.735202,78.552948)"
       style="fill:#ee0000;fill-opacity:1;stroke-width:0.416939">
      <path
         d="m 34.199,3.83 c -3.944,0 -7.428,1.98 -9.51,4.997 0,0 -0.703,1.052 -1.818,1.052 -1.114,0 -1.817,-1.052 -1.817,-1.052 C 18.971,5.81 15.489,3.83 11.544,3.83 5.168,3.83 0,8.998 0,15.376 c 0,1.506 0.296,2.939 0.82,4.258 3.234,10.042 17.698,21.848 22.051,22.279 4.354,-0.431 18.816,-12.237 22.052,-22.279 0.524,-1.318 0.82,-2.752 0.82,-4.258 C 45.743,8.998 40.575,3.83 34.199,3.83 Z"
         id="path2583"
         style="fill:#ee0000;fill-opacity:1;stroke-width:0.416939" />
    </g>
    <g
       id="g2587"
       transform="matrix(1.6466838,0,0,1.6466838,58.590334,67.982713)"
       style="stroke-width:0.160677" />
    <g
       id="g2589"
       transform="matrix(1.6466838,0,0,1.6466838,58.590334,67.982713)"
       style="stroke-width:0.160677" />
    <g
       id="g2591"
       transform="matrix(1.6466838,0,0,1.6466838,58.590334,67.982713)"
       style="stroke-width:0.160677" />
    <g
       id="g2593"
       transform="matrix(1.6466838,0,0,1.6466838,58.590334,67.982713)"
       style="stroke-width:0.160677" />
    <g
       id="g2595"
       transform="matrix(1.6466838,0,0,1.6466838,58.590334,67.982713)"
       style="stroke-width:0.160677" />
    <g
       id="g2597"
       transform="matrix(1.6466838,0,0,1.6466838,58.590334,67.982713)"
       style="stroke-width:0.160677" />
    <g
       id="g2599"
       transform="matrix(1.6466838,0,0,1.6466838,58.590334,67.982713)"
       style="stroke-width:0.160677" />
    <g
       id="g2601"
       transform="matrix(1.6466838,0,0,1.6466838,58.590334,67.982713)"
       style="stroke-width:0.160677" />
    <g
       id="g2603"
       transform="matrix(1.6466838,0,0,1.6466838,58.590334,67.982713)"
       style="stroke-width:0.160677" />
    <g
       id="g2605"
       transform="matrix(1.6466838,0,0,1.6466838,58.590334,67.982713)"
       style="stroke-width:0.160677" />
    <g
       id="g2607"
       transform="matrix(1.6466838,0,0,1.6466838,58.590334,67.982713)"
       style="stroke-width:0.160677" />
    <g
       id="g2609"
       transform="matrix(1.6466838,0,0,1.6466838,58.590334,67.982713)"
       style="stroke-width:0.160677" />
    <g
       id="g2611"
       transform="matrix(1.6466838,0,0,1.6466838,58.590334,67.982713)"
       style="stroke-width:0.160677" />
    <g
       id="g2613"
       transform="matrix(1.6466838,0,0,1.6466838,58.590334,67.982713)"
       style="stroke-width:0.160677" />
    <g
       id="g2615"
       transform="matrix(1.6466838,0,0,1.6466838,58.590334,67.982713)"
       style="stroke-width:0.160677" />
    <g
       id="g799"
       transform="translate(206.12966,15.398866)">
      <path
         style="fill:#d1f0fd;stroke-width:1"
         d="m -138.39198,140.1241 c 0.0542,-0.31529 0.15212,-1.03442 0.21766,-1.59806 0.0995,-0.85586 0.16649,-1.00456 0.40621,-0.90201 0.60638,0.25942 2.59104,0.78028 2.97315,0.78028 0.49239,0 0.50525,0.26731 0.0489,1.01585 -0.54951,0.90127 -1.31884,1.27578 -2.62232,1.27655 l -1.12206,7e-4 0.0985,-0.57326 z m -4.40031,-1.93767 c -0.73893,-0.70192 -1.56776,-1.60214 -1.84183,-2.00049 l -0.49831,-0.72426 0.97846,-0.40555 c 0.53815,-0.22305 1.37452,-0.67208 1.8586,-0.99784 0.48408,-0.32577 0.94071,-0.55488 1.01472,-0.50913 0.39643,0.245 0.382,5.91348 -0.0151,5.91348 -0.0842,0 -0.75765,-0.57429 -1.49658,-1.27621 z m 7.69246,-2.68036 c -0.9485,-0.26393 -2.02406,-0.81148 -2.69011,-1.36951 -0.40997,-0.34349 -0.52681,-0.65281 -0.75321,-1.99406 -11.68932,-21.7531 1.3605,-15.3305 4.21905,0.25157 0.29885,1.75827 0.37142,3.37499 0.15031,3.34863 -0.0728,-0.009 -0.48948,-0.11516 -0.92604,-0.23663 z m -11.82508,-3.76975 c -0.52686,-1.69023 -0.62535,-3.8195 -0.2707,-5.85226 0.80235,-9.37702 3.17216,-2.09889 4.58621,1.90657 0.70688,2.05026 0.70513,2.06221 -0.46055,3.13264 -0.92528,0.84968 -1.79574,1.39775 -2.76065,1.73819 l -0.72608,0.25617 z m -16.22075,-11.65962 c -2.24963,-11.79553 26.04081,-2.74685 1.55341,0.46391 l -1.55341,0.10064 z m -4.38336,-0.72762 c -1.58743,-0.73442 -3.48385,-2.11214 -3.17587,-2.30722 0.66604,-0.42188 5.36187,-1.70755 5.54992,-1.5195 0.0196,0.0196 -7.40677,-5.74296 -3.55879,-7.21081 2.71755,-1.03663 17.95946,1.40862 16.47756,2.06026 3.84228,-1.887 2.82489,2.53155 2.07617,2.99973 -3.36666,2.10521 -15.6766,4.94915 -15.73147,5.43412 -0.0695,0.61454 -0.20693,1.07438 -0.31965,1.06976 -0.10874,-0.004 -0.70178,-0.2413 -1.31787,-0.52634 z m -5.60282,-5.0863 c -0.1779,-0.41855 -0.24834,-0.9938 -0.20293,-1.65727 0.0594,-0.86755 0.1568,-1.10622 0.66601,-1.6316 0.32806,-0.33847 0.64043,-0.6151 0.69416,-0.61473 0.0537,3.5e-4 0.23677,0.3377 0.40676,0.74965 0.17,0.41195 0.61457,1.15168 0.98794,1.64387 l 0.67887,0.89487 -1.47916,0.62814 -1.47916,0.62814 z m 3.85561,-5.06444 c 95.011121,-86.865219 47.50556,-43.43261 0,0 z"
         id="path807"
         sodipodi:nodetypes="cssscsccccscsscsccsscccssccsscsccccsssscsscssssssscccscc" />
      <path
         style="fill:#fbdd00;stroke-width:1"
         d="m -156.1783,138.45766 c -1.87363,-0.24851 -4.20698,-1.31784 -5.96408,-2.73324 -3.94815,-3.18036 -5.36145,-7.76446 -3.63276,-11.78293 0.34723,-0.80715 0.36833,-0.82229 1.00223,-0.71926 0.64542,0.10491 0.64878,0.11003 1.03415,1.57689 1.17493,4.47213 4.27894,7.7559 8.79518,9.30448 1.2062,0.41359 1.74381,0.49086 3.70221,0.5321 l 2.2911,0.0482 0.26214,0.55351 c 0.25727,0.54323 0.25075,0.56309 -0.35082,1.06864 -1.0659,0.89577 -3.31677,1.90547 -4.66991,2.09483 -1.254,0.17549 -1.52683,0.18176 -2.46944,0.0567 z m 3.26319,-10.43413 c -1.2593,-0.40998 -2.20527,-1.0201 -3.11594,-2.00969 -0.81976,-0.8908 -1.16708,-1.4892 -1.43893,-2.47914 -0.1752,-0.63799 -0.16126,-0.67865 0.28922,-0.8436 1.66768,-0.61062 2.96694,-1.2681 4.40385,-2.2285 l 1.64063,-1.09656 1.09496,0.80455 c 0.60223,0.4425 1.12017,0.82887 1.15098,0.85859 0.0308,0.0297 -0.1789,0.75645 -0.466,1.61494 -0.49741,1.48732 -0.86675,3.37966 -0.95877,4.91227 l -0.0424,0.70556 -0.79375,0.0387 c -0.43656,0.0213 -1.23031,-0.10342 -1.76389,-0.27713 z"
         id="path805" />
      <path
         style="fill:#06aded;stroke-width:1"
         d="m -137.61131,140.749 c 0.21941,-0.0422 0.53691,-0.0406 0.70555,0.004 0.16865,0.0442 -0.0109,0.0787 -0.39893,0.0767 -0.38805,-0.002 -0.52603,-0.0381 -0.30662,-0.0803 z m -3.13682,-0.90238 c -0.41904,-0.27864 -0.4368,-0.35201 -0.30634,-1.26592 0.16486,-1.15491 -0.01,-4.89795 -0.23535,-5.03721 -0.0869,-0.0537 -0.41637,0.0993 -0.73223,0.34006 -0.59733,0.45521 -2.73304,1.52177 -3.04774,1.52201 -0.18888,1.5e-4 -0.89982,-1.19178 -0.77401,-1.29766 0.0399,-0.0335 0.53743,-0.27071 1.10574,-0.52707 1.49179,-0.67295 2.69973,-1.62131 3.56887,-2.80196 l 0.76009,-1.03251 0.17868,0.66891 c 0.42429,1.58831 0.7195,4.18535 0.72016,6.33539 10e-4,3.47272 -0.14014,3.82589 -1.23787,3.09596 z m -2.56208,-2.01557 -0.69726,-0.74966 0.74966,0.69726 c 0.69717,0.64844 0.83071,0.80205 0.69725,0.80205 -0.0288,0 -0.36616,-0.33735 -0.74965,-0.74965 z m 5.11337,-0.70385 c 0.006,-0.84793 0.0102,-1.54145 0.0102,-1.54117 0,3.6e-4 0.4649,0.23629 1.03311,0.52444 0.56822,0.28816 1.50087,0.62053 2.07257,0.73861 1.07225,0.22147 1.11134,0.26977 0.9344,1.15448 -0.10419,0.52094 -0.11185,0.52403 -0.92604,0.37319 -0.74991,-0.13894 -2.28295,-0.57108 -2.79339,-0.78743 -0.13,-0.0551 -0.23346,0.1315 -0.27479,0.4956 -0.0365,0.32118 -0.0617,-0.10979 -0.0561,-0.95772 z m -3.85141,-7.71872 c -0.0541,-0.14553 -0.34442,-0.97896 -0.64518,-1.85209 -0.83906,-2.43591 -2.64958,-6.11831 -2.95127,-6.00255 -0.1372,0.0527 0.0163,-0.27424 0.34111,-0.72644 0.32481,-0.45219 0.66994,-0.82972 0.76696,-0.83895 0.41372,-0.0394 3.45061,6.78257 3.43161,7.70861 -0.0118,0.5732 -0.82073,2.04099 -0.94323,1.71142 z m -23.54555,-9.2997 c -0.40514,-0.0767 -0.41566,-0.11861 -0.30376,-1.2108 0.0637,-0.62226 0.26924,-1.62402 0.45664,-2.22613 0.1874,-0.60212 0.31666,-1.11882 0.28725,-1.14823 -0.12108,-0.12109 -2.94299,0.55725 -4.28361,1.02971 -0.79252,0.2793 -1.56166,0.46148 -1.70921,0.40486 -0.29239,-0.1122 -0.89341,-0.93927 -0.7713,-1.06138 0.18952,-0.18952 2.46653,-0.99804 3.70625,-1.31602 1.63201,-0.41858 4.50196,-0.86843 5.54978,-0.86989 l 0.74848,-10e-4 -0.77383,1.13029 c -0.95726,1.39822 -1.50432,2.82637 -1.64025,4.28202 -0.11185,1.19777 -0.11945,1.20369 -1.26644,0.9866 z m 11.79675,-4.20347 c -1.29895,-0.26278 -3.57409,-0.53494 -5.90229,-0.70605 l -1.58076,-0.11618 0.76173,-0.71053 0.76172,-0.71053 1.73712,0.11965 c 1.81888,0.12527 4.36972,0.47536 5.94308,0.81565 l 0.92685,0.20046 -0.48588,0.687 c -0.53389,0.75489 -0.52111,0.7524 -2.16157,0.42053 z m -16.58576,-2.87138 c -0.2949,-0.35584 -0.77145,-1.11584 -1.05899,-1.68889 -0.48833,-0.97321 -0.50247,-1.05595 -0.21437,-1.25506 0.7691,-0.53152 0.99678,-0.47064 1.45252,0.38846 0.23986,0.45213 0.82237,1.24469 1.29445,1.76123 0.57601,0.63024 0.78028,0.96532 0.62101,1.01868 -1.3927,0.46655 -1.53457,0.45135 -2.09462,-0.22442 z m -3.13541,-0.2942 c 0.004,-0.29105 0.0431,-0.38876 0.0879,-0.21713 0.0447,0.17162 0.0418,0.40974 -0.007,0.52916 -0.0483,0.11942 -0.0849,-0.021 -0.0813,-0.31203 z"
         id="path803"
         sodipodi:nodetypes="ccsccssscscsscscsscssscsssssscccsscsccsscssssssccsssssscccsscssssssscsccccc" />
      <path
         style="fill:#030303;stroke-width:1"
         d="m -139.20334,143.43347 c -2.23349,-0.56308 -5.2439,-2.46667 -6.85121,-4.33227 l -0.76731,-0.89061 -0.68521,0.54454 c -3.46704,2.75525 -8.27308,3.37799 -12.44639,1.61273 l -1.14653,-0.48497 -2.79702,1.39126 c -1.53836,0.76519 -2.81902,1.36669 -2.84591,1.33666 -0.0269,-0.03 0.17612,-1.28491 0.45114,-2.78863 0.27502,-1.50371 0.50396,-2.92029 0.50876,-3.14793 0.005,-0.23535 -0.27663,-0.74039 -0.65273,-1.1707 -0.93444,-1.0691 -1.75598,-2.49566 -2.30404,-4.00082 -0.42967,-1.18002 -0.47098,-1.51857 -0.46993,-3.85138 0.001,-2.34141 0.0425,-2.67515 0.49002,-3.9476 0.26888,-0.76448 0.46612,-1.41245 0.43832,-1.43995 -0.0278,-0.0275 -0.60618,-0.34359 -1.28527,-0.70244 -3.24467,-1.71456 -5.64868,-4.32363 -6.46738,-7.01903 -0.99466,-3.27468 0.68878,-6.14629 4.47289,-7.62984 2.77814,-1.08918 7.05002,-1.61896 10.59049,-1.31339 1.92125,0.16581 5.76779,0.83836 6.48768,1.13434 0.18341,0.0754 0.37127,-0.0838 0.59998,-0.5085 0.18314,-0.34006 0.68891,-0.97933 1.12394,-1.42059 1.51216,-1.53383 3.4134,-2.37221 5.74486,-2.53328 l 1.42764,-0.0986 0.13455,-0.009 0.0449,-1.94027 c 0.0505,-2.186246 0.47817,-4.217586 1.31031,-6.224409 0.92694,-2.235423 1.55434,-2.790178 2.64475,-2.338516 0.47877,0.198316 0.9014,0.814791 0.9014,1.314859 0,0.127527 -0.30875,0.897699 -0.68611,1.711492 -1.06079,2.287642 -1.40404,4.186221 -1.28888,7.128914 l 0.0347,0.88679 1.15404,0.50276 c 1.61495,0.70355 3.08729,1.69243 4.35419,2.92445 l 1.08341,1.05359 1.11037,-0.25751 c 2.10512,-0.48821 3.96699,-1.50685 6.19099,-3.38712 0.60764,-0.51373 1.22674,-0.93406 1.37577,-0.93406 0.42248,0 1.25725,0.48542 1.3786,0.80166 0.30746,0.80121 0.1116,1.25716 -0.99286,2.3114 -1.81277,1.73036 -3.50395,2.74157 -6.00716,3.59188 -0.75733,0.25725 -1.36955,0.5406 -1.36048,0.62966 0.009,0.0891 0.17026,0.65983 0.35821,1.26837 0.96728,3.13168 0.40492,6.41239 -1.47517,8.60577 l -0.61405,0.71638 0.5451,0.87112 c 1.59766,2.55324 3.39812,7.23615 3.90943,10.16824 1.06677,6.1173 -0.0484,10.11442 -3.22789,11.57005 -1.20176,0.55018 -3.0112,0.66886 -4.49488,0.29482 z m 2.87572,-2.7264 c 0.88537,-0.25392 1.74065,-1.17087 2.04358,-2.19091 0.40832,-1.37497 0.38754,-1.41923 -0.77971,-1.66032 -0.5717,-0.11808 -1.50436,-0.45045 -2.07257,-0.73861 -0.56821,-0.28815 -1.03311,-0.52492 -1.03311,-0.52615 v 1.012 c 0,0.55783 -0.0596,1.70295 -0.13233,2.5447 -0.11887,1.37478 -0.10092,1.53867 0.17639,1.61114 0.54958,0.14361 1.17956,0.12545 1.79775,-0.0519 z m -3.27497,-1.08333 c 0.34231,-1.71157 -0.005,-6.93491 -0.61238,-9.20824 l -0.18044,-0.67542 -0.71608,0.99999 c -0.82695,1.15482 -2.34768,2.33842 -3.7527,2.92077 -0.53799,0.22298 -0.97816,0.47614 -0.97816,0.56256 0,0.3677 1.69876,2.73965 2.62663,3.66752 1.08101,1.08101 2.74846,2.26053 3.21625,2.27511 0.18307,0.006 0.32647,-0.19024 0.39688,-0.54229 z m -14.08907,-1.21606 c 1.35314,-0.18936 3.60401,-1.19906 4.66991,-2.09483 0.60157,-0.50555 0.60809,-0.52541 0.35082,-1.06864 l -0.26214,-0.55351 -2.2911,-0.0482 c -1.9584,-0.0412 -2.49601,-0.11851 -3.70221,-0.5321 -4.51624,-1.54858 -7.62025,-4.83235 -8.79518,-9.30448 -0.38537,-1.46686 -0.38873,-1.47198 -1.03415,-1.57689 -0.6339,-0.10303 -0.655,-0.0879 -1.00223,0.71926 -1.04539,2.43009 -0.94748,5.20984 0.27219,7.72743 1.36103,2.80938 4.71067,5.56561 7.83588,6.4477 1.65231,0.46637 2.31636,0.51406 3.95821,0.2843 z m 19.739,-3.74487 c -0.29506,-3.27442 -1.24846,-6.56901 -2.80598,-9.69645 -1.51207,-3.03617 -3.53522,-5.73503 -4.60368,-6.14126 -0.61637,-0.23434 -1.35868,-0.21212 -1.70068,0.0509 -0.25757,0.19809 -0.17997,0.43549 0.76398,2.33715 1.8311,3.6889 3.01738,7.141 3.60654,10.49514 0.16189,0.92163 0.35331,1.79476 0.42539,1.94028 0.25782,0.52057 1.63374,1.40979 2.7083,1.75032 1.72764,0.54748 1.72203,0.55005 1.60613,-0.73608 z m -10.93413,-2.37793 c 1.71198,-0.86068 3.80694,-3.39942 3.80694,-4.61337 0,-0.74475 -2.50023,-6.57553 -3.21741,-7.50331 -0.25058,-0.32416 -0.29105,-0.30039 -0.90137,0.52917 -2.15221,2.92536 -2.89366,8.73181 -1.50436,11.78099 0.24323,0.53383 0.40346,0.51676 1.8162,-0.19348 z m -5.41112,-4.72173 c 0.092,-1.53261 0.46136,-3.42495 0.95877,-4.91227 0.2871,-0.85849 0.4968,-1.58521 0.466,-1.61494 -0.0308,-0.0297 -0.54875,-0.41609 -1.15098,-0.85859 l -1.09496,-0.80455 -1.64063,1.09656 c -1.43691,0.9604 -2.73617,1.61788 -4.40385,2.2285 -0.45048,0.16495 -0.46442,0.20561 -0.28922,0.8436 0.27185,0.98994 0.61917,1.58834 1.43893,2.47914 1.32762,1.44267 3.29398,2.36416 4.87983,2.28682 l 0.79375,-0.0387 z m -9.27757,-7.22184 c 3.19242,-0.67665 6.25683,-2.55346 7.98178,-4.88847 l 0.47651,-0.64504 -0.93446,-0.20209 c -1.58165,-0.34207 -4.12909,-0.69182 -5.95449,-0.81755 l -1.74091,-0.1199 -1.00434,0.94986 c -1.43271,1.355 -2.37707,3.46423 -2.37707,5.30917 v 0.6685 l 1.19062,-0.003 c 0.65485,-0.002 1.71791,-0.11482 2.36236,-0.25142 z m -4.73468,-1.21237 c 0.13593,-1.45565 0.68299,-2.8838 1.64025,-4.28202 l 0.77383,-1.1303 -0.74848,10e-4 c -1.05046,0.001 -3.92103,0.45194 -5.54978,0.87094 -1.67491,0.43084 -3.75356,1.22368 -3.75356,1.43166 0,0.21637 1.36717,1.51721 2.20486,2.09788 0.97439,0.67543 2.08754,1.22871 3.43958,1.70961 1.79908,0.6399 1.87063,0.61482 1.9933,-0.69883 z m -5.43288,-5.40726 c 0.67909,-0.21735 1.34152,-0.42688 1.47205,-0.46563 0.15585,-0.0463 -0.0574,-0.39291 -0.62101,-1.00962 -0.47208,-0.51654 -1.05459,-1.3091 -1.29445,-1.76123 -0.49843,-0.93956 -0.64152,-0.94508 -1.91339,-0.0738 -1.35538,0.92847 -1.74375,2.54129 -0.97413,4.04536 l 0.24332,0.47554 0.92644,-0.40772 c 0.50955,-0.22424 1.48207,-0.58554 2.16117,-0.80289 z m 19.13819,-0.77272 c 0,-0.3252 -0.17859,-0.86098 -0.39687,-1.19063 -0.82618,-1.24766 -4.92674,-2.69876 -8.9437,-3.16497 -2.97998,-0.34586 -8.73441,0.0325 -9.31434,0.61243 -0.31554,0.31554 1.44343,2.61364 2.50055,3.26698 0.53583,0.33116 0.70793,0.3494 1.80288,0.19111 2.96878,-0.42917 9.27854,-0.13282 12.59248,0.59143 1.73169,0.37846 1.759,0.3737 1.759,-0.30635 z m 77.908947,23.76087 c -0.05933,-0.0593 -0.109066,-5.11223 -0.119452,-11.67289 -0.0013,-0.82635 -0.002,-1.67661 -0.002,-2.54383 v -14.09527 l 7.364236,0.0741 c 8.088208,0.0814 8.536001,0.13196 10.657646,1.20296 2.99602,1.51239 4.412163,4.08708 4.397787,7.99561 -0.01277,3.47299 -1.193392,6.02316 -3.555575,7.68013 -2.080427,1.45934 -4.40985,1.9479 -9.287488,1.9479 h -2.868066 l -0.04698,4.7184 -0.04698,4.7184 -3.185848,0.0479 c -1.752217,0.0264 -3.240498,-0.007 -3.307291,-0.0735 z m 13.01555,-15.42884 c 3.056525,-0.84855 3.186208,-6.00283 0.172091,-6.83965 -0.383505,-0.10647 -2.026811,-0.19403 -3.651794,-0.19456 l -2.954513,-9.9e-4 v 3.61597 3.61598 l 2.866319,-10e-4 c 1.576476,-5.3e-4 3.182029,-0.0886 3.567897,-0.19576 z m 12.792172,1.34717 v -14.2032 h 10.054166 10.054167 v 2.99861 2.99861 h -6.702778 -6.702777 v 2.82222 2.82222 h 5.913396 5.913397 l -0.04847,2.86632 -0.04847,2.86632 -5.862386,0.0465 -5.862385,0.0465 -0.04664,5.42158 -0.04664,5.42158 -3.307291,0.048 -3.307292,0.048 z m -53.102862,10.09437 -0.01,-3.92466 -0.38708,0.52565 c -2.89853,3.93615 -7.85061,6.66186 -12.57412,6.92103 -3.31174,0.18171 -6.07201,-0.80689 -8.19671,-2.93569 -1.89787,-1.90153 -3.02252,-4.37378 -3.25571,-7.15682 -0.50228,-5.99451 3.45253,-12.14071 9.05445,-14.07161 1.34313,-0.46296 1.68273,-0.51161 3.10758,-0.44518 1.88559,0.0879 2.86612,0.46217 4.03602,1.54054 1.12628,1.03818 1.59811,2.22512 1.48926,3.74647 -0.12633,1.76554 -0.75926,2.90753 -2.68069,4.83673 -2.48528,2.49534 -5.2922,4.04483 -9.09423,5.02023 -2.0784,0.53321 -2.02375,0.45088 -1.33427,2.00992 0.76286,1.72495 2.25739,2.97621 4.23324,3.54418 1.48696,0.42744 3.95712,0.27429 5.78447,-0.35862 3.252,-1.12634 6.53661,-3.69788 9.22188,-7.21984 l 0.52731,-0.69162 0.0882,-7.77505 0.0882,-7.77504 7.230575,-0.0461 c 8.10391,-0.0517 9.378488,0.0619 11.298294,1.00704 2.746904,1.3523 4.142331,4.15173 3.626489,7.27527 -0.369315,2.23628 -1.443966,3.70349 -3.435229,4.69007 l -1.035432,0.51301 0.947238,0.30387 c 2.08948,0.67031 3.517313,2.05923 4.246428,4.13072 0.489047,1.38942 0.384794,4.22608 -0.211723,5.76094 -0.519611,1.33698 -1.97059,2.82954 -3.411479,3.50923 -1.95045,0.92006 -2.681894,0.9836 -11.361746,0.98693 l -7.981605,0.003 -0.01,-3.92465 z m 14.252055,-1.81089 c 1.05278,-0.31264 1.70681,-0.99048 1.997569,-2.07028 0.407327,-1.5127 -0.210619,-3.02979 -1.485489,-3.64694 -0.68865,-0.33337 -1.07344,-0.3653 -4.40307,-0.3653 h -3.64848 v 3.175 3.175 h 3.31937 c 2.453,0 3.55447,-0.0698 4.2201,-0.26748 z m -32.686302,-6.96154 c 2.73532,-0.69958 5.9851,-2.66074 7.58782,-4.57908 0.7612,-0.91109 1.33123,-1.96621 1.33123,-2.46407 0,-1.46562 -1.62593,-2.31241 -3.63916,-1.8953 -2.92753,0.60654 -6.30814,4.18335 -7.20375,7.62184 -0.49064,1.88372 -0.43701,1.92042 1.92386,1.31661 z m 32.428542,-4.83088 c 1.02341,-0.43607 1.42617,-1.04953 1.49522,-2.27739 0.0493,-0.87732 -0.0116,-1.21355 -0.30455,-1.68061 -0.61024,-0.97294 -1.15759,-1.09182 -5.02713,-1.09182 h -3.44525 v 2.64584 2.64583 h 3.35706 c 2.45023,0 3.51037,-0.0653 3.92465,-0.24185 z"
         id="path801"
         sodipodi:nodetypes="sscsscsssssscsssssssssscccssssscsscssssssccscssssscssscscsccsscsssscscsscsssssssccssssssssssssssssssscssssscscscsscsscccccsccssssccsssssscssssssssssscsscsssssccccccsssccccsscccccccccccccccccccccccsssssssssssssscccsssscssssccccsssscccsssssssscssscccsc" />
    </g>
  </g>
</svg>
