<?xml version="1.0" encoding="UTF-8" standalone="no"?>
<svg
   xmlns:dc="http://purl.org/dc/elements/1.1/"
   xmlns:cc="http://creativecommons.org/ns#"
   xmlns:rdf="http://www.w3.org/1999/02/22-rdf-syntax-ns#"
   xmlns:svg="http://www.w3.org/2000/svg"
   xmlns="http://www.w3.org/2000/svg"
   id="svg897"
   version="1.1"
   viewBox="0 0 68.713058 35.455345"
   height="35.455345mm"
   width="68.713058mm">
  <defs
     id="defs891" />
  <metadata
     id="metadata894">
    <rdf:RDF>
      <cc:Work
         rdf:about="">
        <dc:format>image/svg+xml</dc:format>
        <dc:type
           rdf:resource="http://purl.org/dc/dcmitype/StillImage" />
        <dc:title></dc:title>
      </cc:Work>
    </rdf:RDF>
  </metadata>
  <g
     transform="translate(-38.969079,-55.510692)"
     id="layer1">
    <g
       id="g2164">
      <path
         d="m 66.516638,81.241042 c -3.24831,3.99191 -8.23267,5.38538 -12.79864,4.32567 -4.50109,-1.02458 -8.33439,-4.82521 -9.34228,-9.3989 -1.21847,-5.25999 0.79237,-10.48688 5.37695,-13.52201 4.07254,-2.74602 9.69342,-2.74464 13.70874,-0.14883 1.86048,1.1745 3.59184,3.02203 4.64784,5.26591 2.04114,4.21569 1.65915,9.57555 -1.59261,13.47816"
         style="fill:#ffffff;fill-opacity:1;fill-rule:nonzero;stroke:none;stroke-width:0.03527778"
         id="path4586" />
      <path
         d="m 45.500878,71.213752 0.10543,0.0234 c 0.0212,0 0.0388,-0.014 0.0445,-0.0354 l 0.0154,-0.0661 c 0.007,-0.03 0.0336,-0.0521 0.0646,-0.0521 l 0.0152,0.002 h 6.9e-4 l 0.96104,0.23153 c 0.0357,0.01 0.0586,0.0455 0.0504,0.0813 l -0.0138,0.0593 c -0.005,0.0241 0.0102,0.0487 0.0338,0.0544 l 0.0965,0.0213 0.0109,10e-4 c 0.0212,0 0.0394,-0.0145 0.0444,-0.0351 l 0.23606,-1.0135 c 0.005,-0.0248 -0.01,-0.0517 -0.0335,-0.059 l -0.34354,-0.0995 c -0.0187,0 -0.0364,0.0142 -0.0413,0.0324 l -0.0289,0.12925 c -0.007,0.0244 0.008,0.0526 0.0329,0.0609 l 0.12582,0.0452 c 0.035,0.011 0.055,0.0503 0.0475,0.0864 l -0.0725,0.31048 c -0.007,0.0313 -0.0336,0.0522 -0.0649,0.0522 l -0.0138,-5.5e-4 h -10e-4 l -0.96242,-0.23329 c -0.0353,-0.008 -0.0579,-0.0444 -0.0495,-0.0806 l 0.0131,-0.0575 c 0.007,-0.0241 -0.008,-0.0493 -0.0343,-0.0549 l -0.10528,-0.0231 c -0.0219,0 -0.0404,0.0142 -0.0449,0.0353 l -0.12306,0.52945 c -0.002,0.011 -4.1e-4,0.0234 0.005,0.0345 0.007,0.009 0.0164,0.0176 0.0302,0.02 m 22.57143,1.66507 -0.31901,-0.0213 c -0.0242,0 -0.0434,0.0171 -0.0434,0.0409 l -0.004,0.1185 c -7.2e-4,0.0251 0.0201,0.048 0.0448,0.05 l 0.10431,0.008 c 0.0366,0.003 0.0653,0.0347 0.064,0.0719 l -0.006,0.1947 c -7.1e-4,0.0358 -0.0296,0.0648 -0.0695,0.0648 l -0.98777,-0.0397 c -0.0179,-6.6e-4 -0.0346,-0.008 -0.0469,-0.0213 -0.0124,-0.0138 -0.0185,-0.0303 -0.0174,-0.0485 l 0.002,-0.0597 c 0.001,-0.0251 -0.0201,-0.0464 -0.0448,-0.0471 l -0.10019,-0.003 c -0.0242,0 -0.0445,0.0189 -0.0448,0.0448 l -0.0181,0.54363 c -10e-4,0.0113 0.004,0.0234 0.0124,0.0327 0.009,0.009 0.0194,0.0142 0.0313,0.0142 l 0.10103,0.004 c 0.0245,0 0.0446,-0.0204 0.0451,-0.0445 l 0.002,-0.0678 c 10e-4,-0.0349 0.0314,-0.0634 0.0695,-0.0634 l 0.98806,0.0382 c 0.0185,6.6e-4 0.0339,0.009 0.047,0.0218 0.0123,0.0134 0.019,0.031 0.0176,0.0478 l -0.005,0.19198 c -0.002,0.0368 -0.0321,0.0682 -0.0684,0.0689 l -0.10541,6.6e-4 c -0.0255,9.8e-4 -0.0467,0.0221 -0.0478,0.0478 l -0.003,0.11783 c -0.002,0.011 0.003,0.0234 0.0114,0.0317 0.008,0.009 0.0193,0.0128 0.031,0.0128 h 10e-4 l 0.31528,-0.002 c 0.0263,0 0.0473,-0.0204 0.0479,-0.0466 l 0.04,-1.25261 c 7.1e-4,-0.0255 -0.0185,-0.0478 -0.0438,-0.0492 m -21.64278,-3.55062 c 0.0536,0.022 0.105,0.0344 0.1542,0.0344 0.16798,0 0.28332,-0.13571 0.38544,-0.27672 l 0.0306,-0.0406 c 0.0919,-0.12541 0.17804,-0.24391 0.28952,-0.24391 0.0222,0 0.0469,0.005 0.0703,0.0156 0.0732,0.031 0.1159,0.0864 0.12692,0.16358 0.01,0.0641 -0.003,0.14058 -0.0385,0.22091 -0.0318,0.0744 -0.11575,0.18673 -0.11933,0.19251 -0.0156,0.0213 -0.0434,0.0338 -0.0718,0.0338 -0.009,0 -0.0189,-9.5e-4 -0.0262,-0.005 l -0.0872,-0.0316 c -0.006,-0.002 -0.0109,-0.003 -0.0161,-0.003 -0.0196,0 -0.0378,0.0124 -0.0462,0.0303 l -0.0506,0.11631 c -0.009,0.0234 0.002,0.0511 0.0247,0.0601 l 0.25618,0.10887 c 0.007,0.003 0.0142,0.004 0.0236,0.004 0.0201,0 0.04,-0.008 0.0506,-0.022 0.003,-0.002 0.17598,-0.22352 0.23799,-0.36728 0.23619,-0.55368 -0.0839,-0.74069 -0.18866,-0.78436 -0.0575,-0.0252 -0.11369,-0.0369 -0.16591,-0.0369 -0.1746,0 -0.29408,0.14097 -0.39426,0.27354 l -0.0339,0.0466 c -0.0889,0.12196 -0.17336,0.23732 -0.27974,0.23732 -0.0212,0 -0.0434,-0.005 -0.067,-0.0138 -0.0478,-0.0209 -0.0825,-0.0555 -0.10032,-0.10156 -0.0272,-0.0662 -0.0189,-0.15434 0.0242,-0.25425 0.0238,-0.0576 0.0831,-0.13709 0.0845,-0.13984 0.0152,-0.0214 0.0441,-0.0346 0.0719,-0.0346 0.01,0 0.0179,4.3e-4 0.0267,0.004 l 0.0671,0.0237 c 0.005,0.002 0.011,0.002 0.0156,0.002 0.0204,0 0.0387,-0.011 0.0462,-0.0293 l 0.0502,-0.11603 c 0.005,-0.0108 0.005,-0.0231 0,-0.0345 -0.005,-0.0114 -0.0127,-0.0207 -0.0237,-0.0263 l -0.2271,-0.0961 c -0.007,-0.002 -0.0142,-0.004 -0.0222,-0.004 -0.0201,0 -0.0413,0.009 -0.0515,0.0237 -0.004,0.002 -0.17432,0.21717 -0.21939,0.32494 -0.1768,0.413 -0.0158,0.65596 0.19321,0.74595 m -0.94079,3.61347 c 9.6e-4,-0.0313 0.0127,-0.0806 0.0249,-0.10954 0,-0.002 0.046,-0.15533 0.21732,-0.15533 0.14511,0 0.1881,0.0899 0.21208,0.17943 0.0212,0.0749 0.0182,0.13507 0.0172,0.17639 -0.002,0.0349 -0.03,0.0641 -0.0694,0.0641 l -0.34051,-0.0147 c -0.0374,-4.3e-4 -0.066,-0.0324 -0.0645,-0.0689 z m -0.0203,0.55439 10e-4,-0.0672 c 0.002,-0.0365 0.0316,-0.0641 0.07,-0.0641 h 7e-4 l 0.9886,0.0431 c 0.0358,9.5e-4 0.0641,0.0331 0.0633,0.0699 l -0.002,0.0595 c -6.8e-4,0.0263 0.0196,0.0459 0.0441,0.0477 l 0.0981,0.004 h 0.002 c 0.0252,0 0.0453,-0.02 0.046,-0.0441 l 0.0204,-0.54391 c 8.2e-4,-0.011 -0.005,-0.0246 -0.012,-0.0317 -0.008,-0.0103 -0.0208,-0.0145 -0.0317,-0.0149 l -0.10128,-0.004 c -0.0241,0 -0.0444,0.0197 -0.0457,0.0434 l -0.003,0.0671 c -2.8e-4,0.0369 -0.0307,0.0645 -0.0681,0.0645 h -9.6e-4 l -0.32384,-0.0138 c -0.0226,-9.8e-4 -0.0445,-0.008 -0.0558,-0.021 -0.006,-0.006 -0.01,-0.0142 -0.008,-0.0234 0,-0.0173 0.005,-0.0558 0.01,-0.0872 10e-4,-0.004 0.0194,-0.0947 0.30909,-0.22836 0.3164,-0.14538 0.34534,-0.3146 0.34561,-0.31598 0.005,-0.0296 0.009,-0.0799 0.011,-0.11049 l 0.002,-0.0432 c 8.2e-4,-0.0248 -0.0193,-0.0459 -0.0451,-0.0482 l -0.11313,-0.004 c -0.0233,0 -0.0343,0.006 -0.0354,0.008 0.001,0.0131 -0.004,0.0659 -0.012,0.0896 -0.006,0.0175 -0.0321,0.0349 -0.10073,0.0806 -0.0413,0.0273 -0.0965,0.0634 -0.16867,0.11466 -0.10199,0.0728 -0.18812,0.1586 -0.23993,0.24295 l -0.0189,0.0213 -0.003,-0.0282 c -0.0159,-0.1064 -0.0543,-0.19597 -0.11286,-0.25869 -0.07,-0.0737 -0.1881,-0.10816 -0.26927,-0.10816 -0.0744,0 -0.15847,0.0127 -0.27629,0.10816 -0.10859,0.0868 -0.11962,0.28582 -0.11962,0.28942 -0.006,0.0292 -0.012,0.0792 -0.0134,0.10982 l -0.0208,0.58953 c -6.9e-4,0.0129 0.003,0.0244 0.0117,0.0331 0.008,0.009 0.0198,0.0136 0.0317,0.0147 l 0.0999,0.004 c 0.0254,0 0.0451,-0.02 0.0464,-0.0444 m 1.77946,-6.0621 c 0.007,0.005 0.0167,0.007 0.0255,0.007 0.014,0 0.0276,-0.006 0.0356,-0.0179 l 0.0685,-0.0968 c 0.0152,-0.0213 0.01,-0.0511 -0.01,-0.0668 l -0.0823,-0.0641 c -0.0303,-0.0224 -0.036,-0.0665 -0.0143,-0.0955 l 0.11148,-0.15875 c 0.0128,-0.0183 0.0331,-0.0291 0.0546,-0.0291 0.014,0 0.0278,0.005 0.039,0.0132 l 0.80423,0.57535 c 0.0147,0.01 0.0238,0.0251 0.0283,0.0423 0.002,0.0189 -10e-4,0.0365 -0.0117,0.0507 l -0.0354,0.0489 c -0.0141,0.0207 -0.009,0.0499 0.0117,0.0643 l 0.08,0.0562 c 0.009,0.006 0.017,0.009 0.0272,0.009 0.0145,0 0.0282,-0.007 0.0375,-0.0189 l 0.3128,-0.44553 c 0.0138,-0.0209 0.009,-0.0485 -0.0107,-0.0641 l -0.0812,-0.0558 c -0.009,-0.006 -0.0168,-0.009 -0.0266,-0.009 -0.0147,0 -0.0292,0.008 -0.0385,0.02 l -0.038,0.0544 c -0.0124,0.0182 -0.0325,0.0296 -0.0551,0.0296 -0.0131,0 -0.0261,-0.005 -0.0378,-0.0135 l -0.80546,-0.57468 c -0.0292,-0.0216 -0.0367,-0.0634 -0.0154,-0.0934 l 0.1101,-0.15696 c 0.014,-0.019 0.0349,-0.0293 0.0579,-0.0293 0.0138,0 0.0262,0.002 0.0367,0.01 l 0.0889,0.0561 c 0.007,0.004 0.0165,0.007 0.0248,0.007 0.0165,0 0.031,-0.007 0.0408,-0.0204 l 0.0681,-0.0964 c 0.006,-0.01 0.009,-0.0214 0.007,-0.0342 -0.003,-0.0109 -0.009,-0.0212 -0.0196,-0.0278 l -0.26571,-0.17117 c -0.007,-0.005 -0.016,-0.008 -0.0248,-0.008 -0.0165,0 -0.0317,0.008 -0.0398,0.0207 l -0.72056,1.02457 c -0.0149,0.0213 -0.01,0.0517 0.0105,0.0665 z m 19.82473,9.72206 c -0.006,-0.002 -0.0124,-0.005 -0.0194,-0.005 -0.0168,0 -0.0331,0.0109 -0.0401,0.0276 l -0.0478,0.10707 c -0.01,0.0234 0,0.0514 0.0219,0.0638 l 0.0943,0.0465 c 0.032,0.0172 0.048,0.0569 0.0335,0.0914 l -0.0789,0.17776 c -0.0121,0.0241 -0.035,0.04 -0.0615,0.04 -0.009,0 -0.0193,-0.002 -0.0274,-0.006 l -0.90181,-0.40555 c -0.0339,-0.0159 -0.0484,-0.0551 -0.0339,-0.0898 l 0.0248,-0.0551 c 0.0102,-0.0224 0,-0.0507 -0.0248,-0.0604 l -0.0891,-0.0393 c -0.006,-0.003 -0.0116,-0.004 -0.0186,-0.004 -0.0182,0 -0.0343,0.0103 -0.0413,0.0259 l -0.22024,0.49883 c -0.006,0.01 -0.006,0.023 -6.6e-4,0.034 0.005,0.0117 0.0131,0.0204 0.0242,0.0262 l 0.0906,0.0393 c 0.007,0.002 0.0114,0.003 0.0179,0.003 0.0183,0 0.0339,-0.0103 0.0413,-0.0268 l 0.0281,-0.0624 c 0.0113,-0.0234 0.0349,-0.0391 0.0606,-0.0391 0.01,0 0.0183,0.002 0.0287,0.006 l 0.89983,0.40636 c 0.035,0.0142 0.0491,0.0541 0.0353,0.0879 l -0.078,0.17572 c -0.0109,0.0262 -0.0357,0.0427 -0.0645,0.0427 -0.009,0 -0.0169,-0.002 -0.0253,-0.005 l -0.0968,-0.0376 c -0.005,-0.002 -0.0113,-0.004 -0.0165,-0.004 -0.0194,0 -0.0374,0.0124 -0.0456,0.0303 l -0.0471,0.10777 c -0.006,0.0112 -0.006,0.0229 -0.001,0.0339 0.005,0.0106 0.0138,0.0203 0.0239,0.0244 l 0.29422,0.11646 c 0.006,0.002 0.0106,0.002 0.0181,0.002 0.0186,0 0.0367,-0.011 0.0445,-0.0276 l 0.50613,-1.14763 c 0.0106,-0.023 0,-0.0514 -0.023,-0.0623 z m -1.81501,-3.49691 c -0.53619,-0.0203 -0.81993,-0.22419 -1.19489,-0.67649 -0.0963,-0.11504 -0.44704,-0.5636 -0.71784,-0.77142 -0.82391,-0.63415 -1.65459,-0.25287 -1.78304,-0.18602 -0.0211,-0.0903 0.32702,-0.99356 1.16099,-1.0287 0.12735,-0.006 0.26501,-0.002 0.40848,-0.006 0.16052,-0.006 0.34259,-0.0218 0.53785,-0.0731 0.38791,-0.10195 0.77763,-0.33528 1.14928,-0.81167 0.42651,1.10963 0.61461,2.33511 0.5552,3.5577 z m -1.23804,4.29895 -0.1192,-0.0749 c -0.45283,-0.28688 -0.66213,-0.52571 -0.76123,-1.10405 -0.0248,-0.14747 -0.17279,-0.75244 -0.21456,-0.90816 -0.34575,-1.26848 -1.26364,-1.24615 -1.41111,-1.25166 0.0226,-0.085 0.78398,-0.69617 1.52344,-0.30963 0.11243,0.0588 0.22998,0.13088 0.35828,0.19939 0.14002,0.0747 0.30635,0.15226 0.49953,0.2056 0.38393,0.10488 0.8333,0.0983 1.38688,-0.12291 -0.18066,1.18855 -0.59792,2.34788 -1.26203,3.36628 m -3.34461,3.02023 -0.0613,-0.11602 c -0.24942,-0.47446 -0.24406,-0.78592 -0.0402,-1.33714 0.0511,-0.13984 0.26567,-0.83989 0.29241,-0.99864 0.20821,-1.22851 -0.46316,-1.55113 -0.68544,-1.68205 0.0646,-0.0623 0.88871,-0.17832 1.33671,0.52585 0.068,0.1075 0.13296,0.22698 0.20986,0.35211 0.0847,0.13462 0.18976,0.28455 0.33169,0.42789 0.28183,0.28455 0.8019,0.47335 1.40797,0.5552 -0.79763,0.98474 -1.75056,1.74089 -2.79164,2.2728 m -4.40228,0.93638 0.005,-0.11536 c 0.0205,-0.53537 0.1228,-0.83714 0.57492,-1.21129 0.1148,-0.0955 0.57327,-0.5103 0.68034,-0.64008 0.21441,-0.2643 0.66311,-0.66146 0.53897,-1.33809 -0.0215,-0.1137 -0.0932,-0.38075 -0.16358,-0.51195 0.0871,-0.0213 0.99674,0.33309 1.03103,1.16748 0.005,0.12637 10e-4,0.26363 0.006,0.40792 0.006,0.16094 0.0212,0.34283 0.0733,0.53784 0.10198,0.38654 0.33404,0.77474 0.80616,1.14516 -1.13068,0.42993 -2.33867,0.61485 -3.55215,0.55837 m -0.93514,-14.45933 c -0.0513,0.37482 0.0441,0.70442 0.14676,0.92216 -0.0879,0.0207 -0.99452,-0.3296 -1.02979,-1.1647 -0.005,-0.12693 -10e-4,-0.26391 -0.006,-0.40901 -0.005,-0.15917 -0.0212,-0.34177 -0.0731,-0.53675 -0.10083,-0.38792 -0.3355,-0.77929 -0.81231,-1.15136 1.12571,-0.42813 2.34943,-0.61045 3.5585,-0.55425 l -0.004,0.11645 c -0.0212,0.53661 -0.14111,0.82091 -0.59161,1.19504 -0.11532,0.0951 -1.07636,0.78232 -1.1884,1.58242 m 0.28882,12.12398 c -0.0583,0.11229 -0.1313,0.22804 -0.19897,0.3562 -0.0762,0.1422 -0.15352,0.3073 -0.20644,0.50257 -0.10389,0.38174 -0.098,0.83096 0.12252,1.38465 -0.24225,-0.0372 -0.48465,-0.0817 -0.725,-0.13642 -0.98501,-0.22394 -1.92922,-0.65359 -2.78128,-1.23719 l 0.031,-0.0492 c 0.28621,-0.45406 0.82807,-0.55326 1.40684,-0.65222 0.14746,-0.0244 0.2964,-0.0492 0.44221,-0.0806 0.15931,-0.0333 0.31418,-0.0806 0.46662,-0.13299 1.23719,-0.42993 1.12666,-1.32871 1.13273,-1.47451 0.0452,0.0115 0.69688,0.77819 0.30977,1.51973 m -4.39346,0.41917 c -0.93524,-0.76383 -1.72335,-1.71771 -2.27636,-2.78059 l 0.11835,-0.0625 c 0.47311,-0.25055 0.78578,-0.31091 1.33548,-0.10721 0.14206,0.0514 0.28137,0.10442 0.42414,0.1506 0.1542,0.0499 0.89616,0.35789 1.7005,0.0269 0.35348,-0.14581 0.50976,-0.37455 0.56405,-0.51347 0.0597,0.0615 0.2056,1.03434 -0.49942,1.48223 -0.10735,0.0689 -0.22804,0.13324 -0.3507,0.20877 -0.13561,0.0857 -0.28607,0.19043 -0.42982,0.33278 -0.2811,0.27933 -0.50021,0.67208 -0.58622,1.26256 m -2.65754,-3.62631 c -0.13324,-0.34999 -0.24292,-0.70718 -0.3223,-1.0717 -0.19805,-0.83136 -0.27178,-1.66674 -0.23333,-2.48596 l 0.11783,0.004 c 0.53453,0.0211 0.78603,0.22462 1.16099,0.67635 0.0952,0.11532 0.19086,0.23149 0.29076,0.34269 0.10432,0.1144 0.21911,0.23057 0.3495,0.33665 0.2625,0.21597 0.62809,0.4323 1.04648,0.47752 0.30579,0.0324 0.72372,-0.13204 0.85644,-0.2026 l 0.0138,0.0588 c 0.0145,0.0682 -0.3495,0.93776 -1.18389,0.97265 -0.12703,0.006 -0.2643,10e-4 -0.40802,0.006 -0.16055,0.006 -0.3441,0.0214 -0.53855,0.0728 -0.38696,0.1022 -0.77777,0.3351 -1.1497,0.81188 m 0.91405,-7.99811 0.0918,0.0579 c 0.45378,0.28554 0.57534,0.68763 0.67455,1.26711 0.0249,0.14813 0.0493,0.29601 0.0812,0.44263 0.0344,0.15794 0.0754,0.31393 0.13296,0.46524 0.12171,0.31817 0.38848,0.75886 0.70859,0.9894 0.23495,0.17022 0.55675,0.25704 0.70527,0.26212 -0.0235,0.0852 -0.7863,0.69522 -1.52781,0.30938 -0.1119,-0.0582 -0.22793,-0.13091 -0.35553,-0.19914 -0.14082,-0.0751 -0.30677,-0.15297 -0.50175,-0.20627 -0.38241,-0.10446 -0.83372,-0.0979 -1.38783,0.12358 0.1954,-1.25744 0.66326,-2.45318 1.37859,-3.51191 m 2.45967,-2.42397 c 0.24694,-0.16633 0.50327,-0.31944 0.76757,-0.45642 l 0.0642,0.12224 c 0.25012,0.47406 0.24476,0.78588 0.0404,1.336 -0.052,0.14097 -0.1046,0.28155 -0.15007,0.42513 -0.0509,0.15255 -0.0921,0.30936 -0.11783,0.4699 -0.0539,0.33599 -0.0394,0.69635 0.11575,1.08868 0.14097,0.35757 0.42333,0.62353 0.55093,0.70209 -0.0631,0.0616 -1.0306,0.20945 -1.47835,-0.49611 -0.067,-0.10706 -0.13296,-0.22764 -0.21001,-0.35098 -0.0842,-0.13613 -0.18948,-0.28663 -0.33016,-0.42926 -0.28046,-0.28359 -0.67497,-0.50299 -1.26782,-0.58744 0.55909,-0.69109 1.23501,-1.30803 2.01539,-1.82383 m 5.81875,0.94848 c 0.0588,-0.11229 0.13162,-0.22941 0.19886,-0.35729 0.0755,-0.14016 0.1542,-0.30664 0.20645,-0.50066 0.1047,-0.38337 0.098,-0.83401 -0.1239,-1.38727 1.16844,0.17459 2.2921,0.57711 3.26044,1.20234 0.0331,0.0218 0.0678,0.0452 0.10266,0.0668 l -0.071,0.11204 c -0.28677,0.45434 -0.5249,0.66421 -1.1038,0.76302 -0.14842,0.0245 -0.75435,0.16715 -0.9088,0.21403 -1.14187,0.34724 -1.24495,1.26118 -1.25126,1.40656 -0.085,-0.0234 -0.69579,-0.77886 -0.30967,-1.51959 m 3.85727,0.87743 c 0.28346,-0.27933 0.50299,-0.67416 0.58801,-1.26601 0.91684,0.75681 1.73648,1.74074 2.27641,2.84868 l -0.0215,0.0117 c -0.47474,0.24984 -0.93278,0.2636 -1.48372,0.0599 -0.14044,-0.0524 -0.73656,-0.2322 -0.89422,-0.26734 -1.0929,-0.25424 -1.6976,0.3707 -1.78869,0.59352 -0.062,-0.0637 -0.16164,-0.99219 0.54363,-1.43923 0.10735,-0.0686 0.22793,-0.13296 0.35098,-0.20945 0.13632,-0.0845 0.28678,-0.18947 0.42912,-0.33182 m 3.21278,1.52823 c -0.7385,-1.56502 -2.00769,-2.89182 -3.34659,-3.732 -2.81957,-1.82149 -6.88093,-1.83416 -9.72837,0.0972 -3.25314,2.15043 -4.72172,5.96484 -3.83978,9.70305 0.70376,3.19013 3.46467,5.92733 6.62023,6.63977 3.33156,0.77364 6.88552,-0.24871 9.19759,-3.10829 2.23806,-2.68609 2.54469,-6.64753 1.09693,-9.59969 m 3.06832,5.87869 -0.10541,-0.0203 c -0.0212,0 -0.0395,0.0158 -0.0459,0.0358 l -0.0124,0.0671 c -0.006,0.0294 -0.0325,0.0507 -0.0747,0.0507 h -0.004 l -0.96693,-0.2099 c -0.0167,-0.003 -0.0321,-0.0145 -0.0413,-0.0285 -0.0109,-0.0145 -0.0136,-0.0328 -0.0109,-0.0503 l 0.0127,-0.0587 c 0.003,-0.0123 0,-0.0244 -0.006,-0.0347 -0.007,-0.011 -0.0183,-0.0172 -0.0281,-0.0197 l -0.10693,-0.0221 c -0.0215,0 -0.0406,0.016 -0.0445,0.0362 l -0.21371,1.01703 c -0.005,0.0241 0.0118,0.0505 0.0353,0.0583 l 0.34381,0.0926 c 0.0205,0 0.0368,-0.0158 0.0418,-0.0347 l 0.0278,-0.12997 c 0.004,-0.0241 -0.0113,-0.0513 -0.036,-0.0599 l -0.12664,-0.042 c -0.0349,-0.012 -0.0568,-0.0503 -0.049,-0.0857 l 0.0646,-0.31228 c 0.007,-0.0292 0.0317,-0.0508 0.0751,-0.0508 h 0.005 l 0.33859,0.0723 c 0.036,0.009 0.0583,0.0441 0.0504,0.0798 l -0.066,0.31874 c -0.002,0.011 0,0.0238 0.007,0.034 0.007,0.01 0.0179,0.017 0.0292,0.0193 l 0.10541,0.0215 c 0.0226,0 0.0405,-0.0148 0.0459,-0.0358 l 0.0663,-0.3156 c 0.006,-0.0307 0.0307,-0.0524 0.073,-0.0524 h 0.006 l 0.31143,0.0675 c 0.0353,0.007 0.0583,0.0434 0.0509,0.0792 l -0.0653,0.31281 c -0.006,0.0317 -0.0367,0.0561 -0.0779,0.0561 h -6.6e-4 l -0.10996,-0.0131 c -0.023,0 -0.0457,0.0179 -0.0506,0.0407 l -0.0229,0.10954 c -0.003,0.0138 0,0.0241 0.006,0.0349 0.007,0.01 0.0172,0.0164 0.0301,0.0182 l 0.31006,0.0551 0.009,7.1e-4 c 0.0215,0 0.0427,-0.0168 0.0455,-0.0386 l 0.21262,-1.0076 c 0.001,-0.0124 0,-0.0241 -0.007,-0.0349 -0.007,-0.01 -0.0176,-0.0175 -0.0301,-0.0207 m -18.81673,-10.11576 0.004,-0.001 h 0.004 c 0.002,0 0.007,0 0.0562,0.0276 l 0.42528,0.23523 c 0.0157,0.008 0.0252,0.022 0.0266,0.0375 0.002,0.016 -0.004,0.0328 -0.017,0.0445 l -0.21068,0.1954 c -0.0109,0.01 -0.0226,0.0154 -0.0356,0.0154 -0.0186,0 -0.0357,-0.0117 -0.0435,-0.0331 l -0.19226,-0.45504 c -0.0249,-0.0597 -0.0229,-0.0599 -0.0165,-0.0661 m 0.21111,1.20566 c 0.0119,0.0314 9.5e-4,0.0773 -0.0248,0.10142 l -0.0293,0.0281 c -0.0182,0.0176 -0.02,0.0463 -0.002,0.0635 l 0.0666,0.073 c 0.01,0.01 0.0216,0.0147 0.0341,0.0147 0.0123,0 0.0229,-0.004 0.0317,-0.0124 l 0.36752,-0.34107 c 0.0179,-0.0183 0.0199,-0.0465 0.003,-0.0648 l -0.0678,-0.0731 c -0.009,-0.01 -0.0211,-0.014 -0.0333,-0.014 -0.0117,0 -0.0234,0.004 -0.0318,0.0113 l -0.0293,0.0275 c -0.0108,0.0101 -0.0229,0.0163 -0.0356,0.0163 -0.0193,0 -0.0363,-0.0131 -0.0441,-0.0331 l -0.0727,-0.18369 c -0.014,-0.0331 -0.004,-0.0797 0.0222,-0.1009 l 0.29972,-0.29488 c 0.0149,-0.0138 0.0379,-0.0218 0.0616,-0.0218 0.0147,0 0.0292,0.002 0.0411,0.0103 l 0.17544,0.10057 c 0.0163,0.008 0.0262,0.0228 0.0275,0.0386 0.002,0.0158 -0.005,0.031 -0.0176,0.0438 l -0.0292,0.0278 c -0.009,0.008 -0.0138,0.0196 -0.0149,0.031 0,0.0124 0.004,0.0246 0.012,0.0327 l 0.067,0.0732 c 0.009,0.009 0.0212,0.0147 0.0332,0.0147 0.0128,0 0.0229,-0.005 0.0321,-0.0124 l 0.3937,-0.36685 c 0.0186,-0.0176 0.0197,-0.0462 0.003,-0.0652 l -0.0671,-0.0717 c -0.009,-0.01 -0.0208,-0.0145 -0.0332,-0.0145 -0.0119,0 -0.0229,0.004 -0.031,0.011 l -0.0292,0.0283 c -0.0166,0.0148 -0.0405,0.0245 -0.066,0.0245 -0.0145,0 -0.0274,-0.003 -0.0387,-0.009 l -1.17341,-0.57383 c -0.007,-0.004 -0.0169,-0.007 -0.0289,-0.007 -0.0197,0 -0.0385,0.007 -0.0503,0.0175 l -0.16454,0.15378 c -0.0193,0.0175 -0.0282,0.0533 -0.019,0.0795 z m -2.99312,9.15404 c -0.009,0.0103 -0.0204,0.0162 -0.0434,0.0162 h -0.005 l -0.48796,-0.0806 c -0.0623,-0.01 -0.0627,-0.0131 -0.0634,-0.0193 -0.002,-0.009 -0.002,-0.0103 0.0543,-0.0417 l 0.42512,-0.23428 c 0.008,-0.005 0.0187,-0.008 0.0269,-0.008 0.024,0 0.0434,0.0165 0.0485,0.0434 l 0.0535,0.28151 c 0.003,0.0159 -10e-4,0.031 -0.009,0.0423 m 0.60578,0.45128 0.008,0.0397 c 0.004,0.0223 0.0226,0.0379 0.0445,0.0379 l 0.009,-7.2e-4 0.0967,-0.0186 c 0.012,-0.003 0.0233,-0.009 0.0296,-0.0194 0.007,-0.01 0.0106,-0.0226 0.007,-0.035 l -0.0945,-0.49237 c -0.004,-0.021 -0.0209,-0.0365 -0.0503,-0.0365 h -0.002 l -0.0984,0.0186 c -0.0247,0.004 -0.0413,0.0287 -0.0357,0.0531 l 0.007,0.0395 c 0.004,0.0167 -6.9e-4,0.0328 -0.0102,0.0429 -0.007,0.01 -0.0192,0.0158 -0.0427,0.0158 h -0.005 l -0.19333,-0.0356 c -0.035,-0.007 -0.0681,-0.0386 -0.0747,-0.073 l -0.0886,-0.41067 c -0.007,-0.0349 0.0112,-0.0767 0.0441,-0.0933 l 0.17845,-0.0959 c 0.01,-0.004 0.0179,-0.007 0.0273,-0.007 0.0242,0 0.0422,0.0172 0.0485,0.0427 l 0.007,0.04 c 0.005,0.0204 0.0222,0.0358 0.0515,0.0358 h 0.002 l 0.0965,-0.0182 c 0.0258,-0.005 0.0412,-0.0273 0.0378,-0.0542 l -0.10087,-0.52914 c -0.005,-0.02 -0.0226,-0.0358 -0.0515,-0.0358 h -0.003 l -0.0959,0.0186 c -0.0128,0.002 -0.0232,0.009 -0.0299,0.0193 -0.006,0.0107 -0.008,0.0224 -0.006,0.0347 l 0.007,0.039 c 0.006,0.0356 -0.0123,0.0779 -0.042,0.0951 l -1.11043,0.68972 c -0.023,0.0138 -0.0373,0.0478 -0.0325,0.0737 l 0.0423,0.22048 c 0.004,0.0259 0.0306,0.0528 0.0572,0.0576 l 1.2926,0.26557 c 0.0335,0.008 0.0667,0.0404 0.0737,0.0751 m 0.75942,1.48664 c -0.008,-0.0169 -0.0247,-0.0276 -0.0423,-0.0276 -0.007,0 -0.0137,6.7e-4 -0.0183,0.003 l -0.0896,0.0406 c -0.0251,0.0103 -0.035,0.0365 -0.0251,0.0613 l 0.0275,0.0604 c 0.0154,0.0348 0,0.0733 -0.0343,0.0889 l -0.3576,0.15558 c -0.008,0.004 -0.0159,0.006 -0.0219,0.006 -0.0106,0 -0.018,-0.005 -0.0241,-0.01 -0.004,-0.008 -0.008,-0.0193 -2.6e-4,-0.0396 l 0.20712,-0.58057 c 0.0102,-0.0251 0.0244,-0.0292 0.0314,-0.0292 0.007,0 0.0208,0.004 0.0307,0.0276 l 0.009,0.0223 c 0.008,0.0165 0.0248,0.0255 0.0427,0.0255 0.007,0 0.0121,-9.5e-4 0.0181,-0.004 l 0.0904,-0.0393 c 0.0231,-0.0106 0.0333,-0.0379 0.0238,-0.0599 l -0.21868,-0.49265 c -0.007,-0.0165 -0.0233,-0.0271 -0.0419,-0.0271 -0.006,0 -0.0124,5.3e-4 -0.018,0.004 l -0.0907,0.0393 c -0.0106,0.006 -0.0194,0.0149 -0.0233,0.0259 -0.005,0.0117 -0.005,0.0237 0,0.0351 l 0.01,0.0227 c 0.0138,0.0292 0.0152,0.0799 0.003,0.1119 l -0.24653,0.68005 c -0.009,0.0246 -0.032,0.0411 -0.0593,0.0411 -0.007,0 -0.0168,-10e-4 -0.0245,-0.005 l -0.60924,-0.26962 c -0.0309,-0.0126 -0.0653,-0.0487 -0.0791,-0.0783 l -0.01,-0.0221 c -0.008,-0.0165 -0.0244,-0.0265 -0.0416,-0.0265 -0.007,0 -0.0131,6.6e-4 -0.0191,0.003 l -0.0903,0.0397 c -0.0109,0.006 -0.0203,0.0143 -0.0236,0.0241 -0.004,0.0123 -0.004,0.0262 0,0.0361 l 0.20974,0.47237 c 0.007,0.0168 0.0229,0.0276 0.042,0.0276 0.006,0 0.012,-0.002 0.0176,-0.004 l 0.09,-0.0393 c 0.012,-0.005 0.02,-0.0151 0.026,-0.0263 0.003,-0.0106 0.003,-0.024 -10e-4,-0.0351 l -0.0233,-0.052 c -0.009,-0.0203 -0.007,-0.0313 -0.002,-0.0372 l 0.0165,-0.012 h 0.005 c 0.007,0 0.0146,0.003 0.023,0.006 l 0.58704,0.257 c 0.024,0.0114 0.0267,0.0245 0.0267,0.0321 0,0.006 -0.004,0.0214 -0.0267,0.0313 l -0.36449,0.1578 c -0.009,0.003 -0.0165,0.005 -0.0262,0.005 -0.0267,0 -0.0515,-0.0161 -0.0624,-0.0405 l -0.0243,-0.0541 c -0.007,-0.0165 -0.0234,-0.0265 -0.0413,-0.0265 -0.007,0 -0.0124,0.002 -0.0192,0.004 l -0.0905,0.039 c -0.01,0.005 -0.0183,0.0152 -0.0236,0.0258 -0.004,0.0114 -0.004,0.0245 5.5e-4,0.0351 l 0.22089,0.4972 c 0.007,0.0161 0.0222,0.0268 0.0413,0.0268 0.007,0 0.0125,-0.002 0.0186,-0.004 l 0.0907,-0.0394 c 0.0226,-0.0113 0.0332,-0.0371 0.023,-0.0598 l -0.0276,-0.0631 c -0.007,-0.0165 -0.008,-0.0348 -6.9e-4,-0.051 0.006,-0.0165 0.0186,-0.0303 0.0345,-0.0368 l 0.90813,-0.39493 c 0.009,-0.003 0.0165,-0.005 0.0266,-0.005 0.0266,0 0.0507,0.0155 0.0616,0.0403 l 0.0242,0.0544 c 0.008,0.0163 0.0233,0.0266 0.042,0.0266 0.007,0 0.0124,0 0.0179,-0.004 l 0.0908,-0.0395 c 0.0229,-0.01 0.0331,-0.0372 0.0229,-0.0604 z m 11.04459,-13.86554 0.47858,0.13642 c 0.0212,0 0.0394,-0.0134 0.0445,-0.0331 l 0.0271,-0.0944 c 0.004,-0.0117 0.003,-0.0241 -0.004,-0.0347 -0.005,-0.0101 -0.0156,-0.019 -0.0267,-0.0214 l -0.0656,-0.0193 c -0.0178,-0.005 -0.0316,-0.0169 -0.0408,-0.0314 -0.008,-0.0159 -0.009,-0.0348 -0.005,-0.0506 l 0.21841,-0.7294 c 0.0156,-0.0579 0.0205,-0.0616 0.029,-0.0616 h 0.002 c 0.006,0.002 0.008,0.002 0.0303,0.0596 l 0.44249,1.16484 c 0.008,0.0255 0.0412,0.0544 0.0674,0.0609 l 0.11038,0.0328 c 0.004,0.002 0.009,0.002 0.0124,0.002 0.0211,0 0.0394,-0.0145 0.0458,-0.0345 l 0.34054,-1.15094 c 0.008,-0.0283 0.0349,-0.0489 0.0642,-0.0489 0.005,0 0.0127,0.002 0.0182,0.003 l 0.0696,0.0183 c 0.0201,0 0.0389,-0.0131 0.0441,-0.0328 l 0.028,-0.0944 c 0.003,-0.012 0.001,-0.0244 -0.005,-0.0347 -0.005,-0.0103 -0.0158,-0.019 -0.0268,-0.0225 l -0.47887,-0.13599 c -0.0211,0 -0.0387,0.0138 -0.0451,0.0327 l -0.0269,0.0951 c -0.007,0.0234 0.008,0.0496 0.0316,0.0569 l 0.0652,0.0196 c 0.0172,0.003 0.031,0.0158 0.0398,0.0307 0.009,0.0161 0.0105,0.0333 0.006,0.0499 l -0.20394,0.68009 c -0.0163,0.0523 -0.0192,0.0599 -0.0289,0.0599 -0.002,0 -0.004,0 -0.006,-7.1e-4 -0.002,-0.003 -0.006,-0.004 -0.0264,-0.0588 l -0.41742,-1.10078 c -0.0101,-0.0264 -0.0413,-0.0544 -0.067,-0.0634 l -0.33791,-0.0951 c -0.0199,0 -0.0384,0.0138 -0.0434,0.0338 l -0.028,0.0948 c -0.003,0.0113 -0.002,0.0235 0.004,0.0348 0.006,0.0108 0.0163,0.0186 0.0261,0.0218 l 0.0664,0.0182 c 0.0161,0.006 0.0321,0.0172 0.0393,0.0324 0.0101,0.0169 0.0119,0.0342 0.007,0.0516 l -0.28237,0.94785 c -0.009,0.0278 -0.0342,0.0485 -0.0645,0.0485 -0.005,0 -0.0125,-0.002 -0.0193,-0.003 l -0.0693,-0.0176 c -0.02,0 -0.0381,0.0135 -0.0444,0.0314 l -0.0263,0.0958 c -0.004,0.0124 -0.003,0.0241 0.003,0.0345 0.007,0.0103 0.0156,0.0189 0.0277,0.0216 m 7.66121,4.16581 c 0.009,-0.005 0.0211,-0.008 0.0321,-0.008 0.0247,0 0.0468,0.0117 0.0586,0.0345 0.002,0.002 0.0577,0.09 0.0688,0.1688 0.002,0.001 0.0423,0.15614 -0.10337,0.24599 -0.0275,0.0165 -0.0579,0.0245 -0.0898,0.0245 -0.11479,0 -0.21389,-0.11094 -0.2172,-0.11507 -0.0231,-0.0218 -0.0563,-0.0631 -0.0743,-0.0958 -0.008,-0.0163 -0.01,-0.0344 -0.006,-0.0517 0.005,-0.0172 0.0163,-0.0305 0.0329,-0.039 z m -0.11195,-0.33789 c 0.008,0.0158 0.0107,0.034 0.006,0.0513 -0.005,0.0186 -0.0168,0.031 -0.0332,0.04 l -0.86624,0.47611 c -0.0103,0.006 -0.0212,0.009 -0.0322,0.009 -0.0254,0 -0.0475,-0.0141 -0.0592,-0.0348 l -0.0292,-0.0528 c -0.008,-0.0151 -0.0233,-0.0237 -0.0401,-0.0237 -0.008,0 -0.0153,0.003 -0.0217,0.006 l -0.0864,0.0485 c -0.0219,0.0117 -0.031,0.04 -0.0169,0.0617 l 0.26458,0.47501 c 0.007,0.0145 0.0229,0.0228 0.0395,0.0228 0.007,0 0.0154,-9.8e-4 0.0215,-0.006 l 0.0871,-0.048 c 0.0215,-0.0124 0.0296,-0.0393 0.0172,-0.0623 l -0.0324,-0.059 c -0.01,-0.0154 -0.011,-0.0338 -0.006,-0.0513 0.006,-0.0165 0.0168,-0.031 0.031,-0.0386 l 0.28444,-0.15709 c 0.0154,-0.008 0.031,-0.0139 0.0455,-0.0139 0.0165,0 0.0278,0.007 0.0335,0.0176 0.008,0.0145 0.0247,0.0503 0.0356,0.0803 0.002,0.003 0.0332,0.0912 -0.14481,0.35694 -0.1953,0.2873 -0.13205,0.44743 -0.13067,0.44909 0.0105,0.0287 0.0328,0.0732 0.0488,0.0994 l 0.0203,0.0368 c 0.008,0.0151 0.0241,0.0238 0.0397,0.0238 0.008,0 0.0156,-10e-4 0.0226,-0.005 l 0.0963,-0.0538 c 0.0215,-0.0117 0.0353,-0.0193 -0.006,-0.10749 -0.0163,-0.0351 0.007,-0.0785 0.0448,-0.1433 0.0258,-0.0462 0.0593,-0.10446 0.0875,-0.1771 0.0262,-0.0665 0.0602,-0.17568 0.074,-0.31803 l 0.002,-0.0175 h 0.008 c 0.006,0 0.009,0 0.0514,0.0406 8.2e-4,0 0.0544,0.0492 0.0996,0.0754 0.0624,0.0365 0.12414,0.0534 0.18577,0.0534 0.0632,0 0.12647,-0.0169 0.18891,-0.0534 0.20987,-0.11991 0.24473,-0.36478 0.0905,-0.63666 l -0.28776,-0.51678 c -0.008,-0.0145 -0.0231,-0.0227 -0.0398,-0.0227 -0.008,0 -0.0161,0.002 -0.0236,0.006 l -0.085,0.0489 c -0.0114,0.006 -0.0185,0.014 -0.0212,0.0266 -0.004,0.0117 -0.003,0.0237 0.004,0.0351 z m -1.34415,-1.7471 c 0.0121,0.0124 0.0178,0.0296 0.0163,0.0473 -9.5e-4,0.0179 -0.009,0.0351 -0.0236,0.0462 l -0.7487,0.6452 c -0.0116,0.011 -0.0277,0.0165 -0.0451,0.0165 -0.0183,0 -0.0373,-0.008 -0.0495,-0.0223 l -0.0398,-0.0459 c -0.008,-0.01 -0.0212,-0.0147 -0.0353,-0.0147 -0.0102,0 -0.0212,0.004 -0.0287,0.0103 l -0.0751,0.0655 c -0.009,0.008 -0.0145,0.0193 -0.0154,0.031 -9.6e-4,0.012 0.003,0.0251 0.0121,0.0334 l 0.68389,0.78161 c 0.007,0.0103 0.0212,0.0167 0.0353,0.0167 0.012,0 0.0226,-0.003 0.0305,-0.01 l 0.27256,-0.21195 c 0.0102,-0.006 0.0156,-0.0172 0.0165,-0.0296 10e-4,-0.0106 -0.003,-0.0228 -0.0109,-0.031 l -0.0864,-0.0995 c -0.01,-0.0101 -0.0255,-0.0176 -0.0402,-0.0176 -0.0109,0 -0.0204,0.003 -0.0293,0.009 l -0.11039,0.0757 c -0.0105,0.009 -0.0261,0.0135 -0.0412,0.0135 -0.0222,0 -0.0424,-0.01 -0.0565,-0.0251 l -0.21,-0.24088 c -0.0119,-0.0134 -0.0175,-0.0303 -0.0158,-0.0482 6.6e-4,-0.0183 0.009,-0.0345 0.0229,-0.0458 l 0.26155,-0.22641 c 0.012,-0.011 0.0287,-0.0161 0.0441,-0.0161 0.0199,0 0.0385,0.007 0.0505,0.0227 l 0.21551,0.24462 c 0.008,0.01 0.0201,0.0165 0.0343,0.0165 0.01,0 0.0215,-0.005 0.0289,-0.0126 l 0.0744,-0.0643 c 0.01,-0.009 0.0138,-0.02 0.0154,-0.031 0.001,-0.0135 -0.003,-0.0244 -0.011,-0.0333 l -0.21223,-0.24296 c -0.012,-0.0141 -0.0187,-0.0327 -0.0169,-0.0499 0.002,-0.0181 0.0109,-0.0331 0.0237,-0.0448 l 0.24115,-0.20849 c 0.012,-0.0103 0.0276,-0.0165 0.0441,-0.0165 0.0194,0 0.0382,0.01 0.0505,0.0232 l 0.21001,0.23936 c 0.024,0.0286 0.0226,0.071 -0.002,0.0978 l -0.0748,0.0758 c -0.0158,0.019 -0.0172,0.05 0,0.0703 l 0.0733,0.0847 c 0.009,0.008 0.0212,0.0149 0.0339,0.0149 0.0106,0 0.0212,-0.004 0.0301,-0.0114 l 0.23097,-0.21664 c 0.0189,-0.0176 0.0198,-0.0466 0.003,-0.0659 l -0.68023,-0.77611 c -0.006,-0.01 -0.02,-0.0152 -0.0328,-0.0152 -0.011,0 -0.0219,0.004 -0.0299,0.0113 l -0.0742,0.0638 c -0.01,0.009 -0.0151,0.0207 -0.0161,0.0327 -5.3e-4,0.0117 0.002,0.0231 0.0109,0.0331 z m 1.82382,4.38768 c 0.0128,0.18605 0.0266,0.36036 -0.1276,0.40791 -0.0218,0.008 -0.0455,0.0117 -0.067,0.0117 -0.109,0 -0.19967,-0.0905 -0.24832,-0.24903 -0.024,-0.0765 -0.0321,-0.21675 -0.0332,-0.22225 -0.002,-0.0358 0.0223,-0.0731 0.0561,-0.0862 l 0.0871,-0.0321 c 0.0237,-0.01 0.0371,-0.0364 0.0294,-0.0605 l -0.0378,-0.12168 c -0.005,-0.0175 -0.0208,-0.0299 -0.0495,-0.0299 h -0.007 l -0.26596,0.0825 c -0.0249,0.007 -0.0451,0.0353 -0.0437,0.0631 0,0.003 0.01,0.2836 0.0565,0.43201 0.13339,0.4341 0.37882,0.49929 0.51277,0.49929 0.046,0 0.0918,-0.008 0.13765,-0.0225 0.30455,-0.0937 0.28607,-0.36245 0.26956,-0.60015 -0.0138,-0.17871 -0.0247,-0.34865 0.11959,-0.39299 0.0208,-0.006 0.0409,-0.009 0.0593,-0.009 0.10199,0 0.18479,0.0836 0.23082,0.23054 0.0179,0.0596 0.0242,0.15737 0.0249,0.16221 0.003,0.0347 -0.0222,0.0734 -0.0558,0.0868 l -0.067,0.0252 c -0.024,0.008 -0.0378,0.0351 -0.0282,0.0595 l 0.0364,0.12196 c 0.006,0.0176 0.0211,0.0294 0.0497,0.0294 h 0.007 l 0.2358,-0.0724 c 0.0258,-0.008 0.0457,-0.0372 0.0446,-0.0628 0,-0.003 -0.009,-0.27823 -0.0441,-0.38915 -0.0905,-0.29601 -0.2709,-0.46577 -0.49375,-0.46577 -0.0438,0 -0.091,0.008 -0.13613,0.0216 -0.28801,0.0896 -0.26843,0.3514 -0.25206,0.58289 m -4.05973,-4.65251 0.15737,0.12221 c 0.011,0.009 0.0285,0.0149 0.046,0.0149 0.0135,0 0.0256,-0.003 0.0347,-0.009 l 1.13979,-0.64353 c 0.0135,-0.007 0.0286,-0.0106 0.046,-0.0106 0.0229,0 0.0443,0.007 0.0597,0.0182 l 0.0245,0.02 c 0.007,0.007 0.0182,0.01 0.0276,0.01 0.0149,0 0.0287,-0.006 0.0367,-0.0172 l 0.062,-0.0781 c 0.007,-0.01 0.0108,-0.0214 0.008,-0.0335 -10e-4,-0.012 -0.008,-0.0227 -0.0168,-0.0306 l -0.40531,-0.31831 c -0.008,-0.006 -0.0183,-0.009 -0.0284,-0.009 -0.0147,0 -0.0282,0.006 -0.0367,0.0172 l -0.0606,0.0778 c -0.007,0.01 -0.011,0.0214 -0.009,0.0342 5.3e-4,0.0113 0.008,0.0221 0.0175,0.0299 l 0.0551,0.0445 c 0.0148,0.0106 0.0226,0.0258 0.0214,0.0405 -9.5e-4,0.016 -0.01,0.0305 -0.026,0.0408 l -0.83613,0.52395 c -0.0405,0.0262 -0.0508,0.03 -0.0562,0.03 -0.002,0 -0.002,-4e-4 -0.005,-4e-4 -0.007,-0.003 -0.0106,-0.006 0.0102,-0.0685 l 0.30826,-0.93955 c 0.007,-0.0223 0.0248,-0.0368 0.0459,-0.0368 0.0103,0 0.0219,0.006 0.0332,0.0141 l 0.0308,0.0241 c 0.008,0.007 0.0175,0.0103 0.0289,0.0103 0.0138,0 0.0275,-0.007 0.0357,-0.0175 l 0.0613,-0.0782 c 0.0154,-0.0197 0.012,-0.0476 -0.007,-0.0641 l -0.42412,-0.33239 c -0.009,-0.006 -0.0169,-0.009 -0.0278,-0.009 -0.0149,0 -0.0285,0.007 -0.036,0.0179 l -0.0615,0.0776 c -0.0156,0.02 -0.012,0.0485 0.009,0.0627 l 0.031,0.0265 c 0.0276,0.0214 0.042,0.0648 0.0331,0.0999 l -0.35083,1.26227 c -0.008,0.0252 0.004,0.0604 0.0245,0.0776 m 3.98088,6.27239 -0.008,-0.0599 c -0.004,-0.0227 -0.0226,-0.0382 -0.0515,-0.0382 h -9.8e-4 l -0.098,0.0134 c -0.0247,0.003 -0.042,0.0275 -0.0384,0.0521 l 0.0781,0.53813 c 0.003,0.0221 0.0215,0.0386 0.0457,0.0386 h 0.005 l 0.0982,-0.0145 c 0.0249,-0.004 0.0415,-0.0259 0.0385,-0.0517 l -0.0102,-0.0659 c -0.003,-0.019 0.002,-0.0365 0.0123,-0.0514 0.0117,-0.014 0.0271,-0.023 0.0444,-0.0247 l 0.98954,-0.13476 c 0.0332,0 0.0617,0.0248 0.0671,0.0586 l 0.007,0.0592 c 0.004,0.0221 0.0218,0.0383 0.0507,0.0383 h 10e-4 l 0.0981,-0.0138 c 0.0123,-0.002 0.0223,-0.008 0.0301,-0.0179 0.007,-0.01 0.0106,-0.0225 0.009,-0.0338 l -0.0773,-0.53784 c -0.004,-0.0234 -0.0222,-0.0395 -0.0504,-0.0395 h -0.002 l -0.0973,0.0134 c -0.0117,0.001 -0.0223,0.009 -0.0307,0.0176 -0.007,0.0109 -0.01,0.0227 -0.008,0.0344 l 0.009,0.0678 c 0.004,0.0172 -0.002,0.0358 -0.0127,0.0496 -0.012,0.0142 -0.026,0.0234 -0.0441,0.0255 l -0.98848,0.13366 c -0.0341,0 -0.0624,-0.0248 -0.067,-0.0565 m -15.7352,-7.98639 0.11356,-0.0658 c 0.0275,-0.0158 0.0743,-0.0379 0.10266,-0.0475 0.007,-0.004 0.14002,-0.0544 0.25315,-0.0544 0.0271,0 0.0508,0.002 0.0717,0.008 0.1148,0.0354 0.20077,0.0912 0.31641,0.28829 0.12361,0.21015 0.11641,0.41162 0.0714,0.5202 -0.0506,0.12129 -0.19621,0.21125 -0.20104,0.21361 -0.0205,0.0193 -0.16828,0.11092 -0.17502,0.1148 -0.011,0.007 -0.0229,0.009 -0.0339,0.009 -0.0233,0 -0.0459,-0.0131 -0.0569,-0.0333 l -0.48673,-0.86195 c -0.0176,-0.0328 -0.007,-0.0735 0.0248,-0.0914 m -0.48299,0.22324 c 0.009,0.0155 0.0242,0.0241 0.0397,0.0241 0.009,0 0.0156,-0.003 0.023,-0.006 l 0.0597,-0.0345 c 0.009,-0.005 0.0211,-0.008 0.0321,-0.008 0.0243,0 0.0469,0.0124 0.0579,0.0334 l 0.48782,0.86085 c 0.0174,0.0318 0.006,0.0732 -0.026,0.0914 l -0.0509,0.0306 c -0.0221,0.0117 -0.0303,0.0408 -0.0176,0.0617 l 0.0487,0.0868 c 0.009,0.0142 0.0244,0.0218 0.0411,0.0218 0.008,0 0.0152,-0.002 0.0222,-0.005 l 0.52257,-0.30082 c 0.0259,-0.0147 0.0679,-0.0424 0.0933,-0.0602 0.002,-0.002 0.20645,-0.14884 0.29217,-0.28388 0.0532,-0.0797 0.20394,-0.3707 -0.0165,-0.75487 -0.15491,-0.27009 -0.33927,-0.40129 -0.56378,-0.40129 -0.092,0 -0.19332,0.0227 -0.3019,0.0668 -0.0954,0.0386 -0.16772,0.0809 -0.19555,0.0961 l -0.57919,0.3332 c -0.0222,0.0131 -0.0299,0.042 -0.0167,0.0634 z m 2.74807,-0.61394 c 0.0599,0 0.121,-0.006 0.18616,-0.0106 0.0569,-0.006 0.11261,-0.0103 0.16415,-0.0103 0.0934,0 0.20641,0.0154 0.24391,0.13158 0.0249,0.0765 0.0119,0.14538 -0.0386,0.20395 -0.043,0.0478 -0.1093,0.0885 -0.19336,0.11645 -0.0772,0.0244 -0.21717,0.0348 -0.22888,0.0348 -0.0336,0 -0.07,-0.0234 -0.08,-0.0551 l -0.0343,-0.0857 c -0.006,-0.0176 -0.0223,-0.0296 -0.0522,-0.0296 h -0.009 l -0.1199,0.0393 c -0.011,0.004 -0.0212,0.0124 -0.0268,0.0227 -0.005,0.0113 -0.005,0.023 -0.003,0.0348 l 0.0849,0.26497 c 0.009,0.0237 0.0361,0.0444 0.0618,0.0444 h 0.003 c 0.002,0 0.28261,-0.014 0.43216,-0.063 0.2202,-0.0707 0.36928,-0.17639 0.44192,-0.31419 0.0739,-0.13987 0.0492,-0.27425 0.0266,-0.34216 -0.0777,-0.24144 -0.2661,-0.27287 -0.42263,-0.27287 -0.0583,0 -0.11758,0.006 -0.18178,0.0108 -0.0553,0.004 -0.10887,0.01 -0.15875,0.01 -0.0918,0 -0.20024,-0.0138 -0.23566,-0.1258 -0.0412,-0.12499 0.0405,-0.23386 0.2183,-0.29147 0.0579,-0.0189 0.15681,-0.0262 0.16591,-0.0275 0.0343,0 0.0697,0.0241 0.0825,0.0558 l 0.0255,0.0659 c 0.007,0.0165 0.0242,0.029 0.0532,0.029 h 0.008 l 0.12057,-0.039 c 0.0114,-0.003 0.0215,-0.0124 0.0262,-0.0227 0.006,-0.011 0.007,-0.023 0.003,-0.034 l -0.0761,-0.23428 c -0.007,-0.0255 -0.0353,-0.0448 -0.062,-0.0448 -0.003,0 -0.27876,0.0133 -0.38943,0.0478 -0.18715,0.0606 -0.32427,0.1578 -0.39772,0.2763 -0.0656,0.10858 -0.0787,0.23329 -0.0379,0.35898 0.0725,0.2267 0.25178,0.2563 0.40019,0.2563 m 8.25363,1.31508 c 0.007,0.004 0.0135,0.005 0.0205,0.005 0.0175,0 0.0327,-0.01 0.0401,-0.0258 l 0.0448,-0.0872 c 0.0124,-0.0233 0.004,-0.0506 -0.0182,-0.0619 l -0.0616,-0.031 c -0.0154,-0.008 -0.0274,-0.0234 -0.0333,-0.04 -0.005,-0.0163 -0.003,-0.0348 0.004,-0.0503 l 0.45781,-0.87686 c 0.0114,-0.0223 0.0343,-0.0358 0.0602,-0.0358 0.0105,0 0.0201,0.002 0.0303,0.007 l 0.0523,0.0268 c 0.007,0.003 0.014,0.004 0.0219,0.004 0.0164,0 0.0332,-0.009 0.0402,-0.0241 l 0.0457,-0.0882 c 0.006,-0.0117 0.007,-0.023 0.002,-0.0351 -0.004,-0.0117 -0.0121,-0.0209 -0.023,-0.0255 l -0.48327,-0.24832 c -0.007,-0.004 -0.0145,-0.006 -0.0212,-0.006 -0.0176,0 -0.0331,0.0101 -0.0401,0.0252 l -0.0452,0.0882 c -0.0113,0.023 -0.003,0.0499 0.0186,0.0623 l 0.0612,0.0307 c 0.0156,0.008 0.0274,0.0214 0.0331,0.0386 0.006,0.0175 0.004,0.0354 -0.005,0.051 l -0.45614,0.87711 c -0.0125,0.0213 -0.0354,0.0358 -0.0609,0.0358 -0.0105,0 -0.0212,-0.002 -0.0301,-0.006 l -0.0534,-0.0282 c -0.006,-0.004 -0.0138,-0.004 -0.0212,-0.004 -0.0163,0 -0.0329,0.008 -0.0393,0.0241 l -0.0459,0.0875 c -0.0119,0.0227 -0.002,0.0506 0.0198,0.0616 z m -5.02144,-2.52321 0.0792,0.004 c 0.0185,6.7e-4 0.035,0.007 0.0478,0.0206 0.0107,0.0131 0.0168,0.0306 0.0154,0.0471 0,0 -0.0247,0.47752 -0.0328,0.72761 -0.007,0.19706 0.0396,0.33803 0.14181,0.42996 0.0961,0.0872 0.24515,0.13272 0.45615,0.14192 0.0247,10e-4 0.0513,0.002 0.0771,0.002 0.25315,0 0.51911,-0.0693 0.5698,-0.57255 l 0.0314,-0.68284 c 10e-4,-0.0358 0.0325,-0.0641 0.0689,-0.0641 l 0.0485,0.002 c 0.0244,0 0.0452,-0.0193 0.0459,-0.0441 l 0.003,-0.0985 c 5.3e-4,-0.0131 -0.003,-0.0237 -0.0126,-0.0327 -0.008,-0.009 -0.0189,-0.0152 -0.031,-0.0158 l -0.51784,-0.0186 c -0.0247,0 -0.0452,0.0193 -0.0466,0.0444 l -0.004,0.0996 c -4.2e-4,0.0244 0.0189,0.0455 0.0437,0.0469 l 0.0807,0.004 c 0.0172,0 0.0338,0.006 0.0459,0.0202 0.0123,0.0117 0.0189,0.0296 0.0172,0.0479 l -0.0303,0.63045 c -0.0448,0.31422 -0.12418,0.40958 -0.33831,0.40958 l -0.0303,-2.9e-4 c -0.23566,-0.0103 -0.34647,-0.13642 -0.33736,-0.38763 0.01,-0.24006 0.0324,-0.67871 0.0324,-0.67871 0.002,-0.0351 0.0327,-0.0636 0.0707,-0.0636 l 0.0481,0.002 c 0.0257,0 0.0441,-0.0193 0.0451,-0.0441 l 0.003,-0.0992 c 0,-0.0131 -0.003,-0.0231 -0.0119,-0.0331 -0.008,-0.008 -0.0192,-0.0135 -0.0309,-0.0142 l -0.54321,-0.02 c -0.0247,0 -0.0459,0.0193 -0.0462,0.0445 l -0.004,0.0981 c -5.3e-4,0.0255 0.0193,0.0466 0.0444,0.0472 m 9.89293,19.05028 c -3.17927,3.90302 -8.05755,5.271 -12.5374,4.23237 -4.39815,-0.99949 -8.15385,-4.71977 -9.13777,-9.18326 -1.18029,-5.07777 0.83096,-10.29987 5.26328,-13.23026 3.97785,-2.6833 9.47967,-2.65024 13.3966,-0.12224 1.81765,1.14752 3.53603,2.93413 4.56723,5.12357 1.96882,4.05444 1.57357,9.42852 -1.55194,13.17982 m 1.86433,-13.32742 c -1.06066,-2.25407 -2.82536,-4.08686 -4.69195,-5.26535 -4.03006,-2.60216 -9.67835,-2.63825 -13.77554,0.12432 -4.55125,3.00824 -6.61954,8.37639 -5.41059,13.59087 1.01355,4.5962 4.8708,8.41638 9.39934,9.44688 4.59352,1.06509 9.60945,-0.33624 12.879,-4.34772 3.21948,-3.86264 3.62119,-9.38072 1.59974,-13.549"
         style="fill:#231f20;fill-opacity:1;fill-rule:nonzero;stroke:none;stroke-width:0.03527778"
         id="path4588" />
      <path
         d="m 59.823948,77.199262 c -0.17254,0.12125 -0.76302,0.52201 -1.10508,0.65733 0.21541,0.14923 0.58498,0.54847 0.62068,1.39139 0.006,0.1276 0.002,0.2661 0.006,0.41177 0.006,0.14442 0.0193,0.29421 0.06,0.44855 0.0711,0.27051 0.22652,0.56113 0.57009,0.85549 -0.21279,-0.57161 -0.0615,-1.0571 0.11352,-1.53652 0.0961,-0.26222 0.20109,-0.52434 0.25965,-0.80589 0.0579,-0.27697 0.0717,-0.56981 -0.0127,-0.89531 -0.0688,-0.26734 -0.3175,-0.52363 -0.51178,-0.52681 m -6.31552,-7.87647 c 0.19417,-0.13543 0.82201,-0.56292 1.16597,-0.70114 -0.21608,-0.14951 -0.58593,-0.54914 -0.62234,-1.39182 -0.006,-0.12841 -2.4e-4,-0.26691 -0.006,-0.41342 -0.005,-0.1433 -0.0187,-0.29379 -0.0597,-0.44813 -0.0704,-0.27051 -0.22641,-0.56127 -0.57108,-0.85686 0.21086,0.57809 0.031,1.08592 -0.15144,1.57924 -0.0495,0.13547 -0.10196,0.27146 -0.14425,0.40788 -0.0448,0.13508 -0.0819,0.27189 -0.10517,0.41247 -0.0441,0.27697 -0.0346,0.56416 0.0919,0.87284 0.0905,0.21954 0.26194,0.43904 0.40195,0.53894 m 7.06935,-1.37872 c 0.10901,-0.0675 0.23082,-0.13406 0.35458,-0.21125 0.12234,-0.0761 0.24528,-0.16287 0.358,-0.2752 0.20009,-0.19844 0.37331,-0.47791 0.45653,-0.92533 -0.39688,0.47085 -0.93486,0.51054 -1.46153,0.59076 -0.14523,0.0227 -0.29065,0.0434 -0.43367,0.0714 -0.14139,0.0272 -0.28003,0.062 -0.4137,0.10986 -0.26705,0.0962 -0.51181,0.24708 -0.71533,0.51054 -0.144,0.18369 -0.22835,0.55054 -0.23304,0.7028 0.21181,0.10157 0.90043,0.43201 1.19394,0.66051 0.0211,-0.26155 0.18165,-0.78066 0.89422,-1.23405 m -8.33645,8.88382 c 0.23001,-0.0948 0.4706,-0.24945 0.54296,-0.3962 -0.13092,-0.18877 -0.56582,-0.82504 -0.70598,-1.17024 -0.14842,0.21527 -0.54723,0.58459 -1.39252,0.62082 -0.12623,0.005 -0.26512,0.001 -0.4105,0.006 -0.14386,0.005 -0.29464,0.0192 -0.44912,0.0599 -0.27227,0.0717 -0.56127,0.22698 -0.85577,0.57217 0.57673,-0.21082 1.08356,-0.0324 1.57844,0.15089 0.13532,0.0506 0.27118,0.10131 0.40693,0.14541 0.13585,0.0434 0.27231,0.0799 0.41271,0.10305 0.277,0.0455 0.56321,0.034 0.87285,-0.0913 m 8.85472,-7.24051 c -0.214,0.0871 -0.41272,0.31972 -0.48726,0.45959 0.13282,0.18976 0.56416,0.82364 0.70443,1.16858 0.14869,-0.2154 0.54832,-0.58497 1.39223,-0.62124 0.12831,-0.004 0.26487,-6.6e-4 0.41163,-0.005 0.14386,-0.005 0.29464,-0.0186 0.44951,-0.0595 0.27163,-0.0714 0.56116,-0.22603 0.85647,-0.57326 -0.58029,0.20944 -1.10162,0.0154 -1.6075,-0.18056 -0.13861,-0.0544 -0.27697,-0.10996 -0.41741,-0.15709 -0.13836,-0.0479 -0.27862,-0.0875 -0.42083,-0.11342 -0.28197,-0.051 -0.5715,-0.0437 -0.88127,0.0824 m -11.46115,3.50767 c 0.0897,0.109 0.17709,0.21787 0.27065,0.32603 0.0936,0.10598 0.18976,0.20768 0.2963,0.30209 0.21,0.18877 0.45762,0.34424 0.78218,0.42718 0.29061,0.0742 0.53191,-0.003 0.72746,-0.10679 -0.0201,-0.23428 -0.077,-0.99455 -0.0259,-1.36222 -0.23661,0.11205 -0.76645,0.23262 -1.51543,-0.15818 -0.11243,-0.0591 -0.23068,-0.13187 -0.35951,-0.2001 -0.12789,-0.0685 -0.26349,-0.13201 -0.41865,-0.17388 -0.27036,-0.0744 -0.59862,-0.0834 -1.02623,0.0664 0.6022,0.10128 0.94368,0.48369 1.26916,0.87947 m 14.10038,0.24391 c -0.0912,-0.11052 -0.18288,-0.22242 -0.27989,-0.3285 -0.0955,-0.10612 -0.1954,-0.20673 -0.30508,-0.2963 -0.21693,-0.17706 -0.47061,-0.31073 -0.8019,-0.3562 -0.23537,-0.0321 -0.50698,0.007 -0.66753,0.0779 0.0194,0.2359 0.0753,0.99314 0.0259,1.36038 0.2359,-0.11328 0.76578,-0.2329 1.51515,0.15847 0.11342,0.0583 0.23096,0.13063 0.36008,0.19981 0.12707,0.0669 0.26321,0.13092 0.4174,0.17406 0.27231,0.0724 0.60082,0.0829 1.02803,-0.0682 -0.6055,-0.10583 -0.955,-0.51551 -1.29219,-0.92135 m -13.08378,-3.70786 c 0.0639,0.47374 0.12552,0.7524 0.17596,0.88427 0.0991,0.26225 0.25287,0.50518 0.51703,0.7101 0.1881,0.14609 0.47103,0.20395 0.63296,0.21732 0.0999,-0.21347 0.43116,-0.89945 0.65842,-1.19229 -0.26155,-0.0207 -0.78052,-0.1826 -1.23334,-0.89461 -0.0689,-0.10763 -0.1341,-0.22877 -0.21209,-0.35415 -0.0765,-0.12238 -0.16302,-0.24571 -0.27521,-0.35761 -0.19787,-0.20024 -0.47801,-0.37455 -0.92382,-0.45614 0.47199,0.3944 0.58703,0.92124 0.66009,1.44311 m 12.10991,7.17927 c -0.0222,-0.14605 -0.0434,-0.29256 -0.0714,-0.43819 -0.0275,-0.14305 -0.0623,-0.28388 -0.11011,-0.41825 -0.0969,-0.2698 -0.24779,-0.51717 -0.511,-0.7221 -0.18298,-0.14302 -0.47335,-0.20186 -0.65288,-0.2002 -0.0991,0.2122 -0.43106,0.90096 -0.66051,1.19376 0.26155,0.0221 0.78148,0.1826 1.2343,0.89507 0.0686,0.10883 0.13423,0.2297 0.21209,0.35483 0.0756,0.12195 0.1626,0.24419 0.27535,0.35856 0.19716,0.19953 0.47762,0.37207 0.9241,0.45614 -0.47103,-0.39825 -0.56018,-0.94463 -0.63998,-1.47962 m -5.50813,-8.58104 c -0.11288,-0.23812 -0.23248,-0.76796 0.15763,-1.51694 0.0593,-0.11328 0.13257,-0.23082 0.20118,-0.35966 0.0679,-0.12774 0.13092,-0.26416 0.17311,-0.4185 0.0735,-0.27051 0.0843,-0.59986 -0.0674,-1.02817 -0.10678,0.6065 -0.5231,0.95814 -0.93486,1.29618 -0.11271,0.0924 -0.2275,0.18425 -0.33581,0.28112 -0.10707,0.0967 -0.20972,0.19693 -0.29986,0.30759 -0.18023,0.21675 -0.31542,0.471 -0.36117,0.80201 -0.0332,0.23703 0.0211,0.53647 0.10086,0.66117 0.22958,-0.0204 0.99741,-0.0776 1.36634,-0.0248 m -1.11417,10.01974 c 0.11232,0.23728 0.23248,0.76715 -0.15762,1.51472 -0.0596,0.11328 -0.1323,0.23153 -0.2019,0.36107 -0.0672,0.12566 -0.12996,0.26388 -0.17212,0.41793 -0.0737,0.27009 -0.0846,0.59973 0.066,1.02694 0.10336,-0.60593 0.54363,-0.94947 0.94051,-1.29191 0.10763,-0.0944 0.21734,-0.187 0.32494,-0.28486 0.10432,-0.0966 0.2056,-0.1965 0.29711,-0.30456 0.18164,-0.21495 0.32618,-0.46439 0.39261,-0.7838 0.0478,-0.2322 -0.0717,-0.50574 -0.22229,-0.66312 -0.21798,0.0182 -0.9095,0.0623 -1.26725,0.008 m 4.2175,-2.16531 c 1.07417,-1.28711 1.26118,-3.4054 0.50161,-4.89299 -0.34808,-0.74734 -1.0342,-1.48045 -1.75147,-1.9155 -1.3808,-0.89545 -3.56556,-0.87989 -4.91631,0.0661 -1.71249,1.13231 -2.46352,3.0981 -1.96755,5.08356 0.33278,1.51201 1.79847,2.96694 3.31266,3.29795 1.83088,0.42414 3.64627,-0.14471 4.82106,-1.63918 m -7.54267,2.44834 c -0.10735,0.069 -0.23001,0.13452 -0.35306,0.21167 -0.12319,0.0772 -0.24613,0.16358 -0.35955,0.27587 -0.19967,0.19706 -0.37331,0.47724 -0.45681,0.92305 0.39549,-0.46994 0.92466,-0.56886 1.44349,-0.65776 0.14221,-0.0244 0.28498,-0.0482 0.42651,-0.0788 0.13892,-0.0301 0.2752,-0.0655 0.40792,-0.11617 0.26345,-0.0985 0.50655,-0.2522 0.70996,-0.51541 0.15032,-0.19318 0.25009,-0.38128 0.2672,-0.61736 -0.21418,-0.10057 -0.8993,-0.43092 -1.19186,-0.65828 -0.02,0.26113 -0.18056,0.78052 -0.8938,1.2332"
         style="fill:#fbc814;fill-opacity:1;fill-rule:nonzero;stroke:none;stroke-width:0.03527778"
         id="path4590" />
    </g>
    <g
       style="stroke-width:0.30678886"
       transform="matrix(3.2595709,0,0,3.2595709,-329.26288,-549.88293)"
       id="g2159">
      <path
         d="m 131.69478,193.28902 c -0.15055,-0.0344 -0.31036,-0.0563 -0.47176,-0.0563 -0.27649,0 -0.52784,0.0481 -0.71331,0.12514 -0.0206,0.0103 -0.0349,0.0317 -0.0349,0.0558 0,0.009 0.002,0.018 0.006,0.0254 0.0217,0.0635 -0.0143,0.13203 -0.19367,0.17198 -0.26618,0.0582 -0.43419,0.33311 -0.53023,0.42386 -0.11298,0.10716 -0.43154,0.17304 -0.38365,0.10875 0.0376,-0.0495 0.18098,-0.20532 0.26803,-0.3736 0.0783,-0.15028 0.1479,-0.19314 0.24341,-0.33681 0.0283,-0.0421 0.13706,-0.18997 0.16881,-0.30692 0.0354,-0.1143 0.0235,-0.2577 0.0373,-0.3167 0.0196,-0.0852 0.0998,-0.26961 0.10584,-0.37439 0.003,-0.0585 -0.24633,0.0847 -0.36486,0.0847 -0.11854,0 -0.23416,-0.0712 -0.33999,-0.0759 -0.13097,-0.006 -0.21537,0.10081 -0.33417,0.0818 -0.0675,-0.0106 -0.12489,-0.0701 -0.24289,-0.0744 -0.16854,-0.006 -0.37465,0.0934 -0.76121,0.0812 -0.38047,-0.0124 -0.73183,-0.48101 -0.77972,-0.55536 -0.0564,-0.087 -0.12515,-0.087 -0.19976,-0.0183 -0.0749,0.068 -0.16749,0.0143 -0.19341,-0.0315 -0.05,-0.0873 -0.18336,-0.34211 -0.39,-0.39582 -0.28575,-0.0741 -0.43048,0.15822 -0.41169,0.34263 0.0191,0.18759 0.14049,0.24025 0.19685,0.33999 0.0558,0.0995 0.0847,0.16405 0.18997,0.20823 0.0751,0.0312 0.10292,0.0773 0.0807,0.13864 -0.0196,0.0534 -0.0974,0.0659 -0.14896,0.0683 -0.10875,0.005 -0.18495,-0.0243 -0.24077,-0.0598 -0.0646,-0.0415 -0.11748,-0.0987 -0.17357,-0.19579 -0.0656,-0.10742 -0.16854,-0.15399 -0.2884,-0.15399 -0.0572,0 -0.11086,0.0151 -0.15822,0.0392 -0.18785,0.0982 -0.41169,0.15584 -0.65246,0.15584 l -0.27199,2.6e-4 c 0.52096,1.54438 1.98226,2.65616 3.70337,2.65616 1.37451,0 2.58339,-0.70909 3.27978,-1.78224"
         style="fill:#ffffff;stroke-width:0.08117121"
         id="path1532" />
      <path
         d="m 131.69478,193.28955 c -0.15055,-0.0349 -0.31036,-0.0566 -0.47176,-0.0566 -0.27649,0 -0.52784,0.0481 -0.71331,0.12515 -0.0206,0.0103 -0.0349,0.0315 -0.0349,0.0558 0,0.009 0.002,0.018 0.006,0.0251 0.0217,0.0638 -0.0143,0.13256 -0.19367,0.17224 -0.26618,0.0585 -0.43419,0.33285 -0.53023,0.4236 -0.11298,0.10742 -0.43154,0.1733 -0.38365,0.10928 0.0376,-0.05 0.18098,-0.20585 0.26803,-0.37413 0.0783,-0.15001 0.1479,-0.19314 0.24341,-0.33655 0.0283,-0.0421 0.13706,-0.19023 0.16881,-0.30691 0.0354,-0.11457 0.0235,-0.25771 0.0373,-0.31671 0.0196,-0.0852 0.0998,-0.26961 0.10584,-0.37412 0.003,-0.059 -0.24633,0.0841 -0.36486,0.0841 -0.11854,0 -0.23416,-0.0709 -0.33999,-0.0757 -0.13097,-0.007 -0.21537,0.1008 -0.33417,0.0817 -0.0675,-0.0106 -0.12489,-0.0701 -0.24289,-0.0746 -0.16854,-0.006 -0.37465,0.0937 -0.76121,0.0812 -0.38047,-0.0124 -0.73183,-0.48049 -0.77972,-0.55483 -0.0564,-0.0876 -0.12515,-0.0876 -0.19976,-0.0188 -0.0749,0.0683 -0.16749,0.0146 -0.19341,-0.0312 -0.05,-0.0876 -0.18336,-0.34237 -0.39,-0.39608 -0.28575,-0.0741 -0.43048,0.15822 -0.41169,0.3429 0.0191,0.18732 0.14049,0.23998 0.19685,0.33972 0.0558,0.0995 0.0847,0.16431 0.18997,0.2085 0.0751,0.031 0.10292,0.0773 0.0807,0.13864 -0.0196,0.0534 -0.0974,0.0659 -0.14896,0.0683 -0.10875,0.005 -0.18495,-0.0243 -0.24077,-0.0603 -0.0646,-0.0408 -0.11748,-0.0982 -0.17357,-0.19553 -0.0656,-0.10716 -0.16854,-0.15399 -0.2884,-0.15399 -0.0572,0 -0.11086,0.0153 -0.15822,0.0392 -0.18785,0.0982 -0.41169,0.1561 -0.65246,0.1561 h -0.27199 c -0.13229,-0.39184 -0.20373,-0.81174 -0.20373,-1.24804 0,-2.15688 1.74916,-3.90498 3.9071,-3.90498 2.15741,0 3.90684,1.7481 3.90684,3.90498 0,0.78264 -0.23045,1.51077 -0.62706,2.12249"
         style="fill:#000000;stroke-width:0.08117121"
         id="path1534" />
      <path
         d="m 129.27527,192.93144 c 0.0201,0.0193 0.0548,0.0852 0.0124,0.16907 -0.0238,0.0444 -0.0495,0.0754 -0.095,0.11192 -0.0553,0.0442 -0.16246,0.095 -0.30957,10e-4 -0.0794,-0.05 -0.0844,-0.0669 -0.19367,-0.0527 -0.078,0.0101 -0.10901,-0.0691 -0.0812,-0.13441 0.0283,-0.0653 0.14341,-0.11826 0.28708,-0.0341 0.0648,0.0378 0.16536,0.11827 0.2532,0.0468 0.0368,-0.0288 0.0587,-0.0484 0.10927,-0.10715 0.002,-0.002 0.006,-0.004 0.009,-0.004 0.003,0 0.006,10e-4 0.008,0.003"
         style="fill:#000000;stroke-width:0.08117121"
         id="path1536" />
      <path
         d="m 128.11076,189.12157 c -0.45112,0.0325 -0.49821,0.0812 -0.58262,0.17092 -0.11906,0.12727 -0.27622,-0.16431 -0.27622,-0.16431 -0.0945,-0.0198 -0.20849,-0.17171 -0.14684,-0.31326 0.0609,-0.14023 0.17303,-0.0984 0.20796,-0.0548 0.0426,0.0532 0.13388,0.14023 0.25241,0.13705 0.11853,-0.003 0.25506,-0.028 0.44582,-0.028 0.19315,0 0.3228,0.072 0.32994,0.13414 0.007,0.0526 -0.0156,0.10239 -0.23045,0.11827 m 0.47413,-0.74533 h -0.002 c -0.007,0 -0.0124,-0.005 -0.0124,-0.0116 0,-0.005 0.003,-0.009 0.007,-0.0109 0.0876,-0.046 0.21801,-0.0831 0.36724,-0.0979 0.0447,-0.005 0.0886,-0.007 0.1307,-0.007 h 0.0225 c 0.25056,0.006 0.45085,0.10531 0.44794,0.22225 -0.003,0.11695 -0.20823,0.20717 -0.45905,0.20188 -0.0807,-0.002 -0.1569,-0.0138 -0.22225,-0.0328 -0.008,-0.002 -0.0135,-0.008 -0.0135,-0.0164 0,-0.008 0.005,-0.0143 0.0138,-0.0164 0.15584,-0.036 0.26141,-0.0952 0.254,-0.15108 -0.01,-0.0738 -0.21404,-0.11404 -0.4564,-0.0897 -0.0267,0.003 -0.0524,0.006 -0.0775,0.0101 m 2.03465,1.7518 c -0.0386,0.12965 -0.0934,0.29554 -0.33788,0.42096 -0.0357,0.0182 -0.0489,-0.0116 -0.0328,-0.0397 0.0926,-0.15716 0.10875,-0.19632 0.13574,-0.25797 0.0373,-0.0907 0.0574,-0.2196 -0.0175,-0.48789 -0.14684,-0.52837 -0.45376,-1.23508 -0.67627,-1.46394 -0.21511,-0.22119 -0.60457,-0.28363 -0.957,-0.19315 -0.12965,0.0331 -0.38338,0.16484 -0.85381,0.059 -0.81412,-0.18336 -0.93477,0.2241 -0.98134,0.40163 -0.0471,0.17754 -0.15928,0.6821 -0.15928,0.6821 -0.0373,0.20584 -0.0862,0.56303 1.17819,0.80407 0.58896,0.11192 0.6186,0.26432 0.64506,0.37359 0.0468,0.19606 0.12144,0.30824 0.20558,0.36433 0.0841,0.0561 0,0.10266 -0.0934,0.11192 -0.25056,0.0262 -1.17793,-0.23971 -1.72667,-0.55113 -0.44874,-0.27411 -0.45614,-0.5207 -0.35349,-0.73025 -0.67786,-0.0733 -1.18665,0.0635 -1.27873,0.38444 -0.15848,0.55034 1.21074,1.49066 2.76993,1.96268 1.63618,0.49504 3.31893,0.14923 3.50599,-0.87868 0.0849,-0.46699 -0.3085,-0.81254 -0.97234,-0.96203"
         style="fill:#e93442;stroke-width:0.08117121"
         id="path1538" />
      <g
         style="stroke-width:0.30678886"
         transform="matrix(0.26458333,0,0,0.26458333,124.42059,187.22054)"
         id="g3880">
        <path
           d="m 29.7137,22.1489 h 0.133 l 0.201,0.33 h 0.13 l -0.218,-0.336 c 0.113,-0.014 0.198,-0.073 0.198,-0.209 0,-0.151 -0.089,-0.217 -0.268,-0.217 h -0.291 v 0.762 h 0.115 z m 0,-0.098 v -0.237 h 0.157 c 0.079,0 0.165,0.019 0.165,0.112 0,0.118 -0.086,0.125 -0.184,0.125 z"
           style="fill:#000000;stroke-width:0.30678886"
           id="path1540" />
        <path
           d="m 30.5965,22.0991 c 0,0.411 -0.334,0.745 -0.746,0.745 -0.412,0 -0.747,-0.334 -0.747,-0.745 0,-0.411 0.335,-0.747 0.747,-0.747 0.412,0 0.746,0.336 0.746,0.747 m -0.746,-0.614 c -0.34,0 -0.615,0.274 -0.615,0.615 0,0.337 0.275,0.611 0.615,0.611 0.338,0 0.613,-0.274 0.613,-0.611 0,-0.341 -0.275,-0.615 -0.613,-0.615"
           style="fill:#000000;stroke-width:0.30678886"
           id="path1542" />
      </g>
    </g>
  </g>
</svg>
