<?xml version="1.0" encoding="utf-8"?>
<svg version="1.1" id="Layer_1" xmlns="http://www.w3.org/2000/svg" xmlns:xlink="http://www.w3.org/1999/xlink" x="0px" y="0px"
	 viewBox="0 0 1666 1689.146" enable-background="new 0 0 1666 1689.146" xml:space="preserve">
<g>
	<rect x="43.962" y="419.898" stroke="#FFFFFF" stroke-width="5" stroke-miterlimit="10" width="608.059" height="253.883"/>
	<path stroke="#FFFFFF" stroke-width="5" stroke-miterlimit="10" d="M668.407,603.545c3.042-57.613,12.237-115.566,6.224-173.225
		c-21.016-51.476-61.923,7.514-50.521,40.338c-4.087,37.627-8.014,96.775-25.747,120.877c1.914-46.625,9.674-93.32,1.091-139.857
		c-6.8-38.552-0.429-86.64-28.641-116.318c-63.341-17.532-17.81,70.58-41.817,221.495c-3.253-82.895,0.386-166.947-15.315-248.726
		c-38.987-41.401-62.792,32.946-55.264,65.969c-6.635,57.503-5.209,115.291-4.995,173.019
		c-28.399-4.098-27.439-66.252-37.019-94.781c-12.114-39.308,7.884-92.927-25.529-122.131c-51.575-7.14-39.737,63.807-42.004,96.895
		c-1.529,54.184,3.296,108.464,18.11,160.716c9.727,41.583,1.895,89.113-32.795,116.725c-19.198-4.728-34.312-16.774-48.404-30.761
		h-94.493c18.257,33.333,40.06,64.399,66.324,92.322c35.482,59.957,104.578,91.175,138.396,152.226v726.244h253.883V918.448
		c-7.114-29.801-14.324-59.854-2.04-89.639C676.047,757.148,668.894,678.752,668.407,603.545z"/>
	<path stroke="#FFFFFF" stroke-width="5" stroke-miterlimit="10" d="M579.703,996.96c-57.613-3.042-115.566-12.237-173.225-6.224
		c-51.476,21.016,7.514,61.923,40.338,50.521c37.627,4.087,96.775,8.014,120.877,25.746c-46.625-1.914-93.32-9.674-139.857-1.091
		c-38.552,6.8-86.64,0.429-116.318,28.641c-17.532,63.342,70.58,17.81,221.495,41.817c-82.895,3.253-166.947-0.386-248.726,15.316
		c-41.401,38.987,32.946,62.792,65.969,55.264c57.503,6.635,115.291,5.209,173.019,4.995c-4.098,28.399-66.252,27.439-94.781,37.019
		c-39.308,12.114-92.927-7.884-122.131,25.529c-7.14,51.575,63.807,39.737,96.895,42.004c54.184,1.529,108.464-3.296,160.716-18.11
		c41.583-9.727,89.113-1.895,116.725,32.795c-4.728,19.198-16.774,34.312-30.761,48.404v94.493
		c33.333-18.257,64.399-40.06,92.322-66.324c59.957-35.482,91.175-104.578,152.226-138.396h726.244v-253.883H894.606
		c-29.801,7.114-59.854,14.324-89.639,2.04C733.306,989.319,654.91,996.472,579.703,996.96z"/>
	<path stroke="#FFFFFF" stroke-width="5" stroke-miterlimit="10" d="M996.232,1085.851c-3.042,57.613-12.237,115.566-6.224,173.225
		c21.016,51.476,61.923-7.514,50.521-40.338c4.087-37.627,8.014-96.775,25.747-120.877c-1.914,46.625-9.674,93.32-1.091,139.857
		c6.8,38.552,0.429,86.64,28.641,116.318c63.342,17.532,17.81-70.58,41.817-221.495c3.253,82.895-0.386,166.947,15.315,248.726
		c38.987,41.401,62.792-32.946,55.264-65.969c6.635-57.503,5.209-115.291,4.995-173.019c28.4,4.098,27.439,66.252,37.019,94.781
		c12.114,39.308-7.884,92.927,25.529,122.131c51.575,7.14,39.737-63.807,42.004-96.895c1.529-54.184-3.296-108.464-18.11-160.716
		c-9.727-41.583-1.895-89.113,32.796-116.725c19.198,4.728,34.312,16.774,48.404,30.761h94.493
		c-18.257-33.333-40.06-64.399-66.324-92.322c-35.482-59.957-104.578-91.175-138.396-152.226V44.823H1014.75v726.125
		c7.114,29.801,14.324,59.854,2.04,89.639C988.592,932.248,995.745,1010.644,996.232,1085.851z"/>
	<path stroke="#FFFFFF" stroke-width="5" stroke-miterlimit="10" d="M1314.437,482.308c-57.503-6.635-115.291-5.209-173.019-4.995
		c4.098-28.4,66.252-27.439,94.781-37.019c39.308-12.114,92.927,7.884,122.131-25.529c7.14-51.575-63.807-39.737-96.895-42.004
		c-54.184-1.529-108.464,3.296-160.717,18.11c-41.583,9.727-89.113,1.895-116.725-32.796c4.728-19.198,16.774-34.312,30.761-48.404
		v-94.493c-33.333,18.257-64.399,40.06-92.322,66.324c-59.957,35.482-91.175,104.578-152.226,138.396H669.15
		c1.932,2.798,3.773,6.24,5.481,10.423c6.013,57.659-3.183,115.612-6.224,173.225c0.15,23.205,0.935,46.714,1.12,70.236h100.56
		c29.801-7.114,59.854-14.324,89.639-2.04c71.661,28.198,150.057,21.046,225.264,20.558c57.613,3.042,115.566,12.237,173.225,6.224
		c51.476-21.016-7.514-61.923-40.338-50.521c-37.627-4.087-96.775-8.014-120.877-25.747c46.625,1.914,93.32,9.674,139.857,1.091
		c38.552-6.8,86.64-0.429,116.318-28.641c17.532-63.341-70.58-17.81-221.495-41.817c82.895-3.253,166.947,0.386,248.726-15.315
		C1421.807,498.585,1347.46,474.78,1314.437,482.308z"/>
</g>
</svg>
