<svg xmlns="http://www.w3.org/2000/svg" width="32" height="32" enable-background="new 0 0 32 32" viewBox="0 0 32 32" id="system-update"><path fill="#263238" d="M27.292,27.899c-0.134,0-0.265-0.054-0.359-0.152l-1.395-1.445c-0.192-0.199-0.187-0.516,0.012-0.707
					c0.2-0.191,0.518-0.187,0.707,0.012l0.781,0.81l1.074-3.996l-4.032,0.934l0.781,0.81c0.192,0.199,0.187,0.516-0.012,0.707
					c-0.199,0.192-0.517,0.187-0.707-0.012l-1.395-1.445c-0.126-0.13-0.171-0.317-0.12-0.489c0.051-0.173,0.191-0.305,0.367-0.346
					l5.704-1.32c0.171-0.04,0.351,0.014,0.472,0.14c0.122,0.127,0.169,0.308,0.123,0.478l-1.52,5.654
					c-0.046,0.174-0.183,0.31-0.357,0.354C27.376,27.895,27.334,27.899,27.292,27.899z"></path><path fill="#263238" d="M16.904 29.974c-.081 0-.162-.001-.243-.002-3.363-.059-6.57-1.353-9.03-3.643-.202-.188-.213-.505-.025-.707.188-.201.505-.214.707-.025 2.279 2.122 5.25 3.321 8.366 3.375 3.247.043 6.357-1.123 8.749-3.324.204-.185.521-.172.707.029.187.203.174.52-.029.707C23.584 28.704 20.324 29.974 16.904 29.974zM6.137 25.035c-.131 0-.259-.052-.354-.146l-4.137-4.143c-.128-.128-.177-.313-.128-.487.048-.174.186-.308.36-.352l1.949-.485c.271-.066.539.096.606.364.066.269-.097.54-.364.606l-1.093.271 2.924 2.928 1.209-3.958-1.094.271c-.272.063-.539-.099-.605-.365-.066-.268.097-.539.365-.605l1.949-.484c.171-.043.36.01.482.142.124.13.169.317.116.489l-1.709 5.6c-.052.168-.188.297-.357.34C6.218 25.03 6.177 25.035 6.137 25.035z"></path><path fill="#263238" d="M3.96 20.263c-.229 0-.436-.158-.488-.391-.765-3.424-.191-6.966 1.615-9.974 1.735-2.887 4.462-5.018 7.679-6.001.267-.08.544.069.625.332.08.265-.068.544-.332.625-2.98.91-5.507 2.885-7.114 5.56-1.674 2.786-2.205 6.067-1.496 9.239.06.27-.109.537-.379.598C4.032 20.259 3.995 20.263 3.96 20.263zM19.053 8.283c-.137 0-.27-.057-.365-.159l-3.995-4.279c-.12-.128-.164-.31-.115-.479.048-.169.182-.3.352-.346l5.656-1.512c.172-.045.36.005.485.133.127.129.174.315.124.488L20.64 4.06c-.076.266-.355.422-.618.343-.266-.076-.419-.354-.343-.618l.311-1.081-3.997 1.068 2.823 3.025.312-1.082c.075-.267.354-.423.618-.343.266.076.419.354.343.618l-.555 1.931c-.05.174-.188.307-.363.349C19.131 8.278 19.092 8.283 19.053 8.283z"></path><path fill="#263238" d="M29.245,19.395c-0.031,0-0.062-0.003-0.093-0.009c-0.271-0.05-0.45-0.312-0.399-0.583
					c0.533-2.865,0.047-5.851-1.37-8.406c-1.576-2.843-4.151-4.943-7.253-5.915c-0.264-0.083-0.41-0.363-0.328-0.627
					c0.083-0.264,0.366-0.41,0.627-0.328c3.348,1.05,6.128,3.317,7.829,6.386c1.528,2.758,2.054,5.98,1.478,9.074
					C29.691,19.227,29.48,19.395,29.245,19.395z"></path><g><path fill="#263238" d="M17.27,23.96h-1.799c-0.235,0-0.438-0.163-0.488-0.393l-0.296-1.353c-0.416-0.121-0.815-0.287-1.194-0.496
			l-1.166,0.747c-0.198,0.126-0.456,0.099-0.623-0.067l-1.271-1.271c-0.166-0.166-0.194-0.425-0.067-0.623l0.746-1.166
			c-0.209-0.381-0.375-0.78-0.495-1.194l-1.352-0.296c-0.229-0.05-0.393-0.253-0.393-0.488v-1.798c0-0.234,0.163-0.438,0.393-0.488
			l1.352-0.297c0.12-0.413,0.286-0.813,0.495-1.193l-0.746-1.166c-0.127-0.197-0.099-0.457,0.067-0.623l1.271-1.272
			c0.167-0.166,0.425-0.193,0.623-0.067l1.167,0.747c0.38-0.208,0.779-0.374,1.193-0.495l0.296-1.352
			c0.05-0.23,0.253-0.394,0.488-0.394h1.799c0.235,0,0.438,0.163,0.488,0.394l0.296,1.352c0.414,0.121,0.813,0.287,1.193,0.495
			l1.168-0.746c0.198-0.128,0.456-0.1,0.623,0.067l1.271,1.271c0.166,0.166,0.194,0.426,0.067,0.623l-0.747,1.166
			c0.209,0.381,0.375,0.78,0.496,1.194l1.353,0.296c0.229,0.05,0.393,0.253,0.393,0.488v1.798c0,0.235-0.164,0.438-0.394,0.488
			l-1.353,0.296c-0.12,0.414-0.286,0.813-0.495,1.194l0.747,1.166c0.127,0.197,0.099,0.456-0.067,0.623L21.038,22.4
			c-0.166,0.167-0.426,0.193-0.623,0.067l-1.168-0.748c-0.379,0.208-0.778,0.374-1.193,0.495l-0.296,1.353
			C17.708,23.797,17.505,23.96,17.27,23.96z M15.873,22.96h0.994l0.275-1.257c0.041-0.188,0.187-0.336,0.374-0.38
			c0.523-0.124,1.021-0.33,1.479-0.614c0.164-0.101,0.37-0.101,0.533,0.004l1.086,0.695l0.702-0.703l-0.695-1.085
			c-0.104-0.162-0.105-0.369-0.004-0.532c0.285-0.462,0.492-0.96,0.613-1.481c0.044-0.188,0.192-0.333,0.381-0.374l1.258-0.275
			v-0.993l-1.257-0.275c-0.188-0.041-0.336-0.187-0.38-0.374c-0.123-0.521-0.33-1.02-0.615-1.481c-0.102-0.163-0.1-0.37,0.004-0.532
			l0.695-1.085l-0.702-0.702l-1.086,0.694c-0.162,0.103-0.37,0.105-0.532,0.005c-0.461-0.285-0.959-0.492-1.48-0.615
			c-0.188-0.044-0.333-0.191-0.374-0.379l-0.275-1.258h-0.994l-0.275,1.258c-0.041,0.188-0.187,0.335-0.374,0.379
			c-0.521,0.123-1.02,0.33-1.48,0.615c-0.163,0.101-0.371,0.098-0.532-0.005l-1.085-0.694l-0.702,0.703l0.694,1.084
			c0.104,0.162,0.105,0.369,0.004,0.532c-0.286,0.463-0.492,0.96-0.613,1.48c-0.044,0.188-0.192,0.333-0.38,0.374l-1.257,0.276
			v0.993l1.257,0.275c0.188,0.041,0.336,0.187,0.38,0.374c0.121,0.521,0.328,1.02,0.613,1.479c0.102,0.164,0.1,0.371-0.004,0.533
			l-0.694,1.085l0.702,0.703l1.085-0.695c0.163-0.104,0.372-0.104,0.533-0.004c0.458,0.284,0.955,0.491,1.479,0.615
			c0.188,0.044,0.333,0.191,0.374,0.38L15.873,22.96z M16.37,19.961c-1.93,0-3.5-1.57-3.5-3.5s1.57-3.5,3.5-3.5s3.5,1.57,3.5,3.5
			c0,0.276-0.224,0.5-0.5,0.5s-0.5-0.224-0.5-0.5c0-1.379-1.121-2.5-2.5-2.5s-2.5,1.121-2.5,2.5s1.121,2.5,2.5,2.5
			c0.276,0,0.5,0.224,0.5,0.5S16.646,19.961,16.37,19.961z"></path><circle cx="18.37" cy="18.461" r=".5" fill="#263238"></circle></g></svg>